<?xml version="1.0" encoding="utf-8" standalone="no"?>
<!DOCTYPE svg PUBLIC "-//W3C//DTD SVG 1.1//EN"
  "http://www.w3.org/Graphics/SVG/1.1/DTD/svg11.dtd">
<svg xmlns:xlink="http://www.w3.org/1999/xlink" width="576pt" height="288pt" viewBox="0 0 576 288" xmlns="http://www.w3.org/2000/svg" version="1.1">
 <metadata>
  <rdf:RDF xmlns:dc="http://purl.org/dc/elements/1.1/" xmlns:cc="http://creativecommons.org/ns#" xmlns:rdf="http://www.w3.org/1999/02/22-rdf-syntax-ns#">
   <cc:Work>
    <dc:type rdf:resource="http://purl.org/dc/dcmitype/StillImage"/>
    <dc:date>2025-04-04T22:07:42.965575</dc:date>
    <dc:format>image/svg+xml</dc:format>
    <dc:creator>
     <cc:Agent>
      <dc:title>Matplotlib v3.7.5, https://matplotlib.org/</dc:title>
     </cc:Agent>
    </dc:creator>
   </cc:Work>
  </rdf:RDF>
 </metadata>
 <defs>
  <style type="text/css">*{stroke-linejoin: round; stroke-linecap: butt}</style>
 </defs>
 <g id="figure_1">
  <g id="patch_1">
   <path d="M 0 288 
L 576 288 
L 576 0 
L 0 0 
z
" style="fill: #ffffff"/>
  </g>
  <g id="axes_1">
   <g id="patch_2">
    <path d="M 46.64 246.04 
L 565.2 246.04 
L 565.2 41.856 
L 46.64 41.856 
z
" style="fill: #ffffff"/>
   </g>
   <g id="matplotlib.axis_1">
    <g id="xtick_1">
     <g id="line2d_1">
      <path d="M 70.209458 246.04 
L 70.209458 41.856 
" clip-path="url(#p39c4e01c1f)" style="fill: none; stroke: #b0b0b0; stroke-width: 0.8; stroke-linecap: square"/>
     </g>
     <g id="line2d_2">
      <defs>
       <path id="m2e2536d5d7" d="M 0 0 
L 0 3.5 
" style="stroke: #000000; stroke-width: 0.8"/>
      </defs>
      <g>
       <use xlink:href="#m2e2536d5d7" x="70.209458" y="246.04" style="stroke: #000000; stroke-width: 0.8"/>
      </g>
     </g>
     <g id="text_1">
      <!-- 0 -->
      <g transform="translate(67.028208 260.638438) scale(0.1 -0.1)">
       <defs>
        <path id="DejaVuSans-30" d="M 2034 4250 
Q 1547 4250 1301 3770 
Q 1056 3291 1056 2328 
Q 1056 1369 1301 889 
Q 1547 409 2034 409 
Q 2525 409 2770 889 
Q 3016 1369 3016 2328 
Q 3016 3291 2770 3770 
Q 2525 4250 2034 4250 
z
M 2034 4750 
Q 2819 4750 3233 4129 
Q 3647 3509 3647 2328 
Q 3647 1150 3233 529 
Q 2819 -91 2034 -91 
Q 1250 -91 836 529 
Q 422 1150 422 2328 
Q 422 3509 836 4129 
Q 1250 4750 2034 4750 
z
" transform="scale(0.015625)"/>
       </defs>
       <use xlink:href="#DejaVuSans-30"/>
      </g>
     </g>
    </g>
    <g id="xtick_2">
     <g id="line2d_3">
      <path d="M 135.431045 246.04 
L 135.431045 41.856 
" clip-path="url(#p39c4e01c1f)" style="fill: none; stroke: #b0b0b0; stroke-width: 0.8; stroke-linecap: square"/>
     </g>
     <g id="line2d_4">
      <g>
       <use xlink:href="#m2e2536d5d7" x="135.431045" y="246.04" style="stroke: #000000; stroke-width: 0.8"/>
      </g>
     </g>
     <g id="text_2">
      <!-- 25 -->
      <g transform="translate(129.068545 260.638438) scale(0.1 -0.1)">
       <defs>
        <path id="DejaVuSans-32" d="M 1228 531 
L 3431 531 
L 3431 0 
L 469 0 
L 469 531 
Q 828 903 1448 1529 
Q 2069 2156 2228 2338 
Q 2531 2678 2651 2914 
Q 2772 3150 2772 3378 
Q 2772 3750 2511 3984 
Q 2250 4219 1831 4219 
Q 1534 4219 1204 4116 
Q 875 4013 500 3803 
L 500 4441 
Q 881 4594 1212 4672 
Q 1544 4750 1819 4750 
Q 2544 4750 2975 4387 
Q 3406 4025 3406 3419 
Q 3406 3131 3298 2873 
Q 3191 2616 2906 2266 
Q 2828 2175 2409 1742 
Q 1991 1309 1228 531 
z
" transform="scale(0.015625)"/>
        <path id="DejaVuSans-35" d="M 691 4666 
L 3169 4666 
L 3169 4134 
L 1269 4134 
L 1269 2991 
Q 1406 3038 1543 3061 
Q 1681 3084 1819 3084 
Q 2600 3084 3056 2656 
Q 3513 2228 3513 1497 
Q 3513 744 3044 326 
Q 2575 -91 1722 -91 
Q 1428 -91 1123 -41 
Q 819 9 494 109 
L 494 744 
Q 775 591 1075 516 
Q 1375 441 1709 441 
Q 2250 441 2565 725 
Q 2881 1009 2881 1497 
Q 2881 1984 2565 2268 
Q 2250 2553 1709 2553 
Q 1456 2553 1204 2497 
Q 953 2441 691 2322 
L 691 4666 
z
" transform="scale(0.015625)"/>
       </defs>
       <use xlink:href="#DejaVuSans-32"/>
       <use xlink:href="#DejaVuSans-35" x="63.623047"/>
      </g>
     </g>
    </g>
    <g id="xtick_3">
     <g id="line2d_5">
      <path d="M 200.652631 246.04 
L 200.652631 41.856 
" clip-path="url(#p39c4e01c1f)" style="fill: none; stroke: #b0b0b0; stroke-width: 0.8; stroke-linecap: square"/>
     </g>
     <g id="line2d_6">
      <g>
       <use xlink:href="#m2e2536d5d7" x="200.652631" y="246.04" style="stroke: #000000; stroke-width: 0.8"/>
      </g>
     </g>
     <g id="text_3">
      <!-- 50 -->
      <g transform="translate(194.290131 260.638438) scale(0.1 -0.1)">
       <use xlink:href="#DejaVuSans-35"/>
       <use xlink:href="#DejaVuSans-30" x="63.623047"/>
      </g>
     </g>
    </g>
    <g id="xtick_4">
     <g id="line2d_7">
      <path d="M 265.874218 246.04 
L 265.874218 41.856 
" clip-path="url(#p39c4e01c1f)" style="fill: none; stroke: #b0b0b0; stroke-width: 0.8; stroke-linecap: square"/>
     </g>
     <g id="line2d_8">
      <g>
       <use xlink:href="#m2e2536d5d7" x="265.874218" y="246.04" style="stroke: #000000; stroke-width: 0.8"/>
      </g>
     </g>
     <g id="text_4">
      <!-- 75 -->
      <g transform="translate(259.511718 260.638438) scale(0.1 -0.1)">
       <defs>
        <path id="DejaVuSans-37" d="M 525 4666 
L 3525 4666 
L 3525 4397 
L 1831 0 
L 1172 0 
L 2766 4134 
L 525 4134 
L 525 4666 
z
" transform="scale(0.015625)"/>
       </defs>
       <use xlink:href="#DejaVuSans-37"/>
       <use xlink:href="#DejaVuSans-35" x="63.623047"/>
      </g>
     </g>
    </g>
    <g id="xtick_5">
     <g id="line2d_9">
      <path d="M 331.095805 246.04 
L 331.095805 41.856 
" clip-path="url(#p39c4e01c1f)" style="fill: none; stroke: #b0b0b0; stroke-width: 0.8; stroke-linecap: square"/>
     </g>
     <g id="line2d_10">
      <g>
       <use xlink:href="#m2e2536d5d7" x="331.095805" y="246.04" style="stroke: #000000; stroke-width: 0.8"/>
      </g>
     </g>
     <g id="text_5">
      <!-- 100 -->
      <g transform="translate(321.552055 260.638438) scale(0.1 -0.1)">
       <defs>
        <path id="DejaVuSans-31" d="M 794 531 
L 1825 531 
L 1825 4091 
L 703 3866 
L 703 4441 
L 1819 4666 
L 2450 4666 
L 2450 531 
L 3481 531 
L 3481 0 
L 794 0 
L 794 531 
z
" transform="scale(0.015625)"/>
       </defs>
       <use xlink:href="#DejaVuSans-31"/>
       <use xlink:href="#DejaVuSans-30" x="63.623047"/>
       <use xlink:href="#DejaVuSans-30" x="127.246094"/>
      </g>
     </g>
    </g>
    <g id="xtick_6">
     <g id="line2d_11">
      <path d="M 396.317392 246.04 
L 396.317392 41.856 
" clip-path="url(#p39c4e01c1f)" style="fill: none; stroke: #b0b0b0; stroke-width: 0.8; stroke-linecap: square"/>
     </g>
     <g id="line2d_12">
      <g>
       <use xlink:href="#m2e2536d5d7" x="396.317392" y="246.04" style="stroke: #000000; stroke-width: 0.8"/>
      </g>
     </g>
     <g id="text_6">
      <!-- 125 -->
      <g transform="translate(386.773642 260.638438) scale(0.1 -0.1)">
       <use xlink:href="#DejaVuSans-31"/>
       <use xlink:href="#DejaVuSans-32" x="63.623047"/>
       <use xlink:href="#DejaVuSans-35" x="127.246094"/>
      </g>
     </g>
    </g>
    <g id="xtick_7">
     <g id="line2d_13">
      <path d="M 461.538978 246.04 
L 461.538978 41.856 
" clip-path="url(#p39c4e01c1f)" style="fill: none; stroke: #b0b0b0; stroke-width: 0.8; stroke-linecap: square"/>
     </g>
     <g id="line2d_14">
      <g>
       <use xlink:href="#m2e2536d5d7" x="461.538978" y="246.04" style="stroke: #000000; stroke-width: 0.8"/>
      </g>
     </g>
     <g id="text_7">
      <!-- 150 -->
      <g transform="translate(451.995228 260.638438) scale(0.1 -0.1)">
       <use xlink:href="#DejaVuSans-31"/>
       <use xlink:href="#DejaVuSans-35" x="63.623047"/>
       <use xlink:href="#DejaVuSans-30" x="127.246094"/>
      </g>
     </g>
    </g>
    <g id="xtick_8">
     <g id="line2d_15">
      <path d="M 526.760565 246.04 
L 526.760565 41.856 
" clip-path="url(#p39c4e01c1f)" style="fill: none; stroke: #b0b0b0; stroke-width: 0.8; stroke-linecap: square"/>
     </g>
     <g id="line2d_16">
      <g>
       <use xlink:href="#m2e2536d5d7" x="526.760565" y="246.04" style="stroke: #000000; stroke-width: 0.8"/>
      </g>
     </g>
     <g id="text_8">
      <!-- 175 -->
      <g transform="translate(517.216815 260.638438) scale(0.1 -0.1)">
       <use xlink:href="#DejaVuSans-31"/>
       <use xlink:href="#DejaVuSans-37" x="63.623047"/>
       <use xlink:href="#DejaVuSans-35" x="127.246094"/>
      </g>
     </g>
    </g>
    <g id="text_9">
     <!-- Time (s) -->
     <g transform="translate(285.591094 274.316562) scale(0.1 -0.1)">
      <defs>
       <path id="DejaVuSans-54" d="M -19 4666 
L 3928 4666 
L 3928 4134 
L 2272 4134 
L 2272 0 
L 1638 0 
L 1638 4134 
L -19 4134 
L -19 4666 
z
" transform="scale(0.015625)"/>
       <path id="DejaVuSans-69" d="M 603 3500 
L 1178 3500 
L 1178 0 
L 603 0 
L 603 3500 
z
M 603 4863 
L 1178 4863 
L 1178 4134 
L 603 4134 
L 603 4863 
z
" transform="scale(0.015625)"/>
       <path id="DejaVuSans-6d" d="M 3328 2828 
Q 3544 3216 3844 3400 
Q 4144 3584 4550 3584 
Q 5097 3584 5394 3201 
Q 5691 2819 5691 2113 
L 5691 0 
L 5113 0 
L 5113 2094 
Q 5113 2597 4934 2840 
Q 4756 3084 4391 3084 
Q 3944 3084 3684 2787 
Q 3425 2491 3425 1978 
L 3425 0 
L 2847 0 
L 2847 2094 
Q 2847 2600 2669 2842 
Q 2491 3084 2119 3084 
Q 1678 3084 1418 2786 
Q 1159 2488 1159 1978 
L 1159 0 
L 581 0 
L 581 3500 
L 1159 3500 
L 1159 2956 
Q 1356 3278 1631 3431 
Q 1906 3584 2284 3584 
Q 2666 3584 2933 3390 
Q 3200 3197 3328 2828 
z
" transform="scale(0.015625)"/>
       <path id="DejaVuSans-65" d="M 3597 1894 
L 3597 1613 
L 953 1613 
Q 991 1019 1311 708 
Q 1631 397 2203 397 
Q 2534 397 2845 478 
Q 3156 559 3463 722 
L 3463 178 
Q 3153 47 2828 -22 
Q 2503 -91 2169 -91 
Q 1331 -91 842 396 
Q 353 884 353 1716 
Q 353 2575 817 3079 
Q 1281 3584 2069 3584 
Q 2775 3584 3186 3129 
Q 3597 2675 3597 1894 
z
M 3022 2063 
Q 3016 2534 2758 2815 
Q 2500 3097 2075 3097 
Q 1594 3097 1305 2825 
Q 1016 2553 972 2059 
L 3022 2063 
z
" transform="scale(0.015625)"/>
       <path id="DejaVuSans-20" transform="scale(0.015625)"/>
       <path id="DejaVuSans-28" d="M 1984 4856 
Q 1566 4138 1362 3434 
Q 1159 2731 1159 2009 
Q 1159 1288 1364 580 
Q 1569 -128 1984 -844 
L 1484 -844 
Q 1016 -109 783 600 
Q 550 1309 550 2009 
Q 550 2706 781 3412 
Q 1013 4119 1484 4856 
L 1984 4856 
z
" transform="scale(0.015625)"/>
       <path id="DejaVuSans-73" d="M 2834 3397 
L 2834 2853 
Q 2591 2978 2328 3040 
Q 2066 3103 1784 3103 
Q 1356 3103 1142 2972 
Q 928 2841 928 2578 
Q 928 2378 1081 2264 
Q 1234 2150 1697 2047 
L 1894 2003 
Q 2506 1872 2764 1633 
Q 3022 1394 3022 966 
Q 3022 478 2636 193 
Q 2250 -91 1575 -91 
Q 1294 -91 989 -36 
Q 684 19 347 128 
L 347 722 
Q 666 556 975 473 
Q 1284 391 1588 391 
Q 1994 391 2212 530 
Q 2431 669 2431 922 
Q 2431 1156 2273 1281 
Q 2116 1406 1581 1522 
L 1381 1569 
Q 847 1681 609 1914 
Q 372 2147 372 2553 
Q 372 3047 722 3315 
Q 1072 3584 1716 3584 
Q 2034 3584 2315 3537 
Q 2597 3491 2834 3397 
z
" transform="scale(0.015625)"/>
       <path id="DejaVuSans-29" d="M 513 4856 
L 1013 4856 
Q 1481 4119 1714 3412 
Q 1947 2706 1947 2009 
Q 1947 1309 1714 600 
Q 1481 -109 1013 -844 
L 513 -844 
Q 928 -128 1133 580 
Q 1338 1288 1338 2009 
Q 1338 2731 1133 3434 
Q 928 4138 513 4856 
z
" transform="scale(0.015625)"/>
      </defs>
      <use xlink:href="#DejaVuSans-54"/>
      <use xlink:href="#DejaVuSans-69" x="57.958984"/>
      <use xlink:href="#DejaVuSans-6d" x="85.742188"/>
      <use xlink:href="#DejaVuSans-65" x="183.154297"/>
      <use xlink:href="#DejaVuSans-20" x="244.677734"/>
      <use xlink:href="#DejaVuSans-28" x="276.464844"/>
      <use xlink:href="#DejaVuSans-73" x="315.478516"/>
      <use xlink:href="#DejaVuSans-29" x="367.578125"/>
     </g>
    </g>
   </g>
   <g id="matplotlib.axis_2">
    <g id="ytick_1">
     <g id="line2d_17">
      <path d="M 46.64 219.913513 
L 565.2 219.913513 
" clip-path="url(#p39c4e01c1f)" style="fill: none; stroke: #b0b0b0; stroke-width: 0.8; stroke-linecap: square"/>
     </g>
     <g id="line2d_18">
      <defs>
       <path id="mb9ac0b6c4a" d="M 0 0 
L -3.5 0 
" style="stroke: #000000; stroke-width: 0.8"/>
      </defs>
      <g>
       <use xlink:href="#mb9ac0b6c4a" x="46.64" y="219.913513" style="stroke: #000000; stroke-width: 0.8"/>
      </g>
     </g>
     <g id="text_10">
      <!-- −2 -->
      <g transform="translate(24.897813 223.712732) scale(0.1 -0.1)">
       <defs>
        <path id="DejaVuSans-2212" d="M 678 2272 
L 4684 2272 
L 4684 1741 
L 678 1741 
L 678 2272 
z
" transform="scale(0.015625)"/>
       </defs>
       <use xlink:href="#DejaVuSans-2212"/>
       <use xlink:href="#DejaVuSans-32" x="83.789062"/>
      </g>
     </g>
    </g>
    <g id="ytick_2">
     <g id="line2d_19">
      <path d="M 46.64 186.642807 
L 565.2 186.642807 
" clip-path="url(#p39c4e01c1f)" style="fill: none; stroke: #b0b0b0; stroke-width: 0.8; stroke-linecap: square"/>
     </g>
     <g id="line2d_20">
      <g>
       <use xlink:href="#mb9ac0b6c4a" x="46.64" y="186.642807" style="stroke: #000000; stroke-width: 0.8"/>
      </g>
     </g>
     <g id="text_11">
      <!-- −1 -->
      <g transform="translate(24.897813 190.442026) scale(0.1 -0.1)">
       <use xlink:href="#DejaVuSans-2212"/>
       <use xlink:href="#DejaVuSans-31" x="83.789062"/>
      </g>
     </g>
    </g>
    <g id="ytick_3">
     <g id="line2d_21">
      <path d="M 46.64 153.372101 
L 565.2 153.372101 
" clip-path="url(#p39c4e01c1f)" style="fill: none; stroke: #b0b0b0; stroke-width: 0.8; stroke-linecap: square"/>
     </g>
     <g id="line2d_22">
      <g>
       <use xlink:href="#mb9ac0b6c4a" x="46.64" y="153.372101" style="stroke: #000000; stroke-width: 0.8"/>
      </g>
     </g>
     <g id="text_12">
      <!-- 0 -->
      <g transform="translate(33.2775 157.17132) scale(0.1 -0.1)">
       <use xlink:href="#DejaVuSans-30"/>
      </g>
     </g>
    </g>
    <g id="ytick_4">
     <g id="line2d_23">
      <path d="M 46.64 120.101395 
L 565.2 120.101395 
" clip-path="url(#p39c4e01c1f)" style="fill: none; stroke: #b0b0b0; stroke-width: 0.8; stroke-linecap: square"/>
     </g>
     <g id="line2d_24">
      <g>
       <use xlink:href="#mb9ac0b6c4a" x="46.64" y="120.101395" style="stroke: #000000; stroke-width: 0.8"/>
      </g>
     </g>
     <g id="text_13">
      <!-- 1 -->
      <g transform="translate(33.2775 123.900614) scale(0.1 -0.1)">
       <use xlink:href="#DejaVuSans-31"/>
      </g>
     </g>
    </g>
    <g id="ytick_5">
     <g id="line2d_25">
      <path d="M 46.64 86.830689 
L 565.2 86.830689 
" clip-path="url(#p39c4e01c1f)" style="fill: none; stroke: #b0b0b0; stroke-width: 0.8; stroke-linecap: square"/>
     </g>
     <g id="line2d_26">
      <g>
       <use xlink:href="#mb9ac0b6c4a" x="46.64" y="86.830689" style="stroke: #000000; stroke-width: 0.8"/>
      </g>
     </g>
     <g id="text_14">
      <!-- 2 -->
      <g transform="translate(33.2775 90.629908) scale(0.1 -0.1)">
       <use xlink:href="#DejaVuSans-32"/>
      </g>
     </g>
    </g>
    <g id="ytick_6">
     <g id="line2d_27">
      <path d="M 46.64 53.559983 
L 565.2 53.559983 
" clip-path="url(#p39c4e01c1f)" style="fill: none; stroke: #b0b0b0; stroke-width: 0.8; stroke-linecap: square"/>
     </g>
     <g id="line2d_28">
      <g>
       <use xlink:href="#mb9ac0b6c4a" x="46.64" y="53.559983" style="stroke: #000000; stroke-width: 0.8"/>
      </g>
     </g>
     <g id="text_15">
      <!-- 3 -->
      <g transform="translate(33.2775 57.359202) scale(0.1 -0.1)">
       <defs>
        <path id="DejaVuSans-33" d="M 2597 2516 
Q 3050 2419 3304 2112 
Q 3559 1806 3559 1356 
Q 3559 666 3084 287 
Q 2609 -91 1734 -91 
Q 1441 -91 1130 -33 
Q 819 25 488 141 
L 488 750 
Q 750 597 1062 519 
Q 1375 441 1716 441 
Q 2309 441 2620 675 
Q 2931 909 2931 1356 
Q 2931 1769 2642 2001 
Q 2353 2234 1838 2234 
L 1294 2234 
L 1294 2753 
L 1863 2753 
Q 2328 2753 2575 2939 
Q 2822 3125 2822 3475 
Q 2822 3834 2567 4026 
Q 2313 4219 1838 4219 
Q 1578 4219 1281 4162 
Q 984 4106 628 3988 
L 628 4550 
Q 988 4650 1302 4700 
Q 1616 4750 1894 4750 
Q 2613 4750 3031 4423 
Q 3450 4097 3450 3541 
Q 3450 3153 3228 2886 
Q 3006 2619 2597 2516 
z
" transform="scale(0.015625)"/>
       </defs>
       <use xlink:href="#DejaVuSans-33"/>
      </g>
     </g>
    </g>
    <g id="text_16">
     <!-- Error -->
     <g transform="translate(18.818125 156.133156) rotate(-90) scale(0.1 -0.1)">
      <defs>
       <path id="DejaVuSans-45" d="M 628 4666 
L 3578 4666 
L 3578 4134 
L 1259 4134 
L 1259 2753 
L 3481 2753 
L 3481 2222 
L 1259 2222 
L 1259 531 
L 3634 531 
L 3634 0 
L 628 0 
L 628 4666 
z
" transform="scale(0.015625)"/>
       <path id="DejaVuSans-72" d="M 2631 2963 
Q 2534 3019 2420 3045 
Q 2306 3072 2169 3072 
Q 1681 3072 1420 2755 
Q 1159 2438 1159 1844 
L 1159 0 
L 581 0 
L 581 3500 
L 1159 3500 
L 1159 2956 
Q 1341 3275 1631 3429 
Q 1922 3584 2338 3584 
Q 2397 3584 2469 3576 
Q 2541 3569 2628 3553 
L 2631 2963 
z
" transform="scale(0.015625)"/>
       <path id="DejaVuSans-6f" d="M 1959 3097 
Q 1497 3097 1228 2736 
Q 959 2375 959 1747 
Q 959 1119 1226 758 
Q 1494 397 1959 397 
Q 2419 397 2687 759 
Q 2956 1122 2956 1747 
Q 2956 2369 2687 2733 
Q 2419 3097 1959 3097 
z
M 1959 3584 
Q 2709 3584 3137 3096 
Q 3566 2609 3566 1747 
Q 3566 888 3137 398 
Q 2709 -91 1959 -91 
Q 1206 -91 779 398 
Q 353 888 353 1747 
Q 353 2609 779 3096 
Q 1206 3584 1959 3584 
z
" transform="scale(0.015625)"/>
      </defs>
      <use xlink:href="#DejaVuSans-45"/>
      <use xlink:href="#DejaVuSans-72" x="63.183594"/>
      <use xlink:href="#DejaVuSans-72" x="102.546875"/>
      <use xlink:href="#DejaVuSans-6f" x="141.410156"/>
      <use xlink:href="#DejaVuSans-72" x="202.591797"/>
     </g>
    </g>
   </g>
   <g id="line2d_29">
    <path d="M 70.210909 105.69232 
L 70.472145 103.093711 
L 70.992455 103.093711 
L 71.251008 102.293282 
L 71.512156 100.339429 
L 72.033897 85.173955 
L 72.295408 83.364444 
L 72.559686 83.364444 
L 72.819123 82.369162 
L 73.081806 82.302955 
L 73.339102 84.822424 
L 73.600201 84.607632 
L 73.861883 84.607632 
L 74.125275 90.85979 
L 74.643362 90.85979 
L 74.90449 91.092381 
L 75.165613 89.297346 
L 75.686464 90.242242 
L 75.946628 90.242242 
L 76.210703 94.754103 
L 76.468445 94.754103 
L 76.730393 102.097618 
L 76.990619 102.097618 
L 77.256861 106.891937 
L 77.776638 124.999376 
L 78.039746 124.999376 
L 78.824941 133.6985 
L 79.077057 134.619053 
L 79.338465 143.114274 
L 79.599796 143.114274 
L 79.865341 146.218583 
L 80.121147 146.218583 
L 80.382012 146.950603 
L 80.650968 148.956463 
L 80.905018 149.555204 
L 81.426444 149.555204 
L 81.687765 147.865855 
L 82.035485 147.865855 
L 82.209828 146.730275 
L 82.472681 146.730275 
L 82.73169 143.54112 
L 82.990876 143.278583 
L 83.254963 141.48848 
L 83.512234 141.48848 
L 83.779029 140.461065 
L 84.034287 135.336378 
L 84.297086 135.336378 
L 84.822283 131.294489 
L 85.078242 131.294489 
L 85.600186 116.468509 
L 85.864099 113.081106 
L 86.123405 113.081106 
L 86.382173 115.931323 
L 86.646394 115.931323 
L 86.903666 114.452928 
L 87.166907 114.452928 
L 87.686557 116.124934 
L 87.948648 116.124934 
L 88.212323 116.855472 
L 88.469066 120.839089 
L 88.738072 120.442285 
L 88.99183 123.25393 
L 89.251429 123.25393 
L 89.776782 125.420662 
L 90.295266 128.154533 
L 90.558203 128.154533 
L 90.821504 128.941737 
L 91.079333 134.971287 
L 91.339946 134.971287 
L 91.600121 135.902847 
L 91.86317 136.291508 
L 92.123798 136.902823 
L 92.38536 139.038506 
L 92.643436 139.038506 
L 92.906112 141.048909 
L 93.691366 152.04306 
L 93.947301 152.04306 
L 94.209701 154.91956 
L 94.473924 156.467545 
L 94.730576 160.688117 
L 94.992793 162.921035 
L 95.261654 163.621531 
L 95.516754 166.892437 
L 95.776661 166.892437 
L 96.034711 170.664772 
L 96.29766 170.664772 
L 96.556927 184.532618 
L 96.819183 184.532618 
L 97.339415 193.22585 
L 97.602681 192.603377 
L 97.862259 193.354608 
L 98.643274 192.793877 
L 98.909597 190.44019 
L 99.166527 190.576815 
L 99.6931 190.566865 
L 99.954482 187.305546 
L 100.211095 187.305546 
L 100.730966 183.80634 
L 101.254445 178.703752 
L 101.513217 178.703752 
L 101.775909 175.083112 
L 102.036063 175.083112 
L 102.301186 166.538535 
L 102.557748 163.854483 
L 102.820265 163.854483 
L 103.081735 161.206232 
L 103.604848 144.399013 
L 103.86469 144.399013 
L 104.122589 143.491747 
L 104.382969 140.42579 
L 104.651462 140.42579 
L 104.911154 137.956009 
L 105.454089 137.956009 
L 105.691101 137.33965 
L 105.949082 133.02417 
L 106.212348 133.570028 
L 106.470825 134.495821 
L 106.732133 136.695434 
L 106.991716 137.214883 
L 107.514456 137.207623 
L 107.774949 138.035345 
L 108.04261 138.035345 
L 108.298546 137.89169 
L 108.5626 143.371864 
L 109.07997 143.447163 
L 109.342024 143.788242 
L 109.601501 143.788242 
L 109.861769 144.373963 
L 110.125096 144.311843 
L 110.390519 144.372256 
L 110.647033 146.539165 
L 110.911573 147.695036 
L 111.168069 147.199644 
L 111.689035 153.053643 
L 111.955551 153.053643 
L 112.216713 155.368935 
L 112.475214 155.101569 
L 112.734495 154.527784 
L 113.257725 154.527784 
L 113.514979 153.814941 
L 113.776414 153.814941 
L 114.036952 153.384535 
L 114.818911 153.340788 
L 115.081239 153.507606 
L 115.342624 154.014549 
L 115.60438 153.763377 
L 115.867346 154.27468 
L 116.123648 154.007678 
L 116.384964 154.007678 
L 116.649105 155.632958 
L 116.913901 156.395417 
L 117.16853 153.987966 
L 117.428317 154.170066 
L 117.692884 154.170066 
L 117.951316 153.276835 
L 118.211069 153.079903 
L 118.732613 155.698615 
L 118.993772 158.999112 
L 119.257489 159.816501 
L 119.517292 159.816501 
L 119.775291 160.247775 
L 120.300605 166.313658 
L 120.562623 171.392876 
L 120.818728 173.95649 
L 121.082261 173.95649 
L 121.34174 176.211571 
L 121.60727 177.500813 
L 122.384873 185.722574 
L 122.652629 185.722574 
L 122.906563 186.350899 
L 123.167814 186.350899 
L 123.689699 188.5963 
L 123.950804 188.5963 
L 124.210262 188.390797 
L 124.474583 188.390797 
L 124.733315 188.670339 
L 124.9946 187.523536 
L 125.255395 187.523536 
L 125.776303 183.831469 
L 126.037932 178.734459 
L 126.298432 178.734459 
L 126.562237 172.196578 
L 126.825939 169.031544 
L 127.083196 169.031544 
L 127.88634 158.641131 
L 128.125321 151.908237 
L 128.388834 151.908237 
L 128.645784 147.085355 
L 128.914686 144.99161 
L 129.167761 140.192714 
L 129.433895 137.590787 
L 129.691926 133.347409 
L 129.952335 133.347409 
L 130.212992 131.555826 
L 130.471855 128.041521 
L 130.73319 127.468037 
L 130.999747 127.468037 
L 131.255303 126.382738 
L 131.517165 120.904462 
L 131.77832 120.904462 
L 132.039827 118.382505 
L 132.30194 113.909063 
L 132.559233 113.909063 
L 132.82132 112.917125 
L 133.082338 106.211174 
L 133.604297 112.428731 
L 133.870901 112.428731 
L 134.125349 113.538224 
L 134.384882 113.538224 
L 134.91154 116.839075 
L 135.169867 116.839075 
L 135.691231 125.411697 
L 135.972547 125.411697 
L 136.216434 128.810196 
L 136.474085 128.810196 
L 136.733238 130.103332 
L 136.996886 130.103332 
L 137.258341 131.557565 
L 137.515529 139.044794 
L 137.776792 139.670348 
L 138.037844 142.730342 
L 138.298192 142.730342 
L 138.560027 152.174346 
L 139.081764 152.174346 
L 139.864547 167.904818 
L 140.125862 167.904818 
L 140.387016 169.460132 
L 140.647597 169.460132 
L 140.907432 170.942175 
L 141.168057 170.942175 
L 141.430632 172.30788 
L 141.698143 172.30788 
L 141.954572 173.094557 
L 142.212788 172.854033 
L 142.472314 172.132835 
L 142.733425 171.857272 
L 142.99935 172.268488 
L 143.255112 169.180908 
L 143.777915 164.905866 
L 144.039014 164.662733 
L 144.299469 163.29093 
L 144.560319 163.29093 
L 144.821811 161.334753 
L 145.082184 161.145185 
L 145.343494 158.489968 
L 145.607387 158.005584 
L 145.864995 158.005584 
L 146.131313 159.074981 
L 146.386555 158.687864 
L 146.910735 158.687864 
L 147.169486 156.064314 
L 147.432828 156.064314 
L 147.954244 154.529833 
L 148.214949 153.272601 
L 148.478096 147.31521 
L 148.73384 147.31521 
L 149.261436 144.018731 
L 149.785032 141.681829 
L 150.040123 141.915356 
L 150.561204 140.774003 
L 150.828037 140.774003 
L 151.088079 139.871937 
L 151.346794 139.384947 
L 151.603517 138.518534 
L 151.867627 136.916787 
L 152.131568 136.916787 
L 152.386409 134.969388 
L 152.648957 134.969388 
L 152.909383 134.524353 
L 153.429807 132.596668 
L 153.693126 131.804794 
L 153.953744 132.009188 
L 154.473814 132.093184 
L 154.739328 132.403833 
L 154.998597 132.403833 
L 155.777769 137.809531 
L 156.040774 137.809531 
L 156.561182 139.18677 
L 157.083237 139.105975 
L 157.609058 140.571237 
L 158.12694 140.571237 
L 158.391939 142.659252 
L 159.431134 142.69103 
L 159.691192 144.854445 
L 159.954042 148.740576 
L 160.214486 150.007378 
L 160.477317 150.007378 
L 160.735238 150.830951 
L 161.262406 155.800204 
L 161.521583 155.800204 
L 161.780695 159.148215 
L 162.317312 159.148215 
L 162.561654 162.522461 
L 162.829692 163.113855 
L 163.08438 164.838328 
L 163.604271 164.793413 
L 164.12836 165.867853 
L 164.39068 167.52787 
L 164.647914 167.52787 
L 164.909343 167.359327 
L 165.17323 168.239455 
L 165.436871 168.239455 
L 165.698467 168.689582 
L 165.952437 170.043279 
L 166.219221 168.200906 
L 166.473791 170.143614 
L 166.737064 170.143614 
L 166.997651 169.326706 
L 167.257676 171.093597 
L 167.523423 170.625662 
L 167.78197 171.031985 
L 168.30819 171.031985 
L 168.571082 171.351148 
L 168.827367 173.764273 
L 169.085387 174.674867 
L 169.87083 174.585759 
L 170.387885 177.313151 
L 170.648698 177.313151 
L 170.914477 177.671921 
L 171.176828 178.76536 
L 171.430716 178.946182 
L 171.69693 178.946182 
L 171.953749 179.731049 
L 172.219725 178.818798 
L 172.480871 178.818798 
L 172.735317 178.681509 
L 172.996762 176.491103 
L 173.25802 175.624735 
L 173.779282 171.396488 
L 174.302328 171.396488 
L 174.564257 169.395933 
L 175.345172 158.67344 
L 175.60677 158.67344 
L 176.127179 153.114457 
L 176.388954 153.114457 
L 176.909573 149.024229 
L 177.432262 145.352838 
L 177.693275 145.352838 
L 177.953787 143.658276 
L 178.214992 143.355715 
L 178.475441 137.950127 
L 178.735893 137.950127 
L 179.51949 131.728407 
L 179.782058 131.728407 
L 180.305326 125.616196 
L 180.562035 123.812835 
L 180.824132 123.812835 
L 181.344841 121.632314 
L 181.607963 119.668168 
L 181.868026 119.668168 
L 182.127367 118.677403 
L 182.389107 116.252089 
L 182.649798 117.788903 
L 182.911921 117.788903 
L 183.170718 120.409026 
L 183.434671 120.409026 
L 183.697052 123.261508 
L 183.956918 123.261508 
L 184.218276 125.109857 
L 184.999005 125.109857 
L 185.264429 126.57714 
L 185.524772 126.57714 
L 185.783854 128.4894 
L 186.042843 129.536406 
L 186.572323 133.809737 
L 186.823274 133.809737 
L 187.086615 136.673106 
L 187.349128 147.280272 
L 188.12794 159.55482 
L 188.388728 159.55482 
L 188.672114 163.375922 
L 188.911841 171.409239 
L 189.17213 171.409239 
L 189.43431 177.770778 
L 189.957873 177.770778 
L 190.221905 179.683212 
L 190.478567 182.778235 
L 190.741278 184.199775 
L 191.00319 188.255624 
L 191.265045 188.255624 
L 191.521284 189.931807 
L 191.779653 192.497547 
L 192.041363 192.497547 
L 192.30421 192.922849 
L 192.565319 193.575139 
L 193.606851 193.56252 
L 193.874774 192.034998 
L 194.135401 192.034998 
L 194.918552 186.898585 
L 195.179534 183.9635 
L 195.434027 183.067112 
L 195.695103 179.26659 
L 195.956588 179.26659 
L 196.738979 173.807997 
L 197.002115 173.807997 
L 197.264313 170.226771 
L 197.521961 169.488966 
L 197.781836 169.488966 
L 198.044626 164.888198 
L 198.310371 164.888198 
L 198.563207 162.834493 
L 199.087754 162.877778 
L 199.349618 161.578687 
L 199.607832 161.588322 
L 200.130722 157.182257 
L 200.660015 157.182257 
L 200.914788 159.438082 
L 201.440567 159.438082 
L 201.961881 156.847693 
L 202.218062 156.436259 
L 202.478775 155.468795 
L 203.000734 155.375657 
L 203.259128 154.575352 
L 203.520752 154.575352 
L 203.782421 152.871856 
L 204.043892 148.112764 
L 204.302085 147.869972 
L 204.566906 145.820837 
L 204.825594 145.820837 
L 205.086852 146.806927 
L 205.608096 144.338959 
L 205.869175 143.958867 
L 206.133565 146.181684 
L 206.651606 146.07605 
L 206.918303 148.366524 
L 207.69556 156.781646 
L 207.960249 157.287382 
L 208.216672 157.287382 
L 208.743448 159.202828 
L 209.259732 164.602249 
L 209.522461 164.602249 
L 210.046761 166.964811 
L 210.305659 169.385273 
L 210.572365 170.399511 
L 210.826631 170.623832 
L 211.086727 171.190484 
L 211.349572 172.330887 
L 211.608464 172.20432 
L 211.874307 171.731578 
L 212.136331 173.13966 
L 212.391642 171.901784 
L 212.652329 171.901784 
L 212.911769 171.279647 
L 213.176217 171.279647 
L 213.700431 166.334287 
L 213.95941 165.343125 
L 214.217032 165.343125 
L 214.999271 154.253407 
L 215.260772 153.473544 
L 215.521981 151.83379 
L 215.782769 151.83379 
L 216.56663 147.45192 
L 216.825069 144.044282 
L 217.351776 144.044282 
L 217.611515 143.358073 
L 217.869963 143.358073 
L 218.135547 140.699508 
L 218.392152 139.990025 
L 218.656199 139.718817 
L 218.912765 139.718817 
L 219.176074 138.91458 
L 219.434287 138.524716 
L 219.699018 138.524716 
L 219.955888 137.416965 
L 220.481495 137.416965 
L 220.738546 138.966902 
L 221.000183 138.966902 
L 221.26483 138.203401 
L 221.527472 139.146015 
L 221.783805 139.146015 
L 222.046088 139.811017 
L 222.304702 142.066874 
L 222.568609 142.066874 
L 222.82534 143.707612 
L 223.092983 143.707612 
L 223.347429 145.169669 
L 223.610449 145.640032 
L 223.876623 145.102933 
L 224.391153 145.102933 
L 224.656486 151.962455 
L 224.915004 154.744272 
L 225.435101 154.744272 
L 225.956371 161.234973 
L 226.217219 161.234973 
L 226.483029 167.250354 
L 226.739158 169.126985 
L 226.999964 169.126985 
L 227.526378 172.817693 
L 227.78521 173.370581 
L 228.305639 173.370581 
L 228.568393 175.038054 
L 228.832234 175.038054 
L 229.090267 175.241166 
L 229.36512 174.930486 
L 229.870401 173.664785 
L 230.139849 173.13969 
L 230.391318 173.13969 
L 230.652345 171.927891 
L 231.22067 171.927891 
L 231.43871 170.078193 
L 231.696408 170.078193 
L 231.956768 168.334104 
L 232.222188 168.334104 
L 232.479311 169.087144 
L 232.778978 166.963338 
L 233.001198 164.537759 
L 233.266758 163.818292 
L 233.522849 162.178751 
L 233.786448 159.545574 
L 234.045114 159.545574 
L 234.569528 155.47986 
L 235.089277 146.580601 
L 235.349761 146.580601 
L 235.611381 141.194338 
L 235.870624 140.432149 
L 236.130561 138.529115 
L 236.391997 137.881884 
L 236.655566 134.957172 
L 236.914192 134.957172 
L 237.17525 130.847323 
L 237.713893 130.847323 
L 237.956933 130.466362 
L 238.218605 130.466362 
L 238.480114 129.744518 
L 238.740959 129.744518 
L 239.000832 125.956802 
L 239.262315 126.994102 
L 239.523564 126.994102 
L 240.047175 128.736499 
L 240.57059 127.827135 
L 240.827539 127.827135 
L 241.3486 131.429948 
L 241.616111 131.429948 
L 241.877802 140.681327 
L 242.137019 142.490687 
L 242.398644 145.390781 
L 242.915813 152.843836 
L 243.178337 154.845411 
L 243.95888 164.827656 
L 244.228494 164.827656 
L 244.484753 167.465625 
L 245.000245 178.521132 
L 245.78959 184.324023 
L 246.046444 185.32842 
L 246.306992 187.021647 
L 246.59715 191.300854 
L 246.827407 191.683992 
L 247.090973 191.683992 
L 247.350251 192.740661 
L 247.872784 192.740661 
L 248.393605 191.64459 
L 248.653975 193.366006 
L 248.916008 190.355771 
L 249.177317 190.355771 
L 249.436624 186.768463 
L 249.69861 188.45158 
L 249.95772 183.157826 
L 250.740157 176.777553 
L 251.002164 169.406266 
L 251.26283 167.196984 
L 251.522908 163.485557 
L 251.788615 155.331455 
L 252.305866 147.71113 
L 252.56781 147.71113 
L 253.089668 142.287401 
L 253.350996 133.27393 
L 253.610153 134.123281 
L 253.872624 129.742525 
L 254.1317 129.742525 
L 254.654201 125.202123 
L 254.915098 124.200301 
L 255.176016 119.416403 
L 255.443534 117.204819 
L 255.703881 116.324897 
L 255.958978 116.324897 
L 256.22373 118.560908 
L 256.480718 119.578174 
L 256.747285 119.578174 
L 257.002322 127.630178 
L 257.263321 130.105787 
L 257.524283 130.105787 
L 257.790222 134.252075 
L 258.050479 136.011418 
L 258.567499 136.011418 
L 258.832416 140.857001 
L 259.362847 146.737768 
L 259.6117 144.462876 
L 259.87319 143.433139 
L 260.134093 143.433139 
L 260.396008 146.597751 
L 260.654397 146.877665 
L 260.914825 147.622245 
L 261.181426 147.980082 
L 261.437884 147.263372 
L 261.702309 147.890452 
L 261.959378 147.890452 
L 262.219658 148.912335 
L 262.480302 152.824678 
L 262.743482 152.824678 
L 263.524163 162.333943 
L 264.312009 160.105841 
L 264.828931 160.810588 
L 265.095681 160.146178 
L 265.350749 158.575393 
L 265.611176 157.99536 
L 265.8751 157.99536 
L 266.134043 157.424046 
L 266.393645 157.817011 
L 266.655063 157.817011 
L 266.916326 155.627128 
L 267.179305 152.108993 
L 267.43962 152.317083 
L 267.701691 152.317083 
L 267.96591 151.553177 
L 268.492005 148.719762 
L 268.741719 148.679762 
L 269.002707 147.538525 
L 269.264541 147.538525 
L 269.524704 147.167014 
L 269.788245 148.331147 
L 270.054708 147.480773 
L 270.307008 149.372176 
L 270.569014 152.427755 
L 270.833488 153.510194 
L 271.089352 153.510194 
L 271.356931 158.0342 
L 271.875897 158.763998 
L 272.140039 158.763998 
L 272.398018 158.88239 
L 272.656416 161.505709 
L 273.178064 161.39648 
L 273.447047 161.745913 
L 273.703274 163.130379 
L 273.959693 162.888466 
L 274.224557 165.138474 
L 274.483322 165.138474 
L 274.747581 165.928084 
L 275.006275 164.522488 
L 275.281891 163.718897 
L 275.526868 162.125665 
L 275.787747 161.777163 
L 276.050992 161.777163 
L 276.308108 161.382911 
L 276.575395 160.300177 
L 276.829302 157.94861 
L 277.090729 152.090508 
L 277.351508 151.665467 
L 277.612875 151.665467 
L 277.875566 148.636499 
L 278.133788 148.076027 
L 278.401752 148.076027 
L 278.916436 144.739586 
L 279.182977 144.903922 
L 279.440555 144.903922 
L 279.700488 144.039655 
L 279.96251 142.607221 
L 280.222299 142.607221 
L 280.483091 138.501833 
L 280.743144 138.674063 
L 281.008232 138.538179 
L 281.26465 138.096575 
L 281.786021 138.091856 
L 282.050395 136.466121 
L 282.313173 135.607428 
L 282.571318 136.58035 
L 282.829656 135.975057 
L 283.091749 136.219682 
L 283.354194 136.219682 
L 283.616227 137.011038 
L 283.873362 138.355526 
L 284.134688 140.506169 
L 284.395124 141.240278 
L 284.656152 141.240278 
L 284.923443 141.64436 
L 285.701712 145.426268 
L 285.964845 148.052601 
L 286.221457 148.052601 
L 286.481438 150.668957 
L 286.74349 150.668957 
L 287.008338 152.098459 
L 287.266015 152.098459 
L 287.790495 155.867577 
L 288.051309 155.991884 
L 288.308259 157.567049 
L 288.576126 155.694387 
L 288.833501 155.694387 
L 289.097873 153.183572 
L 289.351595 153.358892 
L 289.613781 152.807154 
L 289.878187 152.807154 
L 290.142407 150.619896 
L 290.400372 145.43991 
L 290.658211 145.43991 
L 290.919568 144.852182 
L 291.181717 146.038998 
L 291.700668 146.49701 
L 291.963222 150.292218 
L 292.222487 150.292218 
L 292.484145 150.916471 
L 292.761542 150.705403 
L 293.004346 152.497811 
L 293.265599 152.497811 
L 293.5301 152.215938 
L 293.791905 152.447243 
L 294.048966 152.447243 
L 294.308529 154.146521 
L 294.574235 156.712647 
L 294.832485 157.244124 
L 295.094282 158.099606 
L 295.354047 159.966895 
L 295.875025 159.966895 
L 296.135171 161.214403 
L 296.660303 162.523537 
L 297.440176 168.786757 
L 297.70258 168.786757 
L 298.482849 175.655173 
L 298.74315 175.655173 
L 299.005862 178.11015 
L 299.265684 179.407793 
L 299.529784 179.407793 
L 299.787759 179.248895 
L 300.047691 179.393965 
L 300.310057 179.393965 
L 300.576603 178.363829 
L 300.832082 175.055588 
L 301.092343 169.979577 
L 301.352629 169.042618 
L 301.876776 169.042618 
L 302.135763 165.195027 
L 302.396768 165.195027 
L 302.664266 157.322716 
L 303.178613 154.376212 
L 303.440616 154.376212 
L 303.702222 152.44951 
L 305.006129 139.135488 
L 305.273017 139.135488 
L 305.532179 139.818328 
L 305.788496 137.363924 
L 306.053328 137.620822 
L 306.571259 133.967852 
L 306.831317 133.382174 
L 307.094129 133.382174 
L 307.353307 134.599226 
L 307.61739 136.731704 
L 307.877978 136.731704 
L 308.136543 136.199121 
L 308.397036 136.276718 
L 308.657982 135.238481 
L 308.919376 135.238481 
L 309.179183 134.025764 
L 309.451972 133.76214 
L 309.701013 133.292485 
L 310.22617 133.292485 
L 310.488242 128.213026 
L 310.745211 128.213026 
L 311.006864 127.887171 
L 311.533909 127.887171 
L 311.795231 127.248286 
L 312.053779 124.705269 
L 312.311425 124.439476 
L 312.83232 124.439476 
L 313.094839 119.963617 
L 313.615363 119.963617 
L 313.874932 119.737604 
L 314.137198 120.786557 
L 314.399322 120.786557 
L 314.658642 126.611654 
L 315.441398 134.652347 
L 315.707268 136.499152 
L 315.968145 145.46246 
L 316.22915 145.46246 
L 316.486061 148.572661 
L 316.748789 154.309044 
L 317.005265 156.165213 
L 317.535338 161.837602 
L 317.790689 168.054552 
L 318.062214 168.054552 
L 318.572845 171.678301 
L 318.832508 177.627558 
L 319.092497 177.627558 
L 319.353484 181.879351 
L 319.614816 181.879351 
L 320.138851 185.258018 
L 320.399322 185.894488 
L 320.923992 188.650487 
L 321.181921 189.029913 
L 321.440301 189.029913 
L 321.702737 189.329225 
L 321.962194 189.147441 
L 322.228322 188.670326 
L 322.491883 187.798175 
L 322.751387 187.798175 
L 323.006684 186.870402 
L 323.268028 184.836882 
L 323.527218 179.124713 
L 323.788946 178.104393 
L 324.05075 175.65334 
L 324.578573 175.65334 
L 324.832861 174.806215 
L 325.355937 169.660407 
L 325.618139 167.295921 
L 325.880933 167.295921 
L 326.136595 163.942554 
L 326.663106 149.063812 
L 326.919865 149.063812 
L 327.44222 132.215519 
L 327.704621 130.677178 
L 327.963459 130.677178 
L 328.48574 129.585247 
L 328.746158 132.661134 
L 329.270865 136.119131 
L 329.535289 136.119131 
L 329.788769 139.728162 
L 330.05089 139.728162 
L 330.32066 141.60122 
L 330.571581 141.183666 
L 330.839737 142.351853 
L 331.094687 141.311428 
L 331.356743 141.311428 
L 331.617632 140.958918 
L 332.138067 139.495116 
L 332.662696 139.392779 
L 332.923446 137.689418 
L 333.181722 137.689418 
L 333.445297 138.731156 
L 333.703085 138.731156 
L 333.964318 138.08344 
L 334.225513 138.08344 
L 334.486284 137.864718 
L 334.74927 136.195947 
L 335.011089 133.735928 
L 335.268302 132.435865 
L 335.528169 132.976863 
L 335.790182 132.976863 
L 336.051543 133.825701 
L 336.314731 134.187813 
L 337.355496 134.179845 
L 337.620584 136.788338 
L 337.877081 137.869748 
L 338.138018 137.869748 
L 338.400953 140.135968 
L 338.659433 144.964852 
L 338.926774 146.810549 
L 339.181622 146.810549 
L 339.964482 157.547556 
L 340.228881 158.151563 
L 340.488348 159.113105 
L 340.746463 159.113105 
L 341.010479 161.467187 
L 341.274284 162.523479 
L 341.533977 167.157974 
L 341.790471 168.623422 
L 342.056363 168.623422 
L 342.312577 170.791212 
L 342.572522 170.791212 
L 342.83757 173.245863 
L 343.356148 179.956208 
L 343.615829 180.838418 
L 343.878251 183.21773 
L 344.921412 182.849415 
L 345.185323 183.032127 
L 345.445596 182.813074 
L 345.704789 183.177396 
L 345.964189 180.648953 
L 346.233046 180.648953 
L 346.487753 180.022703 
L 346.75826 179.837722 
L 347.534867 172.002546 
L 347.796022 168.83281 
L 348.05626 168.83281 
L 348.573992 167.375417 
L 348.834159 167.281965 
L 349.100989 165.069044 
L 349.356175 165.069044 
L 349.617167 162.690022 
L 349.877918 161.566115 
L 350.14252 158.460588 
L 350.400977 157.989245 
L 350.6616 155.570515 
L 350.924845 154.942629 
L 351.182596 154.942629 
L 351.443207 154.537794 
L 351.703143 154.537794 
L 351.969793 154.022388 
L 352.227464 154.022388 
L 352.48689 153.558596 
L 352.747236 153.699776 
L 353.273704 153.694871 
L 353.536929 152.205047 
L 354.058003 152.226431 
L 354.312679 152.812777 
L 354.573839 152.528025 
L 354.835205 152.528025 
L 355.097364 152.411916 
L 355.358797 155.58131 
L 355.624917 156.980853 
L 355.87854 157.302903 
L 356.140478 157.059922 
L 356.399854 157.059922 
L 356.660046 157.917558 
L 356.927746 157.917558 
L 357.443223 156.773119 
L 357.705752 156.933735 
L 357.966361 155.677845 
L 358.232692 155.677845 
L 359.011774 156.161979 
L 359.268672 155.812424 
L 359.531742 157.805821 
L 359.797298 158.792357 
L 360.314349 158.842761 
L 360.574329 159.163358 
L 360.834836 159.821794 
L 361.097009 159.821794 
L 361.355949 159.246442 
L 361.617521 156.519527 
L 361.881257 155.584363 
L 362.14529 155.584363 
L 362.40427 154.896212 
L 362.92173 156.221731 
L 363.186581 156.316722 
L 363.450773 155.132872 
L 363.707022 154.737847 
L 363.968105 158.190258 
L 364.229897 159.095457 
L 364.487012 158.126177 
L 365.009428 157.55367 
L 365.533854 157.55367 
L 365.793958 156.480115 
L 366.053516 156.848901 
L 366.313889 156.848901 
L 367.099876 154.027776 
L 367.618992 151.085298 
L 367.88832 151.085298 
L 368.142339 151.666134 
L 368.402801 151.203731 
L 368.662888 151.203731 
L 368.924159 150.591615 
L 369.186159 149.520631 
L 369.450976 149.765874 
L 369.971013 149.823334 
L 370.229213 150.356797 
L 370.49176 149.1073 
L 370.747962 150.092908 
L 371.016284 150.092908 
L 371.532439 148.241812 
L 371.791239 148.452663 
L 372.052424 148.452663 
L 372.313271 148.103877 
L 372.575233 148.103877 
L 372.835612 149.110707 
L 373.097716 149.110707 
L 373.357199 146.535423 
L 373.882706 147.42008 
L 374.141465 147.42008 
L 374.401793 146.945566 
L 374.66438 148.446938 
L 374.925654 147.574379 
L 375.184968 147.445777 
L 375.714459 147.445777 
L 376.226405 148.652839 
L 376.487635 148.652839 
L 376.748887 149.219737 
L 377.014171 148.573737 
L 377.275594 148.573737 
L 377.793617 145.270621 
L 378.057195 141.965998 
L 378.317315 141.965998 
L 378.576163 140.462614 
L 378.835766 139.984647 
L 379.096722 140.168065 
L 379.368366 137.986808 
L 379.619997 137.814318 
L 379.879899 136.284208 
L 380.145736 135.44992 
L 380.402978 135.44992 
L 380.666596 134.091432 
L 381.184466 126.698332 
L 381.450178 126.698332 
L 381.705603 125.051853 
L 381.969641 122.24595 
L 382.228517 122.24595 
L 382.493462 119.666059 
L 382.75323 118.730556 
L 383.012505 119.01855 
L 383.273377 120.662546 
L 383.534961 118.71403 
L 383.792279 118.71403 
L 384.05844 122.951981 
L 384.314022 119.648409 
L 384.576812 120.100589 
L 384.843725 121.737661 
L 385.097741 122.073018 
L 385.882264 122.073018 
L 386.141319 122.224888 
L 386.404757 122.224888 
L 386.662683 129.30888 
L 386.924305 129.30888 
L 387.70734 144.849932 
L 387.966866 144.849932 
L 389.009902 154.269279 
L 389.539462 154.269279 
L 389.799509 159.522311 
L 390.055469 159.862388 
L 390.321449 165.602586 
L 390.577548 168.382125 
L 390.837256 169.751211 
L 391.09744 170.391463 
L 391.358882 170.391463 
L 391.621312 172.211399 
L 392.140629 177.590718 
L 392.401671 178.249091 
L 392.668023 178.249091 
L 392.924745 177.954953 
L 393.184283 178.23386 
L 393.445285 174.583888 
L 393.708468 174.583888 
L 394.240689 171.667062 
L 394.749323 163.327647 
L 395.011814 163.327647 
L 395.271751 159.974903 
L 395.537511 159.61285 
L 395.797342 159.61285 
L 396.055388 159.473785 
L 396.319911 159.175381 
L 396.577168 157.651205 
L 396.842684 155.345528 
L 397.101908 154.87586 
L 397.361424 152.156416 
L 397.619686 151.481439 
L 397.882555 148.875479 
L 398.14642 148.875479 
L 398.405651 147.876465 
L 398.926463 143.908687 
L 399.447283 143.908687 
L 399.706554 142.885944 
L 399.968213 142.885944 
L 400.504627 141.393144 
L 401.01559 139.912361 
L 401.272238 139.912361 
L 401.795235 144.788546 
L 402.056153 145.228572 
L 402.317399 146.664168 
L 402.837278 151.208951 
L 403.098888 151.208951 
L 403.359681 154.201934 
L 403.634438 153.952182 
L 403.882652 156.667388 
L 404.142531 157.649051 
L 404.405693 157.649051 
L 404.668541 161.133131 
L 405.185431 164.686735 
L 405.968326 164.653719 
L 406.230147 163.494325 
L 406.491574 164.255932 
L 406.755175 163.968521 
L 407.013041 164.050956 
L 407.276811 163.156767 
L 407.542045 164.471408 
L 407.794959 164.471408 
L 408.062662 164.137495 
L 408.595162 164.137495 
L 408.837303 164.426152 
L 409.101658 164.426152 
L 409.621038 162.129996 
L 409.88132 162.611523 
L 410.146306 162.611523 
L 410.409192 159.855996 
L 410.664939 161.512062 
L 411.185912 161.548379 
L 411.707738 158.89321 
L 411.967941 158.439975 
L 412.228974 158.439975 
L 412.489889 156.907182 
L 413.27544 156.906634 
L 413.53384 152.582619 
L 413.799341 152.582619 
L 414.060262 152.152483 
L 414.580858 152.152483 
L 414.844829 151.217846 
L 415.103147 151.62483 
L 415.360405 152.366588 
L 415.624139 151.081226 
L 415.886725 151.081226 
L 416.142855 147.783911 
L 416.671361 147.783911 
L 417.186098 149.479591 
L 417.447717 149.178047 
L 417.708362 149.178047 
L 417.975026 148.489937 
L 418.230792 148.198875 
L 418.493813 148.117532 
L 418.752521 148.457358 
L 419.026189 148.457358 
L 419.2771 147.570004 
L 419.534265 145.987762 
L 419.797384 146.392316 
L 420.317065 145.814726 
L 420.578152 146.411176 
L 420.843835 148.17799 
L 421.108713 149.113911 
L 421.88254 157.618235 
L 422.14285 159.622522 
L 422.405008 160.535283 
L 422.664329 164.305431 
L 422.927663 164.305431 
L 423.714542 175.601729 
L 423.971017 175.601729 
L 424.231863 176.7968 
L 424.495473 180.565866 
L 425.012366 184.352738 
L 425.278435 184.352738 
L 425.795785 185.296146 
L 426.057736 185.296146 
L 426.316769 184.682728 
L 426.578996 184.682728 
L 426.839504 184.270536 
L 427.105298 184.270536 
L 427.36079 183.085418 
L 427.622831 183.085418 
L 427.883711 181.324306 
L 428.143951 176.69858 
L 428.926143 169.332537 
L 429.186694 169.332537 
L 429.454445 166.978387 
L 429.975649 156.113038 
L 430.230884 153.870603 
L 430.490972 153.870603 
L 430.754046 147.839247 
L 431.0167 145.148266 
L 431.53485 145.148266 
L 431.795822 140.510717 
L 432.060553 140.510717 
L 432.321324 139.098124 
L 432.580072 135.775621 
L 432.840667 134.202771 
L 433.36288 134.202771 
L 433.622407 132.922053 
L 433.882993 128.517526 
L 434.145526 128.517526 
L 434.930932 125.990761 
L 435.189131 126.072406 
L 435.448621 125.936234 
L 435.712967 125.936234 
L 435.97336 125.527354 
L 436.232019 125.375262 
L 436.499202 125.919638 
L 436.755179 125.41379 
L 437.278782 125.333659 
L 437.539794 126.097741 
L 437.79752 126.097741 
L 438.058988 125.977192 
L 438.598444 131.705339 
L 438.841362 132.859047 
L 439.100729 138.413168 
L 439.367641 138.413168 
L 439.887283 140.267529 
L 440.144816 143.103875 
L 440.425385 143.103875 
L 440.665349 145.050441 
L 440.927187 148.702288 
L 441.187509 148.702288 
L 441.709113 153.357253 
L 442.047639 153.357253 
L 442.232361 156.221842 
L 442.492135 163.996124 
L 442.756206 163.996124 
L 443.014879 165.182683 
L 443.287784 167.165074 
L 443.535501 168.119745 
L 443.797083 172.413634 
L 444.060833 173.612249 
L 444.321528 173.612249 
L 444.580042 174.969875 
L 444.839501 174.654911 
L 445.131687 174.654911 
L 445.36646 177.380957 
L 445.623132 177.084634 
L 446.145415 177.084634 
L 446.406184 174.760064 
L 446.931192 174.658459 
L 447.188455 171.364539 
L 447.44945 165.202958 
L 447.709354 165.202958 
L 447.977778 164.757142 
L 448.236072 164.737803 
L 448.494513 163.776818 
L 448.752917 160.886088 
L 449.014558 160.886088 
L 449.536499 156.63453 
L 449.802389 156.63453 
L 450.319693 152.677617 
L 450.580368 148.687701 
L 450.841023 146.594814 
L 451.102425 145.61497 
L 451.369189 142.610081 
L 451.624634 142.02082 
L 451.886488 140.003888 
L 452.406855 137.913422 
L 452.932557 135.313783 
L 453.18803 132.501723 
L 453.449339 131.425217 
L 453.710127 131.268292 
L 453.973697 131.268292 
L 454.233396 131.09321 
L 455.279992 136.213693 
L 455.536405 139.352096 
L 455.799228 139.352096 
L 456.060947 139.716528 
L 456.320124 141.813874 
L 457.103278 141.813874 
L 457.629775 144.749378 
L 457.885435 144.749378 
L 458.144861 149.06046 
L 458.406177 150.985139 
L 458.670795 150.985139 
L 458.927734 152.855622 
L 459.188728 153.478817 
L 459.456557 154.768693 
L 459.972564 159.471024 
L 460.233305 161.626175 
L 460.493089 161.626175 
L 461.014607 171.078145 
L 461.275462 173.055114 
L 461.53748 173.055114 
L 462.063758 178.541676 
L 462.323289 179.443146 
L 462.586907 177.888257 
L 462.843069 177.888257 
L 463.103002 179.349435 
L 463.635548 179.319557 
L 464.148241 176.896021 
L 464.406374 176.896021 
L 464.666937 175.327467 
L 464.930785 175.036472 
L 465.191413 175.036472 
L 465.710797 173.118109 
L 466.235869 173.118109 
L 466.494907 172.527468 
L 466.757441 172.527468 
L 467.014659 169.668456 
L 467.27998 169.668456 
L 467.800692 167.192339 
L 468.060317 167.192339 
L 468.320015 166.283472 
L 468.581207 163.066453 
L 468.842031 162.025948 
L 469.106264 162.025948 
L 469.364279 160.955615 
L 469.62867 156.425683 
L 469.889896 156.425683 
L 470.406529 153.549077 
L 470.929778 153.549077 
L 471.189465 151.466095 
L 471.454997 139.729252 
L 471.712141 138.544863 
L 471.972667 138.544863 
L 472.232794 134.729753 
L 472.495347 133.222747 
L 472.755007 132.713446 
L 473.799528 132.713446 
L 474.060382 130.100332 
L 474.32103 129.123399 
L 474.584834 127.441518 
L 474.843071 126.871534 
L 475.107938 125.774263 
L 475.363416 125.774263 
L 475.626247 126.554151 
L 475.889549 127.982783 
L 476.147368 127.693091 
L 476.407183 127.608296 
L 476.929058 128.882619 
L 477.191467 128.882619 
L 477.451329 129.819668 
L 477.971947 134.34972 
L 478.233576 136.820968 
L 478.494548 136.820968 
L 478.75742 136.254912 
L 479.017617 144.727022 
L 479.29133 145.839617 
L 479.545007 151.516432 
L 479.799489 152.672992 
L 480.062696 156.126176 
L 480.321668 156.126176 
L 480.583374 163.819426 
L 480.844312 163.819426 
L 481.102961 168.666991 
L 481.36609 168.666991 
L 482.146095 179.599293 
L 482.408327 179.599293 
L 482.930712 186.714409 
L 483.192287 186.658258 
L 483.451669 186.150649 
L 483.71314 186.011627 
L 483.973956 186.605269 
L 484.235217 185.974185 
L 484.494565 183.186013 
L 484.755759 183.186013 
L 485.276796 180.762667 
L 485.543024 177.708211 
L 486.061979 176.046663 
L 486.322446 176.046663 
L 486.583784 169.819638 
L 487.108469 167.499578 
L 487.365502 165.125184 
L 487.625886 165.668222 
L 487.886391 165.520739 
L 488.148761 165.520739 
L 488.408251 163.51231 
L 488.6696 160.4892 
L 488.929717 160.4892 
L 489.192407 159.160799 
L 489.714508 159.097534 
L 489.974772 159.941714 
L 490.234558 159.283722 
L 490.496634 159.283722 
L 490.758468 157.042942 
L 491.024713 157.135646 
L 491.278494 156.875753 
L 491.542894 155.392703 
L 492.06954 155.392703 
L 492.321477 153.731925 
L 492.844041 153.322253 
L 493.105954 152.637315 
L 493.366703 152.637315 
L 493.627079 151.044009 
L 493.886718 151.044009 
L 494.148155 152.019357 
L 494.408053 154.249114 
L 494.671175 151.782496 
L 494.930872 151.782496 
L 495.195861 151.235366 
L 495.974357 153.487106 
L 496.237127 153.619969 
L 496.497482 153.619969 
L 496.757332 152.332327 
L 497.024811 153.026791 
L 497.283826 154.877898 
L 497.542919 155.867681 
L 498.587902 156.147907 
L 499.104905 157.706433 
L 499.376641 157.706433 
L 499.88728 158.589286 
L 500.148797 158.589286 
L 500.412957 158.259098 
L 500.673912 159.014883 
L 500.934079 159.340559 
L 501.195937 159.340559 
L 501.454815 161.499552 
L 501.715349 161.24504 
L 502.238289 161.24164 
L 502.50254 160.964983 
L 502.756759 160.991887 
L 503.019771 160.004456 
L 503.542268 159.988784 
L 503.800306 158.925889 
L 504.064518 156.96334 
L 504.587932 156.96334 
L 504.84518 154.016824 
L 505.108122 154.016824 
L 505.366079 153.859697 
L 505.627158 152.500223 
L 505.916972 152.500223 
L 506.152373 151.506923 
L 506.670817 151.506923 
L 506.932591 150.523895 
L 507.191368 148.050014 
L 507.453505 147.454115 
L 507.714759 144.462281 
L 507.980879 144.134713 
L 508.235234 144.134713 
L 508.496882 145.574497 
L 508.764055 145.574497 
L 509.017959 145.178613 
L 509.283582 145.308091 
L 509.800901 146.485095 
L 510.062587 148.07631 
L 510.327699 148.07631 
L 510.584433 148.509027 
L 510.844613 150.15801 
L 511.106381 153.479594 
L 511.366608 153.479594 
L 511.62801 154.185604 
L 511.887892 155.716959 
L 512.150073 155.716959 
L 512.671758 157.924145 
L 512.931532 164.809093 
L 513.455074 167.677477 
L 513.71724 167.677477 
L 513.97484 168.220238 
L 514.23661 169.613853 
L 514.497058 169.613853 
L 514.759663 168.234957 
L 515.280725 168.234957 
L 515.542245 168.470208 
L 515.80118 166.88948 
L 516.066386 167.071775 
L 516.323266 167.071775 
L 517.371548 158.973276 
L 517.627807 159.321622 
L 517.890972 150.84361 
L 518.150875 150.84361 
L 518.413817 148.516093 
L 518.671316 148.782179 
L 518.932031 149.259988 
L 519.193367 153.726288 
L 519.45867 153.708019 
L 519.717921 152.99427 
L 519.97622 152.99427 
L 520.238595 154.203759 
L 520.504043 156.916382 
L 520.757928 158.337549 
L 521.018867 158.702759 
L 521.282472 158.497011 
L 521.540309 158.497011 
L 521.802674 160.030211 
L 522.065852 159.294009 
L 522.331884 164.017772 
L 522.586646 164.999641 
L 522.845919 168.080686 
L 523.37563 168.080686 
L 523.627478 171.902003 
L 523.891446 172.189307 
L 524.149165 172.732395 
L 524.411935 175.402046 
L 524.670917 175.402046 
L 524.932948 175.000112 
L 525.194151 175.160677 
L 525.453768 176.977253 
L 525.716376 177.528745 
L 525.978335 176.757566 
L 526.242502 176.757566 
L 526.498226 176.41476 
L 527.027587 176.41476 
L 527.279895 180.238986 
L 527.544028 180.933397 
L 528.065392 182.903159 
L 528.584596 184.233149 
L 528.853131 184.005124 
L 529.111073 185.100343 
L 529.368666 183.598733 
L 530.152265 183.598733 
L 530.414894 183.346484 
L 530.678897 183.302655 
L 531.195471 179.927338 
L 531.45732 178.255378 
L 531.977563 178.255378 
L 532.238863 176.794804 
L 532.503061 176.794804 
L 532.762905 172.379765 
L 533.022557 171.778187 
L 533.807067 168.612577 
L 534.067924 168.612577 
L 534.32387 166.95953 
L 534.586897 161.296024 
L 534.846444 159.929403 
L 535.371536 151.340511 
L 535.629403 150.241625 
L 535.888712 150.241625 
L 536.150035 148.80561 
L 536.411596 148.426365 
L 536.671782 144.707287 
L 536.938969 145.430579 
L 537.199111 143.094428 
L 537.457098 143.094428 
L 537.716126 142.038553 
L 537.976471 140.162735 
L 538.242972 140.162735 
L 538.504027 138.033692 
L 538.762642 137.411708 
L 539.024521 138.042762 
L 539.542628 138.042762 
L 540.069901 145.817047 
L 540.326461 145.817047 
L 540.58595 148.34334 
L 541.109197 155.443367 
L 541.370733 157.648098 
L 541.629091 158.800454 
L 541.629091 158.800454 
" clip-path="url(#p39c4e01c1f)" style="fill: none; stroke: #1f77b4; stroke-width: 1.5; stroke-linecap: square"/>
   </g>
   <g id="line2d_30">
    <path d="M 70.210909 118.740467 
L 70.472145 118.207641 
L 71.251008 113.904305 
L 72.033897 111.413607 
L 72.295408 112.633564 
L 72.559686 114.851926 
L 73.600201 129.163671 
L 73.861883 131.02698 
L 74.125275 132.088567 
L 74.643362 140.628302 
L 75.426743 154.514328 
L 75.686464 154.952097 
L 76.468445 165.541249 
L 76.730393 166.882117 
L 77.256861 172.485251 
L 77.514893 174.322286 
L 77.776638 174.322286 
L 78.039746 175.621363 
L 78.295568 175.603432 
L 78.559195 175.239147 
L 78.824941 174.118146 
L 79.077057 172.453105 
L 79.338465 171.99702 
L 79.599796 170.723671 
L 80.382012 163.948259 
L 80.905018 158.848441 
L 81.687765 156.776586 
L 82.035485 155.021081 
L 82.472681 150.089138 
L 82.990876 143.751472 
L 83.254963 143.441878 
L 84.297086 131.676406 
L 84.557718 129.066202 
L 84.822283 128.41641 
L 86.123405 117.459072 
L 86.382173 116.764425 
L 86.646394 116.585431 
L 86.903666 116.084917 
L 87.686557 111.458845 
L 88.212323 109.898818 
L 88.469066 109.587476 
L 88.738072 109.590905 
L 88.99183 109.977718 
L 90.046252 113.925419 
L 90.295266 113.925419 
L 91.339946 123.020639 
L 92.123798 131.582666 
L 92.906112 141.57657 
L 93.426004 150.604803 
L 93.691366 151.478951 
L 95.261654 174.852778 
L 95.516754 174.852778 
L 96.819183 189.6409 
L 98.909597 204.087564 
L 99.166527 204.384343 
L 99.6931 207.888461 
L 100.211095 209.349302 
L 100.994189 210.3553 
L 101.775909 208.643213 
L 102.301186 206.759704 
L 102.557748 206.847703 
L 103.081735 204.056369 
L 103.86469 200.340432 
L 104.382969 199.145455 
L 104.651462 197.892575 
L 104.911154 197.439669 
L 105.169812 197.439669 
L 106.470825 194.774292 
L 106.732133 194.458658 
L 106.991716 194.399796 
L 108.298546 193.197429 
L 108.820256 193.085186 
L 109.07997 193.05788 
L 109.601501 193.153715 
L 110.911573 192.549888 
L 111.168069 192.293315 
L 111.428095 191.865149 
L 111.689035 191.758956 
L 111.955551 190.910271 
L 112.734495 186.025374 
L 112.997008 186.025374 
L 113.514979 184.865105 
L 114.036952 181.63921 
L 114.299311 181.509363 
L 115.081239 179.859088 
L 115.867346 175.244454 
L 116.384964 173.323167 
L 116.649105 172.6697 
L 116.913901 172.702931 
L 117.692884 173.525573 
L 117.951316 173.474873 
L 118.732613 172.936539 
L 118.993772 172.977271 
L 119.517292 173.477226 
L 121.34174 176.001357 
L 121.866297 178.150878 
L 123.167814 184.850764 
L 123.435938 185.847094 
L 123.689699 186.108043 
L 123.950804 187.18469 
L 124.474583 188.13651 
L 125.255395 191.859614 
L 125.517557 192.447675 
L 126.037932 192.724138 
L 126.562237 193.678732 
L 126.825939 193.826763 
L 127.341727 193.580227 
L 127.88634 193.175506 
L 128.125321 192.011538 
L 128.388834 191.48749 
L 129.691926 186.059568 
L 130.471855 183.448686 
L 130.73319 182.887166 
L 130.999747 182.625442 
L 131.517165 181.410104 
L 131.77832 181.21906 
L 132.30194 181.275065 
L 132.559233 181.737559 
L 132.82132 182.54364 
L 133.082338 183.782193 
L 133.343964 185.862792 
L 133.604297 185.874115 
L 133.870901 187.588407 
L 134.125349 187.588407 
L 135.691231 199.85404 
L 135.972547 200.765355 
L 136.474085 203.360817 
L 136.733238 203.811274 
L 136.996886 205.005004 
L 137.258341 205.594003 
L 137.515529 205.764313 
L 138.823463 205.314645 
L 139.081764 204.952994 
L 139.864547 205.228278 
L 140.387016 205.786545 
L 140.647597 205.898939 
L 141.430632 207.188309 
L 141.698143 208.350539 
L 143.255112 219.737368 
L 143.777915 222.338251 
L 144.039014 222.986583 
L 144.299469 223.302701 
L 144.560319 223.329459 
L 145.082184 223.183092 
L 145.343494 223.468004 
L 146.131313 225.671357 
L 146.386555 225.925214 
L 147.169486 227.942063 
L 147.954244 232.148897 
L 148.214949 233.102258 
L 148.73384 233.808793 
L 149.001054 234.598159 
L 149.261436 234.922759 
L 149.520042 234.889863 
L 150.040123 235.273092 
L 150.302727 235.14041 
L 150.561204 234.732513 
L 152.386409 230.265073 
L 152.648957 229.81253 
L 152.909383 229.746602 
L 153.170757 230.259687 
L 153.429807 230.362518 
L 153.953744 231.091324 
L 154.473814 232.589882 
L 154.739328 232.752063 
L 154.998597 233.211246 
L 155.260405 233.254218 
L 155.51818 232.810498 
L 156.040774 230.552894 
L 156.300125 228.92595 
L 156.561182 228.89836 
L 157.083237 225.059475 
L 157.350172 223.52234 
L 158.12694 220.938869 
L 158.391939 220.825201 
L 158.649815 219.268755 
L 159.172389 217.798556 
L 159.431134 217.543982 
L 159.691192 217.61886 
L 159.954042 218.197722 
L 160.214486 218.267467 
L 161.262406 221.814118 
L 161.521583 222.518206 
L 162.044084 222.891085 
L 162.317312 223.702433 
L 162.829692 225.843244 
L 163.348947 226.651478 
L 163.604271 226.781815 
L 163.872857 226.733508 
L 165.436871 227.597885 
L 165.698467 227.364517 
L 165.952437 226.941015 
L 166.473791 225.347377 
L 168.571082 217.310222 
L 169.344685 212.957542 
L 169.60495 212.957542 
L 170.648698 210.052885 
L 170.914477 209.681328 
L 171.430716 209.672409 
L 171.69693 209.393723 
L 171.953749 209.443262 
L 172.219725 210.21201 
L 172.996762 214.450655 
L 174.039091 220.020026 
L 175.091119 231.515603 
L 175.345172 231.884262 
L 175.869632 235.895016 
L 176.127179 236.758909 
L 176.388954 236.694115 
L 176.657261 236.07599 
L 177.172264 233.795029 
L 177.953787 227.280487 
L 178.214992 225.96619 
L 178.475441 225.619573 
L 179.51949 219.662577 
L 180.041547 217.633463 
L 180.562035 216.349083 
L 180.824132 216.112618 
L 181.344841 216.846884 
L 181.607963 217.206072 
L 181.868026 218.050741 
L 182.389107 221.07603 
L 182.911921 225.041224 
L 183.170718 225.251331 
L 183.434671 226.704137 
L 183.697052 227.32709 
L 183.956918 229.119477 
L 184.218276 229.878735 
L 184.47783 230.072371 
L 184.737517 230.625453 
L 184.999005 231.917246 
L 185.264429 232.312415 
L 185.783854 234.764098 
L 186.042843 234.686665 
L 186.30245 233.979855 
L 186.823274 231.661269 
L 187.086615 229.521834 
L 188.672114 211.674815 
L 189.43431 208.986231 
L 190.478567 202.901779 
L 191.00319 201.415807 
L 191.521284 199.980212 
L 191.779653 199.693427 
L 192.30421 198.495403 
L 193.348548 198.348965 
L 194.395869 200.237211 
L 194.65928 200.586769 
L 194.918552 201.121878 
L 195.179534 201.018189 
L 195.434027 201.193613 
L 196.738979 202.771377 
L 197.781836 202.944735 
L 198.310371 202.926094 
L 199.087754 201.940718 
L 199.607832 201.395385 
L 199.868907 200.651968 
L 201.440567 198.837882 
L 202.218062 196.3201 
L 202.478775 195.326437 
L 202.742502 193.87248 
L 203.259128 192.44067 
L 204.043892 188.585707 
L 204.825594 182.924672 
L 206.133565 177.17901 
L 206.651606 176.585183 
L 207.174436 175.287348 
L 207.43767 175.028168 
L 207.960249 175.022396 
L 208.216672 174.869809 
L 208.476782 175.02319 
L 208.743448 175.401906 
L 209.259732 176.595525 
L 209.522461 176.818594 
L 210.826631 179.497411 
L 211.874307 182.584135 
L 212.391642 183.098473 
L 212.652329 183.286145 
L 213.176217 183.401988 
L 213.95941 182.491003 
L 214.477706 181.548776 
L 216.049066 176.063397 
L 217.08937 171.033764 
L 217.351776 170.085827 
L 217.611515 169.79098 
L 218.392152 166.900996 
L 219.176074 163.383132 
L 219.434287 162.915897 
L 219.699018 161.568391 
L 220.222486 161.200574 
L 220.481495 160.755434 
L 220.738546 160.636808 
L 221.26483 158.881986 
L 221.527472 158.718465 
L 221.783805 158.866414 
L 222.046088 159.190071 
L 222.568609 158.981685 
L 222.82534 159.019104 
L 223.092983 158.938503 
L 223.876623 159.396019 
L 224.915004 158.932929 
L 225.694968 158.157912 
L 226.483029 155.943113 
L 226.739158 155.953055 
L 227.266911 153.873175 
L 227.526378 152.287345 
L 227.78521 151.873472 
L 228.305639 149.810632 
L 228.568393 149.246926 
L 229.36512 143.967598 
L 230.139849 137.709799 
L 230.391318 136.344723 
L 230.652345 135.558162 
L 230.915887 135.168768 
L 231.22067 134.20179 
L 231.43871 134.093493 
L 232.479311 126.601683 
L 232.778978 125.092502 
L 233.522849 119.971105 
L 234.569528 112.266505 
L 235.611381 104.608072 
L 236.655566 99.55064 
L 236.914192 98.836365 
L 237.17525 98.473372 
L 237.436412 98.387941 
L 237.713893 97.954537 
L 237.956933 97.954537 
L 238.218605 97.781671 
L 238.740959 98.233482 
L 239.000832 98.899515 
L 239.262315 98.908436 
L 239.523564 99.559821 
L 241.087304 105.566293 
L 241.3486 105.65405 
L 243.44064 112.764972 
L 244.484753 115.036446 
L 245.000245 115.752622 
L 245.267541 115.694232 
L 246.306992 114.630687 
L 246.59715 114.159123 
L 246.827407 114.159123 
L 247.350251 113.013116 
L 247.611134 112.943767 
L 247.872784 112.157336 
L 248.393605 109.268052 
L 249.95772 96.675552 
L 251.002164 85.234114 
L 253.089668 59.732318 
L 253.872624 54.040312 
L 254.395576 51.66189 
L 254.654201 51.137091 
L 254.915098 51.184898 
L 255.176016 51.430905 
L 255.443534 52.479539 
L 255.703881 54.026258 
L 256.22373 58.542924 
L 256.480718 58.939131 
L 257.790222 69.560647 
L 258.306759 72.526455 
L 258.832416 77.851887 
L 260.396008 89.946574 
L 260.914825 93.602194 
L 262.219658 102.251311 
L 262.480302 102.743232 
L 263.002216 106.155091 
L 263.524163 108.595808 
L 264.312009 110.338362 
L 265.350749 111.513519 
L 266.393645 111.770689 
L 266.916326 111.841189 
L 267.179305 111.761798 
L 269.264541 110.123936 
L 269.524704 110.171122 
L 270.054708 110.684431 
L 270.569014 111.637061 
L 271.619359 113.807129 
L 271.875897 113.866728 
L 272.398018 114.819915 
L 272.915863 115.612949 
L 273.178064 115.702723 
L 273.447047 115.563434 
L 274.224557 114.208848 
L 275.787747 110.542841 
L 277.351508 106.803677 
L 277.875566 105.361333 
L 278.133788 104.813415 
L 279.440555 99.454763 
L 279.700488 98.618168 
L 279.96251 98.515933 
L 280.743144 95.971239 
L 281.26465 95.187965 
L 282.050395 94.788853 
L 282.313173 94.820436 
L 283.091749 95.69497 
L 283.616227 97.17219 
L 284.134688 99.659327 
L 284.656152 102.794443 
L 285.17847 105.740282 
L 285.701712 108.956465 
L 286.221457 110.432118 
L 286.74349 113.189338 
L 287.008338 113.308279 
L 287.790495 115.963278 
L 288.308259 117.264099 
L 288.576126 117.700628 
L 289.097873 118.058036 
L 290.142407 118.090229 
L 291.181717 118.305737 
L 291.963222 118.746451 
L 292.222487 119.128609 
L 292.761542 120.449561 
L 293.004346 120.567011 
L 293.791905 122.072524 
L 294.574235 124.104879 
L 295.354047 126.217296 
L 295.61777 126.650655 
L 296.135171 128.036693 
L 296.916929 129.965087 
L 297.70258 131.909399 
L 297.960975 132.278384 
L 298.482849 132.326229 
L 298.74315 132.194901 
L 299.005862 131.728669 
L 300.047691 128.795153 
L 300.576603 125.793958 
L 301.352629 121.428246 
L 301.613236 120.181648 
L 301.876776 118.355485 
L 302.135763 118.271262 
L 302.923066 112.048846 
L 303.968053 103.491653 
L 304.746027 97.161183 
L 305.273017 94.418181 
L 306.053328 91.242138 
L 307.094129 88.125948 
L 307.353307 87.462488 
L 307.877978 86.839501 
L 308.657982 84.910159 
L 309.451972 82.684448 
L 309.701013 82.684448 
L 310.22617 80.673493 
L 310.745211 79.68213 
L 311.533909 78.83595 
L 311.795231 78.996514 
L 312.053779 79.49874 
L 312.311425 79.628469 
L 312.575429 80.140291 
L 312.83232 80.16851 
L 313.094839 80.567487 
L 313.354056 81.378994 
L 314.137198 86.256242 
L 314.658642 90.20662 
L 316.486061 107.779527 
L 318.062214 120.528961 
L 318.572845 124.014871 
L 318.832508 124.157326 
L 319.614816 127.387145 
L 320.399322 129.262949 
L 320.663648 129.093342 
L 321.181921 128.055304 
L 321.962194 125.74915 
L 322.228322 124.891028 
L 323.268028 119.318895 
L 323.788946 116.162267 
L 324.05075 115.228406 
L 324.311955 114.942925 
L 325.100088 110.069625 
L 326.398786 99.924182 
L 326.663106 99.924182 
L 327.182092 96.487093 
L 327.704621 93.991205 
L 328.48574 92.361733 
L 328.746158 92.38004 
L 329.005981 92.633168 
L 329.535289 92.569336 
L 329.788769 92.561837 
L 330.32066 93.035173 
L 330.839737 93.209791 
L 331.356743 93.273066 
L 332.404568 91.340148 
L 333.181722 88.067752 
L 333.445297 87.504512 
L 334.225513 84.349406 
L 334.74927 82.679331 
L 335.528169 81.412948 
L 336.051543 81.549532 
L 337.097906 82.649291 
L 337.620584 83.463227 
L 337.877081 83.670902 
L 338.659433 86.790421 
L 340.488348 96.670409 
L 341.274284 101.559769 
L 341.533977 102.962387 
L 341.790471 103.082843 
L 342.312577 106.587366 
L 342.83757 109.021483 
L 343.356148 110.091769 
L 343.615829 110.191699 
L 343.878251 110.148598 
L 344.399984 109.514784 
L 344.666023 109.311705 
L 345.704789 106.261786 
L 346.487753 103.594971 
L 347.272735 101.6397 
L 347.534867 101.17255 
L 348.313294 98.592855 
L 348.834159 96.685599 
L 349.356175 94.999931 
L 350.14252 91.112632 
L 350.6616 89.904633 
L 351.182596 89.599605 
L 351.443207 89.520577 
L 351.703143 89.825846 
L 351.969793 89.816125 
L 352.48689 90.922295 
L 353.008777 92.626288 
L 353.536929 94.493904 
L 354.058003 95.269228 
L 354.573839 95.873752 
L 355.097364 97.585122 
L 356.140478 100.060094 
L 356.399854 100.65108 
L 356.660046 100.716361 
L 357.190543 101.991112 
L 357.966361 103.691443 
L 358.504108 104.564945 
L 358.749349 104.616627 
L 359.268672 105.434912 
L 359.531742 105.47494 
L 360.056877 105.108503 
L 360.834836 104.877222 
L 361.097009 104.512304 
L 362.14529 102.03814 
L 362.92173 99.566129 
L 363.707022 97.446822 
L 364.487012 95.541553 
L 365.009428 94.630394 
L 365.274296 94.58679 
L 367.35669 92.675632 
L 367.618992 92.561886 
L 368.402801 92.693079 
L 368.924159 93.557497 
L 369.186159 94.012744 
L 369.705512 95.68873 
L 370.49176 99.617937 
L 370.747962 99.617937 
L 371.532439 104.24926 
L 371.791239 106.448327 
L 372.313271 108.690185 
L 372.575233 111.150397 
L 372.835612 111.382542 
L 373.357199 116.252652 
L 374.925654 134.029983 
L 375.184968 134.882321 
L 375.450797 136.359684 
L 375.714459 136.986675 
L 375.972987 137.281435 
L 376.748887 144.505501 
L 377.014171 145.92222 
L 378.317315 160.081779 
L 379.368366 167.700065 
L 380.145736 171.444133 
L 380.666596 173.334209 
L 381.184466 174.516456 
L 382.493462 176.855146 
L 383.792279 181.951208 
L 384.314022 184.438547 
L 384.576812 185.612738 
L 385.097741 186.933868 
L 385.621002 186.969989 
L 386.404757 188.235418 
L 386.662683 188.235418 
L 387.445584 190.439743 
L 387.70734 190.639762 
L 387.966866 190.439212 
L 388.230464 189.931167 
L 389.009902 186.285299 
L 389.271816 186.285299 
L 390.055469 183.509142 
L 391.09744 177.847402 
L 391.881819 173.448786 
L 392.140629 172.35453 
L 392.401671 172.35453 
L 393.708468 167.268004 
L 395.797342 158.723657 
L 397.101908 151.824419 
L 397.882555 149.157389 
L 398.926463 145.826054 
L 400.231519 144.488741 
L 400.755159 144.363246 
L 401.795235 142.838201 
L 402.317399 140.599783 
L 404.142531 135.939929 
L 404.405693 135.875959 
L 404.668541 136.027904 
L 405.709791 137.590505 
L 407.013041 140.77846 
L 407.276811 140.930352 
L 407.542045 140.873543 
L 407.794959 141.049576 
L 408.062662 140.9933 
L 408.595162 141.095961 
L 408.837303 140.919009 
L 409.361434 141.099182 
L 409.88132 142.415342 
L 410.409192 144.039255 
L 410.664939 144.263937 
L 411.448945 148.188511 
L 411.967941 150.210125 
L 412.228974 150.989663 
L 412.489889 151.373521 
L 413.015118 153.68629 
L 413.27544 154.02878 
L 413.53384 154.02878 
L 414.060262 156.116521 
L 414.318376 156.174332 
L 414.844829 158.759035 
L 415.103147 160.354212 
L 415.624139 161.631374 
L 415.886725 162.037277 
L 416.142855 162.763846 
L 416.410115 162.879319 
L 416.926614 163.983332 
L 417.186098 163.963492 
L 417.708362 163.424979 
L 417.975026 163.599746 
L 419.2771 165.959372 
L 420.317065 168.953671 
L 421.62056 174.550976 
L 423.714542 180.147526 
L 424.231863 180.691149 
L 424.495473 180.757845 
L 424.753151 180.627046 
L 425.278435 180.624636 
L 425.543555 180.887167 
L 425.795785 180.934214 
L 426.057736 181.280981 
L 426.316769 181.413776 
L 427.36079 181.079952 
L 428.143951 180.374351 
L 428.404665 180.243985 
L 428.669484 179.977668 
L 428.926143 179.546213 
L 429.186694 178.877882 
L 429.975649 175.704418 
L 430.230884 175.603211 
L 431.0167 172.916114 
L 432.060553 170.012705 
L 432.580072 167.283679 
L 432.840667 166.880766 
L 433.36288 164.322894 
L 433.622407 163.507018 
L 433.882993 163.443833 
L 434.145526 162.851631 
L 434.665686 161.022858 
L 435.189131 159.994554 
L 435.448621 159.89942 
L 435.712967 160.149518 
L 436.232019 161.228604 
L 437.013821 163.982218 
L 437.278782 164.800596 
L 438.058988 170.360555 
L 439.100729 179.700934 
L 439.887283 185.637722 
L 440.144816 186.05655 
L 441.187509 191.231607 
L 441.450781 191.952886 
L 442.047639 192.6192 
L 442.492135 193.634117 
L 443.535501 195.435189 
L 444.060833 195.65077 
L 444.321528 196.029068 
L 444.580042 196.656092 
L 444.839501 196.736129 
L 445.36646 198.655222 
L 445.623132 199.943345 
L 445.889487 199.970665 
L 446.145415 201.050493 
L 446.406184 201.285167 
L 446.931192 202.916616 
L 447.188455 203.764199 
L 447.977778 205.117825 
L 448.236072 205.167963 
L 448.494513 204.441451 
L 448.752917 204.240141 
L 449.536499 199.772685 
L 451.102425 190.014057 
L 451.624634 185.389317 
L 452.406855 180.905814 
L 453.18803 178.075587 
L 453.710127 176.993345 
L 453.973697 176.72406 
L 454.233396 176.759926 
L 454.494864 177.051458 
L 455.014222 178.34208 
L 455.279992 178.961178 
L 455.536405 179.003748 
L 456.320124 180.644467 
L 456.842194 180.880852 
L 457.629775 181.162164 
L 458.406177 182.133184 
L 458.670795 182.254773 
L 459.188728 182.028384 
L 459.710126 181.778253 
L 460.493089 181.676502 
L 461.275462 180.658463 
L 462.843069 176.065426 
L 463.103002 175.08255 
L 463.362692 174.972358 
L 464.406374 171.03623 
L 464.666937 169.90547 
L 465.191413 169.083486 
L 465.710797 167.060299 
L 466.235869 166.943788 
L 466.757441 165.015261 
L 467.014659 164.362513 
L 467.538155 161.138829 
L 467.800692 160.712188 
L 468.320015 156.692824 
L 469.364279 149.350003 
L 469.62867 149.020225 
L 470.150862 144.405704 
L 470.406529 144.169429 
L 470.929778 139.643909 
L 471.454997 137.541646 
L 471.712141 136.948223 
L 472.232794 132.377924 
L 472.495347 131.156176 
L 472.755007 130.95011 
L 473.019762 130.575182 
L 473.279906 130.575182 
L 473.543725 130.282891 
L 474.32103 128.251222 
L 474.843071 127.038675 
L 475.363416 125.638988 
L 475.626247 125.55261 
L 476.147368 125.839323 
L 477.191467 128.056877 
L 478.233576 130.771514 
L 478.75742 132.19713 
L 479.29133 133.196878 
L 479.545007 133.67492 
L 479.799489 133.747683 
L 480.321668 133.50017 
L 480.844312 132.81505 
L 481.102961 132.635657 
L 481.887817 130.678612 
L 482.674716 128.19814 
L 483.71314 122.790099 
L 484.235217 120.384257 
L 484.494565 119.634612 
L 487.625886 99.272311 
L 487.886391 98.413109 
L 488.408251 95.718385 
L 488.6696 95.718385 
L 488.929717 94.677644 
L 489.192407 94.132673 
L 489.454729 94.245394 
L 489.974772 92.275949 
L 491.278494 89.745627 
L 491.801822 89.501614 
L 492.584017 88.604176 
L 492.844041 88.170241 
L 493.105954 88.08385 
L 493.627079 87.680897 
L 493.886718 87.178419 
L 494.408053 86.959087 
L 495.451715 86.972527 
L 495.974357 87.500713 
L 497.283826 89.772011 
L 497.805092 90.089258 
L 498.060982 90.271109 
L 498.322038 90.2998 
L 498.842821 90.811552 
L 499.376641 90.848169 
L 499.88728 91.167209 
L 500.412957 91.585617 
L 501.977192 90.936813 
L 503.282534 88.993312 
L 503.800306 87.907267 
L 504.064518 87.806481 
L 504.587932 87.348979 
L 505.366079 86.875424 
L 505.627158 86.635865 
L 506.414648 86.937433 
L 506.932591 87.924554 
L 507.980879 87.84067 
L 508.496882 87.922112 
L 508.764055 87.91475 
L 509.283582 88.432274 
L 509.800901 89.062477 
L 510.062587 89.280889 
L 510.327699 89.894197 
L 510.844613 92.030905 
L 511.106381 92.092799 
L 512.150073 96.177215 
L 512.413672 96.731728 
L 512.671758 96.835413 
L 513.192335 96.695439 
L 513.455074 96.517114 
L 514.497058 94.67406 
L 515.020715 94.570881 
L 515.542245 92.837914 
L 517.890972 82.974752 
L 518.150875 82.255808 
L 519.717921 76.299608 
L 520.504043 73.994669 
L 520.757928 73.633832 
L 521.282472 74.073184 
L 521.540309 74.414625 
L 522.065852 75.98556 
L 522.586646 78.73135 
L 522.845919 79.198876 
L 523.37563 81.608066 
L 524.149165 87.056688 
L 524.932948 92.362784 
L 525.194151 93.789322 
L 525.716376 97.395563 
L 525.978335 97.491933 
L 526.242502 98.271467 
L 526.498226 99.994135 
L 526.760306 100.104446 
L 527.027587 100.764171 
L 527.802661 103.929018 
L 528.065392 104.102706 
L 528.323729 104.57038 
L 528.584596 105.520801 
L 529.111073 105.370753 
L 529.368666 105.370753 
L 529.630142 105.098671 
L 529.89228 104.661321 
L 530.152265 104.712699 
L 530.95977 101.527481 
L 531.195471 99.950473 
L 531.721732 98.263171 
L 532.238863 97.242401 
L 532.503061 95.897207 
L 533.543608 88.481924 
L 533.807067 87.843558 
L 534.846444 81.603481 
L 535.888712 77.195958 
L 536.938969 75.991331 
L 537.199111 76.174408 
L 537.716126 77.035255 
L 538.242972 77.924267 
L 538.504027 78.60428 
L 538.762642 79.85841 
L 539.024521 79.977942 
L 539.283029 81.013395 
L 539.542628 81.224698 
L 540.326461 84.733792 
L 540.852678 87.640173 
L 541.629091 90.668106 
L 541.629091 90.668106 
" clip-path="url(#p39c4e01c1f)" style="fill: none; stroke-dasharray: 5.55,2.4; stroke-dashoffset: 0; stroke: #ff7f0e; stroke-width: 1.5"/>
   </g>
   <g id="patch_3">
    <path d="M 46.64 246.04 
L 46.64 41.856 
" style="fill: none; stroke: #000000; stroke-width: 0.8; stroke-linejoin: miter; stroke-linecap: square"/>
   </g>
   <g id="patch_4">
    <path d="M 565.2 246.04 
L 565.2 41.856 
" style="fill: none; stroke: #000000; stroke-width: 0.8; stroke-linejoin: miter; stroke-linecap: square"/>
   </g>
   <g id="patch_5">
    <path d="M 46.64 246.04 
L 565.2 246.04 
" style="fill: none; stroke: #000000; stroke-width: 0.8; stroke-linejoin: miter; stroke-linecap: square"/>
   </g>
   <g id="patch_6">
    <path d="M 46.64 41.856 
L 565.2 41.856 
" style="fill: none; stroke: #000000; stroke-width: 0.8; stroke-linejoin: miter; stroke-linecap: square"/>
   </g>
   <g id="text_17">
    <!-- Tracking Errors Over Time -->
    <g transform="translate(228.363437 22.418625) scale(0.12 -0.12)">
     <defs>
      <path id="DejaVuSans-61" d="M 2194 1759 
Q 1497 1759 1228 1600 
Q 959 1441 959 1056 
Q 959 750 1161 570 
Q 1363 391 1709 391 
Q 2188 391 2477 730 
Q 2766 1069 2766 1631 
L 2766 1759 
L 2194 1759 
z
M 3341 1997 
L 3341 0 
L 2766 0 
L 2766 531 
Q 2569 213 2275 61 
Q 1981 -91 1556 -91 
Q 1019 -91 701 211 
Q 384 513 384 1019 
Q 384 1609 779 1909 
Q 1175 2209 1959 2209 
L 2766 2209 
L 2766 2266 
Q 2766 2663 2505 2880 
Q 2244 3097 1772 3097 
Q 1472 3097 1187 3025 
Q 903 2953 641 2809 
L 641 3341 
Q 956 3463 1253 3523 
Q 1550 3584 1831 3584 
Q 2591 3584 2966 3190 
Q 3341 2797 3341 1997 
z
" transform="scale(0.015625)"/>
      <path id="DejaVuSans-63" d="M 3122 3366 
L 3122 2828 
Q 2878 2963 2633 3030 
Q 2388 3097 2138 3097 
Q 1578 3097 1268 2742 
Q 959 2388 959 1747 
Q 959 1106 1268 751 
Q 1578 397 2138 397 
Q 2388 397 2633 464 
Q 2878 531 3122 666 
L 3122 134 
Q 2881 22 2623 -34 
Q 2366 -91 2075 -91 
Q 1284 -91 818 406 
Q 353 903 353 1747 
Q 353 2603 823 3093 
Q 1294 3584 2113 3584 
Q 2378 3584 2631 3529 
Q 2884 3475 3122 3366 
z
" transform="scale(0.015625)"/>
      <path id="DejaVuSans-6b" d="M 581 4863 
L 1159 4863 
L 1159 1991 
L 2875 3500 
L 3609 3500 
L 1753 1863 
L 3688 0 
L 2938 0 
L 1159 1709 
L 1159 0 
L 581 0 
L 581 4863 
z
" transform="scale(0.015625)"/>
      <path id="DejaVuSans-6e" d="M 3513 2113 
L 3513 0 
L 2938 0 
L 2938 2094 
Q 2938 2591 2744 2837 
Q 2550 3084 2163 3084 
Q 1697 3084 1428 2787 
Q 1159 2491 1159 1978 
L 1159 0 
L 581 0 
L 581 3500 
L 1159 3500 
L 1159 2956 
Q 1366 3272 1645 3428 
Q 1925 3584 2291 3584 
Q 2894 3584 3203 3211 
Q 3513 2838 3513 2113 
z
" transform="scale(0.015625)"/>
      <path id="DejaVuSans-67" d="M 2906 1791 
Q 2906 2416 2648 2759 
Q 2391 3103 1925 3103 
Q 1463 3103 1205 2759 
Q 947 2416 947 1791 
Q 947 1169 1205 825 
Q 1463 481 1925 481 
Q 2391 481 2648 825 
Q 2906 1169 2906 1791 
z
M 3481 434 
Q 3481 -459 3084 -895 
Q 2688 -1331 1869 -1331 
Q 1566 -1331 1297 -1286 
Q 1028 -1241 775 -1147 
L 775 -588 
Q 1028 -725 1275 -790 
Q 1522 -856 1778 -856 
Q 2344 -856 2625 -561 
Q 2906 -266 2906 331 
L 2906 616 
Q 2728 306 2450 153 
Q 2172 0 1784 0 
Q 1141 0 747 490 
Q 353 981 353 1791 
Q 353 2603 747 3093 
Q 1141 3584 1784 3584 
Q 2172 3584 2450 3431 
Q 2728 3278 2906 2969 
L 2906 3500 
L 3481 3500 
L 3481 434 
z
" transform="scale(0.015625)"/>
      <path id="DejaVuSans-4f" d="M 2522 4238 
Q 1834 4238 1429 3725 
Q 1025 3213 1025 2328 
Q 1025 1447 1429 934 
Q 1834 422 2522 422 
Q 3209 422 3611 934 
Q 4013 1447 4013 2328 
Q 4013 3213 3611 3725 
Q 3209 4238 2522 4238 
z
M 2522 4750 
Q 3503 4750 4090 4092 
Q 4678 3434 4678 2328 
Q 4678 1225 4090 567 
Q 3503 -91 2522 -91 
Q 1538 -91 948 565 
Q 359 1222 359 2328 
Q 359 3434 948 4092 
Q 1538 4750 2522 4750 
z
" transform="scale(0.015625)"/>
      <path id="DejaVuSans-76" d="M 191 3500 
L 800 3500 
L 1894 563 
L 2988 3500 
L 3597 3500 
L 2284 0 
L 1503 0 
L 191 3500 
z
" transform="scale(0.015625)"/>
     </defs>
     <use xlink:href="#DejaVuSans-54"/>
     <use xlink:href="#DejaVuSans-72" x="46.333984"/>
     <use xlink:href="#DejaVuSans-61" x="87.447266"/>
     <use xlink:href="#DejaVuSans-63" x="148.726562"/>
     <use xlink:href="#DejaVuSans-6b" x="203.707031"/>
     <use xlink:href="#DejaVuSans-69" x="261.617188"/>
     <use xlink:href="#DejaVuSans-6e" x="289.400391"/>
     <use xlink:href="#DejaVuSans-67" x="352.779297"/>
     <use xlink:href="#DejaVuSans-20" x="416.255859"/>
     <use xlink:href="#DejaVuSans-45" x="448.042969"/>
     <use xlink:href="#DejaVuSans-72" x="511.226562"/>
     <use xlink:href="#DejaVuSans-72" x="550.589844"/>
     <use xlink:href="#DejaVuSans-6f" x="589.453125"/>
     <use xlink:href="#DejaVuSans-72" x="650.634766"/>
     <use xlink:href="#DejaVuSans-73" x="691.748047"/>
     <use xlink:href="#DejaVuSans-20" x="743.847656"/>
     <use xlink:href="#DejaVuSans-4f" x="775.634766"/>
     <use xlink:href="#DejaVuSans-76" x="854.345703"/>
     <use xlink:href="#DejaVuSans-65" x="913.525391"/>
     <use xlink:href="#DejaVuSans-72" x="975.048828"/>
     <use xlink:href="#DejaVuSans-20" x="1016.162109"/>
     <use xlink:href="#DejaVuSans-54" x="1047.949219"/>
     <use xlink:href="#DejaVuSans-69" x="1105.908203"/>
     <use xlink:href="#DejaVuSans-6d" x="1133.691406"/>
     <use xlink:href="#DejaVuSans-65" x="1231.103516"/>
    </g>
    <!-- mode: bbox, disired distance: 3m -->
    <g transform="translate(205.486562 35.856) scale(0.12 -0.12)">
     <defs>
      <path id="DejaVuSans-64" d="M 2906 2969 
L 2906 4863 
L 3481 4863 
L 3481 0 
L 2906 0 
L 2906 525 
Q 2725 213 2448 61 
Q 2172 -91 1784 -91 
Q 1150 -91 751 415 
Q 353 922 353 1747 
Q 353 2572 751 3078 
Q 1150 3584 1784 3584 
Q 2172 3584 2448 3432 
Q 2725 3281 2906 2969 
z
M 947 1747 
Q 947 1113 1208 752 
Q 1469 391 1925 391 
Q 2381 391 2643 752 
Q 2906 1113 2906 1747 
Q 2906 2381 2643 2742 
Q 2381 3103 1925 3103 
Q 1469 3103 1208 2742 
Q 947 2381 947 1747 
z
" transform="scale(0.015625)"/>
      <path id="DejaVuSans-3a" d="M 750 794 
L 1409 794 
L 1409 0 
L 750 0 
L 750 794 
z
M 750 3309 
L 1409 3309 
L 1409 2516 
L 750 2516 
L 750 3309 
z
" transform="scale(0.015625)"/>
      <path id="DejaVuSans-62" d="M 3116 1747 
Q 3116 2381 2855 2742 
Q 2594 3103 2138 3103 
Q 1681 3103 1420 2742 
Q 1159 2381 1159 1747 
Q 1159 1113 1420 752 
Q 1681 391 2138 391 
Q 2594 391 2855 752 
Q 3116 1113 3116 1747 
z
M 1159 2969 
Q 1341 3281 1617 3432 
Q 1894 3584 2278 3584 
Q 2916 3584 3314 3078 
Q 3713 2572 3713 1747 
Q 3713 922 3314 415 
Q 2916 -91 2278 -91 
Q 1894 -91 1617 61 
Q 1341 213 1159 525 
L 1159 0 
L 581 0 
L 581 4863 
L 1159 4863 
L 1159 2969 
z
" transform="scale(0.015625)"/>
      <path id="DejaVuSans-78" d="M 3513 3500 
L 2247 1797 
L 3578 0 
L 2900 0 
L 1881 1375 
L 863 0 
L 184 0 
L 1544 1831 
L 300 3500 
L 978 3500 
L 1906 2253 
L 2834 3500 
L 3513 3500 
z
" transform="scale(0.015625)"/>
      <path id="DejaVuSans-2c" d="M 750 794 
L 1409 794 
L 1409 256 
L 897 -744 
L 494 -744 
L 750 256 
L 750 794 
z
" transform="scale(0.015625)"/>
      <path id="DejaVuSans-74" d="M 1172 4494 
L 1172 3500 
L 2356 3500 
L 2356 3053 
L 1172 3053 
L 1172 1153 
Q 1172 725 1289 603 
Q 1406 481 1766 481 
L 2356 481 
L 2356 0 
L 1766 0 
Q 1100 0 847 248 
Q 594 497 594 1153 
L 594 3053 
L 172 3053 
L 172 3500 
L 594 3500 
L 594 4494 
L 1172 4494 
z
" transform="scale(0.015625)"/>
     </defs>
     <use xlink:href="#DejaVuSans-6d"/>
     <use xlink:href="#DejaVuSans-6f" x="97.412109"/>
     <use xlink:href="#DejaVuSans-64" x="158.59375"/>
     <use xlink:href="#DejaVuSans-65" x="222.070312"/>
     <use xlink:href="#DejaVuSans-3a" x="283.59375"/>
     <use xlink:href="#DejaVuSans-20" x="317.285156"/>
     <use xlink:href="#DejaVuSans-62" x="349.072266"/>
     <use xlink:href="#DejaVuSans-62" x="412.548828"/>
     <use xlink:href="#DejaVuSans-6f" x="476.025391"/>
     <use xlink:href="#DejaVuSans-78" x="534.082031"/>
     <use xlink:href="#DejaVuSans-2c" x="593.261719"/>
     <use xlink:href="#DejaVuSans-20" x="625.048828"/>
     <use xlink:href="#DejaVuSans-64" x="656.835938"/>
     <use xlink:href="#DejaVuSans-69" x="720.3125"/>
     <use xlink:href="#DejaVuSans-73" x="748.095703"/>
     <use xlink:href="#DejaVuSans-69" x="800.195312"/>
     <use xlink:href="#DejaVuSans-72" x="827.978516"/>
     <use xlink:href="#DejaVuSans-65" x="866.841797"/>
     <use xlink:href="#DejaVuSans-64" x="928.365234"/>
     <use xlink:href="#DejaVuSans-20" x="991.841797"/>
     <use xlink:href="#DejaVuSans-64" x="1023.628906"/>
     <use xlink:href="#DejaVuSans-69" x="1087.105469"/>
     <use xlink:href="#DejaVuSans-73" x="1114.888672"/>
     <use xlink:href="#DejaVuSans-74" x="1166.988281"/>
     <use xlink:href="#DejaVuSans-61" x="1206.197266"/>
     <use xlink:href="#DejaVuSans-6e" x="1267.476562"/>
     <use xlink:href="#DejaVuSans-63" x="1330.855469"/>
     <use xlink:href="#DejaVuSans-65" x="1385.835938"/>
     <use xlink:href="#DejaVuSans-3a" x="1447.359375"/>
     <use xlink:href="#DejaVuSans-20" x="1481.050781"/>
     <use xlink:href="#DejaVuSans-33" x="1512.837891"/>
     <use xlink:href="#DejaVuSans-6d" x="1576.460938"/>
    </g>
   </g>
   <g id="legend_1">
    <g id="patch_7">
     <path d="M 53.64 79.21225 
L 178.13375 79.21225 
Q 180.13375 79.21225 180.13375 77.21225 
L 180.13375 48.856 
Q 180.13375 46.856 178.13375 46.856 
L 53.64 46.856 
Q 51.64 46.856 51.64 48.856 
L 51.64 77.21225 
Q 51.64 79.21225 53.64 79.21225 
z
" style="fill: #ffffff; opacity: 0.8; stroke: #cccccc; stroke-linejoin: miter"/>
    </g>
    <g id="line2d_31">
     <path d="M 55.64 54.954438 
L 65.64 54.954438 
L 75.64 54.954438 
" style="fill: none; stroke: #1f77b4; stroke-width: 1.5; stroke-linecap: square"/>
    </g>
    <g id="text_18">
     <!-- Forward Error -->
     <g transform="translate(83.64 58.454438) scale(0.1 -0.1)">
      <defs>
       <path id="DejaVuSans-46" d="M 628 4666 
L 3309 4666 
L 3309 4134 
L 1259 4134 
L 1259 2759 
L 3109 2759 
L 3109 2228 
L 1259 2228 
L 1259 0 
L 628 0 
L 628 4666 
z
" transform="scale(0.015625)"/>
       <path id="DejaVuSans-77" d="M 269 3500 
L 844 3500 
L 1563 769 
L 2278 3500 
L 2956 3500 
L 3675 769 
L 4391 3500 
L 4966 3500 
L 4050 0 
L 3372 0 
L 2619 2869 
L 1863 0 
L 1184 0 
L 269 3500 
z
" transform="scale(0.015625)"/>
      </defs>
      <use xlink:href="#DejaVuSans-46"/>
      <use xlink:href="#DejaVuSans-6f" x="53.894531"/>
      <use xlink:href="#DejaVuSans-72" x="115.076172"/>
      <use xlink:href="#DejaVuSans-77" x="156.189453"/>
      <use xlink:href="#DejaVuSans-61" x="237.976562"/>
      <use xlink:href="#DejaVuSans-72" x="299.255859"/>
      <use xlink:href="#DejaVuSans-64" x="338.619141"/>
      <use xlink:href="#DejaVuSans-20" x="402.095703"/>
      <use xlink:href="#DejaVuSans-45" x="433.882812"/>
      <use xlink:href="#DejaVuSans-72" x="497.066406"/>
      <use xlink:href="#DejaVuSans-72" x="536.429688"/>
      <use xlink:href="#DejaVuSans-6f" x="575.292969"/>
      <use xlink:href="#DejaVuSans-72" x="636.474609"/>
     </g>
    </g>
    <g id="line2d_32">
     <path d="M 55.64 69.632563 
L 65.64 69.632563 
L 75.64 69.632563 
" style="fill: none; stroke-dasharray: 5.55,2.4; stroke-dashoffset: 0; stroke: #ff7f0e; stroke-width: 1.5"/>
    </g>
    <g id="text_19">
     <!-- Real Forward Error -->
     <g transform="translate(83.64 73.132563) scale(0.1 -0.1)">
      <defs>
       <path id="DejaVuSans-52" d="M 2841 2188 
Q 3044 2119 3236 1894 
Q 3428 1669 3622 1275 
L 4263 0 
L 3584 0 
L 2988 1197 
Q 2756 1666 2539 1819 
Q 2322 1972 1947 1972 
L 1259 1972 
L 1259 0 
L 628 0 
L 628 4666 
L 2053 4666 
Q 2853 4666 3247 4331 
Q 3641 3997 3641 3322 
Q 3641 2881 3436 2590 
Q 3231 2300 2841 2188 
z
M 1259 4147 
L 1259 2491 
L 2053 2491 
Q 2509 2491 2742 2702 
Q 2975 2913 2975 3322 
Q 2975 3731 2742 3939 
Q 2509 4147 2053 4147 
L 1259 4147 
z
" transform="scale(0.015625)"/>
       <path id="DejaVuSans-6c" d="M 603 4863 
L 1178 4863 
L 1178 0 
L 603 0 
L 603 4863 
z
" transform="scale(0.015625)"/>
      </defs>
      <use xlink:href="#DejaVuSans-52"/>
      <use xlink:href="#DejaVuSans-65" x="64.982422"/>
      <use xlink:href="#DejaVuSans-61" x="126.505859"/>
      <use xlink:href="#DejaVuSans-6c" x="187.785156"/>
      <use xlink:href="#DejaVuSans-20" x="215.568359"/>
      <use xlink:href="#DejaVuSans-46" x="247.355469"/>
      <use xlink:href="#DejaVuSans-6f" x="301.25"/>
      <use xlink:href="#DejaVuSans-72" x="362.431641"/>
      <use xlink:href="#DejaVuSans-77" x="403.544922"/>
      <use xlink:href="#DejaVuSans-61" x="485.332031"/>
      <use xlink:href="#DejaVuSans-72" x="546.611328"/>
      <use xlink:href="#DejaVuSans-64" x="585.974609"/>
      <use xlink:href="#DejaVuSans-20" x="649.451172"/>
      <use xlink:href="#DejaVuSans-45" x="681.238281"/>
      <use xlink:href="#DejaVuSans-72" x="744.421875"/>
      <use xlink:href="#DejaVuSans-72" x="783.785156"/>
      <use xlink:href="#DejaVuSans-6f" x="822.648438"/>
      <use xlink:href="#DejaVuSans-72" x="883.830078"/>
     </g>
    </g>
   </g>
  </g>
 </g>
 <defs>
  <clipPath id="p39c4e01c1f">
   <rect x="46.64" y="41.856" width="518.56" height="204.184"/>
  </clipPath>
 </defs>
</svg>
