<?xml version="1.0" encoding="utf-8" standalone="no"?>
<!DOCTYPE svg PUBLIC "-//W3C//DTD SVG 1.1//EN"
  "http://www.w3.org/Graphics/SVG/1.1/DTD/svg11.dtd">
<svg xmlns:xlink="http://www.w3.org/1999/xlink" width="576pt" height="288pt" viewBox="0 0 576 288" xmlns="http://www.w3.org/2000/svg" version="1.1">
 <metadata>
  <rdf:RDF xmlns:dc="http://purl.org/dc/elements/1.1/" xmlns:cc="http://creativecommons.org/ns#" xmlns:rdf="http://www.w3.org/1999/02/22-rdf-syntax-ns#">
   <cc:Work>
    <dc:type rdf:resource="http://purl.org/dc/dcmitype/StillImage"/>
    <dc:date>2025-04-04T22:26:42.148190</dc:date>
    <dc:format>image/svg+xml</dc:format>
    <dc:creator>
     <cc:Agent>
      <dc:title>Matplotlib v3.7.5, https://matplotlib.org/</dc:title>
     </cc:Agent>
    </dc:creator>
   </cc:Work>
  </rdf:RDF>
 </metadata>
 <defs>
  <style type="text/css">*{stroke-linejoin: round; stroke-linecap: butt}</style>
 </defs>
 <g id="figure_1">
  <g id="patch_1">
   <path d="M 0 288 
L 576 288 
L 576 0 
L 0 0 
z
" style="fill: #ffffff"/>
  </g>
  <g id="axes_1">
   <g id="patch_2">
    <path d="M 46.55 246.04 
L 560.411231 246.04 
L 560.411231 41.856 
L 46.55 41.856 
z
" style="fill: #ffffff"/>
   </g>
   <g id="matplotlib.axis_1">
    <g id="xtick_1">
     <g id="line2d_1">
      <path d="M 69.904519 246.04 
L 69.904519 41.856 
" clip-path="url(#p0221a4ea64)" style="fill: none; stroke: #b0b0b0; stroke-width: 0.8; stroke-linecap: square"/>
     </g>
     <g id="line2d_2">
      <defs>
       <path id="me0eb8ce08b" d="M 0 0 
L 0 3.5 
" style="stroke: #000000; stroke-width: 0.8"/>
      </defs>
      <g>
       <use xlink:href="#me0eb8ce08b" x="69.904519" y="246.04" style="stroke: #000000; stroke-width: 0.8"/>
      </g>
     </g>
     <g id="text_1">
      <!-- 0 -->
      <g transform="translate(66.723269 260.638438) scale(0.1 -0.1)">
       <defs>
        <path id="DejaVuSans-30" d="M 2034 4250 
Q 1547 4250 1301 3770 
Q 1056 3291 1056 2328 
Q 1056 1369 1301 889 
Q 1547 409 2034 409 
Q 2525 409 2770 889 
Q 3016 1369 3016 2328 
Q 3016 3291 2770 3770 
Q 2525 4250 2034 4250 
z
M 2034 4750 
Q 2819 4750 3233 4129 
Q 3647 3509 3647 2328 
Q 3647 1150 3233 529 
Q 2819 -91 2034 -91 
Q 1250 -91 836 529 
Q 422 1150 422 2328 
Q 422 3509 836 4129 
Q 1250 4750 2034 4750 
z
" transform="scale(0.015625)"/>
       </defs>
       <use xlink:href="#DejaVuSans-30"/>
      </g>
     </g>
    </g>
    <g id="xtick_2">
     <g id="line2d_3">
      <path d="M 130.534201 246.04 
L 130.534201 41.856 
" clip-path="url(#p0221a4ea64)" style="fill: none; stroke: #b0b0b0; stroke-width: 0.8; stroke-linecap: square"/>
     </g>
     <g id="line2d_4">
      <g>
       <use xlink:href="#me0eb8ce08b" x="130.534201" y="246.04" style="stroke: #000000; stroke-width: 0.8"/>
      </g>
     </g>
     <g id="text_2">
      <!-- 20 -->
      <g transform="translate(124.171701 260.638438) scale(0.1 -0.1)">
       <defs>
        <path id="DejaVuSans-32" d="M 1228 531 
L 3431 531 
L 3431 0 
L 469 0 
L 469 531 
Q 828 903 1448 1529 
Q 2069 2156 2228 2338 
Q 2531 2678 2651 2914 
Q 2772 3150 2772 3378 
Q 2772 3750 2511 3984 
Q 2250 4219 1831 4219 
Q 1534 4219 1204 4116 
Q 875 4013 500 3803 
L 500 4441 
Q 881 4594 1212 4672 
Q 1544 4750 1819 4750 
Q 2544 4750 2975 4387 
Q 3406 4025 3406 3419 
Q 3406 3131 3298 2873 
Q 3191 2616 2906 2266 
Q 2828 2175 2409 1742 
Q 1991 1309 1228 531 
z
" transform="scale(0.015625)"/>
       </defs>
       <use xlink:href="#DejaVuSans-32"/>
       <use xlink:href="#DejaVuSans-30" x="63.623047"/>
      </g>
     </g>
    </g>
    <g id="xtick_3">
     <g id="line2d_5">
      <path d="M 191.163884 246.04 
L 191.163884 41.856 
" clip-path="url(#p0221a4ea64)" style="fill: none; stroke: #b0b0b0; stroke-width: 0.8; stroke-linecap: square"/>
     </g>
     <g id="line2d_6">
      <g>
       <use xlink:href="#me0eb8ce08b" x="191.163884" y="246.04" style="stroke: #000000; stroke-width: 0.8"/>
      </g>
     </g>
     <g id="text_3">
      <!-- 40 -->
      <g transform="translate(184.801384 260.638438) scale(0.1 -0.1)">
       <defs>
        <path id="DejaVuSans-34" d="M 2419 4116 
L 825 1625 
L 2419 1625 
L 2419 4116 
z
M 2253 4666 
L 3047 4666 
L 3047 1625 
L 3713 1625 
L 3713 1100 
L 3047 1100 
L 3047 0 
L 2419 0 
L 2419 1100 
L 313 1100 
L 313 1709 
L 2253 4666 
z
" transform="scale(0.015625)"/>
       </defs>
       <use xlink:href="#DejaVuSans-34"/>
       <use xlink:href="#DejaVuSans-30" x="63.623047"/>
      </g>
     </g>
    </g>
    <g id="xtick_4">
     <g id="line2d_7">
      <path d="M 251.793567 246.04 
L 251.793567 41.856 
" clip-path="url(#p0221a4ea64)" style="fill: none; stroke: #b0b0b0; stroke-width: 0.8; stroke-linecap: square"/>
     </g>
     <g id="line2d_8">
      <g>
       <use xlink:href="#me0eb8ce08b" x="251.793567" y="246.04" style="stroke: #000000; stroke-width: 0.8"/>
      </g>
     </g>
     <g id="text_4">
      <!-- 60 -->
      <g transform="translate(245.431067 260.638438) scale(0.1 -0.1)">
       <defs>
        <path id="DejaVuSans-36" d="M 2113 2584 
Q 1688 2584 1439 2293 
Q 1191 2003 1191 1497 
Q 1191 994 1439 701 
Q 1688 409 2113 409 
Q 2538 409 2786 701 
Q 3034 994 3034 1497 
Q 3034 2003 2786 2293 
Q 2538 2584 2113 2584 
z
M 3366 4563 
L 3366 3988 
Q 3128 4100 2886 4159 
Q 2644 4219 2406 4219 
Q 1781 4219 1451 3797 
Q 1122 3375 1075 2522 
Q 1259 2794 1537 2939 
Q 1816 3084 2150 3084 
Q 2853 3084 3261 2657 
Q 3669 2231 3669 1497 
Q 3669 778 3244 343 
Q 2819 -91 2113 -91 
Q 1303 -91 875 529 
Q 447 1150 447 2328 
Q 447 3434 972 4092 
Q 1497 4750 2381 4750 
Q 2619 4750 2861 4703 
Q 3103 4656 3366 4563 
z
" transform="scale(0.015625)"/>
       </defs>
       <use xlink:href="#DejaVuSans-36"/>
       <use xlink:href="#DejaVuSans-30" x="63.623047"/>
      </g>
     </g>
    </g>
    <g id="xtick_5">
     <g id="line2d_9">
      <path d="M 312.42325 246.04 
L 312.42325 41.856 
" clip-path="url(#p0221a4ea64)" style="fill: none; stroke: #b0b0b0; stroke-width: 0.8; stroke-linecap: square"/>
     </g>
     <g id="line2d_10">
      <g>
       <use xlink:href="#me0eb8ce08b" x="312.42325" y="246.04" style="stroke: #000000; stroke-width: 0.8"/>
      </g>
     </g>
     <g id="text_5">
      <!-- 80 -->
      <g transform="translate(306.06075 260.638438) scale(0.1 -0.1)">
       <defs>
        <path id="DejaVuSans-38" d="M 2034 2216 
Q 1584 2216 1326 1975 
Q 1069 1734 1069 1313 
Q 1069 891 1326 650 
Q 1584 409 2034 409 
Q 2484 409 2743 651 
Q 3003 894 3003 1313 
Q 3003 1734 2745 1975 
Q 2488 2216 2034 2216 
z
M 1403 2484 
Q 997 2584 770 2862 
Q 544 3141 544 3541 
Q 544 4100 942 4425 
Q 1341 4750 2034 4750 
Q 2731 4750 3128 4425 
Q 3525 4100 3525 3541 
Q 3525 3141 3298 2862 
Q 3072 2584 2669 2484 
Q 3125 2378 3379 2068 
Q 3634 1759 3634 1313 
Q 3634 634 3220 271 
Q 2806 -91 2034 -91 
Q 1263 -91 848 271 
Q 434 634 434 1313 
Q 434 1759 690 2068 
Q 947 2378 1403 2484 
z
M 1172 3481 
Q 1172 3119 1398 2916 
Q 1625 2713 2034 2713 
Q 2441 2713 2670 2916 
Q 2900 3119 2900 3481 
Q 2900 3844 2670 4047 
Q 2441 4250 2034 4250 
Q 1625 4250 1398 4047 
Q 1172 3844 1172 3481 
z
" transform="scale(0.015625)"/>
       </defs>
       <use xlink:href="#DejaVuSans-38"/>
       <use xlink:href="#DejaVuSans-30" x="63.623047"/>
      </g>
     </g>
    </g>
    <g id="xtick_6">
     <g id="line2d_11">
      <path d="M 373.052932 246.04 
L 373.052932 41.856 
" clip-path="url(#p0221a4ea64)" style="fill: none; stroke: #b0b0b0; stroke-width: 0.8; stroke-linecap: square"/>
     </g>
     <g id="line2d_12">
      <g>
       <use xlink:href="#me0eb8ce08b" x="373.052932" y="246.04" style="stroke: #000000; stroke-width: 0.8"/>
      </g>
     </g>
     <g id="text_6">
      <!-- 100 -->
      <g transform="translate(363.509182 260.638438) scale(0.1 -0.1)">
       <defs>
        <path id="DejaVuSans-31" d="M 794 531 
L 1825 531 
L 1825 4091 
L 703 3866 
L 703 4441 
L 1819 4666 
L 2450 4666 
L 2450 531 
L 3481 531 
L 3481 0 
L 794 0 
L 794 531 
z
" transform="scale(0.015625)"/>
       </defs>
       <use xlink:href="#DejaVuSans-31"/>
       <use xlink:href="#DejaVuSans-30" x="63.623047"/>
       <use xlink:href="#DejaVuSans-30" x="127.246094"/>
      </g>
     </g>
    </g>
    <g id="xtick_7">
     <g id="line2d_13">
      <path d="M 433.682615 246.04 
L 433.682615 41.856 
" clip-path="url(#p0221a4ea64)" style="fill: none; stroke: #b0b0b0; stroke-width: 0.8; stroke-linecap: square"/>
     </g>
     <g id="line2d_14">
      <g>
       <use xlink:href="#me0eb8ce08b" x="433.682615" y="246.04" style="stroke: #000000; stroke-width: 0.8"/>
      </g>
     </g>
     <g id="text_7">
      <!-- 120 -->
      <g transform="translate(424.138865 260.638438) scale(0.1 -0.1)">
       <use xlink:href="#DejaVuSans-31"/>
       <use xlink:href="#DejaVuSans-32" x="63.623047"/>
       <use xlink:href="#DejaVuSans-30" x="127.246094"/>
      </g>
     </g>
    </g>
    <g id="xtick_8">
     <g id="line2d_15">
      <path d="M 494.312298 246.04 
L 494.312298 41.856 
" clip-path="url(#p0221a4ea64)" style="fill: none; stroke: #b0b0b0; stroke-width: 0.8; stroke-linecap: square"/>
     </g>
     <g id="line2d_16">
      <g>
       <use xlink:href="#me0eb8ce08b" x="494.312298" y="246.04" style="stroke: #000000; stroke-width: 0.8"/>
      </g>
     </g>
     <g id="text_8">
      <!-- 140 -->
      <g transform="translate(484.768548 260.638438) scale(0.1 -0.1)">
       <use xlink:href="#DejaVuSans-31"/>
       <use xlink:href="#DejaVuSans-34" x="63.623047"/>
       <use xlink:href="#DejaVuSans-30" x="127.246094"/>
      </g>
     </g>
    </g>
    <g id="xtick_9">
     <g id="line2d_17">
      <path d="M 554.941981 246.04 
L 554.941981 41.856 
" clip-path="url(#p0221a4ea64)" style="fill: none; stroke: #b0b0b0; stroke-width: 0.8; stroke-linecap: square"/>
     </g>
     <g id="line2d_18">
      <g>
       <use xlink:href="#me0eb8ce08b" x="554.941981" y="246.04" style="stroke: #000000; stroke-width: 0.8"/>
      </g>
     </g>
     <g id="text_9">
      <!-- 160 -->
      <g transform="translate(545.398231 260.638438) scale(0.1 -0.1)">
       <use xlink:href="#DejaVuSans-31"/>
       <use xlink:href="#DejaVuSans-36" x="63.623047"/>
       <use xlink:href="#DejaVuSans-30" x="127.246094"/>
      </g>
     </g>
    </g>
    <g id="text_10">
     <!-- Time (s) -->
     <g transform="translate(283.151709 274.316562) scale(0.1 -0.1)">
      <defs>
       <path id="DejaVuSans-54" d="M -19 4666 
L 3928 4666 
L 3928 4134 
L 2272 4134 
L 2272 0 
L 1638 0 
L 1638 4134 
L -19 4134 
L -19 4666 
z
" transform="scale(0.015625)"/>
       <path id="DejaVuSans-69" d="M 603 3500 
L 1178 3500 
L 1178 0 
L 603 0 
L 603 3500 
z
M 603 4863 
L 1178 4863 
L 1178 4134 
L 603 4134 
L 603 4863 
z
" transform="scale(0.015625)"/>
       <path id="DejaVuSans-6d" d="M 3328 2828 
Q 3544 3216 3844 3400 
Q 4144 3584 4550 3584 
Q 5097 3584 5394 3201 
Q 5691 2819 5691 2113 
L 5691 0 
L 5113 0 
L 5113 2094 
Q 5113 2597 4934 2840 
Q 4756 3084 4391 3084 
Q 3944 3084 3684 2787 
Q 3425 2491 3425 1978 
L 3425 0 
L 2847 0 
L 2847 2094 
Q 2847 2600 2669 2842 
Q 2491 3084 2119 3084 
Q 1678 3084 1418 2786 
Q 1159 2488 1159 1978 
L 1159 0 
L 581 0 
L 581 3500 
L 1159 3500 
L 1159 2956 
Q 1356 3278 1631 3431 
Q 1906 3584 2284 3584 
Q 2666 3584 2933 3390 
Q 3200 3197 3328 2828 
z
" transform="scale(0.015625)"/>
       <path id="DejaVuSans-65" d="M 3597 1894 
L 3597 1613 
L 953 1613 
Q 991 1019 1311 708 
Q 1631 397 2203 397 
Q 2534 397 2845 478 
Q 3156 559 3463 722 
L 3463 178 
Q 3153 47 2828 -22 
Q 2503 -91 2169 -91 
Q 1331 -91 842 396 
Q 353 884 353 1716 
Q 353 2575 817 3079 
Q 1281 3584 2069 3584 
Q 2775 3584 3186 3129 
Q 3597 2675 3597 1894 
z
M 3022 2063 
Q 3016 2534 2758 2815 
Q 2500 3097 2075 3097 
Q 1594 3097 1305 2825 
Q 1016 2553 972 2059 
L 3022 2063 
z
" transform="scale(0.015625)"/>
       <path id="DejaVuSans-20" transform="scale(0.015625)"/>
       <path id="DejaVuSans-28" d="M 1984 4856 
Q 1566 4138 1362 3434 
Q 1159 2731 1159 2009 
Q 1159 1288 1364 580 
Q 1569 -128 1984 -844 
L 1484 -844 
Q 1016 -109 783 600 
Q 550 1309 550 2009 
Q 550 2706 781 3412 
Q 1013 4119 1484 4856 
L 1984 4856 
z
" transform="scale(0.015625)"/>
       <path id="DejaVuSans-73" d="M 2834 3397 
L 2834 2853 
Q 2591 2978 2328 3040 
Q 2066 3103 1784 3103 
Q 1356 3103 1142 2972 
Q 928 2841 928 2578 
Q 928 2378 1081 2264 
Q 1234 2150 1697 2047 
L 1894 2003 
Q 2506 1872 2764 1633 
Q 3022 1394 3022 966 
Q 3022 478 2636 193 
Q 2250 -91 1575 -91 
Q 1294 -91 989 -36 
Q 684 19 347 128 
L 347 722 
Q 666 556 975 473 
Q 1284 391 1588 391 
Q 1994 391 2212 530 
Q 2431 669 2431 922 
Q 2431 1156 2273 1281 
Q 2116 1406 1581 1522 
L 1381 1569 
Q 847 1681 609 1914 
Q 372 2147 372 2553 
Q 372 3047 722 3315 
Q 1072 3584 1716 3584 
Q 2034 3584 2315 3537 
Q 2597 3491 2834 3397 
z
" transform="scale(0.015625)"/>
       <path id="DejaVuSans-29" d="M 513 4856 
L 1013 4856 
Q 1481 4119 1714 3412 
Q 1947 2706 1947 2009 
Q 1947 1309 1714 600 
Q 1481 -109 1013 -844 
L 513 -844 
Q 928 -128 1133 580 
Q 1338 1288 1338 2009 
Q 1338 2731 1133 3434 
Q 928 4138 513 4856 
z
" transform="scale(0.015625)"/>
      </defs>
      <use xlink:href="#DejaVuSans-54"/>
      <use xlink:href="#DejaVuSans-69" x="57.958984"/>
      <use xlink:href="#DejaVuSans-6d" x="85.742188"/>
      <use xlink:href="#DejaVuSans-65" x="183.154297"/>
      <use xlink:href="#DejaVuSans-20" x="244.677734"/>
      <use xlink:href="#DejaVuSans-28" x="276.464844"/>
      <use xlink:href="#DejaVuSans-73" x="315.478516"/>
      <use xlink:href="#DejaVuSans-29" x="367.578125"/>
     </g>
    </g>
   </g>
   <g id="matplotlib.axis_2">
    <g id="ytick_1">
     <g id="line2d_19">
      <path d="M 46.55 219.477907 
L 560.411231 219.477907 
" clip-path="url(#p0221a4ea64)" style="fill: none; stroke: #b0b0b0; stroke-width: 0.8; stroke-linecap: square"/>
     </g>
     <g id="line2d_20">
      <defs>
       <path id="me988703f43" d="M 0 0 
L -3.5 0 
" style="stroke: #000000; stroke-width: 0.8"/>
      </defs>
      <g>
       <use xlink:href="#me988703f43" x="46.55" y="219.477907" style="stroke: #000000; stroke-width: 0.8"/>
      </g>
     </g>
     <g id="text_11">
      <!-- −4 -->
      <g transform="translate(24.807813 223.277125) scale(0.1 -0.1)">
       <defs>
        <path id="DejaVuSans-2212" d="M 678 2272 
L 4684 2272 
L 4684 1741 
L 678 1741 
L 678 2272 
z
" transform="scale(0.015625)"/>
       </defs>
       <use xlink:href="#DejaVuSans-2212"/>
       <use xlink:href="#DejaVuSans-34" x="83.789062"/>
      </g>
     </g>
    </g>
    <g id="ytick_2">
     <g id="line2d_21">
      <path d="M 46.55 192.673868 
L 560.411231 192.673868 
" clip-path="url(#p0221a4ea64)" style="fill: none; stroke: #b0b0b0; stroke-width: 0.8; stroke-linecap: square"/>
     </g>
     <g id="line2d_22">
      <g>
       <use xlink:href="#me988703f43" x="46.55" y="192.673868" style="stroke: #000000; stroke-width: 0.8"/>
      </g>
     </g>
     <g id="text_12">
      <!-- −2 -->
      <g transform="translate(24.807813 196.473087) scale(0.1 -0.1)">
       <use xlink:href="#DejaVuSans-2212"/>
       <use xlink:href="#DejaVuSans-32" x="83.789062"/>
      </g>
     </g>
    </g>
    <g id="ytick_3">
     <g id="line2d_23">
      <path d="M 46.55 165.86983 
L 560.411231 165.86983 
" clip-path="url(#p0221a4ea64)" style="fill: none; stroke: #b0b0b0; stroke-width: 0.8; stroke-linecap: square"/>
     </g>
     <g id="line2d_24">
      <g>
       <use xlink:href="#me988703f43" x="46.55" y="165.86983" style="stroke: #000000; stroke-width: 0.8"/>
      </g>
     </g>
     <g id="text_13">
      <!-- 0 -->
      <g transform="translate(33.1875 169.669049) scale(0.1 -0.1)">
       <use xlink:href="#DejaVuSans-30"/>
      </g>
     </g>
    </g>
    <g id="ytick_4">
     <g id="line2d_25">
      <path d="M 46.55 139.065792 
L 560.411231 139.065792 
" clip-path="url(#p0221a4ea64)" style="fill: none; stroke: #b0b0b0; stroke-width: 0.8; stroke-linecap: square"/>
     </g>
     <g id="line2d_26">
      <g>
       <use xlink:href="#me988703f43" x="46.55" y="139.065792" style="stroke: #000000; stroke-width: 0.8"/>
      </g>
     </g>
     <g id="text_14">
      <!-- 2 -->
      <g transform="translate(33.1875 142.865011) scale(0.1 -0.1)">
       <use xlink:href="#DejaVuSans-32"/>
      </g>
     </g>
    </g>
    <g id="ytick_5">
     <g id="line2d_27">
      <path d="M 46.55 112.261754 
L 560.411231 112.261754 
" clip-path="url(#p0221a4ea64)" style="fill: none; stroke: #b0b0b0; stroke-width: 0.8; stroke-linecap: square"/>
     </g>
     <g id="line2d_28">
      <g>
       <use xlink:href="#me988703f43" x="46.55" y="112.261754" style="stroke: #000000; stroke-width: 0.8"/>
      </g>
     </g>
     <g id="text_15">
      <!-- 4 -->
      <g transform="translate(33.1875 116.060972) scale(0.1 -0.1)">
       <use xlink:href="#DejaVuSans-34"/>
      </g>
     </g>
    </g>
    <g id="ytick_6">
     <g id="line2d_29">
      <path d="M 46.55 85.457715 
L 560.411231 85.457715 
" clip-path="url(#p0221a4ea64)" style="fill: none; stroke: #b0b0b0; stroke-width: 0.8; stroke-linecap: square"/>
     </g>
     <g id="line2d_30">
      <g>
       <use xlink:href="#me988703f43" x="46.55" y="85.457715" style="stroke: #000000; stroke-width: 0.8"/>
      </g>
     </g>
     <g id="text_16">
      <!-- 6 -->
      <g transform="translate(33.1875 89.256934) scale(0.1 -0.1)">
       <use xlink:href="#DejaVuSans-36"/>
      </g>
     </g>
    </g>
    <g id="ytick_7">
     <g id="line2d_31">
      <path d="M 46.55 58.653677 
L 560.411231 58.653677 
" clip-path="url(#p0221a4ea64)" style="fill: none; stroke: #b0b0b0; stroke-width: 0.8; stroke-linecap: square"/>
     </g>
     <g id="line2d_32">
      <g>
       <use xlink:href="#me988703f43" x="46.55" y="58.653677" style="stroke: #000000; stroke-width: 0.8"/>
      </g>
     </g>
     <g id="text_17">
      <!-- 8 -->
      <g transform="translate(33.1875 62.452896) scale(0.1 -0.1)">
       <use xlink:href="#DejaVuSans-38"/>
      </g>
     </g>
    </g>
    <g id="text_18">
     <!-- Error -->
     <g transform="translate(18.728125 156.133156) rotate(-90) scale(0.1 -0.1)">
      <defs>
       <path id="DejaVuSans-45" d="M 628 4666 
L 3578 4666 
L 3578 4134 
L 1259 4134 
L 1259 2753 
L 3481 2753 
L 3481 2222 
L 1259 2222 
L 1259 531 
L 3634 531 
L 3634 0 
L 628 0 
L 628 4666 
z
" transform="scale(0.015625)"/>
       <path id="DejaVuSans-72" d="M 2631 2963 
Q 2534 3019 2420 3045 
Q 2306 3072 2169 3072 
Q 1681 3072 1420 2755 
Q 1159 2438 1159 1844 
L 1159 0 
L 581 0 
L 581 3500 
L 1159 3500 
L 1159 2956 
Q 1341 3275 1631 3429 
Q 1922 3584 2338 3584 
Q 2397 3584 2469 3576 
Q 2541 3569 2628 3553 
L 2631 2963 
z
" transform="scale(0.015625)"/>
       <path id="DejaVuSans-6f" d="M 1959 3097 
Q 1497 3097 1228 2736 
Q 959 2375 959 1747 
Q 959 1119 1226 758 
Q 1494 397 1959 397 
Q 2419 397 2687 759 
Q 2956 1122 2956 1747 
Q 2956 2369 2687 2733 
Q 2419 3097 1959 3097 
z
M 1959 3584 
Q 2709 3584 3137 3096 
Q 3566 2609 3566 1747 
Q 3566 888 3137 398 
Q 2709 -91 1959 -91 
Q 1206 -91 779 398 
Q 353 888 353 1747 
Q 353 2609 779 3096 
Q 1206 3584 1959 3584 
z
" transform="scale(0.015625)"/>
      </defs>
      <use xlink:href="#DejaVuSans-45"/>
      <use xlink:href="#DejaVuSans-72" x="63.183594"/>
      <use xlink:href="#DejaVuSans-72" x="102.546875"/>
      <use xlink:href="#DejaVuSans-6f" x="141.410156"/>
      <use xlink:href="#DejaVuSans-72" x="202.591797"/>
     </g>
    </g>
   </g>
   <g id="line2d_33">
    <path d="M 69.907329 172.974468 
L 70.509515 172.763594 
L 70.813892 172.083205 
L 71.11489 172.083205 
L 71.428366 170.983024 
L 71.7211 169.394127 
L 72.036367 169.652727 
L 72.327148 167.663534 
L 72.634711 164.073873 
L 73.245588 164.073873 
L 73.539479 163.046626 
L 73.847028 154.402513 
L 74.181342 156.790029 
L 74.449975 148.191586 
L 74.75277 148.191586 
L 75.056258 148.823042 
L 75.362884 148.823042 
L 75.662791 153.290272 
L 75.966114 155.590276 
L 76.268697 159.545393 
L 76.57173 165.771759 
L 77.183823 172.230159 
L 77.479872 175.482764 
L 77.784328 175.482764 
L 78.392245 179.033073 
L 78.694676 183.824533 
L 78.999567 185.659518 
L 79.300017 185.659518 
L 79.609229 190.057131 
L 79.911171 192.548673 
L 80.215262 192.548673 
L 80.513597 193.770463 
L 80.817063 195.714685 
L 81.120807 195.369771 
L 82.334953 195.327538 
L 82.635407 194.722046 
L 82.938056 194.972563 
L 83.244635 194.256072 
L 83.542989 194.256072 
L 83.854384 193.949416 
L 84.150064 191.881648 
L 84.453134 191.881648 
L 84.757258 191.074334 
L 85.363339 188.629631 
L 85.674146 188.629631 
L 85.968592 185.809966 
L 86.277833 185.809966 
L 86.580641 181.203302 
L 86.87825 180.879653 
L 87.187952 180.879653 
L 87.485038 177.291884 
L 87.788502 177.291884 
L 88.090738 174.980386 
L 88.393512 174.980386 
L 88.702132 171.950104 
L 89.001442 171.950104 
L 89.305803 168.36304 
L 89.60944 162.715338 
L 89.91106 138.755793 
L 90.21676 123.470831 
L 90.516999 123.470831 
L 90.82562 51.137091 
L 94.767131 51.137091 
L 113.253249 146.911937 
L 114.162164 152.315553 
L 114.466486 194.163774 
L 114.774462 215.122363 
L 115.072045 215.122363 
L 115.376595 217.445539 
L 115.676918 224.015906 
L 115.992435 224.015906 
L 116.285872 231.449603 
L 116.592485 233.424018 
L 116.894739 233.424018 
L 128.111116 232.362348 
L 128.410259 231.479125 
L 128.712659 231.479125 
L 129.627005 228.066345 
L 129.926082 226.165553 
L 130.230175 226.165553 
L 130.531742 205.02117 
L 130.834612 205.02117 
L 131.139456 204.848454 
L 131.444413 200.746678 
L 131.746891 198.410346 
L 132.047065 197.73116 
L 132.351783 197.73116 
L 132.962975 194.159748 
L 133.265841 194.159748 
L 133.563768 190.027374 
L 133.874649 187.497098 
L 134.168887 183.092886 
L 134.473835 182.030462 
L 134.776419 179.410979 
L 135.081027 179.410979 
L 136.291872 157.96757 
L 136.597468 153.487485 
L 137.202825 153.487485 
L 137.504519 148.894782 
L 137.806776 148.894782 
L 138.117795 145.375706 
L 138.414753 131.23572 
L 138.736426 150.029795 
L 139.32274 157.081793 
L 139.939324 157.081793 
L 140.232806 159.380027 
L 140.538635 156.422669 
L 140.845555 156.891892 
L 141.147069 138.982607 
L 141.456584 136.266556 
L 141.752545 140.22108 
L 142.361826 140.22108 
L 142.658799 158.332023 
L 142.961228 158.332023 
L 143.269977 157.942446 
L 143.567767 157.942446 
L 143.877602 172.995635 
L 144.173705 180.093256 
L 144.478352 182.161062 
L 144.784108 186.268077 
L 145.083293 186.626758 
L 145.386535 187.515953 
L 145.69384 187.515953 
L 145.991974 187.299881 
L 146.297361 187.299881 
L 146.600043 185.722933 
L 146.906215 185.722933 
L 147.20869 189.391844 
L 147.509614 190.85153 
L 148.115724 190.967297 
L 148.422281 190.521509 
L 148.723447 190.521509 
L 149.328982 190.013221 
L 149.630751 190.297057 
L 150.237197 190.352124 
L 150.54249 190.31526 
L 151.751681 174.242699 
L 152.054691 174.242699 
L 152.359519 166.932862 
L 152.662875 162.430519 
L 153.271836 162.430519 
L 153.577864 136.960032 
L 153.875521 135.439441 
L 154.177504 132.521221 
L 154.483007 133.361892 
L 154.787 134.920867 
L 155.088571 51.137091 
L 156.603968 51.137091 
L 156.907157 145.45549 
L 157.21031 161.41121 
L 157.511503 161.41121 
L 157.815825 163.493218 
L 158.119461 164.112413 
L 158.424375 163.690687 
L 158.724679 166.410332 
L 159.02851 167.294025 
L 163.273021 178.631108 
L 163.574272 179.944626 
L 163.878481 183.152304 
L 164.180805 188.114682 
L 164.788174 188.114682 
L 165.096828 190.294401 
L 165.699455 190.358352 
L 166.015263 193.292585 
L 166.302587 198.207154 
L 166.607236 200.029568 
L 167.213714 204.674615 
L 167.521936 208.74378 
L 167.824886 209.720211 
L 168.425241 213.595182 
L 168.732196 215.688792 
L 169.032855 215.688792 
L 169.335125 215.84956 
L 169.639251 215.84956 
L 169.944387 216.259734 
L 170.244432 215.794604 
L 170.547246 214.640235 
L 170.851818 212.910613 
L 171.161725 212.458415 
L 171.4569 212.458415 
L 171.760345 212.122126 
L 172.071133 212.051364 
L 172.368168 210.425373 
L 172.980374 210.425373 
L 173.28069 208.786664 
L 173.578488 208.786664 
L 173.888076 208.315026 
L 174.185685 206.188491 
L 174.489593 204.96739 
L 174.79895 204.96739 
L 175.100944 201.405421 
L 175.701143 189.692558 
L 176.005152 189.692558 
L 176.318218 188.667377 
L 176.613515 187.216853 
L 176.919401 184.775456 
L 177.22254 184.775456 
L 177.519432 181.853534 
L 177.828181 175.338977 
L 178.126356 166.37237 
L 178.429931 166.37237 
L 178.732163 143.85043 
L 179.035385 51.137091 
L 186.008188 51.137091 
L 186.315014 123.077589 
L 186.621181 145.925352 
L 186.919614 145.925352 
L 187.223151 153.248619 
L 187.529968 153.248619 
L 187.833075 165.122751 
L 188.138676 168.55963 
L 188.43421 173.61812 
L 188.742497 174.643666 
L 189.04007 174.643666 
L 189.343043 175.183037 
L 189.64607 174.176908 
L 189.95216 174.176908 
L 190.577813 178.348263 
L 190.859156 179.109656 
L 191.163255 181.411875 
L 191.465195 182.043567 
L 192.0715 182.156736 
L 192.37625 182.156736 
L 192.680947 181.930144 
L 192.986939 181.930144 
L 193.291034 180.523249 
L 193.889659 180.521814 
L 194.193048 176.49768 
L 194.497335 176.49768 
L 194.803197 173.880298 
L 195.103107 173.880298 
L 195.405538 171.0942 
L 195.708153 171.0942 
L 196.011461 168.065473 
L 196.315546 168.065473 
L 196.618092 151.564817 
L 196.923854 151.564817 
L 197.224599 51.137091 
L 205.409845 51.137091 
L 205.718255 141.649582 
L 207.227569 151.413088 
L 207.535249 151.413088 
L 207.8343 187.352131 
L 208.13834 187.352131 
L 225.116446 187.087503 
L 225.721086 185.79475 
L 226.023261 184.61769 
L 226.328044 184.61769 
L 226.630872 179.446944 
L 226.932507 179.446944 
L 227.238676 51.137091 
L 228.145973 51.137091 
L 230.270614 146.513058 
L 230.62756 146.513058 
L 231.177765 156.358258 
L 231.482001 156.358258 
L 231.785669 168.922645 
L 232.09071 173.678223 
L 232.389116 175.933246 
L 232.698387 175.359817 
L 233.002782 176.925234 
L 233.298514 176.925234 
L 233.607524 178.564289 
L 233.906886 178.734752 
L 234.223252 178.362467 
L 234.513826 177.694435 
L 234.817366 177.667148 
L 235.119027 179.335456 
L 236.031673 179.295481 
L 236.331888 179.009977 
L 236.63446 179.009977 
L 236.945048 178.695508 
L 237.244664 178.106232 
L 237.556179 178.106232 
L 237.845471 181.042455 
L 238.452229 182.471322 
L 238.756732 182.471322 
L 239.059153 182.73747 
L 239.362885 183.240336 
L 239.666459 183.240336 
L 239.973448 179.929794 
L 240.275521 178.01857 
L 240.878886 171.804628 
L 241.183807 171.804628 
L 241.48529 167.195384 
L 241.787774 51.137091 
L 248.154577 51.137091 
L 248.456675 135.717142 
L 248.765506 145.204016 
L 249.064063 166.866045 
L 249.371209 171.229017 
L 249.972896 175.337413 
L 250.889334 177.780989 
L 251.186105 177.839978 
L 251.490638 175.16928 
L 251.791252 175.207908 
L 252.094954 175.006944 
L 252.702315 175.013635 
L 253.003722 177.03486 
L 253.320888 177.835668 
L 253.614136 177.931482 
L 253.918043 178.478357 
L 254.215945 178.478357 
L 254.520733 177.770665 
L 254.823057 175.99495 
L 255.127669 175.99495 
L 255.42908 177.013103 
L 255.733085 176.201218 
L 256.054078 178.286982 
L 257.551259 178.188393 
L 257.856331 176.774657 
L 258.158783 176.92831 
L 258.461099 176.524053 
L 258.764203 173.186161 
L 259.067306 173.186161 
L 259.371373 172.725676 
L 259.674993 171.531271 
L 259.976511 171.531271 
L 260.279978 170.613791 
L 260.583139 169.340073 
L 260.885872 169.418573 
L 261.18857 164.509306 
L 261.499261 164.509306 
L 261.797297 162.988379 
L 262.156398 159.276551 
L 262.403846 151.850069 
L 262.705866 149.363629 
L 263.008248 134.188239 
L 263.313031 51.137091 
L 265.737592 51.137091 
L 266.045739 120.190661 
L 266.341755 136.496019 
L 266.651591 138.744969 
L 266.948939 146.172314 
L 267.25332 149.32908 
L 267.554845 161.029801 
L 268.16218 161.029801 
L 268.465478 173.667711 
L 269.987042 181.911249 
L 270.285545 181.911249 
L 270.594523 185.111575 
L 271.193538 185.846775 
L 271.502269 185.462468 
L 271.800596 186.411595 
L 272.10947 186.411595 
L 272.407827 185.594164 
L 272.709836 183.993114 
L 273.013107 178.51269 
L 273.316913 175.038373 
L 273.62462 175.038373 
L 273.928345 169.406571 
L 274.224689 166.20349 
L 274.542103 164.655117 
L 274.829696 161.068378 
L 275.134708 161.068378 
L 275.739569 147.236881 
L 276.051491 51.137091 
L 282.10624 51.137091 
L 282.40944 153.44798 
L 282.722522 161.985092 
L 283.016484 161.985092 
L 283.322752 167.348849 
L 283.623991 177.466282 
L 283.924962 183.668472 
L 284.232071 185.185109 
L 284.536349 190.406292 
L 284.835419 191.389903 
L 285.144345 191.389903 
L 285.441367 194.075938 
L 285.744517 198.194486 
L 286.047392 199.664689 
L 286.657155 201.434223 
L 286.956214 201.434223 
L 287.267741 200.917381 
L 287.565908 200.917381 
L 287.873305 201.456852 
L 288.168362 200.42972 
L 288.782857 196.456117 
L 289.381358 185.897741 
L 289.685596 174.726357 
L 289.987125 174.726357 
L 290.291611 171.53394 
L 290.907699 158.490574 
L 291.202632 51.137091 
L 297.871246 51.137091 
L 298.174813 143.551796 
L 298.476147 153.700902 
L 298.77908 159.050998 
L 299.088969 159.050998 
L 299.388571 164.270717 
L 299.69417 163.267422 
L 299.992625 165.709645 
L 300.295179 165.709645 
L 300.597838 169.473016 
L 300.90194 169.473016 
L 301.204001 169.696182 
L 301.811933 173.503398 
L 302.114959 173.503398 
L 302.416724 174.731496 
L 302.736317 177.638358 
L 303.027175 178.566079 
L 303.334279 178.646755 
L 303.630368 178.118297 
L 303.937826 175.331669 
L 304.237128 175.331669 
L 304.843287 171.19227 
L 305.149541 168.553967 
L 305.449831 167.126359 
L 306.062684 167.126359 
L 306.363459 155.821872 
L 306.973418 140.805717 
L 307.270235 51.137091 
L 310.60219 51.137091 
L 310.909769 139.917963 
L 311.210028 163.915734 
L 311.513317 167.141664 
L 311.819346 181.157518 
L 312.122468 184.060507 
L 313.028554 184.060507 
L 313.335621 186.42581 
L 313.946072 186.42581 
L 314.241549 190.206194 
L 314.544843 190.206194 
L 314.845955 191.640492 
L 315.149499 191.640492 
L 315.454211 192.061385 
L 315.772978 192.061385 
L 316.059113 190.624942 
L 316.361828 191.297931 
L 316.972319 191.297931 
L 317.279397 191.744084 
L 317.574705 191.481297 
L 317.876874 190.784126 
L 318.186588 189.298045 
L 318.488882 189.298045 
L 318.787444 187.634866 
L 319.089185 187.634866 
L 319.393229 182.982284 
L 319.99932 182.982284 
L 320.613915 173.002705 
L 321.216252 148.977517 
L 321.523046 127.19684 
L 321.822051 127.19684 
L 322.132845 51.137091 
L 326.672682 51.137091 
L 326.979928 138.98697 
L 327.275024 138.98697 
L 327.579737 151.456209 
L 328.190543 151.456209 
L 328.495199 155.376191 
L 328.796301 152.682262 
L 329.093873 158.724822 
L 329.398876 167.19276 
L 329.712776 167.19276 
L 330.005385 167.484279 
L 330.307276 166.185887 
L 330.610011 166.185887 
L 330.912581 167.069264 
L 331.520198 164.435723 
L 331.823646 164.435723 
L 332.130748 158.508883 
L 332.436574 158.508883 
L 332.732166 157.334571 
L 333.035287 152.068233 
L 333.346014 140.349581 
L 333.642832 140.349581 
L 333.947251 51.137091 
L 357.592594 51.137091 
L 357.895557 200.356955 
L 358.195636 206.888606 
L 359.408595 217.251628 
L 359.711685 217.704844 
L 360.318127 220.191264 
L 360.621504 220.191264 
L 361.228093 222.052254 
L 361.530927 222.052254 
L 361.842217 222.454436 
L 362.448091 222.487228 
L 362.745695 221.571702 
L 363.047698 221.571702 
L 363.355868 220.20941 
L 363.956531 214.278884 
L 364.259729 214.278884 
L 364.562458 212.740994 
L 364.866212 209.651286 
L 365.172634 209.651286 
L 365.471088 205.50366 
L 365.778955 205.50366 
L 366.384069 200.582693 
L 366.994852 194.264355 
L 367.301501 194.264355 
L 367.594779 190.07845 
L 368.204483 189.133426 
L 368.811587 187.164675 
L 370.019023 181.860881 
L 382.776407 194.639343 
L 383.055416 196.961672 
L 383.666113 203.737106 
L 383.963295 203.737106 
L 384.277931 204.73901 
L 384.573087 207.365614 
L 384.8732 206.860462 
L 385.179878 203.599512 
L 385.481072 203.007555 
L 385.783494 203.007555 
L 386.086172 200.296039 
L 386.389536 198.910083 
L 386.692423 196.735689 
L 386.995765 196.735689 
L 387.298487 195.532448 
L 387.601552 192.80841 
L 388.20928 192.80841 
L 388.510566 189.913034 
L 388.817416 185.702937 
L 389.123619 185.702937 
L 389.423891 181.002086 
L 389.723006 167.203726 
L 390.031449 167.203726 
L 390.332465 158.83369 
L 390.937888 158.83369 
L 391.240269 157.009077 
L 391.543259 157.009077 
L 391.864857 153.721487 
L 392.149258 152.11341 
L 392.452715 152.217446 
L 392.755597 148.959683 
L 393.058434 148.959683 
L 393.363731 147.70058 
L 393.986534 147.70058 
L 394.271397 141.068733 
L 394.665793 141.068733 
L 394.881455 139.02083 
L 395.485493 153.756296 
L 395.790044 153.756296 
L 396.092019 158.732619 
L 396.399829 158.398643 
L 396.699874 161.602314 
L 397.305147 164.817837 
L 397.909366 164.808203 
L 398.818847 159.371157 
L 399.122124 159.371157 
L 399.430163 158.128287 
L 400.039675 158.025304 
L 401.552481 157.956928 
L 401.849131 157.064435 
L 402.456209 157.064435 
L 402.761203 160.234898 
L 403.062144 160.234898 
L 403.381784 166.490166 
L 403.672254 165.996247 
L 403.974629 167.835141 
L 404.279865 168.3409 
L 404.580883 168.3409 
L 404.881195 167.885312 
L 405.185028 167.885312 
L 405.492593 169.677407 
L 406.096843 170.152608 
L 406.396559 169.962436 
L 406.699919 169.962436 
L 407.011697 168.897386 
L 407.309882 168.897386 
L 407.617563 172.056694 
L 407.913468 172.948662 
L 408.218226 170.441441 
L 408.523248 170.636413 
L 408.827981 165.741916 
L 409.124725 165.741916 
L 409.738372 156.825123 
L 410.644186 51.137091 
L 440.657352 51.137091 
L 440.955226 154.879464 
L 441.265453 176.092391 
L 441.572541 176.092391 
L 442.174546 195.670262 
L 442.4773 197.141174 
L 442.774948 221.601835 
L 464.908089 221.171604 
L 465.513368 220.929561 
L 465.814071 220.929561 
L 466.118487 220.314048 
L 467.331381 219.557656 
L 467.640411 217.024492 
L 467.938348 51.137091 
L 491.283657 51.137091 
L 491.582765 168.533389 
L 491.885454 168.533389 
L 492.190955 185.736463 
L 492.496745 185.736463 
L 492.796266 187.984318 
L 494.009193 189.385507 
L 495.228619 189.504332 
L 495.522794 180.398249 
L 495.827878 180.67283 
L 496.12902 178.792045 
L 496.436237 178.792045 
L 496.741146 174.405843 
L 497.047271 173.934387 
L 497.644867 171.175982 
L 497.947236 167.884547 
L 498.256827 167.884547 
L 498.554145 166.870677 
L 498.862448 160.936073 
L 499.160747 160.936073 
L 499.463291 138.04333 
L 499.769005 51.137091 
L 502.494685 51.137091 
L 502.798941 138.281561 
L 503.103796 144.122114 
L 503.408731 164.77808 
L 503.707914 166.518698 
L 504.010395 176.502344 
L 504.314849 176.502344 
L 504.627265 178.095608 
L 504.924788 182.333324 
L 505.525611 183.413376 
L 505.829276 183.303555 
L 506.133065 183.805866 
L 506.440727 183.805866 
L 506.74056 181.515155 
L 507.041692 182.399579 
L 507.347794 182.339228 
L 507.648516 182.018081 
L 507.951089 180.538267 
L 508.256436 180.538267 
L 508.55921 179.449499 
L 508.867468 177.820522 
L 509.164976 177.820522 
L 509.471238 175.594008 
L 509.776545 175.594008 
L 510.074617 169.365708 
L 510.379404 165.853835 
L 510.681624 164.11098 
L 511.29025 146.289262 
L 511.592954 51.137091 
L 516.745419 51.137091 
L 517.051448 121.5471 
L 517.34992 160.815867 
L 517.655275 160.815867 
L 517.956357 161.512074 
L 518.275688 181.159118 
L 518.566602 185.052341 
L 518.868241 191.567802 
L 519.171569 195.448168 
L 519.471709 195.448168 
L 519.775575 196.330759 
L 520.086692 196.330759 
L 520.384148 200.659343 
L 520.687374 200.659343 
L 520.988475 202.939545 
L 521.294785 202.939545 
L 521.597048 203.793667 
L 521.897968 204.102887 
L 522.201109 205.197737 
L 522.810653 203.617402 
L 523.109311 202.34614 
L 523.418362 202.34614 
L 523.716761 202.22701 
L 524.019251 198.763316 
L 524.321464 196.710151 
L 524.932341 193.974724 
L 525.231125 189.27724 
L 525.536286 189.27724 
L 525.837568 185.629807 
L 526.142419 184.626765 
L 526.751426 181.591388 
L 528.8707 178.192955 
L 529.17282 175.177182 
L 529.476975 175.177182 
L 529.782864 158.966626 
L 530.094212 158.966626 
L 530.402521 148.747905 
L 530.693549 132.144167 
L 530.997047 51.137091 
L 537.053902 51.137091 
L 537.053902 51.137091 
" clip-path="url(#p0221a4ea64)" style="fill: none; stroke: #1f77b4; stroke-width: 1.5; stroke-linecap: square"/>
   </g>
   <g id="line2d_34">
    <path d="M 69.907329 202.634128 
L 70.509515 203.648795 
L 71.11489 204.422135 
L 71.428366 204.634361 
L 71.7211 204.487217 
L 73.245588 202.477132 
L 73.539479 202.085031 
L 73.847028 201.885437 
L 74.449975 201.942754 
L 74.75277 202.095835 
L 75.362884 203.519558 
L 75.966114 206.168833 
L 76.268697 207.822305 
L 77.784328 219.031254 
L 78.392245 221.641727 
L 78.694676 222.367651 
L 78.999567 222.452164 
L 79.609229 223.625957 
L 79.911171 223.984973 
L 81.725489 223.519528 
L 82.027813 222.99849 
L 82.635407 222.406563 
L 82.938056 221.940063 
L 83.244635 222.146779 
L 84.453134 218.671612 
L 85.059778 215.847454 
L 85.363339 215.847454 
L 85.674146 214.028422 
L 85.968592 213.730024 
L 86.580641 209.690298 
L 86.87825 209.028166 
L 87.187952 207.387714 
L 87.485038 205.205247 
L 88.702132 200.688912 
L 90.21676 191.42194 
L 90.82562 188.241417 
L 91.130182 186.883251 
L 93.25058 185.899767 
L 93.553396 187.208519 
L 94.767131 193.412392 
L 113.253249 236.758909 
L 115.676918 219.491409 
L 115.992435 217.928343 
L 116.894739 210.64612 
L 128.111116 164.799623 
L 128.410259 164.389205 
L 129.627005 158.654881 
L 130.230175 156.004144 
L 130.531742 155.354338 
L 131.746891 148.352081 
L 132.047065 148.164376 
L 132.962975 142.385204 
L 134.776419 128.841971 
L 135.996894 119.033142 
L 136.291872 116.894422 
L 136.597468 116.018289 
L 136.904346 115.836442 
L 137.202825 114.965167 
L 137.806776 111.980657 
L 138.414753 110.333564 
L 138.736426 109.649989 
L 139.024022 109.550236 
L 139.32274 109.647781 
L 139.630962 109.981199 
L 140.538635 112.706418 
L 141.752545 116.841413 
L 142.055326 117.623283 
L 142.361826 118.861321 
L 142.658799 118.861321 
L 144.784108 130.33761 
L 145.69384 132.388585 
L 146.297361 133.380391 
L 146.600043 133.380391 
L 146.906215 133.869356 
L 147.811694 133.878727 
L 148.422281 133.432998 
L 149.026772 131.975348 
L 149.936295 129.575232 
L 150.237197 128.972301 
L 150.845384 126.767965 
L 151.449833 123.900816 
L 151.751681 123.508943 
L 152.662875 119.199501 
L 152.971081 118.697237 
L 153.875521 114.062723 
L 154.787 110.779761 
L 155.088571 110.214396 
L 155.398491 110.10139 
L 155.693538 110.143708 
L 156.306695 109.217066 
L 156.603968 109.660999 
L 158.424375 114.513749 
L 159.02851 116.624257 
L 163.273021 135.561365 
L 164.180805 145.264217 
L 164.486801 145.943279 
L 165.096828 148.603154 
L 166.015263 157.265408 
L 166.91277 164.086997 
L 167.824886 168.440995 
L 168.425241 170.562012 
L 169.032855 171.516479 
L 169.639251 171.53564 
L 169.944387 171.442931 
L 170.547246 170.93692 
L 171.4569 167.89664 
L 172.071133 164.747624 
L 172.368168 163.263795 
L 172.670391 162.853334 
L 172.980374 161.796613 
L 173.28069 161.728474 
L 174.185685 153.709962 
L 174.489593 152.863399 
L 175.100944 147.540031 
L 176.613515 129.329267 
L 176.919401 128.911379 
L 177.828181 116.79114 
L 179.342864 97.589412 
L 179.646868 96.817679 
L 179.950714 94.649867 
L 181.766092 86.561666 
L 182.06738 86.08696 
L 182.375306 86.224352 
L 182.676522 86.532785 
L 184.797151 92.299087 
L 185.102869 94.806895 
L 185.402974 95.600476 
L 185.707198 97.04251 
L 186.315014 103.282743 
L 186.621181 103.98661 
L 188.138676 120.81042 
L 188.43421 123.506296 
L 188.742497 123.754886 
L 189.343043 129.297249 
L 189.64607 131.242516 
L 190.577813 134.665532 
L 190.859156 135.238193 
L 191.163255 135.366975 
L 192.680947 132.648601 
L 193.291034 128.643331 
L 193.586967 128.643331 
L 193.889659 126.308598 
L 194.193048 125.92114 
L 194.497335 123.372039 
L 194.803197 123.021705 
L 195.103107 120.14213 
L 195.405538 118.93234 
L 195.708153 117.251538 
L 196.011461 114.590441 
L 196.315546 114.043492 
L 196.618092 111.275378 
L 196.923854 109.699901 
L 197.224599 108.951154 
L 197.529774 106.344219 
L 197.832993 105.9492 
L 198.437162 101.620608 
L 199.961713 97.096048 
L 200.258353 97.372121 
L 200.866726 97.419071 
L 201.469908 97.934305 
L 201.783059 98.913623 
L 202.076108 100.826609 
L 204.504046 119.907366 
L 205.409845 133.845828 
L 205.718255 139.523781 
L 207.8343 165.732395 
L 208.13834 168.415087 
L 224.821198 172.881923 
L 225.433855 174.577493 
L 225.721086 175.043536 
L 226.023261 175.194797 
L 226.328044 175.940647 
L 226.932507 176.424583 
L 227.539644 177.202608 
L 227.842959 177.515739 
L 228.145973 178.369253 
L 230.270614 190.165356 
L 230.62756 190.457244 
L 232.09071 198.133754 
L 232.698387 201.003133 
L 233.298514 202.915575 
L 233.607524 203.280026 
L 233.906886 203.381169 
L 234.513826 204.31242 
L 235.420835 204.837254 
L 236.031673 204.65581 
L 236.331888 204.640933 
L 236.63446 204.140149 
L 236.945048 203.368595 
L 237.244664 203.404252 
L 237.845471 201.068851 
L 238.452229 198.236048 
L 239.059153 195.32558 
L 239.362885 194.786332 
L 241.787774 178.622132 
L 242.092174 178.389216 
L 242.699805 175.363617 
L 242.999848 174.927575 
L 243.613799 172.491557 
L 245.124354 172.354719 
L 245.427449 173.239137 
L 246.033147 174.420256 
L 246.334527 175.271348 
L 247.850336 181.971513 
L 248.456675 185.807648 
L 249.972896 192.042408 
L 250.58408 193.19238 
L 250.889334 193.709104 
L 251.490638 194.385677 
L 251.791252 194.968884 
L 252.401649 195.395329 
L 252.702315 195.52214 
L 253.614136 196.156604 
L 254.215945 196.144555 
L 254.520733 195.946466 
L 255.127669 194.879567 
L 256.054078 192.321977 
L 256.34034 192.197369 
L 256.644709 191.202351 
L 256.946549 190.866563 
L 257.25164 190.35288 
L 259.371373 181.579688 
L 259.674993 180.744147 
L 260.885872 175.244732 
L 261.499261 172.952317 
L 262.156398 171.44777 
L 262.403846 171.391846 
L 262.705866 170.91251 
L 263.008248 170.885169 
L 263.313031 171.017765 
L 263.615421 171.353073 
L 263.919763 171.899686 
L 267.25332 188.661727 
L 267.554845 189.257344 
L 267.857874 190.739031 
L 268.769057 196.787998 
L 269.373429 199.798282 
L 269.987042 201.767417 
L 270.285545 202.526124 
L 270.594523 202.669505 
L 270.890438 202.27305 
L 271.800596 198.881763 
L 272.407827 196.105067 
L 274.829696 176.646203 
L 275.134708 175.757503 
L 275.739569 172.169241 
L 276.656993 168.80692 
L 278.468634 170.472575 
L 278.770763 171.018246 
L 279.075776 171.985425 
L 279.983928 177.619835 
L 282.40944 192.427084 
L 283.016484 194.661129 
L 283.322752 195.267871 
L 283.623991 195.419222 
L 283.924962 195.136045 
L 284.232071 194.503133 
L 284.835419 192.424619 
L 286.047392 187.205581 
L 286.350383 185.312686 
L 286.657155 184.561897 
L 286.956214 183.075153 
L 288.474289 168.715908 
L 289.080519 162.057625 
L 290.602033 143.072343 
L 291.503563 132.205362 
L 292.739303 122.164721 
L 293.018746 122.164721 
L 293.933057 118.884054 
L 294.235558 118.503542 
L 295.748595 121.143493 
L 297.264579 130.798379 
L 297.871246 137.222391 
L 298.77908 148.23654 
L 299.088969 148.834674 
L 299.992625 159.826859 
L 300.295179 163.046784 
L 300.597838 163.046784 
L 301.204001 168.32124 
L 301.811933 171.248244 
L 302.114959 171.824239 
L 302.416724 172.040138 
L 303.027175 171.844533 
L 303.334279 171.523811 
L 304.237128 169.685625 
L 304.843287 168.301793 
L 305.149541 167.597381 
L 305.449831 167.485636 
L 305.757851 166.943924 
L 306.062684 166.736207 
L 306.661495 165.519051 
L 307.270235 165.305805 
L 307.571251 165.550696 
L 307.873856 166.044331 
L 308.183859 166.208832 
L 308.481621 167.221864 
L 310.60219 179.292184 
L 311.819346 187.748998 
L 312.122468 187.948218 
L 312.424124 188.418197 
L 313.028554 189.908316 
L 313.946072 191.559861 
L 314.241549 191.548419 
L 315.149499 194.067135 
L 315.454211 194.03969 
L 315.772978 194.365812 
L 316.059113 194.939026 
L 316.972319 195.954426 
L 317.279397 195.78211 
L 318.488882 192.966239 
L 318.787444 192.869699 
L 319.393229 190.596005 
L 319.701566 190.233997 
L 320.613915 184.394025 
L 321.216252 179.916426 
L 322.132845 172.455741 
L 323.946513 163.744748 
L 324.555484 161.988892 
L 325.235977 160.020916 
L 325.45561 159.903132 
L 326.080178 159.358535 
L 326.368171 159.358535 
L 326.672682 158.440417 
L 326.979928 158.60149 
L 327.579737 157.416689 
L 327.881073 156.971442 
L 328.190543 156.247286 
L 328.796301 153.63823 
L 329.398876 151.035235 
L 330.005385 147.42718 
L 330.307276 147.161361 
L 330.610011 145.910914 
L 331.823646 138.560061 
L 332.436574 135.414885 
L 333.346014 131.955158 
L 333.642832 131.376855 
L 333.947251 131.260785 
L 334.252206 130.988044 
L 334.858936 130.843714 
L 335.167048 131.082047 
L 335.463083 131.677687 
L 335.767178 132.831493 
L 338.195342 151.696972 
L 339.098653 156.80511 
L 339.406647 160.138203 
L 358.809232 213.795296 
L 359.408595 214.068282 
L 360.318127 213.821179 
L 360.621504 213.911122 
L 361.228093 214.523573 
L 361.842217 215.236934 
L 362.448091 215.598374 
L 363.355868 215.835755 
L 363.956531 216.197453 
L 364.259729 216.369801 
L 364.562458 216.784927 
L 364.866212 216.632871 
L 365.172634 216.632044 
L 365.778955 216.877303 
L 366.083081 216.698465 
L 366.684043 215.723046 
L 367.301501 213.718984 
L 367.594779 212.386835 
L 368.811587 205.726131 
L 370.019023 200.956672 
L 382.776407 194.535939 
L 385.179878 179.31439 
L 386.389536 170.428702 
L 386.692423 170.112532 
L 388.510566 154.660237 
L 388.817416 154.051822 
L 389.423891 148.870272 
L 389.723006 148.685659 
L 390.332465 144.995947 
L 390.639912 144.676258 
L 391.240269 143.445391 
L 391.864857 140.777612 
L 392.149258 139.796419 
L 392.452715 139.253848 
L 392.755597 139.043933 
L 393.058434 139.311056 
L 393.666539 139.384124 
L 393.986534 140.168513 
L 394.271397 140.233134 
L 394.665793 140.74804 
L 396.092019 147.265944 
L 397.604917 151.639987 
L 398.217668 152.394243 
L 398.818847 152.760983 
L 399.122124 152.748191 
L 399.430163 152.926095 
L 400.039675 152.809749 
L 401.242787 153.088457 
L 401.552481 153.339624 
L 403.062144 153.882386 
L 403.381784 153.999193 
L 403.672254 154.323936 
L 404.881195 154.602625 
L 405.492593 154.079752 
L 406.096843 153.334895 
L 406.396559 153.311527 
L 407.617563 152.439667 
L 407.913468 151.955835 
L 408.218226 151.202464 
L 408.827981 148.380893 
L 411.860979 130.909932 
L 413.369178 130.362788 
L 413.673296 131.025536 
L 415.191012 133.274683 
L 435.802378 115.06784 
L 436.106605 115.364697 
L 436.408175 115.938246 
L 437.018484 117.960513 
L 437.325056 119.453029 
L 437.932749 124.167492 
L 438.229018 126.910086 
L 438.834227 135.833268 
L 439.140593 137.733252 
L 439.439666 140.744248 
L 440.657352 163.233986 
L 441.87264 187.990837 
L 442.4773 196.591799 
L 442.774948 199.837648 
L 464.605886 116.121321 
L 464.908089 116.701915 
L 465.513368 117.477322 
L 466.118487 117.603606 
L 467.331381 118.024535 
L 468.249011 119.735815 
L 469.451475 122.128081 
L 469.754922 123.169182 
L 491.283657 179.377604 
L 491.582765 178.971786 
L 492.496745 176.051514 
L 492.796266 176.051514 
L 494.009193 170.744187 
L 495.827878 161.157096 
L 497.047271 155.125384 
L 497.644867 152.884427 
L 498.554145 151.123138 
L 498.862448 151.123138 
L 499.160747 150.731881 
L 499.463291 150.577778 
L 499.769005 150.67625 
L 500.374566 151.074617 
L 500.980062 153.021549 
L 503.103796 162.814159 
L 503.707914 164.311986 
L 504.627265 165.62883 
L 504.924788 165.6395 
L 505.225997 165.363711 
L 506.440727 162.41042 
L 507.041692 159.837338 
L 507.648516 156.247682 
L 508.55921 150.402999 
L 508.867468 149.643426 
L 509.776545 145.172971 
L 511.592954 133.179315 
L 512.199348 130.513674 
L 513.71389 131.19923 
L 514.014874 131.872897 
L 514.620653 134.036053 
L 514.930161 135.285909 
L 517.34992 152.336177 
L 518.868241 160.620846 
L 519.171569 161.728843 
L 519.471709 162.285323 
L 519.775575 162.607454 
L 520.086692 163.429138 
L 520.384148 163.489331 
L 520.988475 164.107669 
L 522.201109 164.859672 
L 522.503724 164.526891 
L 523.109311 162.942002 
L 523.418362 161.828554 
L 524.019251 158.353718 
L 524.321464 155.78295 
L 524.628859 155.304786 
L 524.932341 153.399103 
L 526.142419 140.86749 
L 526.751426 133.812178 
L 528.8707 116.239517 
L 529.476975 113.960889 
L 530.094212 111.938522 
L 530.997047 108.65276 
L 531.59726 107.677308 
L 533.415706 107.71167 
L 533.720789 107.946861 
L 534.936524 111.492 
L 537.053902 120.893325 
L 537.053902 120.893325 
" clip-path="url(#p0221a4ea64)" style="fill: none; stroke-dasharray: 5.55,2.4; stroke-dashoffset: 0; stroke: #ff7f0e; stroke-width: 1.5"/>
   </g>
   <g id="patch_3">
    <path d="M 46.55 246.04 
L 46.55 41.856 
" style="fill: none; stroke: #000000; stroke-width: 0.8; stroke-linejoin: miter; stroke-linecap: square"/>
   </g>
   <g id="patch_4">
    <path d="M 560.411231 246.04 
L 560.411231 41.856 
" style="fill: none; stroke: #000000; stroke-width: 0.8; stroke-linejoin: miter; stroke-linecap: square"/>
   </g>
   <g id="patch_5">
    <path d="M 46.55 246.04 
L 560.411231 246.04 
" style="fill: none; stroke: #000000; stroke-width: 0.8; stroke-linejoin: miter; stroke-linecap: square"/>
   </g>
   <g id="patch_6">
    <path d="M 46.55 41.856 
L 560.411231 41.856 
" style="fill: none; stroke: #000000; stroke-width: 0.8; stroke-linejoin: miter; stroke-linecap: square"/>
   </g>
   <g id="text_19">
    <!-- Tracking Errors Over Time -->
    <g transform="translate(225.924053 22.418625) scale(0.12 -0.12)">
     <defs>
      <path id="DejaVuSans-61" d="M 2194 1759 
Q 1497 1759 1228 1600 
Q 959 1441 959 1056 
Q 959 750 1161 570 
Q 1363 391 1709 391 
Q 2188 391 2477 730 
Q 2766 1069 2766 1631 
L 2766 1759 
L 2194 1759 
z
M 3341 1997 
L 3341 0 
L 2766 0 
L 2766 531 
Q 2569 213 2275 61 
Q 1981 -91 1556 -91 
Q 1019 -91 701 211 
Q 384 513 384 1019 
Q 384 1609 779 1909 
Q 1175 2209 1959 2209 
L 2766 2209 
L 2766 2266 
Q 2766 2663 2505 2880 
Q 2244 3097 1772 3097 
Q 1472 3097 1187 3025 
Q 903 2953 641 2809 
L 641 3341 
Q 956 3463 1253 3523 
Q 1550 3584 1831 3584 
Q 2591 3584 2966 3190 
Q 3341 2797 3341 1997 
z
" transform="scale(0.015625)"/>
      <path id="DejaVuSans-63" d="M 3122 3366 
L 3122 2828 
Q 2878 2963 2633 3030 
Q 2388 3097 2138 3097 
Q 1578 3097 1268 2742 
Q 959 2388 959 1747 
Q 959 1106 1268 751 
Q 1578 397 2138 397 
Q 2388 397 2633 464 
Q 2878 531 3122 666 
L 3122 134 
Q 2881 22 2623 -34 
Q 2366 -91 2075 -91 
Q 1284 -91 818 406 
Q 353 903 353 1747 
Q 353 2603 823 3093 
Q 1294 3584 2113 3584 
Q 2378 3584 2631 3529 
Q 2884 3475 3122 3366 
z
" transform="scale(0.015625)"/>
      <path id="DejaVuSans-6b" d="M 581 4863 
L 1159 4863 
L 1159 1991 
L 2875 3500 
L 3609 3500 
L 1753 1863 
L 3688 0 
L 2938 0 
L 1159 1709 
L 1159 0 
L 581 0 
L 581 4863 
z
" transform="scale(0.015625)"/>
      <path id="DejaVuSans-6e" d="M 3513 2113 
L 3513 0 
L 2938 0 
L 2938 2094 
Q 2938 2591 2744 2837 
Q 2550 3084 2163 3084 
Q 1697 3084 1428 2787 
Q 1159 2491 1159 1978 
L 1159 0 
L 581 0 
L 581 3500 
L 1159 3500 
L 1159 2956 
Q 1366 3272 1645 3428 
Q 1925 3584 2291 3584 
Q 2894 3584 3203 3211 
Q 3513 2838 3513 2113 
z
" transform="scale(0.015625)"/>
      <path id="DejaVuSans-67" d="M 2906 1791 
Q 2906 2416 2648 2759 
Q 2391 3103 1925 3103 
Q 1463 3103 1205 2759 
Q 947 2416 947 1791 
Q 947 1169 1205 825 
Q 1463 481 1925 481 
Q 2391 481 2648 825 
Q 2906 1169 2906 1791 
z
M 3481 434 
Q 3481 -459 3084 -895 
Q 2688 -1331 1869 -1331 
Q 1566 -1331 1297 -1286 
Q 1028 -1241 775 -1147 
L 775 -588 
Q 1028 -725 1275 -790 
Q 1522 -856 1778 -856 
Q 2344 -856 2625 -561 
Q 2906 -266 2906 331 
L 2906 616 
Q 2728 306 2450 153 
Q 2172 0 1784 0 
Q 1141 0 747 490 
Q 353 981 353 1791 
Q 353 2603 747 3093 
Q 1141 3584 1784 3584 
Q 2172 3584 2450 3431 
Q 2728 3278 2906 2969 
L 2906 3500 
L 3481 3500 
L 3481 434 
z
" transform="scale(0.015625)"/>
      <path id="DejaVuSans-4f" d="M 2522 4238 
Q 1834 4238 1429 3725 
Q 1025 3213 1025 2328 
Q 1025 1447 1429 934 
Q 1834 422 2522 422 
Q 3209 422 3611 934 
Q 4013 1447 4013 2328 
Q 4013 3213 3611 3725 
Q 3209 4238 2522 4238 
z
M 2522 4750 
Q 3503 4750 4090 4092 
Q 4678 3434 4678 2328 
Q 4678 1225 4090 567 
Q 3503 -91 2522 -91 
Q 1538 -91 948 565 
Q 359 1222 359 2328 
Q 359 3434 948 4092 
Q 1538 4750 2522 4750 
z
" transform="scale(0.015625)"/>
      <path id="DejaVuSans-76" d="M 191 3500 
L 800 3500 
L 1894 563 
L 2988 3500 
L 3597 3500 
L 2284 0 
L 1503 0 
L 191 3500 
z
" transform="scale(0.015625)"/>
     </defs>
     <use xlink:href="#DejaVuSans-54"/>
     <use xlink:href="#DejaVuSans-72" x="46.333984"/>
     <use xlink:href="#DejaVuSans-61" x="87.447266"/>
     <use xlink:href="#DejaVuSans-63" x="148.726562"/>
     <use xlink:href="#DejaVuSans-6b" x="203.707031"/>
     <use xlink:href="#DejaVuSans-69" x="261.617188"/>
     <use xlink:href="#DejaVuSans-6e" x="289.400391"/>
     <use xlink:href="#DejaVuSans-67" x="352.779297"/>
     <use xlink:href="#DejaVuSans-20" x="416.255859"/>
     <use xlink:href="#DejaVuSans-45" x="448.042969"/>
     <use xlink:href="#DejaVuSans-72" x="511.226562"/>
     <use xlink:href="#DejaVuSans-72" x="550.589844"/>
     <use xlink:href="#DejaVuSans-6f" x="589.453125"/>
     <use xlink:href="#DejaVuSans-72" x="650.634766"/>
     <use xlink:href="#DejaVuSans-73" x="691.748047"/>
     <use xlink:href="#DejaVuSans-20" x="743.847656"/>
     <use xlink:href="#DejaVuSans-4f" x="775.634766"/>
     <use xlink:href="#DejaVuSans-76" x="854.345703"/>
     <use xlink:href="#DejaVuSans-65" x="913.525391"/>
     <use xlink:href="#DejaVuSans-72" x="975.048828"/>
     <use xlink:href="#DejaVuSans-20" x="1016.162109"/>
     <use xlink:href="#DejaVuSans-54" x="1047.949219"/>
     <use xlink:href="#DejaVuSans-69" x="1105.908203"/>
     <use xlink:href="#DejaVuSans-6d" x="1133.691406"/>
     <use xlink:href="#DejaVuSans-65" x="1231.103516"/>
    </g>
    <!-- mode: bbox, disired distance: 6m -->
    <g transform="translate(203.047178 35.856) scale(0.12 -0.12)">
     <defs>
      <path id="DejaVuSans-64" d="M 2906 2969 
L 2906 4863 
L 3481 4863 
L 3481 0 
L 2906 0 
L 2906 525 
Q 2725 213 2448 61 
Q 2172 -91 1784 -91 
Q 1150 -91 751 415 
Q 353 922 353 1747 
Q 353 2572 751 3078 
Q 1150 3584 1784 3584 
Q 2172 3584 2448 3432 
Q 2725 3281 2906 2969 
z
M 947 1747 
Q 947 1113 1208 752 
Q 1469 391 1925 391 
Q 2381 391 2643 752 
Q 2906 1113 2906 1747 
Q 2906 2381 2643 2742 
Q 2381 3103 1925 3103 
Q 1469 3103 1208 2742 
Q 947 2381 947 1747 
z
" transform="scale(0.015625)"/>
      <path id="DejaVuSans-3a" d="M 750 794 
L 1409 794 
L 1409 0 
L 750 0 
L 750 794 
z
M 750 3309 
L 1409 3309 
L 1409 2516 
L 750 2516 
L 750 3309 
z
" transform="scale(0.015625)"/>
      <path id="DejaVuSans-62" d="M 3116 1747 
Q 3116 2381 2855 2742 
Q 2594 3103 2138 3103 
Q 1681 3103 1420 2742 
Q 1159 2381 1159 1747 
Q 1159 1113 1420 752 
Q 1681 391 2138 391 
Q 2594 391 2855 752 
Q 3116 1113 3116 1747 
z
M 1159 2969 
Q 1341 3281 1617 3432 
Q 1894 3584 2278 3584 
Q 2916 3584 3314 3078 
Q 3713 2572 3713 1747 
Q 3713 922 3314 415 
Q 2916 -91 2278 -91 
Q 1894 -91 1617 61 
Q 1341 213 1159 525 
L 1159 0 
L 581 0 
L 581 4863 
L 1159 4863 
L 1159 2969 
z
" transform="scale(0.015625)"/>
      <path id="DejaVuSans-78" d="M 3513 3500 
L 2247 1797 
L 3578 0 
L 2900 0 
L 1881 1375 
L 863 0 
L 184 0 
L 1544 1831 
L 300 3500 
L 978 3500 
L 1906 2253 
L 2834 3500 
L 3513 3500 
z
" transform="scale(0.015625)"/>
      <path id="DejaVuSans-2c" d="M 750 794 
L 1409 794 
L 1409 256 
L 897 -744 
L 494 -744 
L 750 256 
L 750 794 
z
" transform="scale(0.015625)"/>
      <path id="DejaVuSans-74" d="M 1172 4494 
L 1172 3500 
L 2356 3500 
L 2356 3053 
L 1172 3053 
L 1172 1153 
Q 1172 725 1289 603 
Q 1406 481 1766 481 
L 2356 481 
L 2356 0 
L 1766 0 
Q 1100 0 847 248 
Q 594 497 594 1153 
L 594 3053 
L 172 3053 
L 172 3500 
L 594 3500 
L 594 4494 
L 1172 4494 
z
" transform="scale(0.015625)"/>
     </defs>
     <use xlink:href="#DejaVuSans-6d"/>
     <use xlink:href="#DejaVuSans-6f" x="97.412109"/>
     <use xlink:href="#DejaVuSans-64" x="158.59375"/>
     <use xlink:href="#DejaVuSans-65" x="222.070312"/>
     <use xlink:href="#DejaVuSans-3a" x="283.59375"/>
     <use xlink:href="#DejaVuSans-20" x="317.285156"/>
     <use xlink:href="#DejaVuSans-62" x="349.072266"/>
     <use xlink:href="#DejaVuSans-62" x="412.548828"/>
     <use xlink:href="#DejaVuSans-6f" x="476.025391"/>
     <use xlink:href="#DejaVuSans-78" x="534.082031"/>
     <use xlink:href="#DejaVuSans-2c" x="593.261719"/>
     <use xlink:href="#DejaVuSans-20" x="625.048828"/>
     <use xlink:href="#DejaVuSans-64" x="656.835938"/>
     <use xlink:href="#DejaVuSans-69" x="720.3125"/>
     <use xlink:href="#DejaVuSans-73" x="748.095703"/>
     <use xlink:href="#DejaVuSans-69" x="800.195312"/>
     <use xlink:href="#DejaVuSans-72" x="827.978516"/>
     <use xlink:href="#DejaVuSans-65" x="866.841797"/>
     <use xlink:href="#DejaVuSans-64" x="928.365234"/>
     <use xlink:href="#DejaVuSans-20" x="991.841797"/>
     <use xlink:href="#DejaVuSans-64" x="1023.628906"/>
     <use xlink:href="#DejaVuSans-69" x="1087.105469"/>
     <use xlink:href="#DejaVuSans-73" x="1114.888672"/>
     <use xlink:href="#DejaVuSans-74" x="1166.988281"/>
     <use xlink:href="#DejaVuSans-61" x="1206.197266"/>
     <use xlink:href="#DejaVuSans-6e" x="1267.476562"/>
     <use xlink:href="#DejaVuSans-63" x="1330.855469"/>
     <use xlink:href="#DejaVuSans-65" x="1385.835938"/>
     <use xlink:href="#DejaVuSans-3a" x="1447.359375"/>
     <use xlink:href="#DejaVuSans-20" x="1481.050781"/>
     <use xlink:href="#DejaVuSans-36" x="1512.837891"/>
     <use xlink:href="#DejaVuSans-6d" x="1576.460938"/>
    </g>
   </g>
   <g id="legend_1">
    <g id="patch_7">
     <path d="M 428.917481 241.04 
L 553.411231 241.04 
Q 555.411231 241.04 555.411231 239.04 
L 555.411231 210.68375 
Q 555.411231 208.68375 553.411231 208.68375 
L 428.917481 208.68375 
Q 426.917481 208.68375 426.917481 210.68375 
L 426.917481 239.04 
Q 426.917481 241.04 428.917481 241.04 
z
" style="fill: #ffffff; opacity: 0.8; stroke: #cccccc; stroke-linejoin: miter"/>
    </g>
    <g id="line2d_35">
     <path d="M 430.917481 216.782187 
L 440.917481 216.782187 
L 450.917481 216.782187 
" style="fill: none; stroke: #1f77b4; stroke-width: 1.5; stroke-linecap: square"/>
    </g>
    <g id="text_20">
     <!-- Forward Error -->
     <g transform="translate(458.917481 220.282187) scale(0.1 -0.1)">
      <defs>
       <path id="DejaVuSans-46" d="M 628 4666 
L 3309 4666 
L 3309 4134 
L 1259 4134 
L 1259 2759 
L 3109 2759 
L 3109 2228 
L 1259 2228 
L 1259 0 
L 628 0 
L 628 4666 
z
" transform="scale(0.015625)"/>
       <path id="DejaVuSans-77" d="M 269 3500 
L 844 3500 
L 1563 769 
L 2278 3500 
L 2956 3500 
L 3675 769 
L 4391 3500 
L 4966 3500 
L 4050 0 
L 3372 0 
L 2619 2869 
L 1863 0 
L 1184 0 
L 269 3500 
z
" transform="scale(0.015625)"/>
      </defs>
      <use xlink:href="#DejaVuSans-46"/>
      <use xlink:href="#DejaVuSans-6f" x="53.894531"/>
      <use xlink:href="#DejaVuSans-72" x="115.076172"/>
      <use xlink:href="#DejaVuSans-77" x="156.189453"/>
      <use xlink:href="#DejaVuSans-61" x="237.976562"/>
      <use xlink:href="#DejaVuSans-72" x="299.255859"/>
      <use xlink:href="#DejaVuSans-64" x="338.619141"/>
      <use xlink:href="#DejaVuSans-20" x="402.095703"/>
      <use xlink:href="#DejaVuSans-45" x="433.882812"/>
      <use xlink:href="#DejaVuSans-72" x="497.066406"/>
      <use xlink:href="#DejaVuSans-72" x="536.429688"/>
      <use xlink:href="#DejaVuSans-6f" x="575.292969"/>
      <use xlink:href="#DejaVuSans-72" x="636.474609"/>
     </g>
    </g>
    <g id="line2d_36">
     <path d="M 430.917481 231.460312 
L 440.917481 231.460312 
L 450.917481 231.460312 
" style="fill: none; stroke-dasharray: 5.55,2.4; stroke-dashoffset: 0; stroke: #ff7f0e; stroke-width: 1.5"/>
    </g>
    <g id="text_21">
     <!-- Real Forward Error -->
     <g transform="translate(458.917481 234.960312) scale(0.1 -0.1)">
      <defs>
       <path id="DejaVuSans-52" d="M 2841 2188 
Q 3044 2119 3236 1894 
Q 3428 1669 3622 1275 
L 4263 0 
L 3584 0 
L 2988 1197 
Q 2756 1666 2539 1819 
Q 2322 1972 1947 1972 
L 1259 1972 
L 1259 0 
L 628 0 
L 628 4666 
L 2053 4666 
Q 2853 4666 3247 4331 
Q 3641 3997 3641 3322 
Q 3641 2881 3436 2590 
Q 3231 2300 2841 2188 
z
M 1259 4147 
L 1259 2491 
L 2053 2491 
Q 2509 2491 2742 2702 
Q 2975 2913 2975 3322 
Q 2975 3731 2742 3939 
Q 2509 4147 2053 4147 
L 1259 4147 
z
" transform="scale(0.015625)"/>
       <path id="DejaVuSans-6c" d="M 603 4863 
L 1178 4863 
L 1178 0 
L 603 0 
L 603 4863 
z
" transform="scale(0.015625)"/>
      </defs>
      <use xlink:href="#DejaVuSans-52"/>
      <use xlink:href="#DejaVuSans-65" x="64.982422"/>
      <use xlink:href="#DejaVuSans-61" x="126.505859"/>
      <use xlink:href="#DejaVuSans-6c" x="187.785156"/>
      <use xlink:href="#DejaVuSans-20" x="215.568359"/>
      <use xlink:href="#DejaVuSans-46" x="247.355469"/>
      <use xlink:href="#DejaVuSans-6f" x="301.25"/>
      <use xlink:href="#DejaVuSans-72" x="362.431641"/>
      <use xlink:href="#DejaVuSans-77" x="403.544922"/>
      <use xlink:href="#DejaVuSans-61" x="485.332031"/>
      <use xlink:href="#DejaVuSans-72" x="546.611328"/>
      <use xlink:href="#DejaVuSans-64" x="585.974609"/>
      <use xlink:href="#DejaVuSans-20" x="649.451172"/>
      <use xlink:href="#DejaVuSans-45" x="681.238281"/>
      <use xlink:href="#DejaVuSans-72" x="744.421875"/>
      <use xlink:href="#DejaVuSans-72" x="783.785156"/>
      <use xlink:href="#DejaVuSans-6f" x="822.648438"/>
      <use xlink:href="#DejaVuSans-72" x="883.830078"/>
     </g>
    </g>
   </g>
  </g>
 </g>
 <defs>
  <clipPath id="p0221a4ea64">
   <rect x="46.55" y="41.856" width="513.861231" height="204.184"/>
  </clipPath>
 </defs>
</svg>
