<?xml version="1.0" encoding="utf-8" standalone="no"?>
<!DOCTYPE svg PUBLIC "-//W3C//DTD SVG 1.1//EN"
  "http://www.w3.org/Graphics/SVG/1.1/DTD/svg11.dtd">
<!-- Created with matplotlib (https://matplotlib.org/) -->
<svg height="273.6pt" version="1.1" viewBox="0 0 504 273.6" width="504pt" xmlns="http://www.w3.org/2000/svg" xmlns:xlink="http://www.w3.org/1999/xlink">
 <defs>
  <style type="text/css">
*{stroke-linecap:butt;stroke-linejoin:round;}
  </style>
 </defs>
 <g id="figure_1">
  <g id="patch_1">
   <path d="M 0 273.6 
L 504 273.6 
L 504 0 
L 0 0 
z
" style="fill:#ffffff;"/>
  </g>
  <g id="axes_1">
   <g id="patch_2">
    <path d="M 49.75 231.64 
L 490.68 231.64 
L 490.68 25.44 
L 49.75 25.44 
z
" style="fill:#ffffff;"/>
   </g>
   <g id="matplotlib.axis_1">
    <g id="xtick_1">
     <g id="line2d_1">
      <defs>
       <path d="M 0 0 
L 0 3.5 
" id="m558c65d3b4" style="stroke:#000000;stroke-width:0.8;"/>
      </defs>
      <g>
       <use style="stroke:#000000;stroke-width:0.8;" x="69.790137" xlink:href="#m558c65d3b4" y="231.64"/>
      </g>
     </g>
     <g id="text_1">
      <!-- 0 -->
      <defs>
       <path d="M 31.78125 66.40625 
Q 24.171875 66.40625 20.328125 58.90625 
Q 16.5 51.421875 16.5 36.375 
Q 16.5 21.390625 20.328125 13.890625 
Q 24.171875 6.390625 31.78125 6.390625 
Q 39.453125 6.390625 43.28125 13.890625 
Q 47.125 21.390625 47.125 36.375 
Q 47.125 51.421875 43.28125 58.90625 
Q 39.453125 66.40625 31.78125 66.40625 
z
M 31.78125 74.21875 
Q 44.046875 74.21875 50.515625 64.515625 
Q 56.984375 54.828125 56.984375 36.375 
Q 56.984375 17.96875 50.515625 8.265625 
Q 44.046875 -1.421875 31.78125 -1.421875 
Q 19.53125 -1.421875 13.0625 8.265625 
Q 6.59375 17.96875 6.59375 36.375 
Q 6.59375 54.828125 13.0625 64.515625 
Q 19.53125 74.21875 31.78125 74.21875 
z
" id="DejaVuSans-48"/>
      </defs>
      <g transform="translate(66.608887 246.238437)scale(0.1 -0.1)">
       <use xlink:href="#DejaVuSans-48"/>
      </g>
     </g>
    </g>
    <g id="xtick_2">
     <g id="line2d_2">
      <g>
       <use style="stroke:#000000;stroke-width:0.8;" x="137.053087" xlink:href="#m558c65d3b4" y="231.64"/>
      </g>
     </g>
     <g id="text_2">
      <!-- 20 -->
      <defs>
       <path d="M 19.1875 8.296875 
L 53.609375 8.296875 
L 53.609375 0 
L 7.328125 0 
L 7.328125 8.296875 
Q 12.9375 14.109375 22.625 23.890625 
Q 32.328125 33.6875 34.8125 36.53125 
Q 39.546875 41.84375 41.421875 45.53125 
Q 43.3125 49.21875 43.3125 52.78125 
Q 43.3125 58.59375 39.234375 62.25 
Q 35.15625 65.921875 28.609375 65.921875 
Q 23.96875 65.921875 18.8125 64.3125 
Q 13.671875 62.703125 7.8125 59.421875 
L 7.8125 69.390625 
Q 13.765625 71.78125 18.9375 73 
Q 24.125 74.21875 28.421875 74.21875 
Q 39.75 74.21875 46.484375 68.546875 
Q 53.21875 62.890625 53.21875 53.421875 
Q 53.21875 48.921875 51.53125 44.890625 
Q 49.859375 40.875 45.40625 35.40625 
Q 44.1875 33.984375 37.640625 27.21875 
Q 31.109375 20.453125 19.1875 8.296875 
z
" id="DejaVuSans-50"/>
      </defs>
      <g transform="translate(130.690587 246.238437)scale(0.1 -0.1)">
       <use xlink:href="#DejaVuSans-50"/>
       <use x="63.623047" xlink:href="#DejaVuSans-48"/>
      </g>
     </g>
    </g>
    <g id="xtick_3">
     <g id="line2d_3">
      <g>
       <use style="stroke:#000000;stroke-width:0.8;" x="204.316037" xlink:href="#m558c65d3b4" y="231.64"/>
      </g>
     </g>
     <g id="text_3">
      <!-- 40 -->
      <defs>
       <path d="M 37.796875 64.3125 
L 12.890625 25.390625 
L 37.796875 25.390625 
z
M 35.203125 72.90625 
L 47.609375 72.90625 
L 47.609375 25.390625 
L 58.015625 25.390625 
L 58.015625 17.1875 
L 47.609375 17.1875 
L 47.609375 0 
L 37.796875 0 
L 37.796875 17.1875 
L 4.890625 17.1875 
L 4.890625 26.703125 
z
" id="DejaVuSans-52"/>
      </defs>
      <g transform="translate(197.953537 246.238437)scale(0.1 -0.1)">
       <use xlink:href="#DejaVuSans-52"/>
       <use x="63.623047" xlink:href="#DejaVuSans-48"/>
      </g>
     </g>
    </g>
    <g id="xtick_4">
     <g id="line2d_4">
      <g>
       <use style="stroke:#000000;stroke-width:0.8;" x="271.578987" xlink:href="#m558c65d3b4" y="231.64"/>
      </g>
     </g>
     <g id="text_4">
      <!-- 60 -->
      <defs>
       <path d="M 33.015625 40.375 
Q 26.375 40.375 22.484375 35.828125 
Q 18.609375 31.296875 18.609375 23.390625 
Q 18.609375 15.53125 22.484375 10.953125 
Q 26.375 6.390625 33.015625 6.390625 
Q 39.65625 6.390625 43.53125 10.953125 
Q 47.40625 15.53125 47.40625 23.390625 
Q 47.40625 31.296875 43.53125 35.828125 
Q 39.65625 40.375 33.015625 40.375 
z
M 52.59375 71.296875 
L 52.59375 62.3125 
Q 48.875 64.0625 45.09375 64.984375 
Q 41.3125 65.921875 37.59375 65.921875 
Q 27.828125 65.921875 22.671875 59.328125 
Q 17.53125 52.734375 16.796875 39.40625 
Q 19.671875 43.65625 24.015625 45.921875 
Q 28.375 48.1875 33.59375 48.1875 
Q 44.578125 48.1875 50.953125 41.515625 
Q 57.328125 34.859375 57.328125 23.390625 
Q 57.328125 12.15625 50.6875 5.359375 
Q 44.046875 -1.421875 33.015625 -1.421875 
Q 20.359375 -1.421875 13.671875 8.265625 
Q 6.984375 17.96875 6.984375 36.375 
Q 6.984375 53.65625 15.1875 63.9375 
Q 23.390625 74.21875 37.203125 74.21875 
Q 40.921875 74.21875 44.703125 73.484375 
Q 48.484375 72.75 52.59375 71.296875 
z
" id="DejaVuSans-54"/>
      </defs>
      <g transform="translate(265.216487 246.238437)scale(0.1 -0.1)">
       <use xlink:href="#DejaVuSans-54"/>
       <use x="63.623047" xlink:href="#DejaVuSans-48"/>
      </g>
     </g>
    </g>
    <g id="xtick_5">
     <g id="line2d_5">
      <g>
       <use style="stroke:#000000;stroke-width:0.8;" x="338.841937" xlink:href="#m558c65d3b4" y="231.64"/>
      </g>
     </g>
     <g id="text_5">
      <!-- 80 -->
      <defs>
       <path d="M 31.78125 34.625 
Q 24.75 34.625 20.71875 30.859375 
Q 16.703125 27.09375 16.703125 20.515625 
Q 16.703125 13.921875 20.71875 10.15625 
Q 24.75 6.390625 31.78125 6.390625 
Q 38.8125 6.390625 42.859375 10.171875 
Q 46.921875 13.96875 46.921875 20.515625 
Q 46.921875 27.09375 42.890625 30.859375 
Q 38.875 34.625 31.78125 34.625 
z
M 21.921875 38.8125 
Q 15.578125 40.375 12.03125 44.71875 
Q 8.5 49.078125 8.5 55.328125 
Q 8.5 64.0625 14.71875 69.140625 
Q 20.953125 74.21875 31.78125 74.21875 
Q 42.671875 74.21875 48.875 69.140625 
Q 55.078125 64.0625 55.078125 55.328125 
Q 55.078125 49.078125 51.53125 44.71875 
Q 48 40.375 41.703125 38.8125 
Q 48.828125 37.15625 52.796875 32.3125 
Q 56.78125 27.484375 56.78125 20.515625 
Q 56.78125 9.90625 50.3125 4.234375 
Q 43.84375 -1.421875 31.78125 -1.421875 
Q 19.734375 -1.421875 13.25 4.234375 
Q 6.78125 9.90625 6.78125 20.515625 
Q 6.78125 27.484375 10.78125 32.3125 
Q 14.796875 37.15625 21.921875 38.8125 
z
M 18.3125 54.390625 
Q 18.3125 48.734375 21.84375 45.5625 
Q 25.390625 42.390625 31.78125 42.390625 
Q 38.140625 42.390625 41.71875 45.5625 
Q 45.3125 48.734375 45.3125 54.390625 
Q 45.3125 60.0625 41.71875 63.234375 
Q 38.140625 66.40625 31.78125 66.40625 
Q 25.390625 66.40625 21.84375 63.234375 
Q 18.3125 60.0625 18.3125 54.390625 
z
" id="DejaVuSans-56"/>
      </defs>
      <g transform="translate(332.479437 246.238437)scale(0.1 -0.1)">
       <use xlink:href="#DejaVuSans-56"/>
       <use x="63.623047" xlink:href="#DejaVuSans-48"/>
      </g>
     </g>
    </g>
    <g id="xtick_6">
     <g id="line2d_6">
      <g>
       <use style="stroke:#000000;stroke-width:0.8;" x="406.104887" xlink:href="#m558c65d3b4" y="231.64"/>
      </g>
     </g>
     <g id="text_6">
      <!-- 100 -->
      <defs>
       <path d="M 12.40625 8.296875 
L 28.515625 8.296875 
L 28.515625 63.921875 
L 10.984375 60.40625 
L 10.984375 69.390625 
L 28.421875 72.90625 
L 38.28125 72.90625 
L 38.28125 8.296875 
L 54.390625 8.296875 
L 54.390625 0 
L 12.40625 0 
z
" id="DejaVuSans-49"/>
      </defs>
      <g transform="translate(396.561137 246.238437)scale(0.1 -0.1)">
       <use xlink:href="#DejaVuSans-49"/>
       <use x="63.623047" xlink:href="#DejaVuSans-48"/>
       <use x="127.246094" xlink:href="#DejaVuSans-48"/>
      </g>
     </g>
    </g>
    <g id="xtick_7">
     <g id="line2d_7">
      <g>
       <use style="stroke:#000000;stroke-width:0.8;" x="473.367837" xlink:href="#m558c65d3b4" y="231.64"/>
      </g>
     </g>
     <g id="text_7">
      <!-- 120 -->
      <g transform="translate(463.824087 246.238437)scale(0.1 -0.1)">
       <use xlink:href="#DejaVuSans-49"/>
       <use x="63.623047" xlink:href="#DejaVuSans-50"/>
       <use x="127.246094" xlink:href="#DejaVuSans-48"/>
      </g>
     </g>
    </g>
    <g id="text_8">
     <!-- Time (s) -->
     <defs>
      <path d="M -0.296875 72.90625 
L 61.375 72.90625 
L 61.375 64.59375 
L 35.5 64.59375 
L 35.5 0 
L 25.59375 0 
L 25.59375 64.59375 
L -0.296875 64.59375 
z
" id="DejaVuSans-84"/>
      <path d="M 9.421875 54.6875 
L 18.40625 54.6875 
L 18.40625 0 
L 9.421875 0 
z
M 9.421875 75.984375 
L 18.40625 75.984375 
L 18.40625 64.59375 
L 9.421875 64.59375 
z
" id="DejaVuSans-105"/>
      <path d="M 52 44.1875 
Q 55.375 50.25 60.0625 53.125 
Q 64.75 56 71.09375 56 
Q 79.640625 56 84.28125 50.015625 
Q 88.921875 44.046875 88.921875 33.015625 
L 88.921875 0 
L 79.890625 0 
L 79.890625 32.71875 
Q 79.890625 40.578125 77.09375 44.375 
Q 74.3125 48.1875 68.609375 48.1875 
Q 61.625 48.1875 57.5625 43.546875 
Q 53.515625 38.921875 53.515625 30.90625 
L 53.515625 0 
L 44.484375 0 
L 44.484375 32.71875 
Q 44.484375 40.625 41.703125 44.40625 
Q 38.921875 48.1875 33.109375 48.1875 
Q 26.21875 48.1875 22.15625 43.53125 
Q 18.109375 38.875 18.109375 30.90625 
L 18.109375 0 
L 9.078125 0 
L 9.078125 54.6875 
L 18.109375 54.6875 
L 18.109375 46.1875 
Q 21.1875 51.21875 25.484375 53.609375 
Q 29.78125 56 35.6875 56 
Q 41.65625 56 45.828125 52.96875 
Q 50 49.953125 52 44.1875 
z
" id="DejaVuSans-109"/>
      <path d="M 56.203125 29.59375 
L 56.203125 25.203125 
L 14.890625 25.203125 
Q 15.484375 15.921875 20.484375 11.0625 
Q 25.484375 6.203125 34.421875 6.203125 
Q 39.59375 6.203125 44.453125 7.46875 
Q 49.3125 8.734375 54.109375 11.28125 
L 54.109375 2.78125 
Q 49.265625 0.734375 44.1875 -0.34375 
Q 39.109375 -1.421875 33.890625 -1.421875 
Q 20.796875 -1.421875 13.15625 6.1875 
Q 5.515625 13.8125 5.515625 26.8125 
Q 5.515625 40.234375 12.765625 48.109375 
Q 20.015625 56 32.328125 56 
Q 43.359375 56 49.78125 48.890625 
Q 56.203125 41.796875 56.203125 29.59375 
z
M 47.21875 32.234375 
Q 47.125 39.59375 43.09375 43.984375 
Q 39.0625 48.390625 32.421875 48.390625 
Q 24.90625 48.390625 20.390625 44.140625 
Q 15.875 39.890625 15.1875 32.171875 
z
" id="DejaVuSans-101"/>
      <path id="DejaVuSans-32"/>
      <path d="M 31 75.875 
Q 24.46875 64.65625 21.28125 53.65625 
Q 18.109375 42.671875 18.109375 31.390625 
Q 18.109375 20.125 21.3125 9.0625 
Q 24.515625 -2 31 -13.1875 
L 23.1875 -13.1875 
Q 15.875 -1.703125 12.234375 9.375 
Q 8.59375 20.453125 8.59375 31.390625 
Q 8.59375 42.28125 12.203125 53.3125 
Q 15.828125 64.359375 23.1875 75.875 
z
" id="DejaVuSans-40"/>
      <path d="M 44.28125 53.078125 
L 44.28125 44.578125 
Q 40.484375 46.53125 36.375 47.5 
Q 32.28125 48.484375 27.875 48.484375 
Q 21.1875 48.484375 17.84375 46.4375 
Q 14.5 44.390625 14.5 40.28125 
Q 14.5 37.15625 16.890625 35.375 
Q 19.28125 33.59375 26.515625 31.984375 
L 29.59375 31.296875 
Q 39.15625 29.25 43.1875 25.515625 
Q 47.21875 21.78125 47.21875 15.09375 
Q 47.21875 7.46875 41.1875 3.015625 
Q 35.15625 -1.421875 24.609375 -1.421875 
Q 20.21875 -1.421875 15.453125 -0.5625 
Q 10.6875 0.296875 5.421875 2 
L 5.421875 11.28125 
Q 10.40625 8.6875 15.234375 7.390625 
Q 20.0625 6.109375 24.8125 6.109375 
Q 31.15625 6.109375 34.5625 8.28125 
Q 37.984375 10.453125 37.984375 14.40625 
Q 37.984375 18.0625 35.515625 20.015625 
Q 33.0625 21.96875 24.703125 23.78125 
L 21.578125 24.515625 
Q 13.234375 26.265625 9.515625 29.90625 
Q 5.8125 33.546875 5.8125 39.890625 
Q 5.8125 47.609375 11.28125 51.796875 
Q 16.75 56 26.8125 56 
Q 31.78125 56 36.171875 55.265625 
Q 40.578125 54.546875 44.28125 53.078125 
z
" id="DejaVuSans-115"/>
      <path d="M 8.015625 75.875 
L 15.828125 75.875 
Q 23.140625 64.359375 26.78125 53.3125 
Q 30.421875 42.28125 30.421875 31.390625 
Q 30.421875 20.453125 26.78125 9.375 
Q 23.140625 -1.703125 15.828125 -13.1875 
L 8.015625 -13.1875 
Q 14.5 -2 17.703125 9.0625 
Q 20.90625 20.125 20.90625 31.390625 
Q 20.90625 42.671875 17.703125 53.65625 
Q 14.5 64.65625 8.015625 75.875 
z
" id="DejaVuSans-41"/>
     </defs>
     <g transform="translate(249.732188 259.916562)scale(0.1 -0.1)">
      <use xlink:href="#DejaVuSans-84"/>
      <use x="61.037109" xlink:href="#DejaVuSans-105"/>
      <use x="88.820312" xlink:href="#DejaVuSans-109"/>
      <use x="186.232422" xlink:href="#DejaVuSans-101"/>
      <use x="247.755859" xlink:href="#DejaVuSans-32"/>
      <use x="279.542969" xlink:href="#DejaVuSans-40"/>
      <use x="318.556641" xlink:href="#DejaVuSans-115"/>
      <use x="370.65625" xlink:href="#DejaVuSans-41"/>
     </g>
    </g>
   </g>
   <g id="matplotlib.axis_2">
    <g id="ytick_1">
     <g id="line2d_8">
      <defs>
       <path d="M 0 0 
L -3.5 0 
" id="m5e8a44f595" style="stroke:#000000;stroke-width:0.8;"/>
      </defs>
      <g>
       <use style="stroke:#000000;stroke-width:0.8;" x="49.75" xlink:href="#m5e8a44f595" y="222.267273"/>
      </g>
     </g>
     <g id="text_9">
      <!-- 0 -->
      <g transform="translate(36.3875 226.066491)scale(0.1 -0.1)">
       <use xlink:href="#DejaVuSans-48"/>
      </g>
     </g>
    </g>
    <g id="ytick_2">
     <g id="line2d_9">
      <g>
       <use style="stroke:#000000;stroke-width:0.8;" x="49.75" xlink:href="#m5e8a44f595" y="197.861144"/>
      </g>
     </g>
     <g id="text_10">
      <!-- 5000 -->
      <defs>
       <path d="M 10.796875 72.90625 
L 49.515625 72.90625 
L 49.515625 64.59375 
L 19.828125 64.59375 
L 19.828125 46.734375 
Q 21.96875 47.46875 24.109375 47.828125 
Q 26.265625 48.1875 28.421875 48.1875 
Q 40.625 48.1875 47.75 41.5 
Q 54.890625 34.8125 54.890625 23.390625 
Q 54.890625 11.625 47.5625 5.09375 
Q 40.234375 -1.421875 26.90625 -1.421875 
Q 22.3125 -1.421875 17.546875 -0.640625 
Q 12.796875 0.140625 7.71875 1.703125 
L 7.71875 11.625 
Q 12.109375 9.234375 16.796875 8.0625 
Q 21.484375 6.890625 26.703125 6.890625 
Q 35.15625 6.890625 40.078125 11.328125 
Q 45.015625 15.765625 45.015625 23.390625 
Q 45.015625 31 40.078125 35.4375 
Q 35.15625 39.890625 26.703125 39.890625 
Q 22.75 39.890625 18.8125 39.015625 
Q 14.890625 38.140625 10.796875 36.28125 
z
" id="DejaVuSans-53"/>
      </defs>
      <g transform="translate(17.3 201.660363)scale(0.1 -0.1)">
       <use xlink:href="#DejaVuSans-53"/>
       <use x="63.623047" xlink:href="#DejaVuSans-48"/>
       <use x="127.246094" xlink:href="#DejaVuSans-48"/>
       <use x="190.869141" xlink:href="#DejaVuSans-48"/>
      </g>
     </g>
    </g>
    <g id="ytick_3">
     <g id="line2d_10">
      <g>
       <use style="stroke:#000000;stroke-width:0.8;" x="49.75" xlink:href="#m5e8a44f595" y="173.455016"/>
      </g>
     </g>
     <g id="text_11">
      <!-- 10000 -->
      <g transform="translate(10.9375 177.254235)scale(0.1 -0.1)">
       <use xlink:href="#DejaVuSans-49"/>
       <use x="63.623047" xlink:href="#DejaVuSans-48"/>
       <use x="127.246094" xlink:href="#DejaVuSans-48"/>
       <use x="190.869141" xlink:href="#DejaVuSans-48"/>
       <use x="254.492188" xlink:href="#DejaVuSans-48"/>
      </g>
     </g>
    </g>
    <g id="ytick_4">
     <g id="line2d_11">
      <g>
       <use style="stroke:#000000;stroke-width:0.8;" x="49.75" xlink:href="#m5e8a44f595" y="149.048887"/>
      </g>
     </g>
     <g id="text_12">
      <!-- 15000 -->
      <g transform="translate(10.9375 152.848106)scale(0.1 -0.1)">
       <use xlink:href="#DejaVuSans-49"/>
       <use x="63.623047" xlink:href="#DejaVuSans-53"/>
       <use x="127.246094" xlink:href="#DejaVuSans-48"/>
       <use x="190.869141" xlink:href="#DejaVuSans-48"/>
       <use x="254.492188" xlink:href="#DejaVuSans-48"/>
      </g>
     </g>
    </g>
    <g id="ytick_5">
     <g id="line2d_12">
      <g>
       <use style="stroke:#000000;stroke-width:0.8;" x="49.75" xlink:href="#m5e8a44f595" y="124.642759"/>
      </g>
     </g>
     <g id="text_13">
      <!-- 20000 -->
      <g transform="translate(10.9375 128.441978)scale(0.1 -0.1)">
       <use xlink:href="#DejaVuSans-50"/>
       <use x="63.623047" xlink:href="#DejaVuSans-48"/>
       <use x="127.246094" xlink:href="#DejaVuSans-48"/>
       <use x="190.869141" xlink:href="#DejaVuSans-48"/>
       <use x="254.492188" xlink:href="#DejaVuSans-48"/>
      </g>
     </g>
    </g>
    <g id="ytick_6">
     <g id="line2d_13">
      <g>
       <use style="stroke:#000000;stroke-width:0.8;" x="49.75" xlink:href="#m5e8a44f595" y="100.23663"/>
      </g>
     </g>
     <g id="text_14">
      <!-- 25000 -->
      <g transform="translate(10.9375 104.035849)scale(0.1 -0.1)">
       <use xlink:href="#DejaVuSans-50"/>
       <use x="63.623047" xlink:href="#DejaVuSans-53"/>
       <use x="127.246094" xlink:href="#DejaVuSans-48"/>
       <use x="190.869141" xlink:href="#DejaVuSans-48"/>
       <use x="254.492188" xlink:href="#DejaVuSans-48"/>
      </g>
     </g>
    </g>
    <g id="ytick_7">
     <g id="line2d_14">
      <g>
       <use style="stroke:#000000;stroke-width:0.8;" x="49.75" xlink:href="#m5e8a44f595" y="75.830502"/>
      </g>
     </g>
     <g id="text_15">
      <!-- 30000 -->
      <defs>
       <path d="M 40.578125 39.3125 
Q 47.65625 37.796875 51.625 33 
Q 55.609375 28.21875 55.609375 21.1875 
Q 55.609375 10.40625 48.1875 4.484375 
Q 40.765625 -1.421875 27.09375 -1.421875 
Q 22.515625 -1.421875 17.65625 -0.515625 
Q 12.796875 0.390625 7.625 2.203125 
L 7.625 11.71875 
Q 11.71875 9.328125 16.59375 8.109375 
Q 21.484375 6.890625 26.8125 6.890625 
Q 36.078125 6.890625 40.9375 10.546875 
Q 45.796875 14.203125 45.796875 21.1875 
Q 45.796875 27.640625 41.28125 31.265625 
Q 36.765625 34.90625 28.71875 34.90625 
L 20.21875 34.90625 
L 20.21875 43.015625 
L 29.109375 43.015625 
Q 36.375 43.015625 40.234375 45.921875 
Q 44.09375 48.828125 44.09375 54.296875 
Q 44.09375 59.90625 40.109375 62.90625 
Q 36.140625 65.921875 28.71875 65.921875 
Q 24.65625 65.921875 20.015625 65.03125 
Q 15.375 64.15625 9.8125 62.3125 
L 9.8125 71.09375 
Q 15.4375 72.65625 20.34375 73.4375 
Q 25.25 74.21875 29.59375 74.21875 
Q 40.828125 74.21875 47.359375 69.109375 
Q 53.90625 64.015625 53.90625 55.328125 
Q 53.90625 49.265625 50.4375 45.09375 
Q 46.96875 40.921875 40.578125 39.3125 
z
" id="DejaVuSans-51"/>
      </defs>
      <g transform="translate(10.9375 79.629721)scale(0.1 -0.1)">
       <use xlink:href="#DejaVuSans-51"/>
       <use x="63.623047" xlink:href="#DejaVuSans-48"/>
       <use x="127.246094" xlink:href="#DejaVuSans-48"/>
       <use x="190.869141" xlink:href="#DejaVuSans-48"/>
       <use x="254.492188" xlink:href="#DejaVuSans-48"/>
      </g>
     </g>
    </g>
    <g id="ytick_8">
     <g id="line2d_15">
      <g>
       <use style="stroke:#000000;stroke-width:0.8;" x="49.75" xlink:href="#m5e8a44f595" y="51.424374"/>
      </g>
     </g>
     <g id="text_16">
      <!-- 35000 -->
      <g transform="translate(10.9375 55.223592)scale(0.1 -0.1)">
       <use xlink:href="#DejaVuSans-51"/>
       <use x="63.623047" xlink:href="#DejaVuSans-53"/>
       <use x="127.246094" xlink:href="#DejaVuSans-48"/>
       <use x="190.869141" xlink:href="#DejaVuSans-48"/>
       <use x="254.492188" xlink:href="#DejaVuSans-48"/>
      </g>
     </g>
    </g>
    <g id="ytick_9">
     <g id="line2d_16">
      <g>
       <use style="stroke:#000000;stroke-width:0.8;" x="49.75" xlink:href="#m5e8a44f595" y="27.018245"/>
      </g>
     </g>
     <g id="text_17">
      <!-- 40000 -->
      <g transform="translate(10.9375 30.817464)scale(0.1 -0.1)">
       <use xlink:href="#DejaVuSans-52"/>
       <use x="63.623047" xlink:href="#DejaVuSans-48"/>
       <use x="127.246094" xlink:href="#DejaVuSans-48"/>
       <use x="190.869141" xlink:href="#DejaVuSans-48"/>
       <use x="254.492188" xlink:href="#DejaVuSans-48"/>
      </g>
     </g>
    </g>
   </g>
   <g id="line2d_17">
    <path clip-path="url(#pc60a8bb3d9)" d="M 69.792273 222.267273 
L 77.889689 222.267273 
L 78.184679 34.812727 
L 78.524877 34.812727 
L 78.813686 222.267273 
L 79.042012 222.267273 
L 79.278714 71.288719 
L 79.638704 71.288719 
L 79.939631 67.821239 
L 80.511637 67.821239 
L 80.861505 72.60327 
L 81.235212 72.60327 
L 81.608622 70.531247 
L 81.898656 70.531247 
L 82.172977 69.634627 
L 82.491627 69.634627 
L 82.82594 64.289156 
L 83.209215 64.289156 
L 83.575717 60.531361 
L 83.885101 60.531361 
L 84.282642 53.768223 
L 84.620205 53.768223 
L 85.009904 44.951497 
L 85.482371 44.951497 
L 85.855673 40.405647 
L 86.222194 40.405647 
L 86.524431 42.623723 
L 86.864183 42.623723 
L 87.194835 40.435836 
L 87.480512 40.435836 
L 87.819556 45.425114 
L 88.19987 45.425114 
L 88.515511 50.866123 
L 88.942821 50.866123 
L 89.311167 59.981586 
L 89.647115 61.485932 
L 89.970042 61.485932 
L 90.366886 61.752743 
L 90.735427 61.752743 
L 91.145425 59.76407 
L 91.578882 59.76407 
L 91.870416 59.357026 
L 92.464051 59.357026 
L 92.790072 57.641766 
L 93.13333 57.641766 
L 93.498614 58.590727 
L 93.853325 58.590727 
L 94.220584 60.282827 
L 94.514777 60.282827 
L 94.8021 57.725906 
L 95.076832 57.725906 
L 95.378221 57.603483 
L 95.700306 57.603483 
L 96.024867 58.166553 
L 96.42202 58.166553 
L 96.808087 56.481912 
L 97.142083 56.481912 
L 97.364932 55.228399 
L 98.61786 55.177699 
L 98.936497 57.392262 
L 99.22647 57.392262 
L 99.447327 55.339439 
L 99.751221 55.339439 
L 100.107201 53.723026 
L 100.394259 53.723026 
L 100.789246 53.385729 
L 101.100252 53.385729 
L 101.534133 54.504828 
L 101.879772 54.504828 
L 102.292544 54.804819 
L 102.915665 54.804819 
L 103.208116 54.073253 
L 103.775958 54.073253 
L 104.120751 51.426464 
L 106.08731 51.471632 
L 106.536167 52.120707 
L 107.232672 52.120707 
L 107.606822 51.353913 
L 107.937769 51.353913 
L 108.270212 50.248285 
L 108.615625 50.248285 
L 109.047575 49.161785 
L 109.462938 49.161785 
L 109.875877 49.359491 
L 110.138191 49.359491 
L 110.484021 47.546554 
L 110.794525 47.546554 
L 111.143471 45.893625 
L 111.50354 45.893625 
L 111.879978 49.676427 
L 112.235214 49.676427 
L 112.568488 51.916299 
L 112.937067 51.916299 
L 113.27948 52.711662 
L 113.630777 52.711662 
L 113.997444 49.80997 
L 114.313117 49.80997 
L 114.633485 54.031638 
L 115.040012 54.031638 
L 115.543156 55.528147 
L 115.916426 55.528147 
L 116.276729 54.898281 
L 116.627022 54.898281 
L 117.030295 51.231914 
L 117.518557 51.231914 
L 117.95402 51.43128 
L 118.297582 51.43128 
L 118.70914 50.115196 
L 119.055544 50.115196 
L 119.467765 47.228597 
L 119.837429 47.228597 
L 120.212905 43.688928 
L 120.528743 43.688928 
L 120.864934 49.347557 
L 121.241008 49.347557 
L 121.673396 51.95362 
L 122.052186 51.95362 
L 122.465986 51.076555 
L 122.835012 51.076555 
L 123.240749 50.625627 
L 123.589989 50.625627 
L 123.90157 54.001691 
L 124.286439 54.001691 
L 124.682976 57.832391 
L 125.020607 57.832391 
L 125.299891 60.087664 
L 126.009553 60.087664 
L 126.280967 60.990068 
L 126.615533 60.990068 
L 126.966945 63.05475 
L 127.34193 63.05475 
L 127.764589 61.393467 
L 128.188674 61.393467 
L 128.594264 59.858456 
L 128.945152 59.858456 
L 129.363812 57.690135 
L 129.772374 57.690135 
L 130.178167 52.576005 
L 130.546885 57.187622 
L 130.919902 57.187622 
L 131.307444 55.950446 
L 131.573102 55.950446 
L 131.91062 57.437301 
L 132.266567 57.437301 
L 132.679403 59.330079 
L 133.07504 59.330079 
L 133.372494 61.500822 
L 133.938966 61.500822 
L 134.401664 60.506656 
L 134.79186 60.506656 
L 135.155876 60.662663 
L 135.539365 60.662663 
L 135.965877 59.982525 
L 136.370987 59.982525 
L 136.843215 60.434751 
L 137.124594 60.434751 
L 137.447408 62.883719 
L 137.797484 62.883719 
L 138.133154 60.004949 
L 138.448583 60.004949 
L 138.74639 56.643569 
L 139.104197 56.643569 
L 139.429297 55.009544 
L 139.785905 55.009544 
L 140.106973 51.122658 
L 140.420608 51.122658 
L 140.819212 50.384209 
L 141.226627 50.384209 
L 141.591318 51.280545 
L 141.97859 51.280545 
L 142.29055 52.556961 
L 142.971306 52.556961 
L 143.330668 51.345704 
L 143.701712 51.345704 
L 144.132093 49.886534 
L 144.54161 49.886534 
L 144.959794 46.363948 
L 145.365044 46.363948 
L 145.692831 45.158053 
L 145.991184 45.158053 
L 146.367379 43.839413 
L 146.704243 43.839413 
L 147.102995 43.452691 
L 147.486489 43.452691 
L 147.899471 45.261356 
L 148.288837 45.261356 
L 148.637997 42.91107 
L 149.012974 42.739537 
L 149.293908 42.739537 
L 149.606816 38.115582 
L 149.98004 38.115582 
L 150.401921 40.148028 
L 150.741191 40.148028 
L 151.080805 46.027571 
L 151.458915 46.027571 
L 151.815283 47.365831 
L 152.150862 47.365831 
L 152.514188 47.038772 
L 153.507721 47.102324 
L 153.940619 50.058051 
L 154.291965 50.058051 
L 154.712494 51.246203 
L 155.179735 51.246203 
L 155.595532 53.698578 
L 155.990148 53.698578 
L 156.440464 55.58519 
L 156.857337 55.58519 
L 157.130703 61.065323 
L 157.734949 61.065323 
L 158.053745 55.281915 
L 158.425149 55.281915 
L 158.768403 52.74303 
L 159.377685 52.74303 
L 159.781567 52.258705 
L 160.169707 52.258705 
L 160.504132 56.699539 
L 160.945191 56.699539 
L 161.283919 58.847552 
L 161.644187 58.847552 
L 161.959029 57.091286 
L 162.593892 57.091286 
L 162.8953 54.620732 
L 163.475423 54.620732 
L 163.805122 56.451884 
L 164.244422 56.451884 
L 164.579146 56.71687 
L 164.925247 56.71687 
L 165.279119 57.827451 
L 165.639294 57.827451 
L 166.097043 63.070672 
L 166.424487 63.070672 
L 166.778154 69.346617 
L 167.154364 69.346617 
L 167.52789 77.399256 
L 167.854659 77.399256 
L 168.136105 84.131491 
L 168.736531 84.131491 
L 169.117742 90.773535 
L 169.527437 90.773535 
L 169.798852 100.962505 
L 170.208068 100.962505 
L 170.563157 111.248615 
L 170.908686 111.248615 
L 171.216398 119.52226 
L 171.454983 119.52226 
L 171.682351 132.724535 
L 171.959236 132.724535 
L 172.294154 134.862187 
L 172.982652 134.862187 
L 173.248878 146.303758 
L 173.623263 146.303758 
L 173.997637 151.180989 
L 174.34625 151.180989 
L 174.694872 152.030032 
L 175.052052 152.030032 
L 175.414159 155.836087 
L 175.761178 155.836087 
L 176.097276 158.151536 
L 176.432008 158.151536 
L 176.860041 159.343193 
L 177.219692 159.343193 
L 177.566255 161.05487 
L 178.73276 161.091015 
L 179.068048 161.721673 
L 180.439926 161.721673 
L 180.885109 163.222941 
L 181.33731 163.222941 
L 181.703563 163.420271 
L 182.062569 163.420271 
L 182.494478 162.927241 
L 182.746672 162.927241 
L 183.067346 163.425583 
L 183.486506 163.425583 
L 184.294852 163.566681 
L 184.757061 164.616427 
L 185.153723 164.616427 
L 185.510917 162.440222 
L 185.952383 162.440222 
L 186.31827 161.579098 
L 187.612762 161.52659 
L 187.983241 159.8252 
L 188.345018 159.8252 
L 188.702097 157.551403 
L 189.054217 157.551403 
L 189.418079 155.592386 
L 190.405867 155.621383 
L 190.757959 153.956207 
L 191.17613 153.956207 
L 191.551762 152.465327 
L 191.898503 152.465327 
L 192.256042 150.421135 
L 192.734687 150.421135 
L 193.153142 149.876123 
L 194.18457 149.983843 
L 194.599528 150.120564 
L 194.968217 150.120564 
L 195.326055 149.220114 
L 195.704225 149.220114 
L 196.002247 150.150734 
L 196.66665 150.150734 
L 197.009484 150.293086 
L 197.669767 150.293086 
L 197.993837 151.238678 
L 198.667381 151.238678 
L 199.03608 151.591062 
L 199.352552 151.591062 
L 199.606591 153.758205 
L 200.012262 153.758205 
L 200.418226 158.259639 
L 200.860258 158.259639 
L 201.342616 161.821315 
L 201.879268 161.821315 
L 202.346289 165.833759 
L 202.741268 165.833759 
L 203.173419 169.882997 
L 203.579121 169.882997 
L 203.998479 174.394812 
L 204.399752 174.394812 
L 204.804694 178.421828 
L 205.136643 178.421828 
L 205.407459 183.384581 
L 205.756782 183.384581 
L 206.135218 187.685829 
L 206.499389 187.685829 
L 206.914208 193.35067 
L 207.325945 193.35067 
L 207.800749 196.374127 
L 208.203665 196.374127 
L 208.531343 198.596269 
L 208.941122 198.596269 
L 209.393765 199.080387 
L 209.760755 199.080387 
L 210.103169 200.006572 
L 210.425608 200.006572 
L 210.783675 201.734469 
L 211.378848 201.734469 
L 211.69789 201.904694 
L 211.951813 201.904694 
L 212.179303 202.854622 
L 213.234242 202.831334 
L 213.552158 203.063537 
L 213.867687 203.063537 
L 214.201735 202.487912 
L 214.590631 202.487912 
L 214.968642 202.034041 
L 215.42446 202.034041 
L 215.875036 201.646621 
L 216.33045 201.646621 
L 216.660285 201.345063 
L 217.055632 201.345063 
L 217.433691 201.186317 
L 217.868919 201.186317 
L 218.331234 200.769793 
L 218.636363 200.769793 
L 219.000748 200.560042 
L 219.399159 200.560042 
L 219.759947 200.144681 
L 220.132772 200.144681 
L 220.484922 200.421163 
L 221.70797 200.336611 
L 222.03357 199.983471 
L 222.374421 199.983471 
L 222.730437 200.10127 
L 223.144992 200.10127 
L 223.50292 199.963365 
L 223.850004 199.963365 
L 224.291949 199.819562 
L 224.654145 199.819562 
L 224.900334 199.619982 
L 225.531779 199.619982 
L 226.13926 199.749893 
L 226.471892 199.749893 
L 226.851548 199.998188 
L 227.275065 199.998188 
L 227.637856 199.713625 
L 227.992934 199.713625 
L 228.316686 199.447553 
L 230.00707 199.425003 
L 230.349593 199.002456 
L 232.605132 198.915908 
L 232.995608 199.274134 
L 233.384495 199.274134 
L 233.743985 199.716825 
L 234.109662 199.716825 
L 234.545396 199.065245 
L 234.89168 199.065245 
L 235.21234 199.234101 
L 235.634568 199.234101 
L 235.958187 199.997282 
L 236.349815 199.997282 
L 236.64438 200.140605 
L 237.319958 200.140605 
L 237.580657 200.277425 
L 237.939897 200.277425 
L 238.254504 201.603849 
L 238.831432 201.603849 
L 239.2462 202.074465 
L 240.954726 202.148209 
L 241.315775 201.932374 
L 241.732259 201.932374 
L 241.952787 202.251189 
L 242.261865 202.251189 
L 242.588586 202.422616 
L 242.965136 202.422616 
L 243.345903 202.163956 
L 243.697929 202.163956 
L 244.115738 200.899142 
L 244.477424 200.899142 
L 244.824443 201.136247 
L 245.911179 201.227762 
L 246.22493 200.776811 
L 246.487742 200.776811 
L 246.799283 201.005767 
L 247.153903 201.005767 
L 247.540404 200.557009 
L 249.2618 200.504611 
L 249.946997 200.427611 
L 250.921469 200.666342 
L 251.291828 200.666342 
L 251.68052 200.466914 
L 252.082166 200.466914 
L 252.949404 200.332752 
L 253.333114 200.513843 
L 254.548577 200.433382 
L 254.942865 200.725632 
L 260.753394 200.657918 
L 261.518709 200.608973 
L 262.276739 200.65732 
L 262.648854 200.09966 
L 263.056397 200.09966 
L 263.46795 199.863614 
L 263.698384 199.863614 
L 263.97725 199.671458 
L 266.102444 199.741363 
L 266.50385 199.914138 
L 266.870223 199.914138 
L 267.303228 200.262708 
L 267.719971 200.262708 
L 268.081548 200.447388 
L 268.491871 200.447388 
L 268.96758 200.849196 
L 269.377073 200.849196 
L 269.743266 201.19577 
L 270.180622 201.19577 
L 270.629818 201.937744 
L 270.988738 201.937744 
L 271.305365 202.565477 
L 271.606812 202.565477 
L 271.892681 203.321872 
L 272.299387 203.321872 
L 272.687638 203.969298 
L 273.077985 203.969298 
L 273.471399 204.465939 
L 273.827615 204.465939 
L 274.261457 205.025902 
L 274.643108 205.025902 
L 275.004829 205.680543 
L 275.514553 205.680543 
L 275.939634 206.335909 
L 276.335009 206.335909 
L 276.637364 206.715464 
L 277.071993 206.715464 
L 277.430784 207.334972 
L 277.825725 207.334972 
L 278.109886 207.68308 
L 279.943461 207.702748 
L 280.56889 207.867149 
L 282.261758 208.113543 
L 282.635197 208.113543 
L 283.029205 207.951314 
L 285.682198 207.945592 
L 286.078278 208.168986 
L 286.474661 208.168986 
L 286.885588 208.340587 
L 289.160798 208.410088 
L 289.557891 208.201461 
L 289.973459 208.201461 
L 290.40186 207.926678 
L 291.623943 207.930487 
L 291.965982 208.282716 
L 293.793387 208.245814 
L 294.159195 208.089644 
L 301.525332 208.077016 
L 301.792228 208.234263 
L 302.937241 208.323721 
L 304.849284 208.660285 
L 305.171264 208.842726 
L 305.484801 208.842726 
L 305.846163 209.128147 
L 306.455023 209.128147 
L 306.905833 209.306902 
L 307.283029 209.306902 
L 307.644793 209.513948 
L 307.994146 209.513948 
L 308.435202 209.83448 
L 309.975864 209.83448 
L 310.305853 210.074544 
L 310.668097 210.074544 
L 311.051192 210.304128 
L 312.254027 210.41418 
L 313.054701 210.529392 
L 313.877357 210.613319 
L 317.295131 210.52398 
L 318.59843 210.46739 
L 319.080816 210.46739 
L 319.475559 210.294534 
L 333.035435 210.221067 
L 333.606392 210.150004 
L 336.498304 210.179261 
L 336.874054 210.424396 
L 338.33619 210.528515 
L 339.513538 210.701943 
L 339.958276 210.701943 
L 340.29791 210.898786 
L 340.943904 210.898786 
L 341.348903 211.12917 
L 341.76293 211.12917 
L 342.213596 211.368921 
L 342.607107 211.368921 
L 342.986523 211.515933 
L 343.913673 211.525651 
L 344.1424 211.627954 
L 346.436667 211.729965 
L 347.211588 211.814623 
L 348.277849 211.819709 
L 349.397359 211.845289 
L 349.749063 211.698578 
L 350.10327 211.698578 
L 350.514328 211.840514 
L 351.719712 211.907502 
L 353.302083 212.178374 
L 354.598221 212.273693 
L 355.230883 212.206646 
L 355.790423 212.301331 
L 358.86659 212.231181 
L 359.789497 212.123964 
L 361.505384 212.007734 
L 364.162421 211.928094 
L 367.935857 211.775671 
L 369.593395 211.81103 
L 370.328411 211.731746 
L 380.391688 212.53893 
L 381.367105 212.481174 
L 381.919637 212.41861 
L 387.583465 212.497509 
L 388.684651 212.571336 
L 392.376804 212.665701 
L 393.854208 212.659684 
L 399.602784 212.749364 
L 400.97585 212.768893 
L 402.036381 212.898502 
L 403.224795 212.981048 
L 403.477522 213.121492 
L 405.848574 213.207227 
L 409.873628 213.399853 
L 412.061037 213.463634 
L 413.266488 213.638265 
L 415.219442 213.680961 
L 415.494451 213.800031 
L 417.413214 213.883143 
L 418.900903 213.987379 
L 424.554229 213.881956 
L 425.124189 213.737044 
L 429.06438 213.712219 
L 429.42814 213.57964 
L 433.702009 213.667379 
L 434.030208 222.267273 
L 434.26377 222.267273 
L 434.566689 213.625797 
L 438.47547 213.719753 
L 439.988729 213.876099 
L 441.045558 213.917154 
L 441.806199 214.013643 
L 443.207179 214.076878 
L 444.600795 214.220147 
L 445.790874 214.155377 
L 447.069435 214.254284 
L 448.278336 214.395527 
L 454.175394 214.563366 
L 464.797876 214.552797 
L 465.195765 214.40719 
L 466.485857 214.333734 
L 467.296142 214.275343 
L 467.761636 214.294103 
L 468.177852 214.162417 
L 469.304399 214.131045 
L 469.623319 222.267273 
L 469.927701 222.267273 
L 470.305117 214.136711 
L 470.637727 214.136711 
L 470.637727 214.136711 
" style="fill:none;stroke:#ff0000;stroke-linecap:square;stroke-width:1.5;"/>
   </g>
   <g id="patch_3">
    <path d="M 49.75 231.64 
L 49.75 25.44 
" style="fill:none;stroke:#000000;stroke-linecap:square;stroke-linejoin:miter;stroke-width:0.8;"/>
   </g>
   <g id="patch_4">
    <path d="M 490.68 231.64 
L 490.68 25.44 
" style="fill:none;stroke:#000000;stroke-linecap:square;stroke-linejoin:miter;stroke-width:0.8;"/>
   </g>
   <g id="patch_5">
    <path d="M 49.75 231.64 
L 490.68 231.64 
" style="fill:none;stroke:#000000;stroke-linecap:square;stroke-linejoin:miter;stroke-width:0.8;"/>
   </g>
   <g id="patch_6">
    <path d="M 49.75 25.44 
L 490.68 25.44 
" style="fill:none;stroke:#000000;stroke-linecap:square;stroke-linejoin:miter;stroke-width:0.8;"/>
   </g>
   <g id="text_18">
    <!-- Bounding Box Area -->
    <defs>
     <path d="M 19.671875 34.8125 
L 19.671875 8.109375 
L 35.5 8.109375 
Q 43.453125 8.109375 47.28125 11.40625 
Q 51.125 14.703125 51.125 21.484375 
Q 51.125 28.328125 47.28125 31.5625 
Q 43.453125 34.8125 35.5 34.8125 
z
M 19.671875 64.796875 
L 19.671875 42.828125 
L 34.28125 42.828125 
Q 41.5 42.828125 45.03125 45.53125 
Q 48.578125 48.25 48.578125 53.8125 
Q 48.578125 59.328125 45.03125 62.0625 
Q 41.5 64.796875 34.28125 64.796875 
z
M 9.8125 72.90625 
L 35.015625 72.90625 
Q 46.296875 72.90625 52.390625 68.21875 
Q 58.5 63.53125 58.5 54.890625 
Q 58.5 48.1875 55.375 44.234375 
Q 52.25 40.28125 46.1875 39.3125 
Q 53.46875 37.75 57.5 32.78125 
Q 61.53125 27.828125 61.53125 20.40625 
Q 61.53125 10.640625 54.890625 5.3125 
Q 48.25 0 35.984375 0 
L 9.8125 0 
z
" id="DejaVuSans-66"/>
     <path d="M 30.609375 48.390625 
Q 23.390625 48.390625 19.1875 42.75 
Q 14.984375 37.109375 14.984375 27.296875 
Q 14.984375 17.484375 19.15625 11.84375 
Q 23.34375 6.203125 30.609375 6.203125 
Q 37.796875 6.203125 41.984375 11.859375 
Q 46.1875 17.53125 46.1875 27.296875 
Q 46.1875 37.015625 41.984375 42.703125 
Q 37.796875 48.390625 30.609375 48.390625 
z
M 30.609375 56 
Q 42.328125 56 49.015625 48.375 
Q 55.71875 40.765625 55.71875 27.296875 
Q 55.71875 13.875 49.015625 6.21875 
Q 42.328125 -1.421875 30.609375 -1.421875 
Q 18.84375 -1.421875 12.171875 6.21875 
Q 5.515625 13.875 5.515625 27.296875 
Q 5.515625 40.765625 12.171875 48.375 
Q 18.84375 56 30.609375 56 
z
" id="DejaVuSans-111"/>
     <path d="M 8.5 21.578125 
L 8.5 54.6875 
L 17.484375 54.6875 
L 17.484375 21.921875 
Q 17.484375 14.15625 20.5 10.265625 
Q 23.53125 6.390625 29.59375 6.390625 
Q 36.859375 6.390625 41.078125 11.03125 
Q 45.3125 15.671875 45.3125 23.6875 
L 45.3125 54.6875 
L 54.296875 54.6875 
L 54.296875 0 
L 45.3125 0 
L 45.3125 8.40625 
Q 42.046875 3.421875 37.71875 1 
Q 33.40625 -1.421875 27.6875 -1.421875 
Q 18.265625 -1.421875 13.375 4.4375 
Q 8.5 10.296875 8.5 21.578125 
z
M 31.109375 56 
z
" id="DejaVuSans-117"/>
     <path d="M 54.890625 33.015625 
L 54.890625 0 
L 45.90625 0 
L 45.90625 32.71875 
Q 45.90625 40.484375 42.875 44.328125 
Q 39.84375 48.1875 33.796875 48.1875 
Q 26.515625 48.1875 22.3125 43.546875 
Q 18.109375 38.921875 18.109375 30.90625 
L 18.109375 0 
L 9.078125 0 
L 9.078125 54.6875 
L 18.109375 54.6875 
L 18.109375 46.1875 
Q 21.34375 51.125 25.703125 53.5625 
Q 30.078125 56 35.796875 56 
Q 45.21875 56 50.046875 50.171875 
Q 54.890625 44.34375 54.890625 33.015625 
z
" id="DejaVuSans-110"/>
     <path d="M 45.40625 46.390625 
L 45.40625 75.984375 
L 54.390625 75.984375 
L 54.390625 0 
L 45.40625 0 
L 45.40625 8.203125 
Q 42.578125 3.328125 38.25 0.953125 
Q 33.9375 -1.421875 27.875 -1.421875 
Q 17.96875 -1.421875 11.734375 6.484375 
Q 5.515625 14.40625 5.515625 27.296875 
Q 5.515625 40.1875 11.734375 48.09375 
Q 17.96875 56 27.875 56 
Q 33.9375 56 38.25 53.625 
Q 42.578125 51.265625 45.40625 46.390625 
z
M 14.796875 27.296875 
Q 14.796875 17.390625 18.875 11.75 
Q 22.953125 6.109375 30.078125 6.109375 
Q 37.203125 6.109375 41.296875 11.75 
Q 45.40625 17.390625 45.40625 27.296875 
Q 45.40625 37.203125 41.296875 42.84375 
Q 37.203125 48.484375 30.078125 48.484375 
Q 22.953125 48.484375 18.875 42.84375 
Q 14.796875 37.203125 14.796875 27.296875 
z
" id="DejaVuSans-100"/>
     <path d="M 45.40625 27.984375 
Q 45.40625 37.75 41.375 43.109375 
Q 37.359375 48.484375 30.078125 48.484375 
Q 22.859375 48.484375 18.828125 43.109375 
Q 14.796875 37.75 14.796875 27.984375 
Q 14.796875 18.265625 18.828125 12.890625 
Q 22.859375 7.515625 30.078125 7.515625 
Q 37.359375 7.515625 41.375 12.890625 
Q 45.40625 18.265625 45.40625 27.984375 
z
M 54.390625 6.78125 
Q 54.390625 -7.171875 48.1875 -13.984375 
Q 42 -20.796875 29.203125 -20.796875 
Q 24.46875 -20.796875 20.265625 -20.09375 
Q 16.0625 -19.390625 12.109375 -17.921875 
L 12.109375 -9.1875 
Q 16.0625 -11.328125 19.921875 -12.34375 
Q 23.78125 -13.375 27.78125 -13.375 
Q 36.625 -13.375 41.015625 -8.765625 
Q 45.40625 -4.15625 45.40625 5.171875 
L 45.40625 9.625 
Q 42.625 4.78125 38.28125 2.390625 
Q 33.9375 0 27.875 0 
Q 17.828125 0 11.671875 7.65625 
Q 5.515625 15.328125 5.515625 27.984375 
Q 5.515625 40.671875 11.671875 48.328125 
Q 17.828125 56 27.875 56 
Q 33.9375 56 38.28125 53.609375 
Q 42.625 51.21875 45.40625 46.390625 
L 45.40625 54.6875 
L 54.390625 54.6875 
z
" id="DejaVuSans-103"/>
     <path d="M 54.890625 54.6875 
L 35.109375 28.078125 
L 55.90625 0 
L 45.3125 0 
L 29.390625 21.484375 
L 13.484375 0 
L 2.875 0 
L 24.125 28.609375 
L 4.6875 54.6875 
L 15.28125 54.6875 
L 29.78125 35.203125 
L 44.28125 54.6875 
z
" id="DejaVuSans-120"/>
     <path d="M 34.1875 63.1875 
L 20.796875 26.90625 
L 47.609375 26.90625 
z
M 28.609375 72.90625 
L 39.796875 72.90625 
L 67.578125 0 
L 57.328125 0 
L 50.6875 18.703125 
L 17.828125 18.703125 
L 11.1875 0 
L 0.78125 0 
z
" id="DejaVuSans-65"/>
     <path d="M 41.109375 46.296875 
Q 39.59375 47.171875 37.8125 47.578125 
Q 36.03125 48 33.890625 48 
Q 26.265625 48 22.1875 43.046875 
Q 18.109375 38.09375 18.109375 28.8125 
L 18.109375 0 
L 9.078125 0 
L 9.078125 54.6875 
L 18.109375 54.6875 
L 18.109375 46.1875 
Q 20.953125 51.171875 25.484375 53.578125 
Q 30.03125 56 36.53125 56 
Q 37.453125 56 38.578125 55.875 
Q 39.703125 55.765625 41.0625 55.515625 
z
" id="DejaVuSans-114"/>
     <path d="M 34.28125 27.484375 
Q 23.390625 27.484375 19.1875 25 
Q 14.984375 22.515625 14.984375 16.5 
Q 14.984375 11.71875 18.140625 8.90625 
Q 21.296875 6.109375 26.703125 6.109375 
Q 34.1875 6.109375 38.703125 11.40625 
Q 43.21875 16.703125 43.21875 25.484375 
L 43.21875 27.484375 
z
M 52.203125 31.203125 
L 52.203125 0 
L 43.21875 0 
L 43.21875 8.296875 
Q 40.140625 3.328125 35.546875 0.953125 
Q 30.953125 -1.421875 24.3125 -1.421875 
Q 15.921875 -1.421875 10.953125 3.296875 
Q 6 8.015625 6 15.921875 
Q 6 25.140625 12.171875 29.828125 
Q 18.359375 34.515625 30.609375 34.515625 
L 43.21875 34.515625 
L 43.21875 35.40625 
Q 43.21875 41.609375 39.140625 45 
Q 35.0625 48.390625 27.6875 48.390625 
Q 23 48.390625 18.546875 47.265625 
Q 14.109375 46.140625 10.015625 43.890625 
L 10.015625 52.203125 
Q 14.9375 54.109375 19.578125 55.046875 
Q 24.21875 56 28.609375 56 
Q 40.484375 56 46.34375 49.84375 
Q 52.203125 43.703125 52.203125 31.203125 
z
" id="DejaVuSans-97"/>
    </defs>
    <g transform="translate(212.646875 19.44)scale(0.12 -0.12)">
     <use xlink:href="#DejaVuSans-66"/>
     <use x="68.603516" xlink:href="#DejaVuSans-111"/>
     <use x="129.785156" xlink:href="#DejaVuSans-117"/>
     <use x="193.164062" xlink:href="#DejaVuSans-110"/>
     <use x="256.542969" xlink:href="#DejaVuSans-100"/>
     <use x="320.019531" xlink:href="#DejaVuSans-105"/>
     <use x="347.802734" xlink:href="#DejaVuSans-110"/>
     <use x="411.181641" xlink:href="#DejaVuSans-103"/>
     <use x="474.658203" xlink:href="#DejaVuSans-32"/>
     <use x="506.445312" xlink:href="#DejaVuSans-66"/>
     <use x="575.048828" xlink:href="#DejaVuSans-111"/>
     <use x="636.183594" xlink:href="#DejaVuSans-120"/>
     <use x="695.363281" xlink:href="#DejaVuSans-32"/>
     <use x="727.150391" xlink:href="#DejaVuSans-65"/>
     <use x="795.558594" xlink:href="#DejaVuSans-114"/>
     <use x="836.640625" xlink:href="#DejaVuSans-101"/>
     <use x="898.164062" xlink:href="#DejaVuSans-97"/>
    </g>
   </g>
   <g id="legend_1">
    <g id="patch_7">
     <path d="M 428.450312 48.118125 
L 483.68 48.118125 
Q 485.68 48.118125 485.68 46.118125 
L 485.68 32.44 
Q 485.68 30.44 483.68 30.44 
L 428.450312 30.44 
Q 426.450312 30.44 426.450312 32.44 
L 426.450312 46.118125 
Q 426.450312 48.118125 428.450312 48.118125 
z
" style="fill:#ffffff;opacity:0.8;stroke:#cccccc;stroke-linejoin:miter;"/>
    </g>
    <g id="line2d_18">
     <path d="M 430.450312 38.538437 
L 450.450312 38.538437 
" style="fill:none;stroke:#ff0000;stroke-linecap:square;stroke-width:1.5;"/>
    </g>
    <g id="line2d_19"/>
    <g id="text_19">
     <!-- Area -->
     <g transform="translate(458.450312 42.038437)scale(0.1 -0.1)">
      <use xlink:href="#DejaVuSans-65"/>
      <use x="68.408203" xlink:href="#DejaVuSans-114"/>
      <use x="109.490234" xlink:href="#DejaVuSans-101"/>
      <use x="171.013672" xlink:href="#DejaVuSans-97"/>
     </g>
    </g>
   </g>
  </g>
 </g>
 <defs>
  <clipPath id="pc60a8bb3d9">
   <rect height="206.2" width="440.93" x="49.75" y="25.44"/>
  </clipPath>
 </defs>
</svg>
