<?xml version="1.0" encoding="utf-8" standalone="no"?>
<!DOCTYPE svg PUBLIC "-//W3C//DTD SVG 1.1//EN"
  "http://www.w3.org/Graphics/SVG/1.1/DTD/svg11.dtd">
<!-- Created with matplotlib (https://matplotlib.org/) -->
<svg height="252pt" version="1.1" viewBox="0 0 461.52 252" width="461.52pt" xmlns="http://www.w3.org/2000/svg" xmlns:xlink="http://www.w3.org/1999/xlink">
 <defs>
  <style type="text/css">
*{stroke-linecap:butt;stroke-linejoin:round;}
  </style>
 </defs>
 <g id="figure_1">
  <g id="patch_1">
   <path d="M 0 252 
L 461.52 252 
L 461.52 0 
L 0 0 
z
" style="fill:#ffffff;"/>
  </g>
  <g id="axes_1">
   <g id="patch_2">
    <path d="M 49.75 210.04 
L 448.2 210.04 
L 448.2 25.44 
L 49.75 25.44 
z
" style="fill:#ffffff;"/>
   </g>
   <g id="matplotlib.axis_1">
    <g id="xtick_1">
     <g id="line2d_1">
      <defs>
       <path d="M 0 0 
L 0 3.5 
" id="m697fa535ef" style="stroke:#000000;stroke-width:0.8;"/>
      </defs>
      <g>
       <use style="stroke:#000000;stroke-width:0.8;" x="78.523003" xlink:href="#m697fa535ef" y="210.04"/>
      </g>
     </g>
     <g id="text_1">
      <!-- 20 -->
      <defs>
       <path d="M 19.1875 8.296875 
L 53.609375 8.296875 
L 53.609375 0 
L 7.328125 0 
L 7.328125 8.296875 
Q 12.9375 14.109375 22.625 23.890625 
Q 32.328125 33.6875 34.8125 36.53125 
Q 39.546875 41.84375 41.421875 45.53125 
Q 43.3125 49.21875 43.3125 52.78125 
Q 43.3125 58.59375 39.234375 62.25 
Q 35.15625 65.921875 28.609375 65.921875 
Q 23.96875 65.921875 18.8125 64.3125 
Q 13.671875 62.703125 7.8125 59.421875 
L 7.8125 69.390625 
Q 13.765625 71.78125 18.9375 73 
Q 24.125 74.21875 28.421875 74.21875 
Q 39.75 74.21875 46.484375 68.546875 
Q 53.21875 62.890625 53.21875 53.421875 
Q 53.21875 48.921875 51.53125 44.890625 
Q 49.859375 40.875 45.40625 35.40625 
Q 44.1875 33.984375 37.640625 27.21875 
Q 31.109375 20.453125 19.1875 8.296875 
z
" id="DejaVuSans-50"/>
       <path d="M 31.78125 66.40625 
Q 24.171875 66.40625 20.328125 58.90625 
Q 16.5 51.421875 16.5 36.375 
Q 16.5 21.390625 20.328125 13.890625 
Q 24.171875 6.390625 31.78125 6.390625 
Q 39.453125 6.390625 43.28125 13.890625 
Q 47.125 21.390625 47.125 36.375 
Q 47.125 51.421875 43.28125 58.90625 
Q 39.453125 66.40625 31.78125 66.40625 
z
M 31.78125 74.21875 
Q 44.046875 74.21875 50.515625 64.515625 
Q 56.984375 54.828125 56.984375 36.375 
Q 56.984375 17.96875 50.515625 8.265625 
Q 44.046875 -1.421875 31.78125 -1.421875 
Q 19.53125 -1.421875 13.0625 8.265625 
Q 6.59375 17.96875 6.59375 36.375 
Q 6.59375 54.828125 13.0625 64.515625 
Q 19.53125 74.21875 31.78125 74.21875 
z
" id="DejaVuSans-48"/>
      </defs>
      <g transform="translate(72.160503 224.638438)scale(0.1 -0.1)">
       <use xlink:href="#DejaVuSans-50"/>
       <use x="63.623047" xlink:href="#DejaVuSans-48"/>
      </g>
     </g>
    </g>
    <g id="xtick_2">
     <g id="line2d_2">
      <g>
       <use style="stroke:#000000;stroke-width:0.8;" x="146.600203" xlink:href="#m697fa535ef" y="210.04"/>
      </g>
     </g>
     <g id="text_2">
      <!-- 40 -->
      <defs>
       <path d="M 37.796875 64.3125 
L 12.890625 25.390625 
L 37.796875 25.390625 
z
M 35.203125 72.90625 
L 47.609375 72.90625 
L 47.609375 25.390625 
L 58.015625 25.390625 
L 58.015625 17.1875 
L 47.609375 17.1875 
L 47.609375 0 
L 37.796875 0 
L 37.796875 17.1875 
L 4.890625 17.1875 
L 4.890625 26.703125 
z
" id="DejaVuSans-52"/>
      </defs>
      <g transform="translate(140.237703 224.638438)scale(0.1 -0.1)">
       <use xlink:href="#DejaVuSans-52"/>
       <use x="63.623047" xlink:href="#DejaVuSans-48"/>
      </g>
     </g>
    </g>
    <g id="xtick_3">
     <g id="line2d_3">
      <g>
       <use style="stroke:#000000;stroke-width:0.8;" x="214.677402" xlink:href="#m697fa535ef" y="210.04"/>
      </g>
     </g>
     <g id="text_3">
      <!-- 60 -->
      <defs>
       <path d="M 33.015625 40.375 
Q 26.375 40.375 22.484375 35.828125 
Q 18.609375 31.296875 18.609375 23.390625 
Q 18.609375 15.53125 22.484375 10.953125 
Q 26.375 6.390625 33.015625 6.390625 
Q 39.65625 6.390625 43.53125 10.953125 
Q 47.40625 15.53125 47.40625 23.390625 
Q 47.40625 31.296875 43.53125 35.828125 
Q 39.65625 40.375 33.015625 40.375 
z
M 52.59375 71.296875 
L 52.59375 62.3125 
Q 48.875 64.0625 45.09375 64.984375 
Q 41.3125 65.921875 37.59375 65.921875 
Q 27.828125 65.921875 22.671875 59.328125 
Q 17.53125 52.734375 16.796875 39.40625 
Q 19.671875 43.65625 24.015625 45.921875 
Q 28.375 48.1875 33.59375 48.1875 
Q 44.578125 48.1875 50.953125 41.515625 
Q 57.328125 34.859375 57.328125 23.390625 
Q 57.328125 12.15625 50.6875 5.359375 
Q 44.046875 -1.421875 33.015625 -1.421875 
Q 20.359375 -1.421875 13.671875 8.265625 
Q 6.984375 17.96875 6.984375 36.375 
Q 6.984375 53.65625 15.1875 63.9375 
Q 23.390625 74.21875 37.203125 74.21875 
Q 40.921875 74.21875 44.703125 73.484375 
Q 48.484375 72.75 52.59375 71.296875 
z
" id="DejaVuSans-54"/>
      </defs>
      <g transform="translate(208.314902 224.638438)scale(0.1 -0.1)">
       <use xlink:href="#DejaVuSans-54"/>
       <use x="63.623047" xlink:href="#DejaVuSans-48"/>
      </g>
     </g>
    </g>
    <g id="xtick_4">
     <g id="line2d_4">
      <g>
       <use style="stroke:#000000;stroke-width:0.8;" x="282.754602" xlink:href="#m697fa535ef" y="210.04"/>
      </g>
     </g>
     <g id="text_4">
      <!-- 80 -->
      <defs>
       <path d="M 31.78125 34.625 
Q 24.75 34.625 20.71875 30.859375 
Q 16.703125 27.09375 16.703125 20.515625 
Q 16.703125 13.921875 20.71875 10.15625 
Q 24.75 6.390625 31.78125 6.390625 
Q 38.8125 6.390625 42.859375 10.171875 
Q 46.921875 13.96875 46.921875 20.515625 
Q 46.921875 27.09375 42.890625 30.859375 
Q 38.875 34.625 31.78125 34.625 
z
M 21.921875 38.8125 
Q 15.578125 40.375 12.03125 44.71875 
Q 8.5 49.078125 8.5 55.328125 
Q 8.5 64.0625 14.71875 69.140625 
Q 20.953125 74.21875 31.78125 74.21875 
Q 42.671875 74.21875 48.875 69.140625 
Q 55.078125 64.0625 55.078125 55.328125 
Q 55.078125 49.078125 51.53125 44.71875 
Q 48 40.375 41.703125 38.8125 
Q 48.828125 37.15625 52.796875 32.3125 
Q 56.78125 27.484375 56.78125 20.515625 
Q 56.78125 9.90625 50.3125 4.234375 
Q 43.84375 -1.421875 31.78125 -1.421875 
Q 19.734375 -1.421875 13.25 4.234375 
Q 6.78125 9.90625 6.78125 20.515625 
Q 6.78125 27.484375 10.78125 32.3125 
Q 14.796875 37.15625 21.921875 38.8125 
z
M 18.3125 54.390625 
Q 18.3125 48.734375 21.84375 45.5625 
Q 25.390625 42.390625 31.78125 42.390625 
Q 38.140625 42.390625 41.71875 45.5625 
Q 45.3125 48.734375 45.3125 54.390625 
Q 45.3125 60.0625 41.71875 63.234375 
Q 38.140625 66.40625 31.78125 66.40625 
Q 25.390625 66.40625 21.84375 63.234375 
Q 18.3125 60.0625 18.3125 54.390625 
z
" id="DejaVuSans-56"/>
      </defs>
      <g transform="translate(276.392102 224.638438)scale(0.1 -0.1)">
       <use xlink:href="#DejaVuSans-56"/>
       <use x="63.623047" xlink:href="#DejaVuSans-48"/>
      </g>
     </g>
    </g>
    <g id="xtick_5">
     <g id="line2d_5">
      <g>
       <use style="stroke:#000000;stroke-width:0.8;" x="350.831802" xlink:href="#m697fa535ef" y="210.04"/>
      </g>
     </g>
     <g id="text_5">
      <!-- 100 -->
      <defs>
       <path d="M 12.40625 8.296875 
L 28.515625 8.296875 
L 28.515625 63.921875 
L 10.984375 60.40625 
L 10.984375 69.390625 
L 28.421875 72.90625 
L 38.28125 72.90625 
L 38.28125 8.296875 
L 54.390625 8.296875 
L 54.390625 0 
L 12.40625 0 
z
" id="DejaVuSans-49"/>
      </defs>
      <g transform="translate(341.288052 224.638438)scale(0.1 -0.1)">
       <use xlink:href="#DejaVuSans-49"/>
       <use x="63.623047" xlink:href="#DejaVuSans-48"/>
       <use x="127.246094" xlink:href="#DejaVuSans-48"/>
      </g>
     </g>
    </g>
    <g id="xtick_6">
     <g id="line2d_6">
      <g>
       <use style="stroke:#000000;stroke-width:0.8;" x="418.909002" xlink:href="#m697fa535ef" y="210.04"/>
      </g>
     </g>
     <g id="text_6">
      <!-- 120 -->
      <g transform="translate(409.365252 224.638438)scale(0.1 -0.1)">
       <use xlink:href="#DejaVuSans-49"/>
       <use x="63.623047" xlink:href="#DejaVuSans-50"/>
       <use x="127.246094" xlink:href="#DejaVuSans-48"/>
      </g>
     </g>
    </g>
    <g id="text_7">
     <!-- Time (s) -->
     <defs>
      <path d="M -0.296875 72.90625 
L 61.375 72.90625 
L 61.375 64.59375 
L 35.5 64.59375 
L 35.5 0 
L 25.59375 0 
L 25.59375 64.59375 
L -0.296875 64.59375 
z
" id="DejaVuSans-84"/>
      <path d="M 9.421875 54.6875 
L 18.40625 54.6875 
L 18.40625 0 
L 9.421875 0 
z
M 9.421875 75.984375 
L 18.40625 75.984375 
L 18.40625 64.59375 
L 9.421875 64.59375 
z
" id="DejaVuSans-105"/>
      <path d="M 52 44.1875 
Q 55.375 50.25 60.0625 53.125 
Q 64.75 56 71.09375 56 
Q 79.640625 56 84.28125 50.015625 
Q 88.921875 44.046875 88.921875 33.015625 
L 88.921875 0 
L 79.890625 0 
L 79.890625 32.71875 
Q 79.890625 40.578125 77.09375 44.375 
Q 74.3125 48.1875 68.609375 48.1875 
Q 61.625 48.1875 57.5625 43.546875 
Q 53.515625 38.921875 53.515625 30.90625 
L 53.515625 0 
L 44.484375 0 
L 44.484375 32.71875 
Q 44.484375 40.625 41.703125 44.40625 
Q 38.921875 48.1875 33.109375 48.1875 
Q 26.21875 48.1875 22.15625 43.53125 
Q 18.109375 38.875 18.109375 30.90625 
L 18.109375 0 
L 9.078125 0 
L 9.078125 54.6875 
L 18.109375 54.6875 
L 18.109375 46.1875 
Q 21.1875 51.21875 25.484375 53.609375 
Q 29.78125 56 35.6875 56 
Q 41.65625 56 45.828125 52.96875 
Q 50 49.953125 52 44.1875 
z
" id="DejaVuSans-109"/>
      <path d="M 56.203125 29.59375 
L 56.203125 25.203125 
L 14.890625 25.203125 
Q 15.484375 15.921875 20.484375 11.0625 
Q 25.484375 6.203125 34.421875 6.203125 
Q 39.59375 6.203125 44.453125 7.46875 
Q 49.3125 8.734375 54.109375 11.28125 
L 54.109375 2.78125 
Q 49.265625 0.734375 44.1875 -0.34375 
Q 39.109375 -1.421875 33.890625 -1.421875 
Q 20.796875 -1.421875 13.15625 6.1875 
Q 5.515625 13.8125 5.515625 26.8125 
Q 5.515625 40.234375 12.765625 48.109375 
Q 20.015625 56 32.328125 56 
Q 43.359375 56 49.78125 48.890625 
Q 56.203125 41.796875 56.203125 29.59375 
z
M 47.21875 32.234375 
Q 47.125 39.59375 43.09375 43.984375 
Q 39.0625 48.390625 32.421875 48.390625 
Q 24.90625 48.390625 20.390625 44.140625 
Q 15.875 39.890625 15.1875 32.171875 
z
" id="DejaVuSans-101"/>
      <path id="DejaVuSans-32"/>
      <path d="M 31 75.875 
Q 24.46875 64.65625 21.28125 53.65625 
Q 18.109375 42.671875 18.109375 31.390625 
Q 18.109375 20.125 21.3125 9.0625 
Q 24.515625 -2 31 -13.1875 
L 23.1875 -13.1875 
Q 15.875 -1.703125 12.234375 9.375 
Q 8.59375 20.453125 8.59375 31.390625 
Q 8.59375 42.28125 12.203125 53.3125 
Q 15.828125 64.359375 23.1875 75.875 
z
" id="DejaVuSans-40"/>
      <path d="M 44.28125 53.078125 
L 44.28125 44.578125 
Q 40.484375 46.53125 36.375 47.5 
Q 32.28125 48.484375 27.875 48.484375 
Q 21.1875 48.484375 17.84375 46.4375 
Q 14.5 44.390625 14.5 40.28125 
Q 14.5 37.15625 16.890625 35.375 
Q 19.28125 33.59375 26.515625 31.984375 
L 29.59375 31.296875 
Q 39.15625 29.25 43.1875 25.515625 
Q 47.21875 21.78125 47.21875 15.09375 
Q 47.21875 7.46875 41.1875 3.015625 
Q 35.15625 -1.421875 24.609375 -1.421875 
Q 20.21875 -1.421875 15.453125 -0.5625 
Q 10.6875 0.296875 5.421875 2 
L 5.421875 11.28125 
Q 10.40625 8.6875 15.234375 7.390625 
Q 20.0625 6.109375 24.8125 6.109375 
Q 31.15625 6.109375 34.5625 8.28125 
Q 37.984375 10.453125 37.984375 14.40625 
Q 37.984375 18.0625 35.515625 20.015625 
Q 33.0625 21.96875 24.703125 23.78125 
L 21.578125 24.515625 
Q 13.234375 26.265625 9.515625 29.90625 
Q 5.8125 33.546875 5.8125 39.890625 
Q 5.8125 47.609375 11.28125 51.796875 
Q 16.75 56 26.8125 56 
Q 31.78125 56 36.171875 55.265625 
Q 40.578125 54.546875 44.28125 53.078125 
z
" id="DejaVuSans-115"/>
      <path d="M 8.015625 75.875 
L 15.828125 75.875 
Q 23.140625 64.359375 26.78125 53.3125 
Q 30.421875 42.28125 30.421875 31.390625 
Q 30.421875 20.453125 26.78125 9.375 
Q 23.140625 -1.703125 15.828125 -13.1875 
L 8.015625 -13.1875 
Q 14.5 -2 17.703125 9.0625 
Q 20.90625 20.125 20.90625 31.390625 
Q 20.90625 42.671875 17.703125 53.65625 
Q 14.5 64.65625 8.015625 75.875 
z
" id="DejaVuSans-41"/>
     </defs>
     <g transform="translate(228.492188 238.316563)scale(0.1 -0.1)">
      <use xlink:href="#DejaVuSans-84"/>
      <use x="61.037109" xlink:href="#DejaVuSans-105"/>
      <use x="88.820312" xlink:href="#DejaVuSans-109"/>
      <use x="186.232422" xlink:href="#DejaVuSans-101"/>
      <use x="247.755859" xlink:href="#DejaVuSans-32"/>
      <use x="279.542969" xlink:href="#DejaVuSans-40"/>
      <use x="318.556641" xlink:href="#DejaVuSans-115"/>
      <use x="370.65625" xlink:href="#DejaVuSans-41"/>
     </g>
    </g>
   </g>
   <g id="matplotlib.axis_2">
    <g id="ytick_1">
     <g id="line2d_7">
      <defs>
       <path d="M 0 0 
L -3.5 0 
" id="maefc1a4ef8" style="stroke:#000000;stroke-width:0.8;"/>
      </defs>
      <g>
       <use style="stroke:#000000;stroke-width:0.8;" x="49.75" xlink:href="#maefc1a4ef8" y="201.355531"/>
      </g>
     </g>
     <g id="text_8">
      <!-- 0 -->
      <g transform="translate(36.3875 205.15475)scale(0.1 -0.1)">
       <use xlink:href="#DejaVuSans-48"/>
      </g>
     </g>
    </g>
    <g id="ytick_2">
     <g id="line2d_8">
      <g>
       <use style="stroke:#000000;stroke-width:0.8;" x="49.75" xlink:href="#maefc1a4ef8" y="180.661155"/>
      </g>
     </g>
     <g id="text_9">
      <!-- 5000 -->
      <defs>
       <path d="M 10.796875 72.90625 
L 49.515625 72.90625 
L 49.515625 64.59375 
L 19.828125 64.59375 
L 19.828125 46.734375 
Q 21.96875 47.46875 24.109375 47.828125 
Q 26.265625 48.1875 28.421875 48.1875 
Q 40.625 48.1875 47.75 41.5 
Q 54.890625 34.8125 54.890625 23.390625 
Q 54.890625 11.625 47.5625 5.09375 
Q 40.234375 -1.421875 26.90625 -1.421875 
Q 22.3125 -1.421875 17.546875 -0.640625 
Q 12.796875 0.140625 7.71875 1.703125 
L 7.71875 11.625 
Q 12.109375 9.234375 16.796875 8.0625 
Q 21.484375 6.890625 26.703125 6.890625 
Q 35.15625 6.890625 40.078125 11.328125 
Q 45.015625 15.765625 45.015625 23.390625 
Q 45.015625 31 40.078125 35.4375 
Q 35.15625 39.890625 26.703125 39.890625 
Q 22.75 39.890625 18.8125 39.015625 
Q 14.890625 38.140625 10.796875 36.28125 
z
" id="DejaVuSans-53"/>
      </defs>
      <g transform="translate(17.3 184.460374)scale(0.1 -0.1)">
       <use xlink:href="#DejaVuSans-53"/>
       <use x="63.623047" xlink:href="#DejaVuSans-48"/>
       <use x="127.246094" xlink:href="#DejaVuSans-48"/>
       <use x="190.869141" xlink:href="#DejaVuSans-48"/>
      </g>
     </g>
    </g>
    <g id="ytick_3">
     <g id="line2d_9">
      <g>
       <use style="stroke:#000000;stroke-width:0.8;" x="49.75" xlink:href="#maefc1a4ef8" y="159.966779"/>
      </g>
     </g>
     <g id="text_10">
      <!-- 10000 -->
      <g transform="translate(10.9375 163.765997)scale(0.1 -0.1)">
       <use xlink:href="#DejaVuSans-49"/>
       <use x="63.623047" xlink:href="#DejaVuSans-48"/>
       <use x="127.246094" xlink:href="#DejaVuSans-48"/>
       <use x="190.869141" xlink:href="#DejaVuSans-48"/>
       <use x="254.492188" xlink:href="#DejaVuSans-48"/>
      </g>
     </g>
    </g>
    <g id="ytick_4">
     <g id="line2d_10">
      <g>
       <use style="stroke:#000000;stroke-width:0.8;" x="49.75" xlink:href="#maefc1a4ef8" y="139.272402"/>
      </g>
     </g>
     <g id="text_11">
      <!-- 15000 -->
      <g transform="translate(10.9375 143.071621)scale(0.1 -0.1)">
       <use xlink:href="#DejaVuSans-49"/>
       <use x="63.623047" xlink:href="#DejaVuSans-53"/>
       <use x="127.246094" xlink:href="#DejaVuSans-48"/>
       <use x="190.869141" xlink:href="#DejaVuSans-48"/>
       <use x="254.492188" xlink:href="#DejaVuSans-48"/>
      </g>
     </g>
    </g>
    <g id="ytick_5">
     <g id="line2d_11">
      <g>
       <use style="stroke:#000000;stroke-width:0.8;" x="49.75" xlink:href="#maefc1a4ef8" y="118.578026"/>
      </g>
     </g>
     <g id="text_12">
      <!-- 20000 -->
      <g transform="translate(10.9375 122.377244)scale(0.1 -0.1)">
       <use xlink:href="#DejaVuSans-50"/>
       <use x="63.623047" xlink:href="#DejaVuSans-48"/>
       <use x="127.246094" xlink:href="#DejaVuSans-48"/>
       <use x="190.869141" xlink:href="#DejaVuSans-48"/>
       <use x="254.492188" xlink:href="#DejaVuSans-48"/>
      </g>
     </g>
    </g>
    <g id="ytick_6">
     <g id="line2d_12">
      <g>
       <use style="stroke:#000000;stroke-width:0.8;" x="49.75" xlink:href="#maefc1a4ef8" y="97.883649"/>
      </g>
     </g>
     <g id="text_13">
      <!-- 25000 -->
      <g transform="translate(10.9375 101.682868)scale(0.1 -0.1)">
       <use xlink:href="#DejaVuSans-50"/>
       <use x="63.623047" xlink:href="#DejaVuSans-53"/>
       <use x="127.246094" xlink:href="#DejaVuSans-48"/>
       <use x="190.869141" xlink:href="#DejaVuSans-48"/>
       <use x="254.492188" xlink:href="#DejaVuSans-48"/>
      </g>
     </g>
    </g>
    <g id="ytick_7">
     <g id="line2d_13">
      <g>
       <use style="stroke:#000000;stroke-width:0.8;" x="49.75" xlink:href="#maefc1a4ef8" y="77.189273"/>
      </g>
     </g>
     <g id="text_14">
      <!-- 30000 -->
      <defs>
       <path d="M 40.578125 39.3125 
Q 47.65625 37.796875 51.625 33 
Q 55.609375 28.21875 55.609375 21.1875 
Q 55.609375 10.40625 48.1875 4.484375 
Q 40.765625 -1.421875 27.09375 -1.421875 
Q 22.515625 -1.421875 17.65625 -0.515625 
Q 12.796875 0.390625 7.625 2.203125 
L 7.625 11.71875 
Q 11.71875 9.328125 16.59375 8.109375 
Q 21.484375 6.890625 26.8125 6.890625 
Q 36.078125 6.890625 40.9375 10.546875 
Q 45.796875 14.203125 45.796875 21.1875 
Q 45.796875 27.640625 41.28125 31.265625 
Q 36.765625 34.90625 28.71875 34.90625 
L 20.21875 34.90625 
L 20.21875 43.015625 
L 29.109375 43.015625 
Q 36.375 43.015625 40.234375 45.921875 
Q 44.09375 48.828125 44.09375 54.296875 
Q 44.09375 59.90625 40.109375 62.90625 
Q 36.140625 65.921875 28.71875 65.921875 
Q 24.65625 65.921875 20.015625 65.03125 
Q 15.375 64.15625 9.8125 62.3125 
L 9.8125 71.09375 
Q 15.4375 72.65625 20.34375 73.4375 
Q 25.25 74.21875 29.59375 74.21875 
Q 40.828125 74.21875 47.359375 69.109375 
Q 53.90625 64.015625 53.90625 55.328125 
Q 53.90625 49.265625 50.4375 45.09375 
Q 46.96875 40.921875 40.578125 39.3125 
z
" id="DejaVuSans-51"/>
      </defs>
      <g transform="translate(10.9375 80.988492)scale(0.1 -0.1)">
       <use xlink:href="#DejaVuSans-51"/>
       <use x="63.623047" xlink:href="#DejaVuSans-48"/>
       <use x="127.246094" xlink:href="#DejaVuSans-48"/>
       <use x="190.869141" xlink:href="#DejaVuSans-48"/>
       <use x="254.492188" xlink:href="#DejaVuSans-48"/>
      </g>
     </g>
    </g>
    <g id="ytick_8">
     <g id="line2d_14">
      <g>
       <use style="stroke:#000000;stroke-width:0.8;" x="49.75" xlink:href="#maefc1a4ef8" y="56.494896"/>
      </g>
     </g>
     <g id="text_15">
      <!-- 35000 -->
      <g transform="translate(10.9375 60.294115)scale(0.1 -0.1)">
       <use xlink:href="#DejaVuSans-51"/>
       <use x="63.623047" xlink:href="#DejaVuSans-53"/>
       <use x="127.246094" xlink:href="#DejaVuSans-48"/>
       <use x="190.869141" xlink:href="#DejaVuSans-48"/>
       <use x="254.492188" xlink:href="#DejaVuSans-48"/>
      </g>
     </g>
    </g>
    <g id="ytick_9">
     <g id="line2d_15">
      <g>
       <use style="stroke:#000000;stroke-width:0.8;" x="49.75" xlink:href="#maefc1a4ef8" y="35.80052"/>
      </g>
     </g>
     <g id="text_16">
      <!-- 40000 -->
      <g transform="translate(10.9375 39.599739)scale(0.1 -0.1)">
       <use xlink:href="#DejaVuSans-52"/>
       <use x="63.623047" xlink:href="#DejaVuSans-48"/>
       <use x="127.246094" xlink:href="#DejaVuSans-48"/>
       <use x="190.869141" xlink:href="#DejaVuSans-48"/>
       <use x="254.492188" xlink:href="#DejaVuSans-48"/>
      </g>
     </g>
    </g>
   </g>
   <g id="line2d_16">
    <path clip-path="url(#p0f4d13a4cc)" d="M 49.672697 58.67169 
L 50.028679 49.480926 
L 50.423351 49.480926 
L 50.852204 47.19539 
L 51.215732 47.19539 
L 51.469549 48.316297 
L 51.841971 48.316297 
L 52.387949 49.654175 
L 53.446002 49.662063 
L 53.765577 50.750785 
L 54.409332 50.750785 
L 54.803553 52.98177 
L 55.016281 52.98177 
L 55.308927 52.675231 
L 55.661425 52.675231 
L 56.080896 55.540142 
L 56.420062 55.540142 
L 56.843433 56.473963 
L 57.230344 56.473963 
L 57.466666 57.391811 
L 57.809351 57.391811 
L 58.204421 60.039391 
L 58.567008 60.039391 
L 58.88357 61.973634 
L 59.220726 61.973634 
L 59.525155 60.949213 
L 59.90387 60.949213 
L 60.313598 61.806807 
L 60.711579 61.806807 
L 61.051118 62.43089 
L 61.398801 62.43089 
L 61.822708 60.651776 
L 62.964777 60.607261 
L 63.462235 59.949125 
L 63.861822 59.949125 
L 64.252146 59.676195 
L 64.612524 59.676195 
L 64.990732 62.268781 
L 65.355467 62.268781 
L 65.687154 61.779605 
L 66.049248 61.779605 
L 66.530685 60.839808 
L 66.899254 60.839808 
L 67.150548 62.731154 
L 67.544422 62.731154 
L 67.924705 65.28014 
L 68.296514 65.28014 
L 68.651605 66.141137 
L 68.877434 66.141137 
L 69.201368 68.749298 
L 69.541279 68.749298 
L 69.915447 70.731861 
L 70.951098 70.765212 
L 71.21698 69.238446 
L 71.837908 69.238446 
L 72.207708 68.731173 
L 72.54192 68.731173 
L 72.902114 69.554412 
L 73.283045 69.554412 
L 73.59636 69.278028 
L 73.974203 69.278028 
L 74.374394 67.263787 
L 74.824301 67.263787 
L 75.209072 64.91515 
L 76.247636 64.825938 
L 76.655528 63.235653 
L 76.975497 63.235653 
L 77.303468 67.310641 
L 77.632134 67.310641 
L 78.053441 67.95217 
L 78.404266 67.95217 
L 78.819618 68.861774 
L 79.232811 68.861774 
L 79.698868 68.490544 
L 79.971677 68.490544 
L 80.293997 70.050836 
L 80.622498 70.050836 
L 80.980368 70.5335 
L 81.295556 70.5335 
L 81.634327 70.069724 
L 82.01546 70.069724 
L 82.369085 68.550497 
L 82.676105 68.550497 
L 83.019349 67.872882 
L 83.356741 67.872882 
L 83.64905 69.179922 
L 83.935619 69.179922 
L 84.248067 65.329557 
L 84.605677 65.329557 
L 84.83541 67.260695 
L 85.208337 67.260695 
L 85.531253 65.741535 
L 85.802499 65.741535 
L 86.197977 64.086277 
L 86.551091 64.086277 
L 86.935032 62.007502 
L 87.277557 62.007502 
L 87.693014 64.213868 
L 87.921494 64.213868 
L 88.192885 66.789952 
L 88.495116 66.789952 
L 88.783213 69.954437 
L 89.125507 69.954437 
L 89.43617 66.577064 
L 89.815785 66.577064 
L 90.063727 65.699847 
L 90.289166 65.699847 
L 90.521926 65.96298 
L 90.796657 65.96298 
L 91.106724 63.697189 
L 91.436668 63.697189 
L 91.857234 64.077405 
L 93.081998 64.155264 
L 93.560919 63.030435 
L 93.923595 63.030435 
L 94.202782 61.831482 
L 94.513177 61.831482 
L 94.854799 59.05864 
L 95.351533 59.05864 
L 95.702552 58.02715 
L 96.094807 58.02715 
L 96.367387 58.598171 
L 96.692196 58.598171 
L 97.047738 58.801576 
L 97.369553 58.801576 
L 97.701994 61.434461 
L 98.073784 61.434461 
L 98.434096 61.983401 
L 98.788962 61.983401 
L 99.13061 61.547277 
L 99.529507 61.547277 
L 100.269796 61.429876 
L 101.084856 61.416681 
L 101.407045 60.914697 
L 101.737929 60.914697 
L 102.069519 63.297844 
L 102.356347 63.297844 
L 102.663148 62.217336 
L 102.94162 62.217336 
L 103.165942 60.584029 
L 104.070871 60.633262 
L 104.33569 57.951331 
L 105.315573 58.023809 
L 105.610149 56.748187 
L 105.928688 56.748187 
L 106.247828 58.265787 
L 106.524285 58.265787 
L 106.739675 57.055085 
L 107.054082 57.055085 
L 107.397065 55.03912 
L 107.723753 55.03912 
L 108.047555 52.001792 
L 108.358005 52.001792 
L 108.656934 51.443441 
L 109.592946 51.336222 
L 109.899449 51.583175 
L 110.213649 50.023455 
L 110.550963 50.023455 
L 110.89422 49.388509 
L 111.29478 49.388509 
L 111.603641 53.040084 
L 111.925844 53.040084 
L 112.268488 50.348243 
L 112.546392 50.348243 
L 112.802077 53.704762 
L 113.12317 53.704762 
L 113.507068 55.336898 
L 113.861764 55.336898 
L 114.219261 58.258998 
L 114.573444 58.258998 
L 114.955941 59.169823 
L 115.348534 59.169823 
L 115.73388 71.165316 
L 116.099689 71.165316 
L 116.486384 76.429506 
L 116.787558 76.429506 
L 117.097582 84.262397 
L 117.490422 84.262397 
L 117.872439 90.768508 
L 118.310572 90.768508 
L 118.676628 96.780191 
L 118.952156 96.780191 
L 119.283472 106.270741 
L 119.634203 106.270741 
L 120.004217 113.001118 
L 120.47353 113.001118 
L 120.779949 126.876977 
L 121.075917 126.876977 
L 121.45101 128.414444 
L 121.77724 128.414444 
L 122.131862 132.20362 
L 122.579686 132.20362 
L 123.001945 136.126835 
L 123.577666 136.126835 
L 123.931743 141.357201 
L 124.337626 141.357201 
L 124.688514 141.918208 
L 125.008566 141.918208 
L 125.301282 144.237365 
L 125.975087 144.237365 
L 126.362122 147.617729 
L 126.816734 147.617729 
L 127.169922 148.070047 
L 127.56424 148.070047 
L 127.871511 149.61026 
L 128.421494 149.61026 
L 128.806778 149.419515 
L 129.084489 149.419515 
L 129.38058 149.674669 
L 130.531398 149.7006 
L 131.125599 149.86318 
L 131.365551 149.490869 
L 131.694923 149.490869 
L 132.055997 148.595561 
L 132.337421 148.595561 
L 132.641299 147.763521 
L 133.014691 147.763521 
L 133.451439 146.428172 
L 133.788402 146.428172 
L 134.113732 145.894241 
L 134.436477 145.894241 
L 134.74453 145.357181 
L 135.109146 145.357181 
L 135.438623 144.181704 
L 135.756203 144.181704 
L 136.149431 144.844309 
L 136.519096 144.844309 
L 136.924729 144.623276 
L 137.320255 144.623276 
L 137.73948 146.381356 
L 138.09211 146.381356 
L 138.419394 146.167139 
L 139.283034 146.167139 
L 139.564058 145.534558 
L 139.840477 145.534558 
L 140.198291 146.775684 
L 140.894619 146.775684 
L 141.198719 146.991135 
L 141.561228 146.991135 
L 141.980235 146.528676 
L 142.351991 146.528676 
L 142.686326 146.121376 
L 143.021861 146.121376 
L 143.404456 147.063921 
L 143.81796 147.063921 
L 144.184687 147.480872 
L 144.553834 147.480872 
L 144.908605 147.156616 
L 145.328807 147.156616 
L 145.730539 146.788014 
L 146.146413 146.788014 
L 146.498334 145.959037 
L 146.917174 145.959037 
L 147.254613 146.216108 
L 147.884978 146.216108 
L 148.219664 145.880576 
L 148.571209 145.880576 
L 148.835508 146.782404 
L 149.171202 146.782404 
L 149.559712 148.138568 
L 149.811232 148.138568 
L 150.156996 150.600568 
L 150.468222 150.600568 
L 150.826738 150.446046 
L 151.220396 150.446046 
L 151.537424 149.942578 
L 151.791963 149.942578 
L 152.053911 153.50412 
L 152.454389 154.943159 
L 152.773438 154.943159 
L 153.150662 157.503935 
L 153.491752 157.503935 
L 153.895271 160.498067 
L 154.299716 162.033932 
L 154.837605 162.033932 
L 155.209612 165.132006 
L 155.545521 165.132006 
L 155.811836 167.21466 
L 156.122549 167.21466 
L 156.498163 167.920266 
L 156.852938 167.920266 
L 157.242523 169.230151 
L 157.608509 169.230151 
L 157.933938 170.028022 
L 158.496679 170.028022 
L 158.871837 170.726043 
L 159.282813 170.726043 
L 159.630899 171.894411 
L 159.947085 171.894411 
L 160.333008 173.454235 
L 160.66217 173.454235 
L 161.016833 173.896331 
L 161.347499 173.896331 
L 161.594376 175.774703 
L 162.539584 175.765408 
L 162.820463 176.002553 
L 164.49454 176.030909 
L 164.899963 175.799445 
L 166.015353 175.712601 
L 166.364407 175.598145 
L 166.820004 175.598145 
L 167.188925 174.784739 
L 167.545097 174.784739 
L 167.89157 174.192159 
L 168.216393 174.192159 
L 168.630949 173.679342 
L 169.053342 173.679342 
L 169.336808 173.19869 
L 169.974656 173.19869 
L 170.323651 172.589966 
L 170.640113 172.589966 
L 170.991381 171.7355 
L 171.258048 171.7355 
L 171.50571 171.271183 
L 171.895799 171.271183 
L 172.302622 171.022473 
L 173.328203 170.994929 
L 173.637543 170.583496 
L 173.968164 170.583496 
L 174.320434 171.011592 
L 175.39268 171.091757 
L 175.616044 170.534502 
L 176.146873 170.534502 
L 176.424618 170.751946 
L 177.319942 170.723382 
L 178.006775 170.618669 
L 178.332573 171.303696 
L 179.357296 171.36911 
L 179.758223 171.597086 
L 180.924099 171.612391 
L 181.253949 171.248569 
L 181.61514 171.248569 
L 182.298104 171.121808 
L 182.619168 171.48033 
L 182.958465 171.48033 
L 183.166713 171.737081 
L 183.471792 171.737081 
L 183.732099 171.869266 
L 184.271299 171.869266 
L 184.575393 172.58519 
L 184.883965 172.58519 
L 185.214418 172.346166 
L 185.562938 172.346166 
L 185.88685 174.17929 
L 186.177469 174.17929 
L 186.484741 174.760514 
L 186.759238 174.760514 
L 187.027255 176.014329 
L 187.618488 176.014329 
L 187.933474 177.080108 
L 188.216527 177.080108 
L 188.430401 178.534748 
L 189.008981 178.534748 
L 189.347314 180.1026 
L 190.012323 180.1026 
L 190.416497 180.602223 
L 191.766071 180.590259 
L 192.131323 181.371232 
L 192.463366 181.371232 
L 192.809327 181.661624 
L 193.163008 181.661624 
L 193.380766 182.08119 
L 193.686597 182.08119 
L 194.016438 182.564896 
L 194.988702 182.560778 
L 195.237125 183.19312 
L 195.539444 183.19312 
L 195.911258 183.035442 
L 196.256658 183.035442 
L 196.556103 183.23368 
L 197.085149 183.23368 
L 197.429055 183.978382 
L 197.679862 183.978382 
L 197.908046 184.165622 
L 198.223748 184.165622 
L 198.55208 183.892868 
L 198.893535 183.892868 
L 199.192285 183.744942 
L 199.454605 183.744942 
L 199.675134 183.525258 
L 200.051534 183.525258 
L 200.441779 183.268954 
L 202.187124 183.261481 
L 202.586194 183.4691 
L 202.982659 183.4691 
L 203.249725 183.307846 
L 204.655345 183.218154 
L 205.88266 183.144451 
L 206.274926 183.144451 
L 206.600075 183.372209 
L 207.510799 183.324562 
L 207.934405 183.668816 
L 208.292328 183.668816 
L 208.728275 183.868343 
L 209.097208 183.868343 
L 209.489384 183.531793 
L 209.85814 183.531793 
L 210.174088 183.100243 
L 210.476581 183.100243 
L 210.809928 183.320096 
L 211.222804 183.320096 
L 211.624937 183.138051 
L 211.958237 183.138051 
L 212.289275 182.669469 
L 213.358398 182.736388 
L 213.705547 182.85815 
L 214.883281 182.882811 
L 215.232608 182.689271 
L 215.589138 182.689271 
L 215.962801 181.871385 
L 216.949385 181.937091 
L 217.367249 182.344701 
L 217.696695 182.344701 
L 218.013083 182.767835 
L 218.288733 182.767835 
L 218.581248 183.044699 
L 218.978279 183.044699 
L 219.359947 183.535301 
L 219.734757 183.535301 
L 220.050241 183.877023 
L 220.678186 183.877023 
L 221.042171 183.657029 
L 221.463134 183.657029 
L 221.805013 185.029574 
L 222.208649 185.029574 
L 222.644002 185.630193 
L 223.017182 185.630193 
L 223.441027 186.513018 
L 223.878548 186.513018 
L 224.166486 187.031603 
L 224.482956 187.031603 
L 224.819259 187.671127 
L 225.188436 187.671127 
L 225.569939 188.201057 
L 225.970526 188.201057 
L 226.380821 188.90289 
L 226.856957 188.90289 
L 227.266213 189.198058 
L 229.399607 189.157211 
L 230.188477 189.07696 
L 230.881174 189.04704 
L 231.239056 188.828947 
L 231.563014 188.828947 
L 231.818784 188.952913 
L 232.928556 188.907997 
L 233.391401 188.838521 
L 233.734088 188.838521 
L 234.276914 188.955528 
L 236.601886 189.057733 
L 238.824278 189.26167 
L 239.897304 189.2572 
L 240.287554 189.477049 
L 240.616745 189.477049 
L 240.860852 189.349078 
L 241.603967 189.438097 
L 242.333798 189.545281 
L 249.011106 189.182427 
L 250.177603 189.342503 
L 251.43455 189.297089 
L 251.723308 189.106107 
L 254.20047 189.13496 
L 254.556104 189.399282 
L 254.916065 189.399282 
L 255.346202 189.655526 
L 257.23073 189.75245 
L 257.741344 189.85968 
L 258.135096 189.85968 
L 258.468602 190.266961 
L 259.547761 190.354946 
L 259.895575 190.47339 
L 260.31886 190.47339 
L 260.773563 190.669857 
L 261.80412 190.711861 
L 262.543883 190.828429 
L 262.77112 190.743861 
L 263.169944 190.743861 
L 263.587163 190.958328 
L 263.954659 190.958328 
L 264.299623 191.11557 
L 266.08866 191.225958 
L 267.260875 191.289586 
L 272.05321 191.196859 
L 272.424588 191.046235 
L 274.52451 190.945905 
L 274.905142 190.723516 
L 283.947664 190.830574 
L 285.032783 190.938671 
L 287.020217 190.988034 
L 288.169099 191.183457 
L 288.543324 191.183457 
L 288.921481 191.332059 
L 290.079827 191.408092 
L 290.382028 191.634298 
L 290.6847 191.634298 
L 291.021179 191.937531 
L 292.049241 191.995117 
L 292.613762 192.05216 
L 293.931008 192.254987 
L 297.840259 192.314555 
L 298.913867 192.400401 
L 300.679943 192.501122 
L 304.305533 192.588068 
L 306.085475 192.500764 
L 306.700778 192.45063 
L 309.13478 192.410837 
L 310.283757 192.348181 
L 313.314719 192.322561 
L 319.000867 192.417731 
L 320.126684 192.474533 
L 321.257426 192.526204 
L 327.072341 192.546066 
L 327.471544 192.712932 
L 328.518007 192.799894 
L 330.187518 192.921244 
L 331.818264 192.977006 
L 332.250134 193.144705 
L 334.470278 193.065264 
L 335.616342 193.0032 
L 336.53599 193.009512 
L 337.196931 193.11463 
L 337.448125 193.021073 
L 341.591737 193.07866 
L 342.317358 193.183952 
L 343.483994 193.131149 
L 344.643193 193.145208 
L 344.91627 193.258154 
L 345.219118 193.258154 
L 345.920675 193.377315 
L 346.713982 193.290874 
L 347.54309 193.388639 
L 349.541392 193.432948 
L 350.327473 193.32154 
L 351.598712 193.28179 
L 353.384635 193.215141 
L 353.892534 193.13285 
L 354.092112 193.335696 
L 355.554193 193.421153 
L 358.179399 193.662655 
L 358.42406 193.81626 
L 358.768603 193.81626 
L 360.020321 194.163805 
L 362.041297 194.119186 
L 368.70836 194.220426 
L 372.805302 194.491777 
L 375.886874 194.441283 
L 376.11353 194.228181 
L 377.541674 194.203865 
L 378.775897 193.991403 
L 382.454406 194.076508 
L 382.689351 194.163245 
L 384.107779 194.269788 
L 384.761335 194.327675 
L 385.879697 194.28929 
L 386.260664 194.448604 
L 394.207807 194.54838 
L 395.186031 194.63023 
L 401.317618 194.726885 
L 403.018937 194.775302 
L 408.685306 194.719793 
L 409.528605 194.633036 
L 410.370964 194.736229 
L 413.751656 194.658512 
L 415.075427 194.805038 
L 417.677739 194.750391 
L 418.564646 194.675981 
L 422.356018 194.642284 
L 433.359274 194.784343 
L 433.359274 194.784343 
" style="fill:none;stroke:#ff0000;stroke-linecap:square;stroke-width:1.5;"/>
   </g>
   <g id="patch_3">
    <path d="M 49.75 210.04 
L 49.75 25.44 
" style="fill:none;stroke:#000000;stroke-linecap:square;stroke-linejoin:miter;stroke-width:0.8;"/>
   </g>
   <g id="patch_4">
    <path d="M 448.2 210.04 
L 448.2 25.44 
" style="fill:none;stroke:#000000;stroke-linecap:square;stroke-linejoin:miter;stroke-width:0.8;"/>
   </g>
   <g id="patch_5">
    <path d="M 49.75 210.04 
L 448.2 210.04 
" style="fill:none;stroke:#000000;stroke-linecap:square;stroke-linejoin:miter;stroke-width:0.8;"/>
   </g>
   <g id="patch_6">
    <path d="M 49.75 25.44 
L 448.2 25.44 
" style="fill:none;stroke:#000000;stroke-linecap:square;stroke-linejoin:miter;stroke-width:0.8;"/>
   </g>
   <g id="text_17">
    <!-- Bounding Box Area -->
    <defs>
     <path d="M 19.671875 34.8125 
L 19.671875 8.109375 
L 35.5 8.109375 
Q 43.453125 8.109375 47.28125 11.40625 
Q 51.125 14.703125 51.125 21.484375 
Q 51.125 28.328125 47.28125 31.5625 
Q 43.453125 34.8125 35.5 34.8125 
z
M 19.671875 64.796875 
L 19.671875 42.828125 
L 34.28125 42.828125 
Q 41.5 42.828125 45.03125 45.53125 
Q 48.578125 48.25 48.578125 53.8125 
Q 48.578125 59.328125 45.03125 62.0625 
Q 41.5 64.796875 34.28125 64.796875 
z
M 9.8125 72.90625 
L 35.015625 72.90625 
Q 46.296875 72.90625 52.390625 68.21875 
Q 58.5 63.53125 58.5 54.890625 
Q 58.5 48.1875 55.375 44.234375 
Q 52.25 40.28125 46.1875 39.3125 
Q 53.46875 37.75 57.5 32.78125 
Q 61.53125 27.828125 61.53125 20.40625 
Q 61.53125 10.640625 54.890625 5.3125 
Q 48.25 0 35.984375 0 
L 9.8125 0 
z
" id="DejaVuSans-66"/>
     <path d="M 30.609375 48.390625 
Q 23.390625 48.390625 19.1875 42.75 
Q 14.984375 37.109375 14.984375 27.296875 
Q 14.984375 17.484375 19.15625 11.84375 
Q 23.34375 6.203125 30.609375 6.203125 
Q 37.796875 6.203125 41.984375 11.859375 
Q 46.1875 17.53125 46.1875 27.296875 
Q 46.1875 37.015625 41.984375 42.703125 
Q 37.796875 48.390625 30.609375 48.390625 
z
M 30.609375 56 
Q 42.328125 56 49.015625 48.375 
Q 55.71875 40.765625 55.71875 27.296875 
Q 55.71875 13.875 49.015625 6.21875 
Q 42.328125 -1.421875 30.609375 -1.421875 
Q 18.84375 -1.421875 12.171875 6.21875 
Q 5.515625 13.875 5.515625 27.296875 
Q 5.515625 40.765625 12.171875 48.375 
Q 18.84375 56 30.609375 56 
z
" id="DejaVuSans-111"/>
     <path d="M 8.5 21.578125 
L 8.5 54.6875 
L 17.484375 54.6875 
L 17.484375 21.921875 
Q 17.484375 14.15625 20.5 10.265625 
Q 23.53125 6.390625 29.59375 6.390625 
Q 36.859375 6.390625 41.078125 11.03125 
Q 45.3125 15.671875 45.3125 23.6875 
L 45.3125 54.6875 
L 54.296875 54.6875 
L 54.296875 0 
L 45.3125 0 
L 45.3125 8.40625 
Q 42.046875 3.421875 37.71875 1 
Q 33.40625 -1.421875 27.6875 -1.421875 
Q 18.265625 -1.421875 13.375 4.4375 
Q 8.5 10.296875 8.5 21.578125 
z
M 31.109375 56 
z
" id="DejaVuSans-117"/>
     <path d="M 54.890625 33.015625 
L 54.890625 0 
L 45.90625 0 
L 45.90625 32.71875 
Q 45.90625 40.484375 42.875 44.328125 
Q 39.84375 48.1875 33.796875 48.1875 
Q 26.515625 48.1875 22.3125 43.546875 
Q 18.109375 38.921875 18.109375 30.90625 
L 18.109375 0 
L 9.078125 0 
L 9.078125 54.6875 
L 18.109375 54.6875 
L 18.109375 46.1875 
Q 21.34375 51.125 25.703125 53.5625 
Q 30.078125 56 35.796875 56 
Q 45.21875 56 50.046875 50.171875 
Q 54.890625 44.34375 54.890625 33.015625 
z
" id="DejaVuSans-110"/>
     <path d="M 45.40625 46.390625 
L 45.40625 75.984375 
L 54.390625 75.984375 
L 54.390625 0 
L 45.40625 0 
L 45.40625 8.203125 
Q 42.578125 3.328125 38.25 0.953125 
Q 33.9375 -1.421875 27.875 -1.421875 
Q 17.96875 -1.421875 11.734375 6.484375 
Q 5.515625 14.40625 5.515625 27.296875 
Q 5.515625 40.1875 11.734375 48.09375 
Q 17.96875 56 27.875 56 
Q 33.9375 56 38.25 53.625 
Q 42.578125 51.265625 45.40625 46.390625 
z
M 14.796875 27.296875 
Q 14.796875 17.390625 18.875 11.75 
Q 22.953125 6.109375 30.078125 6.109375 
Q 37.203125 6.109375 41.296875 11.75 
Q 45.40625 17.390625 45.40625 27.296875 
Q 45.40625 37.203125 41.296875 42.84375 
Q 37.203125 48.484375 30.078125 48.484375 
Q 22.953125 48.484375 18.875 42.84375 
Q 14.796875 37.203125 14.796875 27.296875 
z
" id="DejaVuSans-100"/>
     <path d="M 45.40625 27.984375 
Q 45.40625 37.75 41.375 43.109375 
Q 37.359375 48.484375 30.078125 48.484375 
Q 22.859375 48.484375 18.828125 43.109375 
Q 14.796875 37.75 14.796875 27.984375 
Q 14.796875 18.265625 18.828125 12.890625 
Q 22.859375 7.515625 30.078125 7.515625 
Q 37.359375 7.515625 41.375 12.890625 
Q 45.40625 18.265625 45.40625 27.984375 
z
M 54.390625 6.78125 
Q 54.390625 -7.171875 48.1875 -13.984375 
Q 42 -20.796875 29.203125 -20.796875 
Q 24.46875 -20.796875 20.265625 -20.09375 
Q 16.0625 -19.390625 12.109375 -17.921875 
L 12.109375 -9.1875 
Q 16.0625 -11.328125 19.921875 -12.34375 
Q 23.78125 -13.375 27.78125 -13.375 
Q 36.625 -13.375 41.015625 -8.765625 
Q 45.40625 -4.15625 45.40625 5.171875 
L 45.40625 9.625 
Q 42.625 4.78125 38.28125 2.390625 
Q 33.9375 0 27.875 0 
Q 17.828125 0 11.671875 7.65625 
Q 5.515625 15.328125 5.515625 27.984375 
Q 5.515625 40.671875 11.671875 48.328125 
Q 17.828125 56 27.875 56 
Q 33.9375 56 38.28125 53.609375 
Q 42.625 51.21875 45.40625 46.390625 
L 45.40625 54.6875 
L 54.390625 54.6875 
z
" id="DejaVuSans-103"/>
     <path d="M 54.890625 54.6875 
L 35.109375 28.078125 
L 55.90625 0 
L 45.3125 0 
L 29.390625 21.484375 
L 13.484375 0 
L 2.875 0 
L 24.125 28.609375 
L 4.6875 54.6875 
L 15.28125 54.6875 
L 29.78125 35.203125 
L 44.28125 54.6875 
z
" id="DejaVuSans-120"/>
     <path d="M 34.1875 63.1875 
L 20.796875 26.90625 
L 47.609375 26.90625 
z
M 28.609375 72.90625 
L 39.796875 72.90625 
L 67.578125 0 
L 57.328125 0 
L 50.6875 18.703125 
L 17.828125 18.703125 
L 11.1875 0 
L 0.78125 0 
z
" id="DejaVuSans-65"/>
     <path d="M 41.109375 46.296875 
Q 39.59375 47.171875 37.8125 47.578125 
Q 36.03125 48 33.890625 48 
Q 26.265625 48 22.1875 43.046875 
Q 18.109375 38.09375 18.109375 28.8125 
L 18.109375 0 
L 9.078125 0 
L 9.078125 54.6875 
L 18.109375 54.6875 
L 18.109375 46.1875 
Q 20.953125 51.171875 25.484375 53.578125 
Q 30.03125 56 36.53125 56 
Q 37.453125 56 38.578125 55.875 
Q 39.703125 55.765625 41.0625 55.515625 
z
" id="DejaVuSans-114"/>
     <path d="M 34.28125 27.484375 
Q 23.390625 27.484375 19.1875 25 
Q 14.984375 22.515625 14.984375 16.5 
Q 14.984375 11.71875 18.140625 8.90625 
Q 21.296875 6.109375 26.703125 6.109375 
Q 34.1875 6.109375 38.703125 11.40625 
Q 43.21875 16.703125 43.21875 25.484375 
L 43.21875 27.484375 
z
M 52.203125 31.203125 
L 52.203125 0 
L 43.21875 0 
L 43.21875 8.296875 
Q 40.140625 3.328125 35.546875 0.953125 
Q 30.953125 -1.421875 24.3125 -1.421875 
Q 15.921875 -1.421875 10.953125 3.296875 
Q 6 8.015625 6 15.921875 
Q 6 25.140625 12.171875 29.828125 
Q 18.359375 34.515625 30.609375 34.515625 
L 43.21875 34.515625 
L 43.21875 35.40625 
Q 43.21875 41.609375 39.140625 45 
Q 35.0625 48.390625 27.6875 48.390625 
Q 23 48.390625 18.546875 47.265625 
Q 14.109375 46.140625 10.015625 43.890625 
L 10.015625 52.203125 
Q 14.9375 54.109375 19.578125 55.046875 
Q 24.21875 56 28.609375 56 
Q 40.484375 56 46.34375 49.84375 
Q 52.203125 43.703125 52.203125 31.203125 
z
" id="DejaVuSans-97"/>
    </defs>
    <g transform="translate(191.406875 19.44)scale(0.12 -0.12)">
     <use xlink:href="#DejaVuSans-66"/>
     <use x="68.603516" xlink:href="#DejaVuSans-111"/>
     <use x="129.785156" xlink:href="#DejaVuSans-117"/>
     <use x="193.164062" xlink:href="#DejaVuSans-110"/>
     <use x="256.542969" xlink:href="#DejaVuSans-100"/>
     <use x="320.019531" xlink:href="#DejaVuSans-105"/>
     <use x="347.802734" xlink:href="#DejaVuSans-110"/>
     <use x="411.181641" xlink:href="#DejaVuSans-103"/>
     <use x="474.658203" xlink:href="#DejaVuSans-32"/>
     <use x="506.445312" xlink:href="#DejaVuSans-66"/>
     <use x="575.048828" xlink:href="#DejaVuSans-111"/>
     <use x="636.183594" xlink:href="#DejaVuSans-120"/>
     <use x="695.363281" xlink:href="#DejaVuSans-32"/>
     <use x="727.150391" xlink:href="#DejaVuSans-65"/>
     <use x="795.558594" xlink:href="#DejaVuSans-114"/>
     <use x="836.640625" xlink:href="#DejaVuSans-101"/>
     <use x="898.164062" xlink:href="#DejaVuSans-97"/>
    </g>
   </g>
   <g id="legend_1">
    <g id="patch_7">
     <path d="M 385.970312 48.118125 
L 441.2 48.118125 
Q 443.2 48.118125 443.2 46.118125 
L 443.2 32.44 
Q 443.2 30.44 441.2 30.44 
L 385.970312 30.44 
Q 383.970312 30.44 383.970312 32.44 
L 383.970312 46.118125 
Q 383.970312 48.118125 385.970312 48.118125 
z
" style="fill:#ffffff;opacity:0.8;stroke:#cccccc;stroke-linejoin:miter;"/>
    </g>
    <g id="line2d_17">
     <path d="M 387.970312 38.538437 
L 407.970312 38.538437 
" style="fill:none;stroke:#ff0000;stroke-linecap:square;stroke-width:1.5;"/>
    </g>
    <g id="line2d_18"/>
    <g id="text_18">
     <!-- Area -->
     <g transform="translate(415.970312 42.038437)scale(0.1 -0.1)">
      <use xlink:href="#DejaVuSans-65"/>
      <use x="68.408203" xlink:href="#DejaVuSans-114"/>
      <use x="109.490234" xlink:href="#DejaVuSans-101"/>
      <use x="171.013672" xlink:href="#DejaVuSans-97"/>
     </g>
    </g>
   </g>
  </g>
 </g>
 <defs>
  <clipPath id="p0f4d13a4cc">
   <rect height="184.6" width="398.45" x="49.75" y="25.44"/>
  </clipPath>
 </defs>
</svg>
