<?xml version="1.0" encoding="utf-8" standalone="no"?>
<!DOCTYPE svg PUBLIC "-//W3C//DTD SVG 1.1//EN"
  "http://www.w3.org/Graphics/SVG/1.1/DTD/svg11.dtd">
<svg xmlns:xlink="http://www.w3.org/1999/xlink" width="576pt" height="288pt" viewBox="0 0 576 288" xmlns="http://www.w3.org/2000/svg" version="1.1">
 <metadata>
  <rdf:RDF xmlns:dc="http://purl.org/dc/elements/1.1/" xmlns:cc="http://creativecommons.org/ns#" xmlns:rdf="http://www.w3.org/1999/02/22-rdf-syntax-ns#">
   <cc:Work>
    <dc:type rdf:resource="http://purl.org/dc/dcmitype/StillImage"/>
    <dc:date>2025-04-04T22:09:23.329966</dc:date>
    <dc:format>image/svg+xml</dc:format>
    <dc:creator>
     <cc:Agent>
      <dc:title>Matplotlib v3.7.5, https://matplotlib.org/</dc:title>
     </cc:Agent>
    </dc:creator>
   </cc:Work>
  </rdf:RDF>
 </metadata>
 <defs>
  <style type="text/css">*{stroke-linejoin: round; stroke-linecap: butt}</style>
 </defs>
 <g id="figure_1">
  <g id="patch_1">
   <path d="M 0 288 
L 576 288 
L 576 0 
L 0 0 
z
" style="fill: #ffffff"/>
  </g>
  <g id="axes_1">
   <g id="patch_2">
    <path d="M 46.64 246.04 
L 565.2 246.04 
L 565.2 41.856 
L 46.64 41.856 
z
" style="fill: #ffffff"/>
   </g>
   <g id="matplotlib.axis_1">
    <g id="xtick_1">
     <g id="line2d_1">
      <path d="M 70.208946 246.04 
L 70.208946 41.856 
" clip-path="url(#p39f99b3a80)" style="fill: none; stroke: #b0b0b0; stroke-width: 0.8; stroke-linecap: square"/>
     </g>
     <g id="line2d_2">
      <defs>
       <path id="mf84ffc0580" d="M 0 0 
L 0 3.5 
" style="stroke: #000000; stroke-width: 0.8"/>
      </defs>
      <g>
       <use xlink:href="#mf84ffc0580" x="70.208946" y="246.04" style="stroke: #000000; stroke-width: 0.8"/>
      </g>
     </g>
     <g id="text_1">
      <!-- 0 -->
      <g transform="translate(67.027696 260.638438) scale(0.1 -0.1)">
       <defs>
        <path id="DejaVuSans-30" d="M 2034 4250 
Q 1547 4250 1301 3770 
Q 1056 3291 1056 2328 
Q 1056 1369 1301 889 
Q 1547 409 2034 409 
Q 2525 409 2770 889 
Q 3016 1369 3016 2328 
Q 3016 3291 2770 3770 
Q 2525 4250 2034 4250 
z
M 2034 4750 
Q 2819 4750 3233 4129 
Q 3647 3509 3647 2328 
Q 3647 1150 3233 529 
Q 2819 -91 2034 -91 
Q 1250 -91 836 529 
Q 422 1150 422 2328 
Q 422 3509 836 4129 
Q 1250 4750 2034 4750 
z
" transform="scale(0.015625)"/>
       </defs>
       <use xlink:href="#DejaVuSans-30"/>
      </g>
     </g>
    </g>
    <g id="xtick_2">
     <g id="line2d_3">
      <path d="M 157.186821 246.04 
L 157.186821 41.856 
" clip-path="url(#p39f99b3a80)" style="fill: none; stroke: #b0b0b0; stroke-width: 0.8; stroke-linecap: square"/>
     </g>
     <g id="line2d_4">
      <g>
       <use xlink:href="#mf84ffc0580" x="157.186821" y="246.04" style="stroke: #000000; stroke-width: 0.8"/>
      </g>
     </g>
     <g id="text_2">
      <!-- 20 -->
      <g transform="translate(150.824321 260.638438) scale(0.1 -0.1)">
       <defs>
        <path id="DejaVuSans-32" d="M 1228 531 
L 3431 531 
L 3431 0 
L 469 0 
L 469 531 
Q 828 903 1448 1529 
Q 2069 2156 2228 2338 
Q 2531 2678 2651 2914 
Q 2772 3150 2772 3378 
Q 2772 3750 2511 3984 
Q 2250 4219 1831 4219 
Q 1534 4219 1204 4116 
Q 875 4013 500 3803 
L 500 4441 
Q 881 4594 1212 4672 
Q 1544 4750 1819 4750 
Q 2544 4750 2975 4387 
Q 3406 4025 3406 3419 
Q 3406 3131 3298 2873 
Q 3191 2616 2906 2266 
Q 2828 2175 2409 1742 
Q 1991 1309 1228 531 
z
" transform="scale(0.015625)"/>
       </defs>
       <use xlink:href="#DejaVuSans-32"/>
       <use xlink:href="#DejaVuSans-30" x="63.623047"/>
      </g>
     </g>
    </g>
    <g id="xtick_3">
     <g id="line2d_5">
      <path d="M 244.164697 246.04 
L 244.164697 41.856 
" clip-path="url(#p39f99b3a80)" style="fill: none; stroke: #b0b0b0; stroke-width: 0.8; stroke-linecap: square"/>
     </g>
     <g id="line2d_6">
      <g>
       <use xlink:href="#mf84ffc0580" x="244.164697" y="246.04" style="stroke: #000000; stroke-width: 0.8"/>
      </g>
     </g>
     <g id="text_3">
      <!-- 40 -->
      <g transform="translate(237.802197 260.638438) scale(0.1 -0.1)">
       <defs>
        <path id="DejaVuSans-34" d="M 2419 4116 
L 825 1625 
L 2419 1625 
L 2419 4116 
z
M 2253 4666 
L 3047 4666 
L 3047 1625 
L 3713 1625 
L 3713 1100 
L 3047 1100 
L 3047 0 
L 2419 0 
L 2419 1100 
L 313 1100 
L 313 1709 
L 2253 4666 
z
" transform="scale(0.015625)"/>
       </defs>
       <use xlink:href="#DejaVuSans-34"/>
       <use xlink:href="#DejaVuSans-30" x="63.623047"/>
      </g>
     </g>
    </g>
    <g id="xtick_4">
     <g id="line2d_7">
      <path d="M 331.142572 246.04 
L 331.142572 41.856 
" clip-path="url(#p39f99b3a80)" style="fill: none; stroke: #b0b0b0; stroke-width: 0.8; stroke-linecap: square"/>
     </g>
     <g id="line2d_8">
      <g>
       <use xlink:href="#mf84ffc0580" x="331.142572" y="246.04" style="stroke: #000000; stroke-width: 0.8"/>
      </g>
     </g>
     <g id="text_4">
      <!-- 60 -->
      <g transform="translate(324.780072 260.638438) scale(0.1 -0.1)">
       <defs>
        <path id="DejaVuSans-36" d="M 2113 2584 
Q 1688 2584 1439 2293 
Q 1191 2003 1191 1497 
Q 1191 994 1439 701 
Q 1688 409 2113 409 
Q 2538 409 2786 701 
Q 3034 994 3034 1497 
Q 3034 2003 2786 2293 
Q 2538 2584 2113 2584 
z
M 3366 4563 
L 3366 3988 
Q 3128 4100 2886 4159 
Q 2644 4219 2406 4219 
Q 1781 4219 1451 3797 
Q 1122 3375 1075 2522 
Q 1259 2794 1537 2939 
Q 1816 3084 2150 3084 
Q 2853 3084 3261 2657 
Q 3669 2231 3669 1497 
Q 3669 778 3244 343 
Q 2819 -91 2113 -91 
Q 1303 -91 875 529 
Q 447 1150 447 2328 
Q 447 3434 972 4092 
Q 1497 4750 2381 4750 
Q 2619 4750 2861 4703 
Q 3103 4656 3366 4563 
z
" transform="scale(0.015625)"/>
       </defs>
       <use xlink:href="#DejaVuSans-36"/>
       <use xlink:href="#DejaVuSans-30" x="63.623047"/>
      </g>
     </g>
    </g>
    <g id="xtick_5">
     <g id="line2d_9">
      <path d="M 418.120447 246.04 
L 418.120447 41.856 
" clip-path="url(#p39f99b3a80)" style="fill: none; stroke: #b0b0b0; stroke-width: 0.8; stroke-linecap: square"/>
     </g>
     <g id="line2d_10">
      <g>
       <use xlink:href="#mf84ffc0580" x="418.120447" y="246.04" style="stroke: #000000; stroke-width: 0.8"/>
      </g>
     </g>
     <g id="text_5">
      <!-- 80 -->
      <g transform="translate(411.757947 260.638438) scale(0.1 -0.1)">
       <defs>
        <path id="DejaVuSans-38" d="M 2034 2216 
Q 1584 2216 1326 1975 
Q 1069 1734 1069 1313 
Q 1069 891 1326 650 
Q 1584 409 2034 409 
Q 2484 409 2743 651 
Q 3003 894 3003 1313 
Q 3003 1734 2745 1975 
Q 2488 2216 2034 2216 
z
M 1403 2484 
Q 997 2584 770 2862 
Q 544 3141 544 3541 
Q 544 4100 942 4425 
Q 1341 4750 2034 4750 
Q 2731 4750 3128 4425 
Q 3525 4100 3525 3541 
Q 3525 3141 3298 2862 
Q 3072 2584 2669 2484 
Q 3125 2378 3379 2068 
Q 3634 1759 3634 1313 
Q 3634 634 3220 271 
Q 2806 -91 2034 -91 
Q 1263 -91 848 271 
Q 434 634 434 1313 
Q 434 1759 690 2068 
Q 947 2378 1403 2484 
z
M 1172 3481 
Q 1172 3119 1398 2916 
Q 1625 2713 2034 2713 
Q 2441 2713 2670 2916 
Q 2900 3119 2900 3481 
Q 2900 3844 2670 4047 
Q 2441 4250 2034 4250 
Q 1625 4250 1398 4047 
Q 1172 3844 1172 3481 
z
" transform="scale(0.015625)"/>
       </defs>
       <use xlink:href="#DejaVuSans-38"/>
       <use xlink:href="#DejaVuSans-30" x="63.623047"/>
      </g>
     </g>
    </g>
    <g id="xtick_6">
     <g id="line2d_11">
      <path d="M 505.098322 246.04 
L 505.098322 41.856 
" clip-path="url(#p39f99b3a80)" style="fill: none; stroke: #b0b0b0; stroke-width: 0.8; stroke-linecap: square"/>
     </g>
     <g id="line2d_12">
      <g>
       <use xlink:href="#mf84ffc0580" x="505.098322" y="246.04" style="stroke: #000000; stroke-width: 0.8"/>
      </g>
     </g>
     <g id="text_6">
      <!-- 100 -->
      <g transform="translate(495.554572 260.638438) scale(0.1 -0.1)">
       <defs>
        <path id="DejaVuSans-31" d="M 794 531 
L 1825 531 
L 1825 4091 
L 703 3866 
L 703 4441 
L 1819 4666 
L 2450 4666 
L 2450 531 
L 3481 531 
L 3481 0 
L 794 0 
L 794 531 
z
" transform="scale(0.015625)"/>
       </defs>
       <use xlink:href="#DejaVuSans-31"/>
       <use xlink:href="#DejaVuSans-30" x="63.623047"/>
       <use xlink:href="#DejaVuSans-30" x="127.246094"/>
      </g>
     </g>
    </g>
    <g id="text_7">
     <!-- Time (s) -->
     <g transform="translate(285.591094 274.316562) scale(0.1 -0.1)">
      <defs>
       <path id="DejaVuSans-54" d="M -19 4666 
L 3928 4666 
L 3928 4134 
L 2272 4134 
L 2272 0 
L 1638 0 
L 1638 4134 
L -19 4134 
L -19 4666 
z
" transform="scale(0.015625)"/>
       <path id="DejaVuSans-69" d="M 603 3500 
L 1178 3500 
L 1178 0 
L 603 0 
L 603 3500 
z
M 603 4863 
L 1178 4863 
L 1178 4134 
L 603 4134 
L 603 4863 
z
" transform="scale(0.015625)"/>
       <path id="DejaVuSans-6d" d="M 3328 2828 
Q 3544 3216 3844 3400 
Q 4144 3584 4550 3584 
Q 5097 3584 5394 3201 
Q 5691 2819 5691 2113 
L 5691 0 
L 5113 0 
L 5113 2094 
Q 5113 2597 4934 2840 
Q 4756 3084 4391 3084 
Q 3944 3084 3684 2787 
Q 3425 2491 3425 1978 
L 3425 0 
L 2847 0 
L 2847 2094 
Q 2847 2600 2669 2842 
Q 2491 3084 2119 3084 
Q 1678 3084 1418 2786 
Q 1159 2488 1159 1978 
L 1159 0 
L 581 0 
L 581 3500 
L 1159 3500 
L 1159 2956 
Q 1356 3278 1631 3431 
Q 1906 3584 2284 3584 
Q 2666 3584 2933 3390 
Q 3200 3197 3328 2828 
z
" transform="scale(0.015625)"/>
       <path id="DejaVuSans-65" d="M 3597 1894 
L 3597 1613 
L 953 1613 
Q 991 1019 1311 708 
Q 1631 397 2203 397 
Q 2534 397 2845 478 
Q 3156 559 3463 722 
L 3463 178 
Q 3153 47 2828 -22 
Q 2503 -91 2169 -91 
Q 1331 -91 842 396 
Q 353 884 353 1716 
Q 353 2575 817 3079 
Q 1281 3584 2069 3584 
Q 2775 3584 3186 3129 
Q 3597 2675 3597 1894 
z
M 3022 2063 
Q 3016 2534 2758 2815 
Q 2500 3097 2075 3097 
Q 1594 3097 1305 2825 
Q 1016 2553 972 2059 
L 3022 2063 
z
" transform="scale(0.015625)"/>
       <path id="DejaVuSans-20" transform="scale(0.015625)"/>
       <path id="DejaVuSans-28" d="M 1984 4856 
Q 1566 4138 1362 3434 
Q 1159 2731 1159 2009 
Q 1159 1288 1364 580 
Q 1569 -128 1984 -844 
L 1484 -844 
Q 1016 -109 783 600 
Q 550 1309 550 2009 
Q 550 2706 781 3412 
Q 1013 4119 1484 4856 
L 1984 4856 
z
" transform="scale(0.015625)"/>
       <path id="DejaVuSans-73" d="M 2834 3397 
L 2834 2853 
Q 2591 2978 2328 3040 
Q 2066 3103 1784 3103 
Q 1356 3103 1142 2972 
Q 928 2841 928 2578 
Q 928 2378 1081 2264 
Q 1234 2150 1697 2047 
L 1894 2003 
Q 2506 1872 2764 1633 
Q 3022 1394 3022 966 
Q 3022 478 2636 193 
Q 2250 -91 1575 -91 
Q 1294 -91 989 -36 
Q 684 19 347 128 
L 347 722 
Q 666 556 975 473 
Q 1284 391 1588 391 
Q 1994 391 2212 530 
Q 2431 669 2431 922 
Q 2431 1156 2273 1281 
Q 2116 1406 1581 1522 
L 1381 1569 
Q 847 1681 609 1914 
Q 372 2147 372 2553 
Q 372 3047 722 3315 
Q 1072 3584 1716 3584 
Q 2034 3584 2315 3537 
Q 2597 3491 2834 3397 
z
" transform="scale(0.015625)"/>
       <path id="DejaVuSans-29" d="M 513 4856 
L 1013 4856 
Q 1481 4119 1714 3412 
Q 1947 2706 1947 2009 
Q 1947 1309 1714 600 
Q 1481 -109 1013 -844 
L 513 -844 
Q 928 -128 1133 580 
Q 1338 1288 1338 2009 
Q 1338 2731 1133 3434 
Q 928 4138 513 4856 
z
" transform="scale(0.015625)"/>
      </defs>
      <use xlink:href="#DejaVuSans-54"/>
      <use xlink:href="#DejaVuSans-69" x="57.958984"/>
      <use xlink:href="#DejaVuSans-6d" x="85.742188"/>
      <use xlink:href="#DejaVuSans-65" x="183.154297"/>
      <use xlink:href="#DejaVuSans-20" x="244.677734"/>
      <use xlink:href="#DejaVuSans-28" x="276.464844"/>
      <use xlink:href="#DejaVuSans-73" x="315.478516"/>
      <use xlink:href="#DejaVuSans-29" x="367.578125"/>
     </g>
    </g>
   </g>
   <g id="matplotlib.axis_2">
    <g id="ytick_1">
     <g id="line2d_13">
      <path d="M 46.64 226.553931 
L 565.2 226.553931 
" clip-path="url(#p39f99b3a80)" style="fill: none; stroke: #b0b0b0; stroke-width: 0.8; stroke-linecap: square"/>
     </g>
     <g id="line2d_14">
      <defs>
       <path id="md49e54043f" d="M 0 0 
L -3.5 0 
" style="stroke: #000000; stroke-width: 0.8"/>
      </defs>
      <g>
       <use xlink:href="#md49e54043f" x="46.64" y="226.553931" style="stroke: #000000; stroke-width: 0.8"/>
      </g>
     </g>
     <g id="text_8">
      <!-- −5 -->
      <g transform="translate(24.897813 230.35315) scale(0.1 -0.1)">
       <defs>
        <path id="DejaVuSans-2212" d="M 678 2272 
L 4684 2272 
L 4684 1741 
L 678 1741 
L 678 2272 
z
" transform="scale(0.015625)"/>
        <path id="DejaVuSans-35" d="M 691 4666 
L 3169 4666 
L 3169 4134 
L 1269 4134 
L 1269 2991 
Q 1406 3038 1543 3061 
Q 1681 3084 1819 3084 
Q 2600 3084 3056 2656 
Q 3513 2228 3513 1497 
Q 3513 744 3044 326 
Q 2575 -91 1722 -91 
Q 1428 -91 1123 -41 
Q 819 9 494 109 
L 494 744 
Q 775 591 1075 516 
Q 1375 441 1709 441 
Q 2250 441 2565 725 
Q 2881 1009 2881 1497 
Q 2881 1984 2565 2268 
Q 2250 2553 1709 2553 
Q 1456 2553 1204 2497 
Q 953 2441 691 2322 
L 691 4666 
z
" transform="scale(0.015625)"/>
       </defs>
       <use xlink:href="#DejaVuSans-2212"/>
       <use xlink:href="#DejaVuSans-35" x="83.789062"/>
      </g>
     </g>
    </g>
    <g id="ytick_2">
     <g id="line2d_15">
      <path d="M 46.64 202.96807 
L 565.2 202.96807 
" clip-path="url(#p39f99b3a80)" style="fill: none; stroke: #b0b0b0; stroke-width: 0.8; stroke-linecap: square"/>
     </g>
     <g id="line2d_16">
      <g>
       <use xlink:href="#md49e54043f" x="46.64" y="202.96807" style="stroke: #000000; stroke-width: 0.8"/>
      </g>
     </g>
     <g id="text_9">
      <!-- −4 -->
      <g transform="translate(24.897813 206.767289) scale(0.1 -0.1)">
       <use xlink:href="#DejaVuSans-2212"/>
       <use xlink:href="#DejaVuSans-34" x="83.789062"/>
      </g>
     </g>
    </g>
    <g id="ytick_3">
     <g id="line2d_17">
      <path d="M 46.64 179.382209 
L 565.2 179.382209 
" clip-path="url(#p39f99b3a80)" style="fill: none; stroke: #b0b0b0; stroke-width: 0.8; stroke-linecap: square"/>
     </g>
     <g id="line2d_18">
      <g>
       <use xlink:href="#md49e54043f" x="46.64" y="179.382209" style="stroke: #000000; stroke-width: 0.8"/>
      </g>
     </g>
     <g id="text_10">
      <!-- −3 -->
      <g transform="translate(24.897813 183.181427) scale(0.1 -0.1)">
       <defs>
        <path id="DejaVuSans-33" d="M 2597 2516 
Q 3050 2419 3304 2112 
Q 3559 1806 3559 1356 
Q 3559 666 3084 287 
Q 2609 -91 1734 -91 
Q 1441 -91 1130 -33 
Q 819 25 488 141 
L 488 750 
Q 750 597 1062 519 
Q 1375 441 1716 441 
Q 2309 441 2620 675 
Q 2931 909 2931 1356 
Q 2931 1769 2642 2001 
Q 2353 2234 1838 2234 
L 1294 2234 
L 1294 2753 
L 1863 2753 
Q 2328 2753 2575 2939 
Q 2822 3125 2822 3475 
Q 2822 3834 2567 4026 
Q 2313 4219 1838 4219 
Q 1578 4219 1281 4162 
Q 984 4106 628 3988 
L 628 4550 
Q 988 4650 1302 4700 
Q 1616 4750 1894 4750 
Q 2613 4750 3031 4423 
Q 3450 4097 3450 3541 
Q 3450 3153 3228 2886 
Q 3006 2619 2597 2516 
z
" transform="scale(0.015625)"/>
       </defs>
       <use xlink:href="#DejaVuSans-2212"/>
       <use xlink:href="#DejaVuSans-33" x="83.789062"/>
      </g>
     </g>
    </g>
    <g id="ytick_4">
     <g id="line2d_19">
      <path d="M 46.64 155.796347 
L 565.2 155.796347 
" clip-path="url(#p39f99b3a80)" style="fill: none; stroke: #b0b0b0; stroke-width: 0.8; stroke-linecap: square"/>
     </g>
     <g id="line2d_20">
      <g>
       <use xlink:href="#md49e54043f" x="46.64" y="155.796347" style="stroke: #000000; stroke-width: 0.8"/>
      </g>
     </g>
     <g id="text_11">
      <!-- −2 -->
      <g transform="translate(24.897813 159.595566) scale(0.1 -0.1)">
       <use xlink:href="#DejaVuSans-2212"/>
       <use xlink:href="#DejaVuSans-32" x="83.789062"/>
      </g>
     </g>
    </g>
    <g id="ytick_5">
     <g id="line2d_21">
      <path d="M 46.64 132.210486 
L 565.2 132.210486 
" clip-path="url(#p39f99b3a80)" style="fill: none; stroke: #b0b0b0; stroke-width: 0.8; stroke-linecap: square"/>
     </g>
     <g id="line2d_22">
      <g>
       <use xlink:href="#md49e54043f" x="46.64" y="132.210486" style="stroke: #000000; stroke-width: 0.8"/>
      </g>
     </g>
     <g id="text_12">
      <!-- −1 -->
      <g transform="translate(24.897813 136.009705) scale(0.1 -0.1)">
       <use xlink:href="#DejaVuSans-2212"/>
       <use xlink:href="#DejaVuSans-31" x="83.789062"/>
      </g>
     </g>
    </g>
    <g id="ytick_6">
     <g id="line2d_23">
      <path d="M 46.64 108.624624 
L 565.2 108.624624 
" clip-path="url(#p39f99b3a80)" style="fill: none; stroke: #b0b0b0; stroke-width: 0.8; stroke-linecap: square"/>
     </g>
     <g id="line2d_24">
      <g>
       <use xlink:href="#md49e54043f" x="46.64" y="108.624624" style="stroke: #000000; stroke-width: 0.8"/>
      </g>
     </g>
     <g id="text_13">
      <!-- 0 -->
      <g transform="translate(33.2775 112.423843) scale(0.1 -0.1)">
       <use xlink:href="#DejaVuSans-30"/>
      </g>
     </g>
    </g>
    <g id="ytick_7">
     <g id="line2d_25">
      <path d="M 46.64 85.038763 
L 565.2 85.038763 
" clip-path="url(#p39f99b3a80)" style="fill: none; stroke: #b0b0b0; stroke-width: 0.8; stroke-linecap: square"/>
     </g>
     <g id="line2d_26">
      <g>
       <use xlink:href="#md49e54043f" x="46.64" y="85.038763" style="stroke: #000000; stroke-width: 0.8"/>
      </g>
     </g>
     <g id="text_14">
      <!-- 1 -->
      <g transform="translate(33.2775 88.837982) scale(0.1 -0.1)">
       <use xlink:href="#DejaVuSans-31"/>
      </g>
     </g>
    </g>
    <g id="ytick_8">
     <g id="line2d_27">
      <path d="M 46.64 61.452902 
L 565.2 61.452902 
" clip-path="url(#p39f99b3a80)" style="fill: none; stroke: #b0b0b0; stroke-width: 0.8; stroke-linecap: square"/>
     </g>
     <g id="line2d_28">
      <g>
       <use xlink:href="#md49e54043f" x="46.64" y="61.452902" style="stroke: #000000; stroke-width: 0.8"/>
      </g>
     </g>
     <g id="text_15">
      <!-- 2 -->
      <g transform="translate(33.2775 65.25212) scale(0.1 -0.1)">
       <use xlink:href="#DejaVuSans-32"/>
      </g>
     </g>
    </g>
    <g id="text_16">
     <!-- Error -->
     <g transform="translate(18.818125 156.133156) rotate(-90) scale(0.1 -0.1)">
      <defs>
       <path id="DejaVuSans-45" d="M 628 4666 
L 3578 4666 
L 3578 4134 
L 1259 4134 
L 1259 2753 
L 3481 2753 
L 3481 2222 
L 1259 2222 
L 1259 531 
L 3634 531 
L 3634 0 
L 628 0 
L 628 4666 
z
" transform="scale(0.015625)"/>
       <path id="DejaVuSans-72" d="M 2631 2963 
Q 2534 3019 2420 3045 
Q 2306 3072 2169 3072 
Q 1681 3072 1420 2755 
Q 1159 2438 1159 1844 
L 1159 0 
L 581 0 
L 581 3500 
L 1159 3500 
L 1159 2956 
Q 1341 3275 1631 3429 
Q 1922 3584 2338 3584 
Q 2397 3584 2469 3576 
Q 2541 3569 2628 3553 
L 2631 2963 
z
" transform="scale(0.015625)"/>
       <path id="DejaVuSans-6f" d="M 1959 3097 
Q 1497 3097 1228 2736 
Q 959 2375 959 1747 
Q 959 1119 1226 758 
Q 1494 397 1959 397 
Q 2419 397 2687 759 
Q 2956 1122 2956 1747 
Q 2956 2369 2687 2733 
Q 2419 3097 1959 3097 
z
M 1959 3584 
Q 2709 3584 3137 3096 
Q 3566 2609 3566 1747 
Q 3566 888 3137 398 
Q 2709 -91 1959 -91 
Q 1206 -91 779 398 
Q 353 888 353 1747 
Q 353 2609 779 3096 
Q 1206 3584 1959 3584 
z
" transform="scale(0.015625)"/>
      </defs>
      <use xlink:href="#DejaVuSans-45"/>
      <use xlink:href="#DejaVuSans-72" x="63.183594"/>
      <use xlink:href="#DejaVuSans-72" x="102.546875"/>
      <use xlink:href="#DejaVuSans-6f" x="141.410156"/>
      <use xlink:href="#DejaVuSans-72" x="202.591797"/>
     </g>
    </g>
   </g>
   <g id="line2d_29">
    <path d="M 70.210909 115.132576 
L 70.639899 114.828204 
L 71.084387 115.005127 
L 71.95076 117.418827 
L 72.385322 118.780433 
L 73.254103 118.780433 
L 73.683268 119.914952 
L 74.130092 120.446021 
L 74.55744 123.238475 
L 74.99186 123.579087 
L 75.42729 126.382848 
L 75.860731 126.382848 
L 76.294555 133.252694 
L 76.727792 134.808675 
L 77.164125 134.808675 
L 77.609099 136.314692 
L 78.037574 136.314692 
L 78.903513 137.637248 
L 79.339458 137.614622 
L 79.780776 137.258179 
L 80.217011 134.622896 
L 80.655566 134.622896 
L 81.522039 129.367016 
L 81.956606 126.170168 
L 82.396833 114.92706 
L 82.815982 110.77895 
L 83.251832 110.77895 
L 83.696689 106.290698 
L 84.129101 104.607273 
L 84.55748 97.576911 
L 84.99834 97.576911 
L 85.434748 94.458265 
L 85.861238 94.458265 
L 86.300993 91.661121 
L 86.74537 83.333224 
L 87.173905 80.259523 
L 87.601832 80.259523 
L 88.047713 77.718511 
L 88.470886 77.417852 
L 88.907691 74.480026 
L 89.345534 75.105527 
L 90.211866 75.105527 
L 90.645835 74.90921 
L 91.092113 74.90921 
L 91.513326 76.197459 
L 91.949409 76.197459 
L 92.383781 78.631275 
L 92.820167 79.789594 
L 93.267146 80.32951 
L 93.698899 86.903777 
L 94.123084 88.037565 
L 94.564494 97.413379 
L 95.442963 97.413379 
L 96.296057 104.47156 
L 96.732796 104.47156 
L 97.168546 111.517545 
L 97.606205 111.517545 
L 98.043931 117.608946 
L 98.474121 120.555282 
L 98.91179 121.722809 
L 99.341933 126.569488 
L 99.781999 126.569488 
L 100.218966 129.277672 
L 100.649064 130.39741 
L 101.08159 137.144478 
L 101.518794 140.103585 
L 101.949994 141.289773 
L 102.411805 141.928245 
L 102.823015 142.798401 
L 103.699385 142.810442 
L 104.56199 142.084944 
L 104.998164 138.732395 
L 105.874025 135.098246 
L 106.309024 133.243794 
L 107.607896 133.243794 
L 108.477713 127.582914 
L 108.910085 120.190778 
L 109.343828 117.14282 
L 109.782843 117.14282 
L 110.21498 111.406649 
L 110.650864 111.406649 
L 111.084497 106.458102 
L 111.522356 102.934023 
L 111.95493 97.196198 
L 112.393341 93.135244 
L 112.83621 87.831812 
L 113.266835 85.71369 
L 113.693827 85.71369 
L 114.129476 84.019333 
L 115.438063 81.179764 
L 115.869095 80.982965 
L 116.306967 80.54831 
L 117.177005 80.473218 
L 117.615692 80.90886 
L 118.479382 82.545977 
L 118.916402 83.599833 
L 119.347036 88.226683 
L 120.216601 89.942436 
L 121.096725 89.942436 
L 121.523711 91.291694 
L 121.961827 93.694654 
L 122.391072 95.363564 
L 122.831647 97.718321 
L 123.264797 97.718321 
L 123.705874 98.921411 
L 124.136963 101.894989 
L 124.565358 101.894989 
L 125.004871 102.523839 
L 125.442911 102.523839 
L 125.87929 104.363064 
L 126.309226 110.705901 
L 126.750921 112.588463 
L 127.192364 112.588463 
L 127.617763 114.249233 
L 128.049576 114.249233 
L 128.485617 115.276334 
L 128.916861 115.276334 
L 129.353418 116.174739 
L 129.790851 116.174739 
L 130.219193 117.699976 
L 130.65867 117.699976 
L 131.092932 118.756082 
L 131.983904 118.727207 
L 132.410383 118.963406 
L 132.830144 118.963406 
L 133.26467 119.143473 
L 133.699249 118.791318 
L 134.573523 118.701506 
L 135.003908 118.931648 
L 135.874016 118.931648 
L 136.31316 119.129001 
L 136.74295 118.369944 
L 137.184484 115.590879 
L 137.614363 113.768087 
L 138.06239 111.065164 
L 138.48568 109.791802 
L 139.356845 109.791802 
L 140.221309 108.628651 
L 140.658627 106.251339 
L 141.52786 104.978047 
L 142.402856 104.978047 
L 142.838519 104.159351 
L 143.266668 103.921225 
L 144.143633 103.965699 
L 145.016024 106.702924 
L 145.447785 106.301931 
L 146.322831 106.402801 
L 147.184891 108.123887 
L 147.614199 108.618456 
L 148.050614 108.618456 
L 148.491759 109.217456 
L 148.922497 108.546973 
L 149.367105 110.621862 
L 149.789653 114.512398 
L 150.228047 114.512398 
L 150.659923 115.608052 
L 151.096102 116.259586 
L 151.530646 116.425028 
L 151.981298 116.217205 
L 152.408899 115.42252 
L 152.836538 114.195497 
L 153.27522 111.197814 
L 153.703042 109.728681 
L 154.136912 109.728681 
L 154.573827 108.649026 
L 155.022156 108.097843 
L 155.88699 107.509546 
L 156.324325 106.90589 
L 156.748512 106.90589 
L 157.184124 105.547475 
L 158.060401 104.493324 
L 158.489302 102.168651 
L 158.926096 102.168651 
L 159.357192 102.425668 
L 160.243473 102.425668 
L 160.669309 100.42009 
L 161.103693 100.176715 
L 161.965838 100.577578 
L 162.837303 100.577578 
L 163.273905 101.340871 
L 163.707621 102.569524 
L 164.150998 103.105081 
L 165.012594 102.71906 
L 165.451804 103.359211 
L 165.888101 103.359211 
L 166.320673 104.332673 
L 166.749432 105.624378 
L 167.206509 105.749911 
L 167.61967 104.828254 
L 168.924278 104.828254 
L 169.368279 105.296015 
L 169.795948 105.296015 
L 170.231237 106.124398 
L 170.672491 106.180334 
L 171.099746 105.951262 
L 171.539949 105.951262 
L 171.974088 105.693558 
L 172.842186 108.567419 
L 173.274314 108.682098 
L 173.712431 108.682098 
L 174.146274 109.081384 
L 174.585721 109.707279 
L 175.017049 109.707279 
L 175.448141 109.847013 
L 176.328265 109.746664 
L 176.759251 111.156729 
L 177.624289 110.196992 
L 178.499506 110.145476 
L 178.934952 109.522592 
L 179.361531 109.522592 
L 179.806354 109.98591 
L 180.680624 109.153257 
L 181.102498 109.117348 
L 181.542838 109.300801 
L 181.976593 109.296344 
L 182.410542 109.733543 
L 182.840366 109.733543 
L 183.714011 108.809881 
L 184.145749 108.013788 
L 184.579869 108.285241 
L 186.759916 108.182641 
L 187.189592 107.243663 
L 188.49466 109.606323 
L 188.933202 109.606323 
L 189.365649 109.291886 
L 190.671034 109.314168 
L 191.106207 109.663439 
L 191.564301 109.22491 
L 191.972795 107.640061 
L 192.844467 107.640061 
L 193.277384 106.772421 
L 193.713392 106.553326 
L 195.018863 106.593309 
L 195.459699 107.413202 
L 195.893321 106.658141 
L 196.321843 106.271589 
L 197.198244 106.271589 
L 197.627001 106.119307 
L 198.063841 106.119307 
L 198.496098 106.322139 
L 198.932477 107.37939 
L 199.368784 107.37939 
L 199.801683 109.215965 
L 200.237838 109.215965 
L 200.670607 110.239834 
L 201.110193 110.239834 
L 201.543254 111.359149 
L 202.413493 115.493551 
L 202.848932 115.92475 
L 203.280799 117.496381 
L 204.155893 117.496381 
L 204.587568 119.436942 
L 205.024658 122.361286 
L 205.457808 122.442734 
L 205.890472 121.466824 
L 206.33018 121.236553 
L 206.763201 121.696866 
L 207.194528 121.696866 
L 208.069269 121.27978 
L 208.501373 119.2448 
L 208.944313 115.107376 
L 209.370919 113.961902 
L 209.82134 113.844766 
L 210.252065 113.986059 
L 210.673967 113.986059 
L 211.109677 114.640057 
L 211.543488 114.338498 
L 211.979766 115.466519 
L 212.423679 116.043535 
L 213.308214 115.4699 
L 213.742791 115.828575 
L 214.160439 115.828575 
L 215.031694 117.33239 
L 215.468718 117.190635 
L 215.895361 117.931644 
L 216.329325 122.397262 
L 216.7621 124.73685 
L 217.205807 124.73685 
L 217.631346 127.139966 
L 218.067909 127.139966 
L 218.937013 130.81776 
L 219.376192 130.81776 
L 219.809075 133.005404 
L 220.241722 133.249305 
L 220.677617 135.391067 
L 221.117567 135.179239 
L 221.988636 135.880437 
L 222.415468 135.713662 
L 222.850968 135.713662 
L 223.286319 135.300516 
L 223.719859 135.300516 
L 224.155229 134.74675 
L 224.602161 134.74675 
L 225.895309 129.196034 
L 226.33182 129.196034 
L 227.199223 125.251392 
L 227.645638 123.174201 
L 228.515758 117.748877 
L 228.947162 112.641991 
L 229.387567 112.641991 
L 229.814671 111.727029 
L 230.242936 108.936973 
L 230.677466 102.707389 
L 231.551636 96.749302 
L 231.985023 90.647382 
L 232.418186 87.89137 
L 232.854789 87.89137 
L 233.290772 81.321164 
L 233.725938 81.321164 
L 234.158772 77.840744 
L 234.595846 72.568833 
L 235.028356 71.137914 
L 235.471866 71.92484 
L 235.910572 71.92484 
L 236.343136 69.590823 
L 236.774798 69.950826 
L 237.204791 69.950826 
L 237.645498 75.381757 
L 238.071435 75.381757 
L 238.943433 79.571428 
L 239.376821 80.158481 
L 239.821268 80.158481 
L 240.25485 80.435607 
L 241.117025 80.435607 
L 241.550784 81.51055 
L 241.990638 85.52155 
L 242.422314 85.52155 
L 243.29301 93.350427 
L 243.736163 93.350427 
L 244.160048 94.5234 
L 245.032849 94.5234 
L 245.468238 98.445061 
L 246.345538 108.892166 
L 246.775487 108.892166 
L 247.642166 121.791637 
L 248.080463 121.791637 
L 248.524742 138.080968 
L 248.943919 146.419401 
L 249.380335 146.419401 
L 260.688552 173.922733 
L 261.57238 173.527716 
L 262.434331 173.527716 
L 262.861905 173.189758 
L 263.296139 173.189758 
L 264.167188 172.807154 
L 264.603377 172.807154 
L 265.043455 169.787739 
L 265.474527 117.180249 
L 265.907691 115.249026 
L 266.344171 103.607689 
L 266.777432 100.471748 
L 267.217313 94.124979 
L 267.644715 90.540634 
L 268.080085 90.540634 
L 269.41084 78.88633 
L 269.830946 78.66657 
L 270.252276 77.009704 
L 271.123153 77.009704 
L 271.558974 73.218604 
L 272.862422 66.494146 
L 274.177128 58.074774 
L 275.909649 51.137091 
L 276.776794 53.247547 
L 277.213369 58.557294 
L 277.657654 67.048882 
L 278.949772 73.177263 
L 279.386794 73.177263 
L 279.820951 80.006336 
L 280.25756 88.886396 
L 281.563022 95.194094 
L 281.999752 95.194094 
L 282.440846 96.319782 
L 282.86729 96.834409 
L 283.299999 96.987746 
L 283.737956 96.987746 
L 284.181296 98.56684 
L 284.65012 105.153435 
L 285.049076 105.505743 
L 285.477245 105.505743 
L 286.354708 107.170636 
L 286.783917 107.170636 
L 287.213252 106.702924 
L 287.648498 109.552986 
L 288.082807 108.887126 
L 288.520413 108.887126 
L 288.956104 107.767755 
L 289.397149 105.422065 
L 289.826008 105.422065 
L 290.695424 101.396204 
L 291.130228 99.833482 
L 291.575065 97.753559 
L 292.010731 88.397298 
L 292.433012 87.341029 
L 292.877205 87.341029 
L 293.310558 84.597969 
L 293.738748 83.861727 
L 294.18432 83.384178 
L 294.608148 81.302165 
L 295.041767 80.573303 
L 295.481065 80.573303 
L 295.912829 78.842493 
L 296.359426 77.591284 
L 296.782997 77.96854 
L 298.089492 77.651928 
L 298.524192 76.932436 
L 298.95888 76.932436 
L 299.391208 78.695955 
L 299.826179 78.695955 
L 301.133035 91.547272 
L 301.565539 94.681212 
L 302.002772 94.681212 
L 302.437808 96.459597 
L 302.870105 96.459597 
L 303.309904 97.283914 
L 303.771498 97.076131 
L 304.179174 98.435142 
L 305.484066 98.537967 
L 305.91876 98.68807 
L 306.363939 99.286145 
L 306.786507 99.286145 
L 307.225846 99.900029 
L 307.657772 99.900029 
L 308.524039 100.67597 
L 308.975391 100.67597 
L 309.393953 101.463674 
L 309.82917 101.652878 
L 310.276033 103.124229 
L 310.698548 101.93111 
L 311.137717 101.93111 
L 311.573976 99.046277 
L 312.008686 94.243318 
L 312.874194 87.08757 
L 313.318744 87.08757 
L 314.183697 67.82993 
L 314.613746 67.82993 
L 315.046711 60.561902 
L 315.487636 56.973554 
L 315.923336 56.447679 
L 316.35318 55.375272 
L 316.795531 55.449284 
L 317.221212 55.32311 
L 317.657029 55.32311 
L 318.091047 56.806963 
L 318.534701 56.806963 
L 318.973782 57.333491 
L 319.401359 56.753934 
L 320.265993 61.762318 
L 320.702744 61.762318 
L 321.135093 65.444783 
L 321.57468 64.249402 
L 322.005803 68.351515 
L 322.448816 68.351515 
L 322.875458 69.926307 
L 323.316569 72.969832 
L 323.744382 72.969832 
L 324.181783 73.14105 
L 324.621318 73.14105 
L 325.051868 73.400618 
L 325.486232 73.400618 
L 325.918658 75.397937 
L 326.366308 75.397937 
L 326.79955 79.273968 
L 327.22451 79.273968 
L 328.102959 81.545601 
L 328.529537 85.51084 
L 328.964879 85.51084 
L 329.844582 89.625768 
L 330.269478 89.625768 
L 330.706721 93.209913 
L 331.142959 93.448288 
L 331.576476 94.302746 
L 332.016293 95.550669 
L 332.44251 95.618398 
L 332.886303 95.260977 
L 333.754275 95.260977 
L 334.184376 95.97965 
L 334.621525 95.97965 
L 335.060903 96.696484 
L 335.495636 96.696484 
L 335.921564 96.170969 
L 336.362281 95.828998 
L 337.275055 95.828998 
L 337.661746 96.204108 
L 338.104134 97.341971 
L 338.538733 97.341971 
L 338.96821 98.537967 
L 339.412223 98.537967 
L 339.842242 101.677192 
L 340.280837 101.677192 
L 340.711998 106.347375 
L 341.576088 106.347375 
L 342.012117 107.303003 
L 342.446033 107.303003 
L 343.757075 118.653228 
L 344.185408 127.593709 
L 344.627544 127.593709 
L 345.066723 129.47199 
L 345.488487 134.762096 
L 345.927966 137.106373 
L 346.369775 137.859238 
L 346.794086 138.969777 
L 347.229618 138.969777 
L 347.663418 139.857869 
L 348.111144 139.857869 
L 348.533948 140.554148 
L 348.977978 140.793734 
L 349.84218 140.793734 
L 350.277562 139.628199 
L 350.714779 139.628199 
L 351.1452 138.653888 
L 351.580257 134.893292 
L 352.01631 133.017025 
L 352.447904 126.831178 
L 352.884342 126.005521 
L 353.318225 124.378376 
L 353.757544 124.378376 
L 354.189915 120.088469 
L 354.630246 114.130439 
L 355.063236 113.665427 
L 355.502979 112.230609 
L 355.927 111.367299 
L 356.367567 111.367299 
L 356.799601 108.531626 
L 357.232852 108.261962 
L 357.671542 107.243663 
L 358.10695 107.243663 
L 358.569227 106.436332 
L 358.977751 104.921683 
L 359.404976 104.921683 
L 359.839493 100.749522 
L 360.274738 100.749522 
L 360.716633 98.22831 
L 361.589417 91.327079 
L 362.022017 88.645523 
L 362.450342 79.494086 
L 363.318569 79.494086 
L 363.758582 79.065463 
L 364.197443 79.494086 
L 364.630936 79.29994 
L 365.062145 79.930001 
L 365.50198 81.294019 
L 365.930072 81.294019 
L 366.367638 81.775193 
L 366.800802 81.775193 
L 367.234811 81.991218 
L 367.670629 76.920057 
L 368.104204 76.947904 
L 368.539372 80.133172 
L 368.974492 81.967286 
L 369.410796 84.40996 
L 369.845428 84.40996 
L 375.93632 97.890163 
L 377.237265 94.85553 
L 377.670211 92.783269 
L 378.111463 92.783269 
L 378.539645 94.142806 
L 378.985058 94.142806 
L 379.854478 98.091857 
L 380.720781 98.091857 
L 381.590935 104.478212 
L 382.020387 105.595495 
L 382.456723 105.595495 
L 383.329683 104.466116 
L 383.767826 104.466116 
L 384.194408 104.676953 
L 384.629791 102.413862 
L 385.065491 98.95212 
L 385.499716 98.95212 
L 385.936513 97.141032 
L 386.370218 94.163293 
L 386.807386 88.806318 
L 387.238861 86.055889 
L 387.674298 86.055889 
L 388.548701 77.513805 
L 388.9853 76.40076 
L 389.425327 76.40076 
L 389.848245 75.103895 
L 390.283868 75.483568 
L 390.726177 74.645722 
L 391.157048 74.645722 
L 391.586751 76.471397 
L 392.461148 76.471397 
L 392.895201 77.128356 
L 393.33291 77.500114 
L 393.771691 78.311937 
L 394.209392 79.98091 
L 394.632798 80.371431 
L 395.077442 83.691993 
L 395.504734 83.691993 
L 395.944335 84.583264 
L 396.372147 92.750547 
L 397.240426 96.329675 
L 397.681965 96.329675 
L 398.113213 100.913395 
L 398.981804 100.913395 
L 399.416825 103.932351 
L 399.857117 103.932351 
L 400.28685 104.736866 
L 400.722144 104.736866 
L 401.154607 108.257303 
L 401.590922 109.933921 
L 402.024419 110.722671 
L 402.459917 112.715436 
L 402.905551 113.339618 
L 403.76453 115.173748 
L 404.199577 115.173748 
L 404.639943 113.212016 
L 405.506502 113.212016 
L 405.940259 112.191364 
L 406.387632 111.966348 
L 406.808899 111.379518 
L 407.249936 111.379518 
L 407.682344 110.499456 
L 408.12059 107.224211 
L 408.549958 107.224211 
L 408.984646 105.422065 
L 409.425101 105.422065 
L 410.290739 101.43916 
L 410.722047 95.987996 
L 411.160269 93.365997 
L 411.594027 92.573205 
L 412.469417 87.652438 
L 412.901063 82.098694 
L 413.337825 78.986937 
L 415.072082 78.986937 
L 415.51889 77.636777 
L 415.943676 77.636777 
L 416.382871 79.891767 
L 416.811339 79.891767 
L 417.261159 80.982965 
L 417.679783 86.657003 
L 418.115322 86.657003 
L 418.557527 89.390767 
L 418.995324 90.710645 
L 419.420418 93.185045 
L 419.867335 96.987746 
L 420.726595 96.987746 
L 421.163873 98.725843 
L 421.594967 101.065883 
L 422.03501 110.205567 
L 422.901751 115.080998 
L 423.338119 116.749926 
L 423.769674 121.98305 
L 424.205683 123.383048 
L 424.640787 126.970519 
L 425.078225 132.445186 
L 425.959938 146.478706 
L 426.389425 149.517693 
L 426.815285 151.703798 
L 427.248649 156.442892 
L 428.118117 157.847904 
L 428.562129 157.847904 
L 428.994229 160.543164 
L 429.450568 160.399816 
L 429.858006 161.247704 
L 430.299146 161.247704 
L 430.729726 161.81859 
L 431.167907 161.97503 
L 431.597517 161.66153 
L 432.031238 161.66153 
L 432.472072 161.19543 
L 432.901425 160.001549 
L 434.641963 150.375972 
L 435.514286 139.158366 
L 435.948491 137.867064 
L 436.819188 115.750874 
L 437.26338 109.494124 
L 437.695348 108.220001 
L 438.123287 108.220001 
L 438.561532 104.263854 
L 439.000776 101.500402 
L 439.430421 95.457273 
L 439.869948 94.251308 
L 440.309676 88.742102 
L 440.737624 88.029888 
L 441.165117 86.760065 
L 442.038051 86.760065 
L 442.469048 86.073426 
L 442.906265 86.073426 
L 443.341781 86.188927 
L 443.786393 87.290505 
L 444.216298 87.602425 
L 444.642994 87.602425 
L 445.077939 86.903777 
L 445.514726 87.330931 
L 445.950572 88.000259 
L 446.410494 90.209903 
L 446.820526 90.209903 
L 447.255614 91.739681 
L 447.68933 91.424167 
L 448.127172 94.211335 
L 448.563411 98.565321 
L 449.429199 98.612365 
L 449.872547 101.786319 
L 450.296637 103.466451 
L 450.734994 103.466451 
L 451.617482 105.469169 
L 452.039509 105.75106 
L 452.914447 105.780908 
L 453.35257 105.317068 
L 454.212308 103.483441 
L 455.081462 102.419766 
L 455.520127 102.419766 
L 455.951304 102.051153 
L 456.386202 99.740615 
L 456.826406 100.228139 
L 457.69575 100.228139 
L 458.125942 99.872563 
L 459.432191 99.87907 
L 459.865463 99.748609 
L 460.305656 99.742069 
L 460.735265 99.545118 
L 461.175094 99.564879 
L 461.604958 101.012613 
L 463.348649 101.112146 
L 463.779448 102.313292 
L 464.221175 102.490503 
L 464.659297 102.490503 
L 465.098509 103.585144 
L 465.520947 106.358022 
L 466.393878 106.358022 
L 466.829783 108.222594 
L 467.260265 109.464638 
L 467.695888 110.008978 
L 468.130529 110.328596 
L 468.565847 110.413713 
L 468.999768 110.699842 
L 469.435559 110.699842 
L 469.873416 112.203145 
L 470.305938 112.765258 
L 470.742119 112.7576 
L 471.606675 110.893866 
L 472.043388 110.893866 
L 472.485269 110.303947 
L 472.910411 110.380649 
L 473.353515 110.802165 
L 473.783343 110.003213 
L 474.217507 110.003213 
L 474.650886 108.14054 
L 475.08621 104.784692 
L 475.528534 103.358579 
L 475.96349 100.092937 
L 476.397674 98.103447 
L 476.828565 92.932385 
L 477.261943 92.932385 
L 477.69504 91.722242 
L 478.130727 91.722242 
L 478.575944 87.62244 
L 479.002836 80.594116 
L 480.313287 74.645722 
L 480.745509 74.645722 
L 481.17404 73.724539 
L 481.615747 74.480026 
L 482.04791 74.480026 
L 482.486335 75.735994 
L 482.913931 75.735994 
L 483.353219 76.621605 
L 484.228983 79.963949 
L 484.666529 79.963949 
L 485.090035 81.334728 
L 485.529474 84.888222 
L 485.958331 84.225787 
L 486.828191 84.225787 
L 487.264929 88.751744 
L 487.705986 88.751744 
L 488.138613 90.872701 
L 488.576115 90.872701 
L 489.00928 92.993671 
L 489.443522 92.993671 
L 490.74407 101.334715 
L 491.176651 105.960944 
L 492.055953 105.960944 
L 492.485314 107.56237 
L 492.920842 110.389156 
L 493.353178 111.977807 
L 493.793684 111.977807 
L 494.659695 110.465574 
L 495.091122 108.691249 
L 495.529289 107.595925 
L 495.959836 105.90964 
L 496.404241 105.90964 
L 497.27643 101.646797 
L 497.710504 101.646797 
L 498.137246 99.046277 
L 498.577187 97.277544 
L 499.008993 94.513727 
L 500.313858 78.365371 
L 500.759644 78.365371 
L 501.179734 71.374355 
L 501.625546 71.374355 
L 502.063256 69.208006 
L 502.486618 69.482127 
L 502.925276 69.28489 
L 503.795647 69.28489 
L 504.225455 69.78074 
L 504.662981 69.380768 
L 505.105665 69.818606 
L 505.538337 71.005376 
L 505.969628 73.554425 
L 507.275933 73.603842 
L 507.704284 73.047761 
L 508.152576 73.741505 
L 509.007987 73.741505 
L 509.44466 74.823795 
L 509.876659 74.823795 
L 510.321219 75.25204 
L 510.752275 77.301737 
L 511.182596 80.566362 
L 511.630931 80.566362 
L 512.052057 92.859787 
L 512.927068 92.859787 
L 513.373247 104.417068 
L 513.805084 109.309713 
L 514.239463 111.284305 
L 514.66168 111.284305 
L 515.099368 127.701288 
L 515.532499 132.21317 
L 515.965373 133.696173 
L 516.836862 143.536343 
L 517.275687 143.536343 
L 518.14143 151.714226 
L 519.88261 154.752529 
L 520.317165 163.322215 
L 521.625337 169.461063 
L 522.926593 169.391331 
L 524.231022 169.272386 
L 525.101399 167.71061 
L 525.539161 166.124751 
L 526.413053 166.124751 
L 526.837771 163.627137 
L 527.272599 128.581323 
L 527.708138 128.581323 
L 528.154788 123.311662 
L 528.580386 123.311662 
L 529.0195 118.682208 
L 529.449398 109.504927 
L 529.881872 109.504927 
L 530.316432 91.581376 
L 530.766108 91.581376 
L 531.185729 90.31073 
L 531.623576 90.31073 
L 532.058752 81.277721 
L 532.503038 81.277721 
L 532.937958 70.899913 
L 533.364587 70.732376 
L 533.797647 68.682843 
L 534.672736 68.682843 
L 535.114858 68.4361 
L 535.550785 67.286741 
L 535.976045 67.649745 
L 536.408237 67.649745 
L 536.843451 68.383011 
L 537.284817 68.875562 
L 537.722794 70.456372 
L 538.148856 71.1014 
L 538.584045 71.356222 
L 539.02147 71.356222 
L 539.453474 72.021114 
L 539.885873 71.137914 
L 540.328377 74.075764 
L 541.240108 74.011859 
L 541.629091 74.011859 
L 541.629091 74.011859 
" clip-path="url(#p39f99b3a80)" style="fill: none; stroke: #1f77b4; stroke-width: 1.5; stroke-linecap: square"/>
   </g>
   <g id="line2d_30">
    <path d="M 70.210909 236.758909 
L 70.639899 235.057615 
L 71.523535 230.292936 
L 71.95076 227.411243 
L 72.385322 226.832021 
L 72.818612 224.013434 
L 74.99186 205.055395 
L 75.860731 197.305011 
L 77.164125 192.187091 
L 78.037574 185.690273 
L 78.903513 178.453277 
L 83.696689 146.379931 
L 85.861238 139.884148 
L 86.300993 138.178005 
L 86.74537 136.964499 
L 87.173905 136.117407 
L 87.601832 135.540274 
L 88.047713 135.311582 
L 89.345534 135.785833 
L 89.792646 136.637118 
L 90.211866 136.637118 
L 90.645835 138.197258 
L 91.092113 138.504012 
L 91.513326 139.304441 
L 93.267146 147.343837 
L 94.123084 152.714057 
L 94.564494 152.949459 
L 95.016004 155.275011 
L 95.442963 156.646334 
L 96.296057 160.774079 
L 96.732796 162.136806 
L 97.168546 162.548022 
L 98.043931 164.594822 
L 98.91179 165.446275 
L 99.341933 165.455665 
L 99.781999 164.920422 
L 101.518794 160.068471 
L 102.823015 154.911207 
L 105.874025 139.783603 
L 106.309024 139.395591 
L 106.739856 139.395591 
L 107.607896 135.032979 
L 108.910085 126.410704 
L 109.343828 126.205463 
L 110.650864 117.245492 
L 111.522356 111.855848 
L 112.83621 105.646035 
L 113.693827 102.814076 
L 114.129476 101.411353 
L 114.563282 100.576019 
L 115.007932 100.242218 
L 115.438063 100.311158 
L 115.869095 100.701415 
L 116.306967 100.874008 
L 116.737729 101.601965 
L 117.177005 102.746647 
L 118.479382 107.621338 
L 118.916402 109.654497 
L 119.797909 115.417964 
L 120.216601 115.417964 
L 121.961827 125.302082 
L 122.391072 126.882206 
L 122.831647 127.559112 
L 123.705874 132.283251 
L 124.136963 134.106705 
L 124.565358 134.419665 
L 125.004871 135.766213 
L 125.87929 138.994069 
L 126.309226 140.233679 
L 126.750921 140.663621 
L 127.617763 140.950069 
L 128.049576 142.212582 
L 128.485617 143.107209 
L 128.916861 143.185448 
L 129.353418 143.79682 
L 131.092932 145.50355 
L 131.525312 145.905841 
L 132.410383 146.311048 
L 132.830144 146.434936 
L 133.26467 146.370374 
L 134.138409 146.081534 
L 134.573523 145.652319 
L 135.003908 145.652319 
L 136.74295 143.383947 
L 137.614363 142.606815 
L 138.06239 142.315259 
L 139.800036 139.824756 
L 140.658627 138.63056 
L 141.100012 138.316014 
L 141.964596 138.256214 
L 142.402856 138.590637 
L 142.838519 138.770338 
L 143.266668 138.818944 
L 143.715481 139.250468 
L 144.143633 139.913629 
L 146.322831 145.147384 
L 146.74927 145.974223 
L 147.184891 146.105409 
L 148.050614 147.158897 
L 148.491759 147.269348 
L 148.922497 146.955377 
L 150.228047 144.210517 
L 151.530646 138.580278 
L 152.836538 130.868009 
L 153.27522 128.264395 
L 153.703042 128.028488 
L 155.445439 119.478113 
L 156.324325 116.779931 
L 156.748512 116.288458 
L 157.623174 114.974561 
L 158.060401 114.888652 
L 158.489302 115.009186 
L 159.357192 115.609368 
L 160.243473 116.553753 
L 161.534671 118.469594 
L 161.965838 118.509541 
L 162.837303 119.28053 
L 163.273905 119.775215 
L 164.150998 120.35591 
L 165.888101 120.976786 
L 166.320673 120.970194 
L 167.206509 120.709267 
L 167.61967 120.709267 
L 168.057463 120.518407 
L 168.496239 120.571571 
L 168.924278 120.42013 
L 169.368279 120.458514 
L 169.795948 120.188517 
L 170.231237 120.07714 
L 170.672491 119.722436 
L 171.974088 119.145856 
L 172.842186 118.264251 
L 173.274314 118.06706 
L 174.146274 117.17689 
L 174.585721 116.761148 
L 175.017049 116.166785 
L 175.448141 115.840603 
L 176.328265 114.590401 
L 177.624289 112.650777 
L 178.057313 112.184941 
L 178.934952 110.858468 
L 180.240118 109.431817 
L 180.680624 109.265026 
L 181.102498 109.411515 
L 181.542838 109.780274 
L 181.976593 109.944889 
L 182.410542 110.402024 
L 183.295292 111.748052 
L 183.714011 112.599087 
L 184.145749 113.186089 
L 184.579869 113.231505 
L 185.458778 114.081141 
L 186.321213 114.499026 
L 186.759916 115.038973 
L 187.189592 115.825522 
L 188.062054 118.075754 
L 188.49466 119.724704 
L 189.365649 121.69732 
L 189.807357 122.314513 
L 190.243267 122.655313 
L 190.671034 122.781637 
L 191.106207 123.061454 
L 191.972795 123.080122 
L 193.713392 122.374637 
L 194.150055 122.320606 
L 194.583714 122.492281 
L 195.018863 122.87279 
L 195.459699 123.711724 
L 195.893321 124.10347 
L 196.321843 124.251848 
L 196.773052 124.611126 
L 197.627001 125.078414 
L 198.496098 126.06733 
L 198.932477 126.126354 
L 201.543254 129.746951 
L 201.977704 129.935386 
L 202.413493 129.88318 
L 203.280799 129.334365 
L 203.721676 128.676251 
L 204.155893 127.636282 
L 205.457808 123.248821 
L 207.194528 117.937812 
L 208.069269 116.181472 
L 208.501373 115.860274 
L 209.370919 115.654253 
L 209.82134 116.143566 
L 210.252065 116.824023 
L 211.543488 120.992672 
L 212.848527 127.870133 
L 215.468718 143.948789 
L 215.895361 147.565151 
L 216.329325 150.131171 
L 216.7621 150.478073 
L 217.631346 155.857542 
L 218.067909 158.76066 
L 219.376192 163.431256 
L 220.241722 167.48429 
L 221.117567 169.282263 
L 221.545336 169.396851 
L 221.988636 169.314445 
L 222.415468 169.066836 
L 222.850968 169.028524 
L 223.286319 168.713981 
L 223.719859 168.141858 
L 224.155229 167.160916 
L 224.602161 165.005488 
L 225.895309 156.693402 
L 228.074223 138.599405 
L 231.551636 102.869154 
L 232.418186 96.271075 
L 232.854789 94.567324 
L 233.290772 93.660981 
L 234.158772 88.546308 
L 234.595846 87.16503 
L 235.028356 86.264305 
L 235.910572 85.977224 
L 236.343136 86.251889 
L 236.774798 87.754862 
L 237.645498 89.723093 
L 238.943433 98.329768 
L 239.376821 99.573841 
L 239.821268 103.941893 
L 240.25485 105.248142 
L 240.705888 107.085294 
L 241.550784 113.720292 
L 241.990638 115.280467 
L 243.736163 135.057527 
L 244.160048 135.474944 
L 245.468238 148.219805 
L 246.345538 152.546528 
L 249.380335 179.01803 
L 260.688552 135.835418 
L 261.123997 132.588435 
L 261.57238 131.215147 
L 261.996011 130.307842 
L 262.434331 129.867562 
L 262.861905 126.894871 
L 267.644715 75.701651 
L 268.080085 72.35957 
L 268.956206 68.229844 
L 270.688865 65.011304 
L 271.123153 64.83477 
L 271.558974 64.945681 
L 272.439328 65.568566 
L 272.862422 65.637822 
L 274.177128 68.005782 
L 274.609802 69.419137 
L 275.909649 72.30092 
L 278.516345 85.132993 
L 278.949772 86.69784 
L 279.820951 92.280734 
L 281.135103 97.476916 
L 281.563022 98.963268 
L 281.999752 100.017256 
L 282.440846 100.590517 
L 282.86729 100.571565 
L 283.737956 100.888266 
L 284.181296 101.594477 
L 285.049076 100.995472 
L 286.354708 100.668563 
L 286.783917 99.996013 
L 288.082807 95.250326 
L 288.520413 93.477622 
L 288.956104 92.855593 
L 289.397149 91.698446 
L 290.268325 87.36718 
L 290.695424 85.694892 
L 292.433012 76.084436 
L 293.310558 73.03447 
L 293.738748 71.856111 
L 294.18432 71.647596 
L 294.608148 72.03327 
L 295.041767 73.262023 
L 295.481065 73.661697 
L 295.912829 74.836851 
L 296.359426 76.605495 
L 297.225727 78.647768 
L 300.694853 94.764636 
L 301.133035 95.91352 
L 301.565539 96.351944 
L 302.002772 97.686965 
L 302.437808 97.817916 
L 304.612346 104.754088 
L 305.047119 105.940747 
L 305.484066 106.737234 
L 306.363939 107.554234 
L 306.786507 107.247324 
L 307.225846 107.610908 
L 307.657772 107.117507 
L 308.096399 107.125283 
L 308.975391 105.101188 
L 309.393953 103.143946 
L 309.82917 101.797652 
L 310.698548 97.047904 
L 312.441688 85.54591 
L 312.874194 84.815382 
L 313.758297 79.732654 
L 314.613746 73.516791 
L 315.923336 67.499598 
L 316.35318 65.982902 
L 316.795531 64.978 
L 317.221212 64.858657 
L 317.657029 64.394261 
L 318.091047 64.542295 
L 318.534701 64.984087 
L 319.401359 64.848519 
L 319.841347 65.391675 
L 320.702744 67.449991 
L 321.135093 68.268891 
L 321.57468 69.66167 
L 322.005803 69.598891 
L 322.448816 70.312919 
L 322.875458 72.196181 
L 323.316569 73.114326 
L 323.744382 73.087108 
L 324.181783 74.053246 
L 324.621318 74.571942 
L 325.486232 76.080387 
L 325.918658 76.350609 
L 326.366308 76.999673 
L 326.79955 77.175915 
L 327.659613 78.288794 
L 328.102959 78.571776 
L 328.529537 78.672162 
L 328.964879 79.037397 
L 329.844582 80.282506 
L 330.706721 82.557283 
L 331.142959 84.106842 
L 332.44251 89.866164 
L 332.886303 90.297888 
L 333.325263 92.708048 
L 333.754275 94.178475 
L 334.621525 95.680621 
L 335.060903 97.525569 
L 335.495636 99.980416 
L 335.921564 100.77436 
L 336.362281 102.549797 
L 336.797567 102.936564 
L 337.275055 104.482176 
L 337.661746 104.619147 
L 338.104134 107.294969 
L 338.538733 108.533044 
L 338.96821 109.221676 
L 340.280837 119.004105 
L 340.711998 120.168883 
L 341.141862 122.026158 
L 341.576088 123.320151 
L 342.012117 125.000534 
L 343.757075 135.858207 
L 344.627544 140.219731 
L 345.488487 143.336623 
L 345.927966 144.099419 
L 346.369775 144.543083 
L 347.229618 144.281935 
L 347.663418 143.957298 
L 348.111144 143.354989 
L 348.533948 142.304327 
L 348.977978 142.176164 
L 349.413002 141.480756 
L 349.84218 141.480756 
L 351.1452 136.243862 
L 354.630246 117.90081 
L 355.502979 112.85261 
L 358.569227 88.356361 
L 358.977751 84.478423 
L 359.404976 83.229404 
L 359.839493 80.845753 
L 360.716633 74.595217 
L 361.589417 69.866883 
L 362.022017 68.458705 
L 362.450342 68.458705 
L 362.885863 67.440204 
L 363.758582 67.060111 
L 364.197443 67.039999 
L 364.630936 67.705212 
L 365.062145 68.710592 
L 365.50198 70.355454 
L 365.930072 70.600268 
L 366.367638 71.294514 
L 367.670629 75.435654 
L 368.974492 80.209971 
L 369.845428 84.216753 
L 375.93632 90.795642 
L 377.237265 84.248892 
L 378.111463 81.686198 
L 378.539645 80.872619 
L 379.410858 78.37021 
L 379.854478 77.639451 
L 380.287179 76.6344 
L 380.720781 75.105738 
L 381.157178 74.285717 
L 381.590935 73.832062 
L 382.020387 73.640838 
L 382.88959 72.400553 
L 383.329683 72.400553 
L 385.065491 69.564495 
L 386.370218 67.661701 
L 386.807386 67.179575 
L 387.674298 66.908443 
L 388.11332 66.970523 
L 388.548701 67.267068 
L 388.9853 67.365063 
L 389.425327 67.812622 
L 390.283868 69.586763 
L 391.586751 73.429274 
L 392.029227 74.459108 
L 392.461148 76.284084 
L 393.33291 81.306347 
L 394.209392 86.105538 
L 395.077442 91.53868 
L 395.944335 97.05578 
L 396.372147 99.750699 
L 396.816782 101.781633 
L 397.240426 101.984778 
L 397.681965 103.742671 
L 398.549499 105.561296 
L 398.981804 105.736529 
L 399.416825 108.3072 
L 399.857117 108.872541 
L 401.154607 114.04761 
L 402.024419 117.265954 
L 402.905551 119.045066 
L 403.332009 119.516345 
L 404.199577 120.655751 
L 404.639943 120.743954 
L 405.069946 120.694702 
L 405.506502 120.410947 
L 406.387632 119.390044 
L 406.808899 118.638187 
L 407.249936 117.617822 
L 407.682344 117.506828 
L 408.549958 114.636757 
L 408.984646 114.636757 
L 409.859429 112.190086 
L 411.160269 107.68031 
L 412.469417 103.614252 
L 412.901063 102.928902 
L 413.337825 102.832742 
L 413.772011 102.423942 
L 414.643461 102.193584 
L 415.072082 102.025817 
L 416.382871 102.237676 
L 416.811339 103.210276 
L 417.679783 106.571338 
L 418.557527 111.22536 
L 420.302121 125.267587 
L 422.03501 140.280652 
L 423.338119 151.440418 
L 424.640787 160.179669 
L 427.248649 175.341579 
L 427.690663 177.096319 
L 428.118117 177.744715 
L 430.729726 192.867915 
L 431.167907 194.564534 
L 432.472072 201.920037 
L 433.33585 205.560071 
L 433.772528 206.696223 
L 434.216429 207.427215 
L 434.641963 206.875492 
L 435.085048 205.694741 
L 435.948491 201.428964 
L 437.26338 191.909911 
L 437.695348 188.501759 
L 439.430421 178.905733 
L 439.869948 177.47429 
L 440.309676 176.798891 
L 440.737624 175.451837 
L 441.165117 175.496063 
L 441.60541 174.733198 
L 442.038051 174.435814 
L 442.469048 174.387743 
L 442.906265 173.957379 
L 443.341781 173.726557 
L 443.786393 173.253465 
L 444.216298 173.035472 
L 444.642994 173.042394 
L 445.514726 173.230096 
L 445.950572 172.918205 
L 446.410494 172.863032 
L 447.68933 173.072196 
L 448.99733 171.235976 
L 449.429199 170.609573 
L 449.872547 170.266994 
L 450.296637 169.724109 
L 452.039509 166.078495 
L 453.35257 163.943859 
L 453.776753 163.654997 
L 454.212308 163.498442 
L 454.653511 163.01648 
L 455.081462 162.790158 
L 455.951304 162.679365 
L 456.826406 162.694825 
L 458.125942 162.500896 
L 458.567908 162.570125 
L 458.998946 162.865442 
L 459.432191 163.528436 
L 460.305656 165.532731 
L 461.175094 168.520748 
L 461.604958 168.520748 
L 462.061676 170.420923 
L 462.480519 170.734732 
L 462.916271 172.354607 
L 463.348649 174.448375 
L 464.221175 176.477344 
L 464.659297 177.839743 
L 465.098509 180.781559 
L 465.953836 185.477584 
L 467.695888 194.888777 
L 471.172872 208.370299 
L 471.606675 209.170743 
L 472.485269 212.44047 
L 472.910411 213.569093 
L 473.353515 213.663996 
L 473.783343 214.314638 
L 474.217507 214.713965 
L 475.96349 215.535551 
L 476.828565 216.558163 
L 477.261943 216.654121 
L 478.130727 217.301923 
L 479.002836 218.371251 
L 480.313287 220.401859 
L 481.17404 221.131114 
L 482.04791 221.168412 
L 482.486335 221.565915 
L 482.913931 220.838146 
L 483.353219 220.419702 
L 484.228983 217.735707 
L 484.666529 216.947879 
L 485.529474 213.852759 
L 485.958331 212.74887 
L 486.409303 210.999619 
L 486.828191 210.999619 
L 487.264929 207.977816 
L 488.138613 205.224266 
L 488.576115 201.881945 
L 489.00928 201.511172 
L 489.881712 193.611033 
L 490.74407 184.106906 
L 491.176651 181.390392 
L 491.6189 179.586724 
L 492.485314 170.606883 
L 495.529289 129.44336 
L 496.404241 116.357065 
L 496.831476 115.203724 
L 497.710504 104.063063 
L 499.875921 77.529823 
L 500.313858 72.966848 
L 501.179734 69.721816 
L 502.063256 62.681118 
L 502.486618 60.404487 
L 502.925276 60.068679 
L 503.355571 58.258721 
L 503.795647 57.455972 
L 504.225455 57.771563 
L 504.662981 58.467086 
L 505.538337 61.706773 
L 506.398453 67.57513 
L 507.704284 77.947856 
L 508.152576 78.338091 
L 508.591287 81.939571 
L 509.007987 82.349321 
L 509.44466 85.707628 
L 511.630931 111.46456 
L 512.052057 111.983145 
L 512.496989 118.210333 
L 512.927068 120.572524 
L 513.805084 130.789585 
L 515.099368 142.099062 
L 515.965373 148.524518 
L 516.403285 150.823031 
L 517.275687 152.91051 
L 518.14143 154.20117 
L 519.88261 150.641779 
L 520.317165 148.253407 
L 521.185471 142.158765 
L 521.625337 141.506637 
L 522.061745 139.489431 
L 522.490072 139.139689 
L 523.799819 125.351288 
L 525.539161 107.485197 
L 526.127015 105.710799 
L 526.837771 99.217894 
L 527.272599 97.619927 
L 528.580386 80.991107 
L 529.0195 79.905699 
L 529.449398 75.772796 
L 529.881872 74.002586 
L 530.766108 68.489468 
L 531.185729 68.175761 
L 531.623576 64.188729 
L 532.058752 61.274951 
L 532.937958 57.852002 
L 533.364587 56.461858 
L 533.797647 56.461858 
L 534.233179 55.197155 
L 534.672736 54.440323 
L 535.114858 54.18686 
L 535.550785 54.513974 
L 536.408237 57.324129 
L 536.843451 59.270949 
L 537.722794 65.161343 
L 539.453474 80.595339 
L 540.328377 90.279486 
L 540.753244 90.643165 
L 541.240108 94.660155 
L 541.629091 98.862844 
L 541.629091 98.862844 
" clip-path="url(#p39f99b3a80)" style="fill: none; stroke-dasharray: 5.55,2.4; stroke-dashoffset: 0; stroke: #ff7f0e; stroke-width: 1.5"/>
   </g>
   <g id="patch_3">
    <path d="M 46.64 246.04 
L 46.64 41.856 
" style="fill: none; stroke: #000000; stroke-width: 0.8; stroke-linejoin: miter; stroke-linecap: square"/>
   </g>
   <g id="patch_4">
    <path d="M 565.2 246.04 
L 565.2 41.856 
" style="fill: none; stroke: #000000; stroke-width: 0.8; stroke-linejoin: miter; stroke-linecap: square"/>
   </g>
   <g id="patch_5">
    <path d="M 46.64 246.04 
L 565.2 246.04 
" style="fill: none; stroke: #000000; stroke-width: 0.8; stroke-linejoin: miter; stroke-linecap: square"/>
   </g>
   <g id="patch_6">
    <path d="M 46.64 41.856 
L 565.2 41.856 
" style="fill: none; stroke: #000000; stroke-width: 0.8; stroke-linejoin: miter; stroke-linecap: square"/>
   </g>
   <g id="text_17">
    <!-- Tracking Errors Over Time -->
    <g transform="translate(228.363437 22.418625) scale(0.12 -0.12)">
     <defs>
      <path id="DejaVuSans-61" d="M 2194 1759 
Q 1497 1759 1228 1600 
Q 959 1441 959 1056 
Q 959 750 1161 570 
Q 1363 391 1709 391 
Q 2188 391 2477 730 
Q 2766 1069 2766 1631 
L 2766 1759 
L 2194 1759 
z
M 3341 1997 
L 3341 0 
L 2766 0 
L 2766 531 
Q 2569 213 2275 61 
Q 1981 -91 1556 -91 
Q 1019 -91 701 211 
Q 384 513 384 1019 
Q 384 1609 779 1909 
Q 1175 2209 1959 2209 
L 2766 2209 
L 2766 2266 
Q 2766 2663 2505 2880 
Q 2244 3097 1772 3097 
Q 1472 3097 1187 3025 
Q 903 2953 641 2809 
L 641 3341 
Q 956 3463 1253 3523 
Q 1550 3584 1831 3584 
Q 2591 3584 2966 3190 
Q 3341 2797 3341 1997 
z
" transform="scale(0.015625)"/>
      <path id="DejaVuSans-63" d="M 3122 3366 
L 3122 2828 
Q 2878 2963 2633 3030 
Q 2388 3097 2138 3097 
Q 1578 3097 1268 2742 
Q 959 2388 959 1747 
Q 959 1106 1268 751 
Q 1578 397 2138 397 
Q 2388 397 2633 464 
Q 2878 531 3122 666 
L 3122 134 
Q 2881 22 2623 -34 
Q 2366 -91 2075 -91 
Q 1284 -91 818 406 
Q 353 903 353 1747 
Q 353 2603 823 3093 
Q 1294 3584 2113 3584 
Q 2378 3584 2631 3529 
Q 2884 3475 3122 3366 
z
" transform="scale(0.015625)"/>
      <path id="DejaVuSans-6b" d="M 581 4863 
L 1159 4863 
L 1159 1991 
L 2875 3500 
L 3609 3500 
L 1753 1863 
L 3688 0 
L 2938 0 
L 1159 1709 
L 1159 0 
L 581 0 
L 581 4863 
z
" transform="scale(0.015625)"/>
      <path id="DejaVuSans-6e" d="M 3513 2113 
L 3513 0 
L 2938 0 
L 2938 2094 
Q 2938 2591 2744 2837 
Q 2550 3084 2163 3084 
Q 1697 3084 1428 2787 
Q 1159 2491 1159 1978 
L 1159 0 
L 581 0 
L 581 3500 
L 1159 3500 
L 1159 2956 
Q 1366 3272 1645 3428 
Q 1925 3584 2291 3584 
Q 2894 3584 3203 3211 
Q 3513 2838 3513 2113 
z
" transform="scale(0.015625)"/>
      <path id="DejaVuSans-67" d="M 2906 1791 
Q 2906 2416 2648 2759 
Q 2391 3103 1925 3103 
Q 1463 3103 1205 2759 
Q 947 2416 947 1791 
Q 947 1169 1205 825 
Q 1463 481 1925 481 
Q 2391 481 2648 825 
Q 2906 1169 2906 1791 
z
M 3481 434 
Q 3481 -459 3084 -895 
Q 2688 -1331 1869 -1331 
Q 1566 -1331 1297 -1286 
Q 1028 -1241 775 -1147 
L 775 -588 
Q 1028 -725 1275 -790 
Q 1522 -856 1778 -856 
Q 2344 -856 2625 -561 
Q 2906 -266 2906 331 
L 2906 616 
Q 2728 306 2450 153 
Q 2172 0 1784 0 
Q 1141 0 747 490 
Q 353 981 353 1791 
Q 353 2603 747 3093 
Q 1141 3584 1784 3584 
Q 2172 3584 2450 3431 
Q 2728 3278 2906 2969 
L 2906 3500 
L 3481 3500 
L 3481 434 
z
" transform="scale(0.015625)"/>
      <path id="DejaVuSans-4f" d="M 2522 4238 
Q 1834 4238 1429 3725 
Q 1025 3213 1025 2328 
Q 1025 1447 1429 934 
Q 1834 422 2522 422 
Q 3209 422 3611 934 
Q 4013 1447 4013 2328 
Q 4013 3213 3611 3725 
Q 3209 4238 2522 4238 
z
M 2522 4750 
Q 3503 4750 4090 4092 
Q 4678 3434 4678 2328 
Q 4678 1225 4090 567 
Q 3503 -91 2522 -91 
Q 1538 -91 948 565 
Q 359 1222 359 2328 
Q 359 3434 948 4092 
Q 1538 4750 2522 4750 
z
" transform="scale(0.015625)"/>
      <path id="DejaVuSans-76" d="M 191 3500 
L 800 3500 
L 1894 563 
L 2988 3500 
L 3597 3500 
L 2284 0 
L 1503 0 
L 191 3500 
z
" transform="scale(0.015625)"/>
     </defs>
     <use xlink:href="#DejaVuSans-54"/>
     <use xlink:href="#DejaVuSans-72" x="46.333984"/>
     <use xlink:href="#DejaVuSans-61" x="87.447266"/>
     <use xlink:href="#DejaVuSans-63" x="148.726562"/>
     <use xlink:href="#DejaVuSans-6b" x="203.707031"/>
     <use xlink:href="#DejaVuSans-69" x="261.617188"/>
     <use xlink:href="#DejaVuSans-6e" x="289.400391"/>
     <use xlink:href="#DejaVuSans-67" x="352.779297"/>
     <use xlink:href="#DejaVuSans-20" x="416.255859"/>
     <use xlink:href="#DejaVuSans-45" x="448.042969"/>
     <use xlink:href="#DejaVuSans-72" x="511.226562"/>
     <use xlink:href="#DejaVuSans-72" x="550.589844"/>
     <use xlink:href="#DejaVuSans-6f" x="589.453125"/>
     <use xlink:href="#DejaVuSans-72" x="650.634766"/>
     <use xlink:href="#DejaVuSans-73" x="691.748047"/>
     <use xlink:href="#DejaVuSans-20" x="743.847656"/>
     <use xlink:href="#DejaVuSans-4f" x="775.634766"/>
     <use xlink:href="#DejaVuSans-76" x="854.345703"/>
     <use xlink:href="#DejaVuSans-65" x="913.525391"/>
     <use xlink:href="#DejaVuSans-72" x="975.048828"/>
     <use xlink:href="#DejaVuSans-20" x="1016.162109"/>
     <use xlink:href="#DejaVuSans-54" x="1047.949219"/>
     <use xlink:href="#DejaVuSans-69" x="1105.908203"/>
     <use xlink:href="#DejaVuSans-6d" x="1133.691406"/>
     <use xlink:href="#DejaVuSans-65" x="1231.103516"/>
    </g>
    <!-- mode: bbox, disired distance: 3m -->
    <g transform="translate(205.486562 35.856) scale(0.12 -0.12)">
     <defs>
      <path id="DejaVuSans-64" d="M 2906 2969 
L 2906 4863 
L 3481 4863 
L 3481 0 
L 2906 0 
L 2906 525 
Q 2725 213 2448 61 
Q 2172 -91 1784 -91 
Q 1150 -91 751 415 
Q 353 922 353 1747 
Q 353 2572 751 3078 
Q 1150 3584 1784 3584 
Q 2172 3584 2448 3432 
Q 2725 3281 2906 2969 
z
M 947 1747 
Q 947 1113 1208 752 
Q 1469 391 1925 391 
Q 2381 391 2643 752 
Q 2906 1113 2906 1747 
Q 2906 2381 2643 2742 
Q 2381 3103 1925 3103 
Q 1469 3103 1208 2742 
Q 947 2381 947 1747 
z
" transform="scale(0.015625)"/>
      <path id="DejaVuSans-3a" d="M 750 794 
L 1409 794 
L 1409 0 
L 750 0 
L 750 794 
z
M 750 3309 
L 1409 3309 
L 1409 2516 
L 750 2516 
L 750 3309 
z
" transform="scale(0.015625)"/>
      <path id="DejaVuSans-62" d="M 3116 1747 
Q 3116 2381 2855 2742 
Q 2594 3103 2138 3103 
Q 1681 3103 1420 2742 
Q 1159 2381 1159 1747 
Q 1159 1113 1420 752 
Q 1681 391 2138 391 
Q 2594 391 2855 752 
Q 3116 1113 3116 1747 
z
M 1159 2969 
Q 1341 3281 1617 3432 
Q 1894 3584 2278 3584 
Q 2916 3584 3314 3078 
Q 3713 2572 3713 1747 
Q 3713 922 3314 415 
Q 2916 -91 2278 -91 
Q 1894 -91 1617 61 
Q 1341 213 1159 525 
L 1159 0 
L 581 0 
L 581 4863 
L 1159 4863 
L 1159 2969 
z
" transform="scale(0.015625)"/>
      <path id="DejaVuSans-78" d="M 3513 3500 
L 2247 1797 
L 3578 0 
L 2900 0 
L 1881 1375 
L 863 0 
L 184 0 
L 1544 1831 
L 300 3500 
L 978 3500 
L 1906 2253 
L 2834 3500 
L 3513 3500 
z
" transform="scale(0.015625)"/>
      <path id="DejaVuSans-2c" d="M 750 794 
L 1409 794 
L 1409 256 
L 897 -744 
L 494 -744 
L 750 256 
L 750 794 
z
" transform="scale(0.015625)"/>
      <path id="DejaVuSans-74" d="M 1172 4494 
L 1172 3500 
L 2356 3500 
L 2356 3053 
L 1172 3053 
L 1172 1153 
Q 1172 725 1289 603 
Q 1406 481 1766 481 
L 2356 481 
L 2356 0 
L 1766 0 
Q 1100 0 847 248 
Q 594 497 594 1153 
L 594 3053 
L 172 3053 
L 172 3500 
L 594 3500 
L 594 4494 
L 1172 4494 
z
" transform="scale(0.015625)"/>
     </defs>
     <use xlink:href="#DejaVuSans-6d"/>
     <use xlink:href="#DejaVuSans-6f" x="97.412109"/>
     <use xlink:href="#DejaVuSans-64" x="158.59375"/>
     <use xlink:href="#DejaVuSans-65" x="222.070312"/>
     <use xlink:href="#DejaVuSans-3a" x="283.59375"/>
     <use xlink:href="#DejaVuSans-20" x="317.285156"/>
     <use xlink:href="#DejaVuSans-62" x="349.072266"/>
     <use xlink:href="#DejaVuSans-62" x="412.548828"/>
     <use xlink:href="#DejaVuSans-6f" x="476.025391"/>
     <use xlink:href="#DejaVuSans-78" x="534.082031"/>
     <use xlink:href="#DejaVuSans-2c" x="593.261719"/>
     <use xlink:href="#DejaVuSans-20" x="625.048828"/>
     <use xlink:href="#DejaVuSans-64" x="656.835938"/>
     <use xlink:href="#DejaVuSans-69" x="720.3125"/>
     <use xlink:href="#DejaVuSans-73" x="748.095703"/>
     <use xlink:href="#DejaVuSans-69" x="800.195312"/>
     <use xlink:href="#DejaVuSans-72" x="827.978516"/>
     <use xlink:href="#DejaVuSans-65" x="866.841797"/>
     <use xlink:href="#DejaVuSans-64" x="928.365234"/>
     <use xlink:href="#DejaVuSans-20" x="991.841797"/>
     <use xlink:href="#DejaVuSans-64" x="1023.628906"/>
     <use xlink:href="#DejaVuSans-69" x="1087.105469"/>
     <use xlink:href="#DejaVuSans-73" x="1114.888672"/>
     <use xlink:href="#DejaVuSans-74" x="1166.988281"/>
     <use xlink:href="#DejaVuSans-61" x="1206.197266"/>
     <use xlink:href="#DejaVuSans-6e" x="1267.476562"/>
     <use xlink:href="#DejaVuSans-63" x="1330.855469"/>
     <use xlink:href="#DejaVuSans-65" x="1385.835938"/>
     <use xlink:href="#DejaVuSans-3a" x="1447.359375"/>
     <use xlink:href="#DejaVuSans-20" x="1481.050781"/>
     <use xlink:href="#DejaVuSans-33" x="1512.837891"/>
     <use xlink:href="#DejaVuSans-6d" x="1576.460938"/>
    </g>
   </g>
   <g id="legend_1">
    <g id="patch_7">
     <path d="M 243.673125 241.04 
L 368.166875 241.04 
Q 370.166875 241.04 370.166875 239.04 
L 370.166875 210.68375 
Q 370.166875 208.68375 368.166875 208.68375 
L 243.673125 208.68375 
Q 241.673125 208.68375 241.673125 210.68375 
L 241.673125 239.04 
Q 241.673125 241.04 243.673125 241.04 
z
" style="fill: #ffffff; opacity: 0.8; stroke: #cccccc; stroke-linejoin: miter"/>
    </g>
    <g id="line2d_31">
     <path d="M 245.673125 216.782187 
L 255.673125 216.782187 
L 265.673125 216.782187 
" style="fill: none; stroke: #1f77b4; stroke-width: 1.5; stroke-linecap: square"/>
    </g>
    <g id="text_18">
     <!-- Forward Error -->
     <g transform="translate(273.673125 220.282187) scale(0.1 -0.1)">
      <defs>
       <path id="DejaVuSans-46" d="M 628 4666 
L 3309 4666 
L 3309 4134 
L 1259 4134 
L 1259 2759 
L 3109 2759 
L 3109 2228 
L 1259 2228 
L 1259 0 
L 628 0 
L 628 4666 
z
" transform="scale(0.015625)"/>
       <path id="DejaVuSans-77" d="M 269 3500 
L 844 3500 
L 1563 769 
L 2278 3500 
L 2956 3500 
L 3675 769 
L 4391 3500 
L 4966 3500 
L 4050 0 
L 3372 0 
L 2619 2869 
L 1863 0 
L 1184 0 
L 269 3500 
z
" transform="scale(0.015625)"/>
      </defs>
      <use xlink:href="#DejaVuSans-46"/>
      <use xlink:href="#DejaVuSans-6f" x="53.894531"/>
      <use xlink:href="#DejaVuSans-72" x="115.076172"/>
      <use xlink:href="#DejaVuSans-77" x="156.189453"/>
      <use xlink:href="#DejaVuSans-61" x="237.976562"/>
      <use xlink:href="#DejaVuSans-72" x="299.255859"/>
      <use xlink:href="#DejaVuSans-64" x="338.619141"/>
      <use xlink:href="#DejaVuSans-20" x="402.095703"/>
      <use xlink:href="#DejaVuSans-45" x="433.882812"/>
      <use xlink:href="#DejaVuSans-72" x="497.066406"/>
      <use xlink:href="#DejaVuSans-72" x="536.429688"/>
      <use xlink:href="#DejaVuSans-6f" x="575.292969"/>
      <use xlink:href="#DejaVuSans-72" x="636.474609"/>
     </g>
    </g>
    <g id="line2d_32">
     <path d="M 245.673125 231.460312 
L 255.673125 231.460312 
L 265.673125 231.460312 
" style="fill: none; stroke-dasharray: 5.55,2.4; stroke-dashoffset: 0; stroke: #ff7f0e; stroke-width: 1.5"/>
    </g>
    <g id="text_19">
     <!-- Real Forward Error -->
     <g transform="translate(273.673125 234.960312) scale(0.1 -0.1)">
      <defs>
       <path id="DejaVuSans-52" d="M 2841 2188 
Q 3044 2119 3236 1894 
Q 3428 1669 3622 1275 
L 4263 0 
L 3584 0 
L 2988 1197 
Q 2756 1666 2539 1819 
Q 2322 1972 1947 1972 
L 1259 1972 
L 1259 0 
L 628 0 
L 628 4666 
L 2053 4666 
Q 2853 4666 3247 4331 
Q 3641 3997 3641 3322 
Q 3641 2881 3436 2590 
Q 3231 2300 2841 2188 
z
M 1259 4147 
L 1259 2491 
L 2053 2491 
Q 2509 2491 2742 2702 
Q 2975 2913 2975 3322 
Q 2975 3731 2742 3939 
Q 2509 4147 2053 4147 
L 1259 4147 
z
" transform="scale(0.015625)"/>
       <path id="DejaVuSans-6c" d="M 603 4863 
L 1178 4863 
L 1178 0 
L 603 0 
L 603 4863 
z
" transform="scale(0.015625)"/>
      </defs>
      <use xlink:href="#DejaVuSans-52"/>
      <use xlink:href="#DejaVuSans-65" x="64.982422"/>
      <use xlink:href="#DejaVuSans-61" x="126.505859"/>
      <use xlink:href="#DejaVuSans-6c" x="187.785156"/>
      <use xlink:href="#DejaVuSans-20" x="215.568359"/>
      <use xlink:href="#DejaVuSans-46" x="247.355469"/>
      <use xlink:href="#DejaVuSans-6f" x="301.25"/>
      <use xlink:href="#DejaVuSans-72" x="362.431641"/>
      <use xlink:href="#DejaVuSans-77" x="403.544922"/>
      <use xlink:href="#DejaVuSans-61" x="485.332031"/>
      <use xlink:href="#DejaVuSans-72" x="546.611328"/>
      <use xlink:href="#DejaVuSans-64" x="585.974609"/>
      <use xlink:href="#DejaVuSans-20" x="649.451172"/>
      <use xlink:href="#DejaVuSans-45" x="681.238281"/>
      <use xlink:href="#DejaVuSans-72" x="744.421875"/>
      <use xlink:href="#DejaVuSans-72" x="783.785156"/>
      <use xlink:href="#DejaVuSans-6f" x="822.648438"/>
      <use xlink:href="#DejaVuSans-72" x="883.830078"/>
     </g>
    </g>
   </g>
  </g>
 </g>
 <defs>
  <clipPath id="p39f99b3a80">
   <rect x="46.64" y="41.856" width="518.56" height="204.184"/>
  </clipPath>
 </defs>
</svg>
