<?xml version="1.0" encoding="utf-8" standalone="no"?>
<!DOCTYPE svg PUBLIC "-//W3C//DTD SVG 1.1//EN"
  "http://www.w3.org/Graphics/SVG/1.1/DTD/svg11.dtd">
<svg xmlns:xlink="http://www.w3.org/1999/xlink" width="576pt" height="288pt" viewBox="0 0 576 288" xmlns="http://www.w3.org/2000/svg" version="1.1">
 <metadata>
  <rdf:RDF xmlns:dc="http://purl.org/dc/elements/1.1/" xmlns:cc="http://creativecommons.org/ns#" xmlns:rdf="http://www.w3.org/1999/02/22-rdf-syntax-ns#">
   <cc:Work>
    <dc:type rdf:resource="http://purl.org/dc/dcmitype/StillImage"/>
    <dc:date>2025-04-04T22:28:36.311849</dc:date>
    <dc:format>image/svg+xml</dc:format>
    <dc:creator>
     <cc:Agent>
      <dc:title>Matplotlib v3.7.5, https://matplotlib.org/</dc:title>
     </cc:Agent>
    </dc:creator>
   </cc:Work>
  </rdf:RDF>
 </metadata>
 <defs>
  <style type="text/css">*{stroke-linejoin: round; stroke-linecap: butt}</style>
 </defs>
 <g id="figure_1">
  <g id="patch_1">
   <path d="M 0 288 
L 576 288 
L 576 0 
L 0 0 
z
" style="fill: #ffffff"/>
  </g>
  <g id="axes_1">
   <g id="patch_2">
    <path d="M 46.64 246.04 
L 564.2507 246.04 
L 564.2507 41.856 
L 46.64 41.856 
z
" style="fill: #ffffff"/>
   </g>
   <g id="matplotlib.axis_1">
    <g id="xtick_1">
     <g id="line2d_1">
      <path d="M 49.333419 246.04 
L 49.333419 41.856 
" clip-path="url(#p3e7221bab8)" style="fill: none; stroke: #b0b0b0; stroke-width: 0.8; stroke-linecap: square"/>
     </g>
     <g id="line2d_2">
      <defs>
       <path id="m5c094a6c6c" d="M 0 0 
L 0 3.5 
" style="stroke: #000000; stroke-width: 0.8"/>
      </defs>
      <g>
       <use xlink:href="#m5c094a6c6c" x="49.333419" y="246.04" style="stroke: #000000; stroke-width: 0.8"/>
      </g>
     </g>
     <g id="text_1">
      <!-- 0 -->
      <g transform="translate(46.152169 260.638438) scale(0.1 -0.1)">
       <defs>
        <path id="DejaVuSans-30" d="M 2034 4250 
Q 1547 4250 1301 3770 
Q 1056 3291 1056 2328 
Q 1056 1369 1301 889 
Q 1547 409 2034 409 
Q 2525 409 2770 889 
Q 3016 1369 3016 2328 
Q 3016 3291 2770 3770 
Q 2525 4250 2034 4250 
z
M 2034 4750 
Q 2819 4750 3233 4129 
Q 3647 3509 3647 2328 
Q 3647 1150 3233 529 
Q 2819 -91 2034 -91 
Q 1250 -91 836 529 
Q 422 1150 422 2328 
Q 422 3509 836 4129 
Q 1250 4750 2034 4750 
z
" transform="scale(0.015625)"/>
       </defs>
       <use xlink:href="#DejaVuSans-30"/>
      </g>
     </g>
    </g>
    <g id="xtick_2">
     <g id="line2d_3">
      <path d="M 112.452941 246.04 
L 112.452941 41.856 
" clip-path="url(#p3e7221bab8)" style="fill: none; stroke: #b0b0b0; stroke-width: 0.8; stroke-linecap: square"/>
     </g>
     <g id="line2d_4">
      <g>
       <use xlink:href="#m5c094a6c6c" x="112.452941" y="246.04" style="stroke: #000000; stroke-width: 0.8"/>
      </g>
     </g>
     <g id="text_2">
      <!-- 20 -->
      <g transform="translate(106.090441 260.638438) scale(0.1 -0.1)">
       <defs>
        <path id="DejaVuSans-32" d="M 1228 531 
L 3431 531 
L 3431 0 
L 469 0 
L 469 531 
Q 828 903 1448 1529 
Q 2069 2156 2228 2338 
Q 2531 2678 2651 2914 
Q 2772 3150 2772 3378 
Q 2772 3750 2511 3984 
Q 2250 4219 1831 4219 
Q 1534 4219 1204 4116 
Q 875 4013 500 3803 
L 500 4441 
Q 881 4594 1212 4672 
Q 1544 4750 1819 4750 
Q 2544 4750 2975 4387 
Q 3406 4025 3406 3419 
Q 3406 3131 3298 2873 
Q 3191 2616 2906 2266 
Q 2828 2175 2409 1742 
Q 1991 1309 1228 531 
z
" transform="scale(0.015625)"/>
       </defs>
       <use xlink:href="#DejaVuSans-32"/>
       <use xlink:href="#DejaVuSans-30" x="63.623047"/>
      </g>
     </g>
    </g>
    <g id="xtick_3">
     <g id="line2d_5">
      <path d="M 175.572462 246.04 
L 175.572462 41.856 
" clip-path="url(#p3e7221bab8)" style="fill: none; stroke: #b0b0b0; stroke-width: 0.8; stroke-linecap: square"/>
     </g>
     <g id="line2d_6">
      <g>
       <use xlink:href="#m5c094a6c6c" x="175.572462" y="246.04" style="stroke: #000000; stroke-width: 0.8"/>
      </g>
     </g>
     <g id="text_3">
      <!-- 40 -->
      <g transform="translate(169.209962 260.638438) scale(0.1 -0.1)">
       <defs>
        <path id="DejaVuSans-34" d="M 2419 4116 
L 825 1625 
L 2419 1625 
L 2419 4116 
z
M 2253 4666 
L 3047 4666 
L 3047 1625 
L 3713 1625 
L 3713 1100 
L 3047 1100 
L 3047 0 
L 2419 0 
L 2419 1100 
L 313 1100 
L 313 1709 
L 2253 4666 
z
" transform="scale(0.015625)"/>
       </defs>
       <use xlink:href="#DejaVuSans-34"/>
       <use xlink:href="#DejaVuSans-30" x="63.623047"/>
      </g>
     </g>
    </g>
    <g id="xtick_4">
     <g id="line2d_7">
      <path d="M 238.691984 246.04 
L 238.691984 41.856 
" clip-path="url(#p3e7221bab8)" style="fill: none; stroke: #b0b0b0; stroke-width: 0.8; stroke-linecap: square"/>
     </g>
     <g id="line2d_8">
      <g>
       <use xlink:href="#m5c094a6c6c" x="238.691984" y="246.04" style="stroke: #000000; stroke-width: 0.8"/>
      </g>
     </g>
     <g id="text_4">
      <!-- 60 -->
      <g transform="translate(232.329484 260.638438) scale(0.1 -0.1)">
       <defs>
        <path id="DejaVuSans-36" d="M 2113 2584 
Q 1688 2584 1439 2293 
Q 1191 2003 1191 1497 
Q 1191 994 1439 701 
Q 1688 409 2113 409 
Q 2538 409 2786 701 
Q 3034 994 3034 1497 
Q 3034 2003 2786 2293 
Q 2538 2584 2113 2584 
z
M 3366 4563 
L 3366 3988 
Q 3128 4100 2886 4159 
Q 2644 4219 2406 4219 
Q 1781 4219 1451 3797 
Q 1122 3375 1075 2522 
Q 1259 2794 1537 2939 
Q 1816 3084 2150 3084 
Q 2853 3084 3261 2657 
Q 3669 2231 3669 1497 
Q 3669 778 3244 343 
Q 2819 -91 2113 -91 
Q 1303 -91 875 529 
Q 447 1150 447 2328 
Q 447 3434 972 4092 
Q 1497 4750 2381 4750 
Q 2619 4750 2861 4703 
Q 3103 4656 3366 4563 
z
" transform="scale(0.015625)"/>
       </defs>
       <use xlink:href="#DejaVuSans-36"/>
       <use xlink:href="#DejaVuSans-30" x="63.623047"/>
      </g>
     </g>
    </g>
    <g id="xtick_5">
     <g id="line2d_9">
      <path d="M 301.811506 246.04 
L 301.811506 41.856 
" clip-path="url(#p3e7221bab8)" style="fill: none; stroke: #b0b0b0; stroke-width: 0.8; stroke-linecap: square"/>
     </g>
     <g id="line2d_10">
      <g>
       <use xlink:href="#m5c094a6c6c" x="301.811506" y="246.04" style="stroke: #000000; stroke-width: 0.8"/>
      </g>
     </g>
     <g id="text_5">
      <!-- 80 -->
      <g transform="translate(295.449006 260.638438) scale(0.1 -0.1)">
       <defs>
        <path id="DejaVuSans-38" d="M 2034 2216 
Q 1584 2216 1326 1975 
Q 1069 1734 1069 1313 
Q 1069 891 1326 650 
Q 1584 409 2034 409 
Q 2484 409 2743 651 
Q 3003 894 3003 1313 
Q 3003 1734 2745 1975 
Q 2488 2216 2034 2216 
z
M 1403 2484 
Q 997 2584 770 2862 
Q 544 3141 544 3541 
Q 544 4100 942 4425 
Q 1341 4750 2034 4750 
Q 2731 4750 3128 4425 
Q 3525 4100 3525 3541 
Q 3525 3141 3298 2862 
Q 3072 2584 2669 2484 
Q 3125 2378 3379 2068 
Q 3634 1759 3634 1313 
Q 3634 634 3220 271 
Q 2806 -91 2034 -91 
Q 1263 -91 848 271 
Q 434 634 434 1313 
Q 434 1759 690 2068 
Q 947 2378 1403 2484 
z
M 1172 3481 
Q 1172 3119 1398 2916 
Q 1625 2713 2034 2713 
Q 2441 2713 2670 2916 
Q 2900 3119 2900 3481 
Q 2900 3844 2670 4047 
Q 2441 4250 2034 4250 
Q 1625 4250 1398 4047 
Q 1172 3844 1172 3481 
z
" transform="scale(0.015625)"/>
       </defs>
       <use xlink:href="#DejaVuSans-38"/>
       <use xlink:href="#DejaVuSans-30" x="63.623047"/>
      </g>
     </g>
    </g>
    <g id="xtick_6">
     <g id="line2d_11">
      <path d="M 364.931028 246.04 
L 364.931028 41.856 
" clip-path="url(#p3e7221bab8)" style="fill: none; stroke: #b0b0b0; stroke-width: 0.8; stroke-linecap: square"/>
     </g>
     <g id="line2d_12">
      <g>
       <use xlink:href="#m5c094a6c6c" x="364.931028" y="246.04" style="stroke: #000000; stroke-width: 0.8"/>
      </g>
     </g>
     <g id="text_6">
      <!-- 100 -->
      <g transform="translate(355.387278 260.638438) scale(0.1 -0.1)">
       <defs>
        <path id="DejaVuSans-31" d="M 794 531 
L 1825 531 
L 1825 4091 
L 703 3866 
L 703 4441 
L 1819 4666 
L 2450 4666 
L 2450 531 
L 3481 531 
L 3481 0 
L 794 0 
L 794 531 
z
" transform="scale(0.015625)"/>
       </defs>
       <use xlink:href="#DejaVuSans-31"/>
       <use xlink:href="#DejaVuSans-30" x="63.623047"/>
       <use xlink:href="#DejaVuSans-30" x="127.246094"/>
      </g>
     </g>
    </g>
    <g id="xtick_7">
     <g id="line2d_13">
      <path d="M 428.050549 246.04 
L 428.050549 41.856 
" clip-path="url(#p3e7221bab8)" style="fill: none; stroke: #b0b0b0; stroke-width: 0.8; stroke-linecap: square"/>
     </g>
     <g id="line2d_14">
      <g>
       <use xlink:href="#m5c094a6c6c" x="428.050549" y="246.04" style="stroke: #000000; stroke-width: 0.8"/>
      </g>
     </g>
     <g id="text_7">
      <!-- 120 -->
      <g transform="translate(418.506799 260.638438) scale(0.1 -0.1)">
       <use xlink:href="#DejaVuSans-31"/>
       <use xlink:href="#DejaVuSans-32" x="63.623047"/>
       <use xlink:href="#DejaVuSans-30" x="127.246094"/>
      </g>
     </g>
    </g>
    <g id="xtick_8">
     <g id="line2d_15">
      <path d="M 491.170071 246.04 
L 491.170071 41.856 
" clip-path="url(#p3e7221bab8)" style="fill: none; stroke: #b0b0b0; stroke-width: 0.8; stroke-linecap: square"/>
     </g>
     <g id="line2d_16">
      <g>
       <use xlink:href="#m5c094a6c6c" x="491.170071" y="246.04" style="stroke: #000000; stroke-width: 0.8"/>
      </g>
     </g>
     <g id="text_8">
      <!-- 140 -->
      <g transform="translate(481.626321 260.638438) scale(0.1 -0.1)">
       <use xlink:href="#DejaVuSans-31"/>
       <use xlink:href="#DejaVuSans-34" x="63.623047"/>
       <use xlink:href="#DejaVuSans-30" x="127.246094"/>
      </g>
     </g>
    </g>
    <g id="xtick_9">
     <g id="line2d_17">
      <path d="M 554.289593 246.04 
L 554.289593 41.856 
" clip-path="url(#p3e7221bab8)" style="fill: none; stroke: #b0b0b0; stroke-width: 0.8; stroke-linecap: square"/>
     </g>
     <g id="line2d_18">
      <g>
       <use xlink:href="#m5c094a6c6c" x="554.289593" y="246.04" style="stroke: #000000; stroke-width: 0.8"/>
      </g>
     </g>
     <g id="text_9">
      <!-- 160 -->
      <g transform="translate(544.745843 260.638438) scale(0.1 -0.1)">
       <use xlink:href="#DejaVuSans-31"/>
       <use xlink:href="#DejaVuSans-36" x="63.623047"/>
       <use xlink:href="#DejaVuSans-30" x="127.246094"/>
      </g>
     </g>
    </g>
    <g id="text_10">
     <!-- Time (s) -->
     <g transform="translate(285.116444 274.316562) scale(0.1 -0.1)">
      <defs>
       <path id="DejaVuSans-54" d="M -19 4666 
L 3928 4666 
L 3928 4134 
L 2272 4134 
L 2272 0 
L 1638 0 
L 1638 4134 
L -19 4134 
L -19 4666 
z
" transform="scale(0.015625)"/>
       <path id="DejaVuSans-69" d="M 603 3500 
L 1178 3500 
L 1178 0 
L 603 0 
L 603 3500 
z
M 603 4863 
L 1178 4863 
L 1178 4134 
L 603 4134 
L 603 4863 
z
" transform="scale(0.015625)"/>
       <path id="DejaVuSans-6d" d="M 3328 2828 
Q 3544 3216 3844 3400 
Q 4144 3584 4550 3584 
Q 5097 3584 5394 3201 
Q 5691 2819 5691 2113 
L 5691 0 
L 5113 0 
L 5113 2094 
Q 5113 2597 4934 2840 
Q 4756 3084 4391 3084 
Q 3944 3084 3684 2787 
Q 3425 2491 3425 1978 
L 3425 0 
L 2847 0 
L 2847 2094 
Q 2847 2600 2669 2842 
Q 2491 3084 2119 3084 
Q 1678 3084 1418 2786 
Q 1159 2488 1159 1978 
L 1159 0 
L 581 0 
L 581 3500 
L 1159 3500 
L 1159 2956 
Q 1356 3278 1631 3431 
Q 1906 3584 2284 3584 
Q 2666 3584 2933 3390 
Q 3200 3197 3328 2828 
z
" transform="scale(0.015625)"/>
       <path id="DejaVuSans-65" d="M 3597 1894 
L 3597 1613 
L 953 1613 
Q 991 1019 1311 708 
Q 1631 397 2203 397 
Q 2534 397 2845 478 
Q 3156 559 3463 722 
L 3463 178 
Q 3153 47 2828 -22 
Q 2503 -91 2169 -91 
Q 1331 -91 842 396 
Q 353 884 353 1716 
Q 353 2575 817 3079 
Q 1281 3584 2069 3584 
Q 2775 3584 3186 3129 
Q 3597 2675 3597 1894 
z
M 3022 2063 
Q 3016 2534 2758 2815 
Q 2500 3097 2075 3097 
Q 1594 3097 1305 2825 
Q 1016 2553 972 2059 
L 3022 2063 
z
" transform="scale(0.015625)"/>
       <path id="DejaVuSans-20" transform="scale(0.015625)"/>
       <path id="DejaVuSans-28" d="M 1984 4856 
Q 1566 4138 1362 3434 
Q 1159 2731 1159 2009 
Q 1159 1288 1364 580 
Q 1569 -128 1984 -844 
L 1484 -844 
Q 1016 -109 783 600 
Q 550 1309 550 2009 
Q 550 2706 781 3412 
Q 1013 4119 1484 4856 
L 1984 4856 
z
" transform="scale(0.015625)"/>
       <path id="DejaVuSans-73" d="M 2834 3397 
L 2834 2853 
Q 2591 2978 2328 3040 
Q 2066 3103 1784 3103 
Q 1356 3103 1142 2972 
Q 928 2841 928 2578 
Q 928 2378 1081 2264 
Q 1234 2150 1697 2047 
L 1894 2003 
Q 2506 1872 2764 1633 
Q 3022 1394 3022 966 
Q 3022 478 2636 193 
Q 2250 -91 1575 -91 
Q 1294 -91 989 -36 
Q 684 19 347 128 
L 347 722 
Q 666 556 975 473 
Q 1284 391 1588 391 
Q 1994 391 2212 530 
Q 2431 669 2431 922 
Q 2431 1156 2273 1281 
Q 2116 1406 1581 1522 
L 1381 1569 
Q 847 1681 609 1914 
Q 372 2147 372 2553 
Q 372 3047 722 3315 
Q 1072 3584 1716 3584 
Q 2034 3584 2315 3537 
Q 2597 3491 2834 3397 
z
" transform="scale(0.015625)"/>
       <path id="DejaVuSans-29" d="M 513 4856 
L 1013 4856 
Q 1481 4119 1714 3412 
Q 1947 2706 1947 2009 
Q 1947 1309 1714 600 
Q 1481 -109 1013 -844 
L 513 -844 
Q 928 -128 1133 580 
Q 1338 1288 1338 2009 
Q 1338 2731 1133 3434 
Q 928 4138 513 4856 
z
" transform="scale(0.015625)"/>
      </defs>
      <use xlink:href="#DejaVuSans-54"/>
      <use xlink:href="#DejaVuSans-69" x="57.958984"/>
      <use xlink:href="#DejaVuSans-6d" x="85.742188"/>
      <use xlink:href="#DejaVuSans-65" x="183.154297"/>
      <use xlink:href="#DejaVuSans-20" x="244.677734"/>
      <use xlink:href="#DejaVuSans-28" x="276.464844"/>
      <use xlink:href="#DejaVuSans-73" x="315.478516"/>
      <use xlink:href="#DejaVuSans-29" x="367.578125"/>
     </g>
    </g>
   </g>
   <g id="matplotlib.axis_2">
    <g id="ytick_1">
     <g id="line2d_19">
      <path d="M 46.64 240.285534 
L 564.2507 240.285534 
" clip-path="url(#p3e7221bab8)" style="fill: none; stroke: #b0b0b0; stroke-width: 0.8; stroke-linecap: square"/>
     </g>
     <g id="line2d_20">
      <defs>
       <path id="md99bc7bf4e" d="M 0 0 
L -3.5 0 
" style="stroke: #000000; stroke-width: 0.8"/>
      </defs>
      <g>
       <use xlink:href="#md99bc7bf4e" x="46.64" y="240.285534" style="stroke: #000000; stroke-width: 0.8"/>
      </g>
     </g>
     <g id="text_11">
      <!-- −6 -->
      <g transform="translate(24.897813 244.084752) scale(0.1 -0.1)">
       <defs>
        <path id="DejaVuSans-2212" d="M 678 2272 
L 4684 2272 
L 4684 1741 
L 678 1741 
L 678 2272 
z
" transform="scale(0.015625)"/>
       </defs>
       <use xlink:href="#DejaVuSans-2212"/>
       <use xlink:href="#DejaVuSans-36" x="83.789062"/>
      </g>
     </g>
    </g>
    <g id="ytick_2">
     <g id="line2d_21">
      <path d="M 46.64 206.658759 
L 564.2507 206.658759 
" clip-path="url(#p3e7221bab8)" style="fill: none; stroke: #b0b0b0; stroke-width: 0.8; stroke-linecap: square"/>
     </g>
     <g id="line2d_22">
      <g>
       <use xlink:href="#md99bc7bf4e" x="46.64" y="206.658759" style="stroke: #000000; stroke-width: 0.8"/>
      </g>
     </g>
     <g id="text_12">
      <!-- −4 -->
      <g transform="translate(24.897813 210.457978) scale(0.1 -0.1)">
       <use xlink:href="#DejaVuSans-2212"/>
       <use xlink:href="#DejaVuSans-34" x="83.789062"/>
      </g>
     </g>
    </g>
    <g id="ytick_3">
     <g id="line2d_23">
      <path d="M 46.64 173.031985 
L 564.2507 173.031985 
" clip-path="url(#p3e7221bab8)" style="fill: none; stroke: #b0b0b0; stroke-width: 0.8; stroke-linecap: square"/>
     </g>
     <g id="line2d_24">
      <g>
       <use xlink:href="#md99bc7bf4e" x="46.64" y="173.031985" style="stroke: #000000; stroke-width: 0.8"/>
      </g>
     </g>
     <g id="text_13">
      <!-- −2 -->
      <g transform="translate(24.897813 176.831204) scale(0.1 -0.1)">
       <use xlink:href="#DejaVuSans-2212"/>
       <use xlink:href="#DejaVuSans-32" x="83.789062"/>
      </g>
     </g>
    </g>
    <g id="ytick_4">
     <g id="line2d_25">
      <path d="M 46.64 139.405211 
L 564.2507 139.405211 
" clip-path="url(#p3e7221bab8)" style="fill: none; stroke: #b0b0b0; stroke-width: 0.8; stroke-linecap: square"/>
     </g>
     <g id="line2d_26">
      <g>
       <use xlink:href="#md99bc7bf4e" x="46.64" y="139.405211" style="stroke: #000000; stroke-width: 0.8"/>
      </g>
     </g>
     <g id="text_14">
      <!-- 0 -->
      <g transform="translate(33.2775 143.20443) scale(0.1 -0.1)">
       <use xlink:href="#DejaVuSans-30"/>
      </g>
     </g>
    </g>
    <g id="ytick_5">
     <g id="line2d_27">
      <path d="M 46.64 105.778437 
L 564.2507 105.778437 
" clip-path="url(#p3e7221bab8)" style="fill: none; stroke: #b0b0b0; stroke-width: 0.8; stroke-linecap: square"/>
     </g>
     <g id="line2d_28">
      <g>
       <use xlink:href="#md99bc7bf4e" x="46.64" y="105.778437" style="stroke: #000000; stroke-width: 0.8"/>
      </g>
     </g>
     <g id="text_15">
      <!-- 2 -->
      <g transform="translate(33.2775 109.577656) scale(0.1 -0.1)">
       <use xlink:href="#DejaVuSans-32"/>
      </g>
     </g>
    </g>
    <g id="ytick_6">
     <g id="line2d_29">
      <path d="M 46.64 72.151663 
L 564.2507 72.151663 
" clip-path="url(#p3e7221bab8)" style="fill: none; stroke: #b0b0b0; stroke-width: 0.8; stroke-linecap: square"/>
     </g>
     <g id="line2d_30">
      <g>
       <use xlink:href="#md99bc7bf4e" x="46.64" y="72.151663" style="stroke: #000000; stroke-width: 0.8"/>
      </g>
     </g>
     <g id="text_16">
      <!-- 4 -->
      <g transform="translate(33.2775 75.950882) scale(0.1 -0.1)">
       <use xlink:href="#DejaVuSans-34"/>
      </g>
     </g>
    </g>
    <g id="text_17">
     <!-- Error -->
     <g transform="translate(18.818125 156.133156) rotate(-90) scale(0.1 -0.1)">
      <defs>
       <path id="DejaVuSans-45" d="M 628 4666 
L 3578 4666 
L 3578 4134 
L 1259 4134 
L 1259 2753 
L 3481 2753 
L 3481 2222 
L 1259 2222 
L 1259 531 
L 3634 531 
L 3634 0 
L 628 0 
L 628 4666 
z
" transform="scale(0.015625)"/>
       <path id="DejaVuSans-72" d="M 2631 2963 
Q 2534 3019 2420 3045 
Q 2306 3072 2169 3072 
Q 1681 3072 1420 2755 
Q 1159 2438 1159 1844 
L 1159 0 
L 581 0 
L 581 3500 
L 1159 3500 
L 1159 2956 
Q 1341 3275 1631 3429 
Q 1922 3584 2338 3584 
Q 2397 3584 2469 3576 
Q 2541 3569 2628 3553 
L 2631 2963 
z
" transform="scale(0.015625)"/>
       <path id="DejaVuSans-6f" d="M 1959 3097 
Q 1497 3097 1228 2736 
Q 959 2375 959 1747 
Q 959 1119 1226 758 
Q 1494 397 1959 397 
Q 2419 397 2687 759 
Q 2956 1122 2956 1747 
Q 2956 2369 2687 2733 
Q 2419 3097 1959 3097 
z
M 1959 3584 
Q 2709 3584 3137 3096 
Q 3566 2609 3566 1747 
Q 3566 888 3137 398 
Q 2709 -91 1959 -91 
Q 1206 -91 779 398 
Q 353 888 353 1747 
Q 353 2609 779 3096 
Q 1206 3584 1959 3584 
z
" transform="scale(0.015625)"/>
      </defs>
      <use xlink:href="#DejaVuSans-45"/>
      <use xlink:href="#DejaVuSans-72" x="63.183594"/>
      <use xlink:href="#DejaVuSans-72" x="102.546875"/>
      <use xlink:href="#DejaVuSans-6f" x="141.410156"/>
      <use xlink:href="#DejaVuSans-72" x="202.591797"/>
     </g>
    </g>
   </g>
   <g id="line2d_31">
    <path d="M 70.167759 236.476721 
L 70.796179 236.500215 
L 71.422783 235.81163 
L 71.742776 235.81163 
L 72.055215 235.288403 
L 72.370003 234.524202 
L 73.636167 234.52579 
L 73.946731 183.718441 
L 74.262764 180.202641 
L 74.578969 180.202641 
L 74.901806 181.353887 
L 75.210926 181.986751 
L 75.524506 180.7233 
L 76.157967 180.7233 
L 76.473142 178.421085 
L 76.78916 172.68105 
L 77.113144 172.68105 
L 77.422001 171.315438 
L 77.736604 171.315438 
L 78.36473 165.076388 
L 78.681128 165.076388 
L 78.999697 161.057603 
L 79.627106 141.110729 
L 79.987434 132.990066 
L 80.260691 130.417363 
L 80.576415 130.417363 
L 80.898523 127.843953 
L 81.212626 126.741197 
L 81.520973 127.001407 
L 81.837009 127.075425 
L 82.153067 125.835244 
L 82.467892 125.835244 
L 82.783636 125.180246 
L 83.420711 125.180246 
L 83.730098 122.981475 
L 84.047331 122.981475 
L 84.362837 117.428189 
L 84.686074 115.931177 
L 84.994167 115.931177 
L 85.31005 115.383116 
L 85.941956 116.256571 
L 86.255508 116.472086 
L 86.571104 117.375652 
L 86.898495 117.375652 
L 87.210384 119.525845 
L 87.518604 119.972094 
L 88.156525 118.973626 
L 88.491662 119.225572 
L 88.788172 119.225572 
L 89.099283 116.793263 
L 89.72737 118.958459 
L 90.043201 118.638635 
L 90.369574 118.638635 
L 90.681357 121.042433 
L 91.309009 121.128748 
L 91.620235 122.023875 
L 91.936642 121.642726 
L 92.256553 121.642726 
L 92.56867 120.73885 
L 92.883199 123.104672 
L 93.203435 122.77528 
L 93.514455 122.77528 
L 93.832952 122.359608 
L 94.146317 121.661635 
L 94.463368 126.248957 
L 94.798916 128.923011 
L 95.091451 130.191374 
L 96.670365 134.058052 
L 97.30935 223.354398 
L 97.618495 137.971192 
L 97.935113 140.623859 
L 98.248871 139.396418 
L 99.202851 223.375932 
L 99.510457 223.396019 
L 120.978353 232.951972 
L 122.550706 232.955029 
L 122.869741 228.730315 
L 123.181378 228.729529 
L 123.495909 225.117595 
L 123.820342 211.466342 
L 124.129806 156.787459 
L 124.443467 156.787459 
L 124.758947 155.76865 
L 125.081819 151.612987 
L 125.38966 151.414924 
L 125.712271 150.115102 
L 126.022148 150.115102 
L 126.341574 149.657047 
L 126.970043 140.786016 
L 127.288816 140.786016 
L 127.917418 135.644071 
L 128.862682 135.644071 
L 129.181795 128.883888 
L 129.491974 127.406719 
L 129.80986 127.406719 
L 130.124832 120.413433 
L 130.439156 120.301109 
L 130.75623 113.636932 
L 131.076681 114.208197 
L 131.38662 114.208197 
L 132.96674 104.675885 
L 133.912631 104.675885 
L 134.228449 100.901793 
L 134.541874 100.901793 
L 134.857188 98.784451 
L 136.12214 98.784451 
L 136.439562 102.79458 
L 136.751255 109.261886 
L 137.383959 109.261886 
L 137.699483 110.948232 
L 138.64848 117.286184 
L 139.275948 117.286184 
L 139.591757 117.096077 
L 139.909562 117.096077 
L 140.22756 120.999206 
L 140.548365 120.999206 
L 140.85647 128.915189 
L 141.174451 129.956381 
L 141.801537 129.956381 
L 142.124234 133.545286 
L 142.434253 133.545286 
L 142.75445 135.747728 
L 143.063045 135.747728 
L 143.703877 140.763696 
L 144.011562 140.763696 
L 144.328012 144.551916 
L 144.648554 144.551916 
L 144.964835 148.100411 
L 145.273508 149.187659 
L 145.912477 155.614394 
L 146.534491 157.971568 
L 146.850768 157.971568 
L 147.175632 158.72843 
L 147.482011 158.98981 
L 147.802079 158.98981 
L 148.151838 159.410928 
L 148.433254 159.410928 
L 148.743609 156.602245 
L 150.006873 149.940232 
L 150.327093 149.940232 
L 150.639145 148.966388 
L 150.954452 148.966388 
L 151.268949 148.691327 
L 151.899414 148.673917 
L 152.216891 148.516778 
L 152.53606 148.14031 
L 152.846659 148.020459 
L 153.794538 148.020459 
L 154.109184 147.718774 
L 154.430638 147.250388 
L 154.739355 146.418586 
L 155.055082 146.418586 
L 155.375265 145.801384 
L 155.686608 143.570706 
L 156.002331 143.690863 
L 156.318957 142.97095 
L 156.955556 142.97095 
L 157.265732 142.290697 
L 157.586742 143.942501 
L 158.211402 143.96528 
L 158.527444 142.635237 
L 158.843676 143.228242 
L 159.161947 141.61774 
L 159.474514 141.399448 
L 159.79135 141.399448 
L 160.10748 140.257507 
L 160.422313 139.714726 
L 160.745911 138.062044 
L 161.052503 137.849678 
L 161.36766 137.98635 
L 161.684739 137.98635 
L 161.998619 137.436351 
L 162.315326 137.574682 
L 162.633687 137.574682 
L 162.945548 139.060387 
L 163.268644 138.92798 
L 163.613873 139.323652 
L 163.901214 139.323652 
L 164.208022 138.473879 
L 164.524825 138.149637 
L 164.844679 139.584874 
L 165.470652 137.325283 
L 165.796192 138.715044 
L 166.103687 138.715044 
L 166.420109 140.635068 
L 166.734448 141.848099 
L 167.049002 142.017798 
L 167.366333 142.994425 
L 167.680864 145.266714 
L 167.996935 144.752499 
L 169.265267 144.796902 
L 169.57452 144.484774 
L 169.889921 144.929741 
L 170.522715 144.949373 
L 170.836063 150.35081 
L 171.786512 156.286883 
L 172.733706 162.845389 
L 173.047373 163.453506 
L 173.36351 163.453506 
L 173.67681 164.171418 
L 173.992303 164.502585 
L 174.62308 167.264346 
L 175.009141 168.764546 
L 175.254469 168.764546 
L 175.574553 169.822014 
L 175.887353 169.822014 
L 176.203768 170.679756 
L 176.832334 170.679756 
L 177.46944 171.778886 
L 177.781561 171.778886 
L 178.097381 173.32265 
L 178.412572 173.911579 
L 178.733219 174.153649 
L 179.041602 172.575829 
L 179.362631 172.575829 
L 179.678396 171.189695 
L 179.994682 171.189695 
L 180.620866 169.625063 
L 180.934999 166.651514 
L 181.259498 166.651514 
L 181.573427 164.517368 
L 181.882022 159.109718 
L 182.198133 158.324576 
L 182.82906 154.2844 
L 183.150291 154.2844 
L 184.091333 145.628968 
L 184.407315 144.237372 
L 184.72465 141.872395 
L 185.038159 141.872395 
L 185.356621 137.111392 
L 185.678115 137.111392 
L 185.985834 138.82168 
L 186.302741 138.420053 
L 186.616403 139.921449 
L 186.931914 139.454517 
L 191.352935 214.253075 
L 191.981576 214.253075 
L 192.29742 231.899077 
L 193.564331 231.793562 
L 193.87554 231.528719 
L 194.50834 230.713558 
L 194.82745 230.712574 
L 195.137727 212.873475 
L 195.451691 164.105163 
L 196.091946 160.06196 
L 196.406237 212.416756 
L 196.723396 212.416756 
L 197.036408 212.283435 
L 197.353564 147.44811 
L 197.979814 143.468091 
L 198.610201 143.468091 
L 198.925899 141.780514 
L 199.252202 141.780514 
L 199.554775 140.623859 
L 200.504993 133.87772 
L 200.822379 133.87772 
L 201.133749 129.311983 
L 201.452609 129.311983 
L 201.764911 127.479945 
L 202.087881 124.662956 
L 202.395781 123.145651 
L 202.712274 123.145651 
L 203.026102 122.443095 
L 204.292289 122.443095 
L 204.60922 120.520579 
L 204.928185 120.520579 
L 205.239822 118.084432 
L 207.447771 118.084432 
L 207.763856 117.005997 
L 212.503126 117.005997 
L 212.812182 109.433495 
L 213.764166 109.433495 
L 214.077167 104.357028 
L 214.391337 103.64755 
L 214.704403 104.035911 
L 215.020194 105.055567 
L 215.336488 105.055567 
L 215.650253 111.821405 
L 215.972418 111.821405 
L 216.912398 119.325911 
L 217.232764 119.325911 
L 217.544372 119.185366 
L 218.184273 121.214875 
L 218.499664 121.214875 
L 218.805993 122.526405 
L 219.125815 124.907254 
L 219.442067 125.835244 
L 219.757894 125.835244 
L 220.384512 130.53358 
L 220.702229 130.53358 
L 221.019026 132.50062 
L 221.33473 136.223165 
L 221.64961 137.877056 
L 221.970703 138.795052 
L 222.279759 140.398889 
L 222.917811 140.398889 
L 223.224334 141.888583 
L 223.546565 141.888583 
L 223.856634 143.621891 
L 224.181877 148.516778 
L 224.489218 150.774121 
L 225.123356 153.909168 
L 225.440574 153.909168 
L 225.750278 155.130778 
L 226.067116 157.115161 
L 227.0119 158.98981 
L 227.335902 158.98981 
L 227.643096 158.380637 
L 227.960753 158.380637 
L 228.59166 158.700769 
L 228.908825 160.120368 
L 229.227385 159.558792 
L 229.536041 159.558792 
L 229.854575 159.812293 
L 230.168246 159.275799 
L 230.490377 159.275799 
L 230.798632 158.352621 
L 231.11689 158.574403 
L 232.066521 154.121857 
L 232.378433 154.121857 
L 233.013116 149.906808 
L 233.639587 148.363227 
L 233.957137 144.995952 
L 234.588828 144.995952 
L 235.217587 136.986786 
L 235.54805 135.760664 
L 235.860955 135.760664 
L 236.16572 134.697071 
L 236.798051 134.786946 
L 237.427182 133.407289 
L 237.747858 131.759157 
L 238.058271 132.744418 
L 238.378435 132.744418 
L 238.695746 132.4616 
L 239.005238 132.532514 
L 239.960647 131.954056 
L 240.269213 131.954056 
L 240.583343 133.372706 
L 241.5311 133.234038 
L 241.850415 137.297459 
L 242.161632 139.558843 
L 242.482308 139.558843 
L 242.791429 141.672088 
L 243.114078 141.672088 
L 243.423091 140.735776 
L 243.74218 142.635237 
L 244.062919 143.724019 
L 244.371263 143.927307 
L 245.007306 143.901966 
L 245.633091 145.460432 
L 245.948527 147.243547 
L 246.267125 147.495648 
L 246.579255 148.040467 
L 247.21022 147.940298 
L 247.525652 148.319213 
L 247.84338 148.319213 
L 248.157119 149.315815 
L 248.795139 149.315815 
L 249.10757 149.10192 
L 249.424074 149.10192 
L 249.738842 149.358414 
L 250.681604 149.315815 
L 250.998864 149.123377 
L 251.313694 149.294494 
L 251.632374 149.294494 
L 251.944365 149.4222 
L 252.263985 149.4222 
L 252.890942 151.8685 
L 253.210204 151.8685 
L 253.523404 152.183838 
L 253.838686 151.833253 
L 254.471806 151.780303 
L 254.785348 152.061608 
L 255.739981 152.148967 
L 256.053073 152.650582 
L 256.36421 152.650582 
L 256.680078 151.797964 
L 256.995855 150.35081 
L 257.309176 148.120367 
L 257.949788 148.120367 
L 258.262825 147.920225 
L 258.573217 147.270901 
L 258.887527 147.515999 
L 259.204544 147.2914 
L 259.838503 145.715294 
L 260.153557 145.715294 
L 260.467869 144.796902 
L 260.780714 144.439934 
L 261.100831 143.644898 
L 261.416625 137.574682 
L 261.727619 137.574682 
L 262.045383 135.084881 
L 262.358818 135.084881 
L 262.997491 127.66239 
L 263.314812 119.680113 
L 265.205781 117.143686 
L 265.514964 115.04522 
L 267.094804 111.659032 
L 267.409766 104.157489 
L 268.987415 104.157489 
L 269.303023 107.328501 
L 269.618742 106.927423 
L 270.250616 106.927423 
L 270.578995 106.250818 
L 270.881826 106.250818 
L 271.195237 107.988997 
L 271.511546 107.988997 
L 272.142358 111.659032 
L 272.458308 111.659032 
L 272.772759 112.782897 
L 273.406179 112.782897 
L 273.721146 114.541638 
L 274.045033 114.603513 
L 274.351722 116.739907 
L 275.298414 116.739907 
L 275.613716 123.104672 
L 275.932767 123.104672 
L 276.245358 124.632309 
L 276.567459 127.55303 
L 277.191309 130.567251 
L 277.50838 130.567251 
L 277.826257 137.574682 
L 278.139841 140.760905 
L 278.460788 142.450168 
L 279.09377 142.450168 
L 279.403524 143.667889 
L 279.724721 143.919706 
L 280.033441 143.919706 
L 280.348316 148.120367 
L 280.674429 147.311885 
L 280.980579 149.97779 
L 281.297139 150.164879 
L 281.610047 150.572416 
L 283.508085 150.664269 
L 283.824181 149.789531 
L 284.141174 149.371182 
L 284.454873 149.371182 
L 284.766168 149.121232 
L 285.082532 147.044512 
L 285.397622 146.334174 
L 285.72196 145.171845 
L 286.031989 144.929741 
L 286.348426 144.995952 
L 286.663068 144.863391 
L 286.983807 143.759687 
L 287.608861 143.437243 
L 287.922859 141.160404 
L 288.239432 141.160404 
L 288.56085 140.886267 
L 288.874565 139.895679 
L 289.186935 139.895679 
L 289.499775 137.666593 
L 289.816737 136.830391 
L 290.13483 135.390111 
L 290.447488 133.414202 
L 290.76565 132.596217 
L 291.394797 132.659806 
L 291.711391 131.82424 
L 292.026592 131.693956 
L 292.342742 130.865197 
L 292.655756 133.407289 
L 292.979893 133.407289 
L 293.291323 135.553118 
L 293.607387 135.553118 
L 293.919138 136.799026 
L 294.234807 136.799026 
L 294.556288 138.691302 
L 294.868947 138.691302 
L 295.4987 139.772277 
L 295.817526 139.818247 
L 296.451969 139.033947 
L 296.758814 139.402232 
L 297.095086 139.192277 
L 298.030407 139.192277 
L 298.341664 139.376059 
L 298.656161 139.972931 
L 298.969581 140.936279 
L 299.602299 141.013926 
L 299.916635 141.996297 
L 300.233062 144.678356 
L 300.54646 144.678356 
L 300.863633 144.998402 
L 301.184917 144.998402 
L 301.811175 146.575084 
L 302.124622 147.673828 
L 302.44286 147.44811 
L 303.386714 147.44811 
L 303.703419 146.249533 
L 304.026089 146.249533 
L 304.33542 145.303127 
L 304.651292 144.907639 
L 304.976703 141.701941 
L 305.281495 141.701941 
L 306.232937 137.269613 
L 306.571121 136.50913 
L 306.860633 132.723284 
L 307.491147 132.723284 
L 307.805454 131.563202 
L 308.124569 132.468698 
L 308.439592 132.532514 
L 308.760677 132.083407 
L 309.077237 132.083407 
L 309.387853 130.939305 
L 311.278253 130.939305 
L 311.915687 129.849761 
L 312.546316 129.849761 
L 312.8543 129.439452 
L 313.488247 129.439452 
L 313.805301 127.333349 
L 314.118327 126.215352 
L 314.439291 126.215352 
L 315.063381 123.75523 
L 315.701794 123.75523 
L 316.012905 124.907254 
L 316.326885 125.335375 
L 316.642193 128.383416 
L 316.970871 130.364757 
L 317.279911 133.33809 
L 317.904286 133.33809 
L 318.226784 132.083407 
L 318.543535 132.596217 
L 318.853285 132.691559 
L 319.168058 132.50062 
L 319.483097 131.954056 
L 319.799368 131.954056 
L 320.43169 133.693037 
L 320.74612 137.436351 
L 321.062437 137.436351 
L 321.383314 137.666593 
L 321.69136 139.599326 
L 322.007825 145.715294 
L 322.328367 145.715294 
L 322.639041 149.52398 
L 322.953046 151.632721 
L 323.272989 151.632721 
L 323.585011 151.353255 
L 323.900196 152.736205 
L 324.216149 152.736205 
L 324.531663 154.251965 
L 324.847309 154.766563 
L 325.478853 156.602245 
L 325.801256 159.94476 
L 326.112085 161.621777 
L 326.427196 161.621777 
L 327.060069 164.650023 
L 327.377618 164.650023 
L 327.696538 165.141345 
L 328.011158 165.960293 
L 328.321616 165.960293 
L 328.636898 167.020609 
L 328.957031 166.468848 
L 329.583107 166.468848 
L 329.899368 165.869452 
L 330.847288 165.869452 
L 331.160057 165.123319 
L 331.794135 160.866829 
L 332.423466 160.866829 
L 332.738592 159.437873 
L 333.052899 157.251649 
L 333.36943 150.461818 
L 333.700016 147.147621 
L 334.000035 141.848099 
L 334.315761 141.848099 
L 334.633139 133.258344 
L 334.949834 133.258344 
L 335.262669 123.867074 
L 335.578377 123.431309 
L 337.156893 123.431309 
L 337.473089 122.77528 
L 337.79179 121.642726 
L 338.427457 121.557525 
L 339.997609 121.557525 
L 340.319229 121.897234 
L 340.943456 121.897234 
L 341.266608 121.514855 
L 341.578101 121.756043 
L 342.520565 118.923047 
L 342.839873 117.585396 
L 344.102879 117.585396 
L 344.414529 121.042433 
L 344.740667 121.042433 
L 345.366538 125.720469 
L 346.005572 125.758766 
L 346.31322 128.738775 
L 346.623291 128.738775 
L 346.940056 131.068632 
L 347.888677 131.068632 
L 348.202418 133.476354 
L 348.526579 133.476354 
L 348.83258 137.420946 
L 349.150951 137.739945 
L 349.467088 141.284264 
L 349.78824 141.284264 
L 350.095805 142.853321 
L 350.729247 142.853321 
L 351.041742 143.365148 
L 351.360191 150.387858 
L 351.674043 150.387858 
L 351.989014 152.957655 
L 352.305039 152.957655 
L 352.62093 153.872653 
L 352.936834 159.692512 
L 353.251699 162.90449 
L 353.570195 164.738074 
L 353.888778 168.227177 
L 354.205588 168.227177 
L 354.829698 169.024151 
L 355.15217 168.502083 
L 355.463849 168.502083 
L 355.775482 165.32448 
L 356.093851 165.32448 
L 356.723828 161.196632 
L 357.037877 155.115039 
L 357.985262 155.115039 
L 358.616216 150.183524 
L 358.93361 150.183524 
L 359.880119 142.92395 
L 360.195857 142.92395 
L 360.514902 139.714726 
L 360.825862 139.714726 
L 361.776694 129.311983 
L 362.09753 129.311983 
L 362.408373 125.399827 
L 362.721101 124.968087 
L 363.039678 124.968087 
L 363.35743 125.835244 
L 363.667957 127.698773 
L 363.98272 128.525967 
L 364.302563 130.466144 
L 364.613345 131.563202 
L 364.937386 131.563202 
L 365.247208 133.95609 
L 366.191303 129.922144 
L 366.507031 130.161137 
L 366.825256 130.161137 
L 367.143949 128.347693 
L 367.772395 131.399093 
L 368.084289 135.812357 
L 368.399345 135.818814 
L 368.718202 136.050448 
L 369.033659 136.050448 
L 369.349466 135.644071 
L 369.664128 135.644071 
L 370.617433 133.133166 
L 370.924137 133.28957 
L 371.242059 133.847006 
L 371.872634 133.847006 
L 372.188032 136.251868 
L 372.505042 136.924313 
L 372.820093 138.898486 
L 373.137024 138.898486 
L 374.083274 147.799513 
L 374.395858 147.799513 
L 375.034117 150.387858 
L 375.344448 153.843407 
L 375.97379 155.474839 
L 376.291115 155.474839 
L 376.606625 156.572364 
L 376.920238 157.061356 
L 377.240464 157.857639 
L 377.867116 157.871906 
L 378.188251 157.771881 
L 378.507673 158.783667 
L 378.814338 158.310543 
L 379.136754 156.154005 
L 379.4607 155.471385 
L 379.762474 155.933964 
L 380.077379 155.933964 
L 380.710524 157.180239 
L 381.343541 156.347227 
L 381.655643 156.557411 
L 381.973749 156.557411 
L 382.285281 156.825342 
L 382.607331 156.825342 
L 383.232415 155.76865 
L 383.551962 154.702743 
L 383.87151 154.782496 
L 384.1826 154.670779 
L 384.502761 154.397634 
L 384.815482 154.590713 
L 385.442206 154.590713 
L 385.762764 153.810471 
L 386.389559 153.694895 
L 386.714498 154.413773 
L 387.025146 154.15444 
L 387.652093 154.203244 
L 387.967356 153.462348 
L 388.283465 152.392199 
L 388.913285 149.504922 
L 389.23894 149.504922 
L 389.551642 149.789531 
L 389.867034 149.789531 
L 390.176465 145.93008 
L 390.495142 144.730275 
L 390.807143 142.569262 
L 391.131706 142.569262 
L 391.440621 141.284264 
L 391.755216 141.284264 
L 392.070783 139.113205 
L 392.390355 138.634846 
L 392.703882 138.688333 
L 393.016675 133.441838 
L 393.332994 132.340726 
L 393.971715 129.125786 
L 394.284011 129.125786 
L 395.549321 120.168846 
L 396.493474 120.168846 
L 396.806271 125.566896 
L 397.119595 126.749486 
L 417.634044 236.758909 
L 417.955565 236.376036 
L 418.264749 236.376036 
L 418.901278 235.894828 
L 419.213841 235.521415 
L 419.527094 234.238829 
L 419.848284 230.347636 
L 420.159243 151.494309 
L 420.473593 151.780303 
L 421.104123 151.780303 
L 421.425209 150.83295 
L 421.740001 148.778228 
L 422.05217 148.319213 
L 422.370497 232.67602 
L 424.577658 232.671728 
L 424.894551 137.822278 
L 425.20703 137.822278 
L 425.523 139.244889 
L 425.839657 138.366142 
L 426.155616 136.707908 
L 426.785843 136.309203 
L 427.100058 136.021578 
L 427.416319 136.021578 
L 427.733844 133.510837 
L 428.052966 133.510837 
L 428.368651 129.853574 
L 429.31668 127.66239 
L 429.633486 127.66239 
L 429.94466 232.109496 
L 430.259104 233.427968 
L 430.57441 233.428059 
L 430.890459 234.559434 
L 433.413725 234.564928 
L 433.731074 233.708659 
L 434.04428 154.930773 
L 434.359532 154.018436 
L 434.677801 127.488073 
L 435.306845 127.488073 
L 435.621508 124.706694 
L 437.206398 124.706694 
L 437.516856 125.953907 
L 438.152741 125.953907 
L 438.46286 229.49992 
L 442.249364 229.496721 
L 442.570256 118.770932 
L 442.886457 119.003942 
L 443.196775 109.025617 
L 443.511941 109.025617 
L 443.828235 106.386963 
L 444.142983 117.000692 
L 445.406437 117.000692 
L 445.723345 116.180874 
L 446.036371 116.952917 
L 446.356423 116.952917 
L 446.983545 135.876867 
L 447.302568 135.876867 
L 447.61492 145.628968 
L 447.931666 147.493386 
L 448.255334 146.247178 
L 448.566579 143.298059 
L 448.882008 141.799452 
L 449.508986 134.159721 
L 450.14252 134.159721 
L 450.463302 133.133166 
L 450.7726 133.133166 
L 451.09377 132.051113 
L 451.408977 130.12709 
L 451.717584 129.990586 
L 452.039681 129.990586 
L 453.295585 128.45476 
L 453.61786 128.45476 
L 453.931916 128.60887 
L 455.824182 234.029291 
L 456.139487 234.029291 
L 456.450949 234.800759 
L 456.767773 236.006887 
L 457.089161 236.006887 
L 457.400686 235.741706 
L 458.977158 235.644091 
L 459.293419 235.837837 
L 459.607193 235.663041 
L 459.923256 235.663041 
L 460.240129 235.342409 
L 460.554259 234.800822 
L 460.870808 231.57536 
L 461.18589 225.250589 
L 462.139156 225.257993 
L 462.447967 164.881717 
L 462.764446 164.881717 
L 463.081697 163.430381 
L 463.398862 163.660694 
L 463.710479 163.057522 
L 464.027326 162.198346 
L 464.346485 160.943304 
L 464.659085 160.943304 
L 464.971937 160.222276 
L 465.288635 160.222276 
L 465.603791 158.835732 
L 466.867567 145.346767 
L 467.181859 139.30908 
L 467.815753 139.30908 
L 468.445677 131.925249 
L 468.760412 132.881487 
L 470.024814 131.267269 
L 470.977237 131.270937 
L 471.285834 130.939305 
L 471.607977 129.849761 
L 471.915629 129.849761 
L 472.552829 127.609775 
L 472.864854 124.000863 
L 473.18671 124.000863 
L 473.494954 120.946308 
L 474.763043 120.898159 
L 475.075508 120.25707 
L 475.704362 122.443095 
L 476.337427 122.443095 
L 476.650142 127.952469 
L 476.970021 129.230637 
L 477.598836 133.50739 
L 477.921755 133.50739 
L 478.228876 134.757013 
L 478.560941 139.858419 
L 479.182065 139.766527 
L 479.490385 141.508775 
L 479.807832 141.508775 
L 480.123131 142.210669 
L 480.44216 145.237554 
L 480.756775 146.164663 
L 481.388257 147.380073 
L 482.014788 147.380073 
L 482.330546 148.297183 
L 482.964708 155.228513 
L 483.277157 155.228513 
L 483.593666 154.983542 
L 483.911935 154.451398 
L 484.226454 154.365327 
L 484.542395 154.988814 
L 484.855558 154.558623 
L 485.180437 154.558623 
L 485.4897 154.846138 
L 485.802044 152.488162 
L 486.126343 151.946676 
L 486.43376 152.082986 
L 487.068365 150.031958 
L 487.382323 149.885899 
L 488.011213 149.885899 
L 488.327412 151.478449 
L 488.648849 151.335327 
L 488.96056 150.792391 
L 489.284084 148.929713 
L 490.226874 148.929713 
L 490.543815 147.561175 
L 490.858678 144.851089 
L 491.487031 144.851089 
L 491.802692 143.080354 
L 492.114825 136.736212 
L 492.433481 136.736212 
L 493.694224 122.816606 
L 494.008606 115.985587 
L 494.329478 115.985587 
L 494.640538 112.999484 
L 494.954253 111.815402 
L 495.587059 111.815402 
L 496.227794 113.046169 
L 497.163516 112.036949 
L 497.485517 112.036949 
L 517.996358 233.183483 
L 519.571752 233.193291 
L 520.207907 231.471741 
L 521.469483 161.272159 
L 521.782571 161.272159 
L 522.096583 156.355598 
L 522.41218 155.614394 
L 522.728111 154.413773 
L 523.050693 154.413773 
L 523.360758 149.844038 
L 523.681581 149.844038 
L 523.990013 148.929713 
L 524.31219 149.294494 
L 524.935997 149.294494 
L 525.252361 149.14482 
L 526.200351 148.053798 
L 526.520663 148.538651 
L 526.831788 149.217611 
L 527.145876 149.217611 
L 528.094571 146.945666 
L 528.409298 146.853433 
L 528.731023 147.129315 
L 529.985745 146.565763 
L 530.616934 146.945666 
L 530.933898 150.183524 
L 531.270665 150.183524 
L 531.880918 151.119341 
L 532.197162 152.701986 
L 532.509817 154.948374 
L 532.832741 154.948374 
L 533.14332 155.315492 
L 533.471301 154.895539 
L 533.773039 155.193646 
L 534.089655 155.193646 
L 534.404117 155.763522 
L 534.724686 155.609238 
L 535.039655 155.899958 
L 535.35695 155.797693 
L 535.668161 155.922067 
L 535.98203 153.982059 
L 536.613077 153.982059 
L 537.246936 150.919965 
L 537.561029 148.88867 
L 537.88067 148.020459 
L 538.191515 148.020459 
L 538.520915 145.237554 
L 538.823848 144.653604 
L 539.138269 145.801384 
L 539.462198 145.801384 
L 539.76985 148.000438 
L 540.086004 148.556139 
L 540.399741 150.445398 
L 540.722941 147.940298 
L 540.722941 147.940298 
" clip-path="url(#p3e7221bab8)" style="fill: none; stroke: #1f77b4; stroke-width: 1.5; stroke-linecap: square"/>
   </g>
   <g id="line2d_32">
    <path d="M 70.167759 220.75331 
L 70.476057 220.31254 
L 71.107769 218.482485 
L 71.742776 215.698247 
L 72.370003 211.668033 
L 72.684878 209.181396 
L 73.318583 206.527243 
L 73.946731 201.399495 
L 74.262764 200.086387 
L 75.210926 187.494152 
L 75.524506 187.08221 
L 75.955074 183.521581 
L 76.473142 175.126817 
L 76.78916 174.66186 
L 77.113144 170.445535 
L 77.422001 169.953016 
L 78.36473 154.683609 
L 79.987434 128.662338 
L 80.576415 120.38074 
L 81.212626 113.163685 
L 81.837009 109.05151 
L 82.153067 106.998896 
L 82.467892 106.683036 
L 82.783636 105.523365 
L 83.101032 104.815075 
L 83.730098 104.520734 
L 85.31005 104.058057 
L 85.625956 104.258776 
L 86.255508 105.22142 
L 89.099283 115.23866 
L 89.72737 118.488383 
L 90.043201 118.872706 
L 90.995823 124.411624 
L 91.309009 125.989744 
L 91.936642 127.640975 
L 93.203435 133.519516 
L 94.463368 135.768148 
L 95.091451 135.383808 
L 96.670365 131.158088 
L 97.30935 127.35251 
L 98.248871 119.202071 
L 99.510457 111.006168 
L 120.978353 142.071519 
L 121.605299 142.109063 
L 121.917979 142.03312 
L 122.233465 141.534075 
L 122.869741 138.941927 
L 123.820342 131.852982 
L 125.081819 116.863165 
L 125.38966 113.138553 
L 125.712271 111.959554 
L 127.288816 87.645129 
L 127.917418 78.464393 
L 129.80986 63.629976 
L 130.439156 57.813942 
L 131.076681 53.836141 
L 131.38662 52.623781 
L 132.96674 51.137091 
L 133.283102 51.137091 
L 133.912631 51.611891 
L 134.228449 52.380627 
L 134.857188 53.216787 
L 135.489567 56.053246 
L 135.804591 56.426252 
L 136.12214 58.889887 
L 137.07544 69.688155 
L 139.591757 101.903894 
L 140.548365 113.594578 
L 140.85647 117.421721 
L 141.174451 118.167528 
L 142.434253 130.798734 
L 142.75445 131.997673 
L 143.703877 140.920922 
L 144.011562 141.88854 
L 144.964835 146.222974 
L 145.273508 146.822535 
L 145.912477 147.204811 
L 146.534491 146.223199 
L 147.175632 143.668861 
L 147.802079 140.458919 
L 148.433254 138.008017 
L 149.691444 133.159101 
L 150.006873 132.723675 
L 150.327093 132.087017 
L 150.639145 132.087017 
L 152.53606 122.89491 
L 152.846659 122.486813 
L 153.165345 121.778188 
L 153.482828 121.479195 
L 154.109184 119.318811 
L 154.739355 116.619127 
L 155.686608 113.087565 
L 156.002331 111.887109 
L 156.318957 111.887109 
L 156.955556 109.449166 
L 157.265732 109.128224 
L 157.896246 106.67886 
L 160.10748 97.543828 
L 161.052503 93.996242 
L 161.684739 92.548037 
L 162.315326 91.371384 
L 162.633687 91.174965 
L 162.945548 91.311583 
L 163.268644 91.798288 
L 163.613873 91.988403 
L 164.208022 93.104155 
L 165.155587 95.797069 
L 166.103687 100.013714 
L 167.049002 105.957084 
L 167.680864 110.323024 
L 167.996935 110.872909 
L 168.397403 112.143007 
L 168.626303 112.143007 
L 168.945871 113.600606 
L 169.57452 117.235603 
L 169.889921 117.602186 
L 170.522715 121.692953 
L 171.151082 126.501871 
L 171.786512 131.115597 
L 172.733706 136.751612 
L 173.36351 139.229645 
L 173.67681 140.421313 
L 173.992303 141.151259 
L 174.62308 141.578483 
L 175.009141 141.627572 
L 175.574553 140.966779 
L 175.887353 140.527404 
L 176.203768 140.527404 
L 176.584958 139.677743 
L 177.147812 137.587937 
L 177.46944 137.269319 
L 178.733219 132.308499 
L 179.041602 130.473969 
L 179.362631 130.202375 
L 179.678396 129.316716 
L 180.620866 122.556489 
L 181.882022 113.669484 
L 183.150291 106.419054 
L 184.407315 102.519586 
L 184.72465 102.581439 
L 185.038159 102.283234 
L 185.678115 102.411772 
L 185.985834 102.859188 
L 186.616403 105.828434 
L 186.931914 107.701698 
L 191.352935 139.636353 
L 191.669688 143.504914 
L 191.981576 145.415713 
L 192.29742 148.274322 
L 192.935041 157.032308 
L 193.564331 161.934153 
L 193.87554 163.969353 
L 194.50834 163.364806 
L 195.137727 161.076162 
L 195.768885 158.489165 
L 196.406237 154.338612 
L 197.036408 149.260323 
L 197.979814 141.200618 
L 199.873238 123.783523 
L 200.186782 121.257815 
L 200.504993 121.014099 
L 201.764911 111.023288 
L 202.087881 109.442262 
L 202.395781 109.223959 
L 203.34805 102.668372 
L 203.657915 101.315411 
L 203.978887 100.603405 
L 204.292289 99.618223 
L 205.868938 92.946186 
L 206.189193 92.933509 
L 206.500154 91.873387 
L 206.827176 91.343411 
L 207.130161 90.322996 
L 207.763856 89.322694 
L 208.076006 89.156123 
L 208.751757 89.051999 
L 209.026663 88.697885 
L 209.340086 89.077349 
L 209.66004 88.730793 
L 209.979601 89.033184 
L 210.289641 89.60921 
L 210.608548 89.941408 
L 210.916653 89.903296 
L 211.556061 91.333251 
L 211.870856 91.508554 
L 212.183139 92.360398 
L 212.503126 92.048969 
L 214.077167 97.070783 
L 214.704403 100.568388 
L 215.020194 100.738484 
L 215.650253 105.761927 
L 216.596913 112.6629 
L 216.912398 114.270465 
L 217.544372 119.766968 
L 219.125815 134.203437 
L 219.442067 135.471035 
L 221.64961 155.447088 
L 222.279759 157.77506 
L 223.224334 163.528777 
L 223.856634 165.441029 
L 224.489218 166.162753 
L 224.807974 166.04891 
L 225.123356 165.704893 
L 226.067116 162.926124 
L 226.696692 160.671129 
L 227.0119 160.251907 
L 227.643096 157.502276 
L 228.908825 151.698502 
L 229.227385 151.208039 
L 232.066521 139.872096 
L 233.639587 132.279331 
L 233.957137 132.13247 
L 235.217587 127.321153 
L 236.16572 125.098853 
L 236.798051 124.474695 
L 237.427182 124.18027 
L 237.747858 124.241486 
L 238.695746 125.483516 
L 239.005238 126.013487 
L 240.269213 129.524197 
L 240.898918 132.114865 
L 241.850415 136.411511 
L 242.161632 136.7746 
L 244.685744 149.798592 
L 246.267125 158.179876 
L 246.579255 158.647289 
L 247.21022 161.816352 
L 247.84338 164.353122 
L 248.157119 164.592056 
L 248.795139 166.003868 
L 249.10757 166.135637 
L 249.424074 166.77562 
L 249.738842 166.732584 
L 250.053864 167.353446 
L 250.370006 167.699903 
L 250.681604 167.791004 
L 251.313694 167.716674 
L 251.632374 167.356506 
L 252.581376 166.77713 
L 253.210204 166.002989 
L 253.523404 165.516052 
L 253.838686 165.398695 
L 254.471806 163.306633 
L 255.107079 160.603586 
L 255.427544 160.530667 
L 255.739981 160.28865 
L 256.36421 157.041085 
L 256.995855 152.841431 
L 257.309176 152.160262 
L 258.262825 144.516154 
L 259.519504 130.3717 
L 260.780714 113.397843 
L 261.727619 105.185154 
L 263.314812 83.746836 
L 265.514964 66.73719 
L 266.147936 64.520141 
L 267.409766 64.06744 
L 267.726957 64.111652 
L 268.044574 63.985298 
L 268.355328 64.536554 
L 268.677069 64.415203 
L 268.987415 65.388366 
L 269.303023 66.798186 
L 269.618742 66.798186 
L 269.936381 67.998608 
L 270.250616 68.563056 
L 270.881826 70.174163 
L 271.195237 70.896878 
L 271.829118 75.488106 
L 273.406179 90.508309 
L 274.351722 99.483816 
L 275.298414 103.163128 
L 275.613716 105.145119 
L 278.139841 128.156597 
L 278.460788 128.604945 
L 279.403524 134.616346 
L 279.724721 135.479615 
L 280.033441 137.286747 
L 280.980579 140.298021 
L 281.297139 141.030444 
L 281.610047 141.120511 
L 281.926633 141.408536 
L 282.873089 141.764991 
L 283.187843 141.795193 
L 283.508085 142.024294 
L 283.824181 142.013958 
L 284.141174 141.824309 
L 285.397622 139.713671 
L 286.663068 137.056067 
L 286.983807 136.854655 
L 287.291335 136.83736 
L 287.608861 136.978632 
L 288.239432 136.994396 
L 288.56085 137.288799 
L 289.816737 139.322767 
L 290.76565 140.635782 
L 291.711391 142.071523 
L 292.979893 144.120555 
L 293.291323 144.253151 
L 293.607387 144.613366 
L 293.919138 144.732269 
L 294.868947 147.732334 
L 295.4987 149.118 
L 296.758814 150.811007 
L 297.394769 150.906413 
L 298.341664 151.184222 
L 298.969581 151.046908 
L 299.916635 150.39905 
L 300.54646 149.481282 
L 300.863633 149.294951 
L 301.497405 147.90407 
L 302.124622 145.756889 
L 302.44286 145.653527 
L 303.071228 142.848962 
L 303.386714 141.935819 
L 303.703419 141.385077 
L 304.33542 138.358102 
L 305.281495 134.018241 
L 305.917495 131.662616 
L 306.232937 130.725956 
L 306.860633 129.853922 
L 307.189598 129.677956 
L 308.760677 126.006758 
L 309.077237 125.502212 
L 309.387853 125.46635 
L 310.015341 125.04191 
L 310.645618 124.669168 
L 311.278253 124.120473 
L 311.5946 123.414352 
L 311.915687 123.47141 
L 312.546316 121.564154 
L 312.8543 121.482557 
L 313.805301 119.930496 
L 314.118327 119.710643 
L 314.750604 119.101236 
L 315.063381 119.177421 
L 315.390808 119.061665 
L 315.701794 119.496366 
L 316.326885 121.140591 
L 316.642193 122.288473 
L 318.543535 132.958087 
L 319.483097 138.794399 
L 320.43169 144.873857 
L 320.74612 145.846682 
L 322.328367 159.705811 
L 322.953046 162.948071 
L 324.216149 173.85177 
L 324.531663 175.957616 
L 325.478853 185.045141 
L 326.427196 193.273158 
L 327.060069 195.684762 
L 328.011158 200.81726 
L 328.321616 201.321011 
L 328.636898 201.470518 
L 329.269755 201.033045 
L 329.583107 200.41779 
L 329.899368 200.570506 
L 330.528957 197.79639 
L 331.160057 192.96209 
L 331.476129 189.383241 
L 331.794135 189.268864 
L 335.262669 144.882388 
L 335.578377 141.219727 
L 335.897384 138.983333 
L 336.527624 137.707854 
L 337.156893 134.111742 
L 337.79179 132.004317 
L 338.427457 131.628962 
L 339.36869 131.212721 
L 339.997609 131.4148 
L 340.636711 131.920741 
L 340.943456 132.886988 
L 341.578101 136.074768 
L 342.520565 143.06988 
L 342.839873 143.06988 
L 343.470329 145.455546 
L 343.785989 145.582805 
L 344.102879 146.3849 
L 344.414529 148.353419 
L 345.048168 154.194518 
L 345.366538 155.048854 
L 346.005572 163.128051 
L 346.31322 163.50779 
L 346.623291 167.145597 
L 347.257755 170.452783 
L 347.571682 170.975943 
L 347.888677 171.879976 
L 348.202418 174.281406 
L 349.150951 186.149942 
L 349.467088 186.389577 
L 349.78824 189.8041 
L 350.417243 193.648786 
L 350.729247 196.247925 
L 351.674043 200.938366 
L 351.989014 203.368383 
L 352.62093 205.919492 
L 352.936834 206.303867 
L 353.251699 206.145662 
L 353.570195 205.650371 
L 353.888778 204.555651 
L 354.829698 200.019296 
L 355.15217 198.884562 
L 355.463849 198.305129 
L 356.093851 193.617417 
L 357.037877 183.922539 
L 357.356044 183.722201 
L 357.985262 177.511867 
L 358.301709 176.209529 
L 358.616216 174.293729 
L 359.566444 165.51427 
L 359.880119 165.057531 
L 360.825862 157.890434 
L 361.461983 154.597075 
L 362.09753 152.731834 
L 362.408373 151.894866 
L 362.721101 151.545901 
L 363.039678 151.62961 
L 364.613345 153.989237 
L 365.247208 154.577308 
L 366.825256 155.707942 
L 367.143949 155.739494 
L 367.458583 155.98584 
L 368.399345 156.991269 
L 368.718202 157.113999 
L 369.033659 157.45022 
L 369.664128 158.423762 
L 370.296174 159.307829 
L 370.617433 159.882744 
L 370.924137 160.686397 
L 371.242059 160.809089 
L 372.188032 164.465146 
L 372.505042 165.671841 
L 372.820093 166.162244 
L 376.920238 193.884533 
L 377.551524 195.967272 
L 378.814338 198.148888 
L 381.655643 196.807973 
L 382.285281 195.838281 
L 382.607331 195.726199 
L 383.87151 193.020884 
L 384.502761 191.326334 
L 384.815482 190.918282 
L 386.389559 185.943708 
L 387.652093 179.134547 
L 388.604986 172.352851 
L 388.913285 170.833231 
L 389.23894 170.208135 
L 389.867034 165.192648 
L 390.495142 160.044296 
L 390.807143 159.534309 
L 391.131706 157.325108 
L 392.070783 149.407417 
L 392.703882 145.497271 
L 393.971715 140.08463 
L 394.284011 139.402522 
L 395.226867 138.312091 
L 395.549321 138.916211 
L 396.493474 141.81584 
L 397.119595 145.566162 
L 417.634044 163.050252 
L 418.264749 165.966352 
L 418.901278 167.78767 
L 419.213841 168.106545 
L 419.527094 167.932681 
L 419.848284 167.488908 
L 420.159243 166.73152 
L 421.740001 164.503129 
L 422.05217 164.356843 
L 422.370497 164.733466 
L 422.999017 164.979245 
L 423.313631 164.724208 
L 423.634381 164.289612 
L 423.944887 163.63111 
L 424.577658 160.843501 
L 425.20703 156.916033 
L 427.100058 145.107651 
L 428.052966 141.016055 
L 428.368651 140.069352 
L 429.31668 138.394783 
L 429.633486 138.324189 
L 430.259104 138.787639 
L 430.57441 139.181874 
L 431.527851 139.694523 
L 431.843302 139.526344 
L 432.151047 138.785869 
L 432.468425 137.661787 
L 432.781394 137.413969 
L 433.109805 136.185556 
L 433.413725 135.604101 
L 434.04428 133.708136 
L 434.359532 132.263089 
L 434.677801 132.192043 
L 435.306845 129.228708 
L 435.621508 128.514911 
L 435.940533 128.385628 
L 436.573234 128.344199 
L 436.887071 127.950915 
L 437.206398 126.959164 
L 437.516856 126.450005 
L 438.152741 125.958145 
L 440.040324 129.426424 
L 440.672682 129.681922 
L 441.620715 128.874387 
L 441.934606 128.907686 
L 442.249364 129.188562 
L 442.570256 129.133491 
L 442.886457 128.576285 
L 443.196775 128.790201 
L 443.828235 128.565943 
L 444.142983 128.401814 
L 445.406437 129.963786 
L 445.723345 131.077533 
L 446.036371 131.535461 
L 446.683606 134.330141 
L 446.983545 135.632294 
L 447.931666 140.770195 
L 448.255334 141.837434 
L 448.566579 142.347682 
L 448.882008 142.526429 
L 449.508986 142.367223 
L 450.463302 142.294871 
L 450.7726 142.21208 
L 451.09377 142.263848 
L 451.408977 142.466421 
L 452.039681 143.138999 
L 453.295585 144.085566 
L 453.931916 146.043129 
L 455.824182 155.88436 
L 456.450949 163.916667 
L 456.767773 164.192434 
L 457.400686 171.202921 
L 459.923256 181.451862 
L 460.240129 181.649317 
L 460.554259 181.102619 
L 460.870808 180.324197 
L 461.18589 179.037719 
L 461.506049 178.899665 
L 462.764446 172.061374 
L 464.027326 162.31944 
L 464.346485 159.001741 
L 464.659085 158.089735 
L 465.288635 152.787631 
L 466.242593 144.101043 
L 466.867567 138.580423 
L 467.181859 138.580423 
L 467.815753 132.98656 
L 468.760412 126.640582 
L 470.977237 121.621177 
L 471.285834 121.572863 
L 471.607977 121.665047 
L 472.23595 122.463861 
L 473.18671 122.797558 
L 473.494954 123.230835 
L 474.131654 124.845386 
L 474.763043 127.117861 
L 475.704362 131.281067 
L 476.337427 134.581116 
L 477.280802 140.008023 
L 477.598836 140.626223 
L 479.807832 157.013609 
L 480.756775 162.661252 
L 481.067764 164.248192 
L 481.388257 164.497156 
L 482.014788 167.20631 
L 482.330546 168.746831 
L 482.964708 170.915156 
L 483.593666 173.539883 
L 483.911935 174.607705 
L 484.226454 174.985164 
L 484.542395 175.162542 
L 484.855558 175.070102 
L 485.4897 176.329876 
L 485.802044 176.538032 
L 486.43376 176.390446 
L 486.751102 175.990491 
L 487.382323 174.406698 
L 488.327412 170.775855 
L 488.96056 167.047903 
L 490.543815 154.379631 
L 491.802692 141.578494 
L 492.114825 141.155849 
L 493.067908 130.913777 
L 494.329478 119.875642 
L 494.954253 116.46584 
L 495.270627 115.681477 
L 495.587059 115.430111 
L 495.90621 114.725348 
L 496.227794 114.896146 
L 497.485517 119.275855 
L 517.996358 184.769508 
L 518.310424 183.963617 
L 518.947802 182.987524 
L 519.258361 182.841658 
L 519.571752 182.064416 
L 520.207907 180.139871 
L 521.782571 177.329645 
L 522.096583 177.149831 
L 522.41218 177.24632 
L 523.360758 176.873355 
L 523.681581 176.895667 
L 523.990013 176.368035 
L 524.31219 176.136847 
L 524.935997 174.929422 
L 525.573774 174.127863 
L 526.200351 173.885409 
L 526.831788 174.671099 
L 527.462573 175.241549 
L 528.409298 177.135655 
L 529.04999 179.230933 
L 529.355146 179.892646 
L 531.880918 190.745057 
L 533.14332 193.74232 
L 533.471301 194.233405 
L 533.773039 194.103961 
L 535.039655 191.604882 
L 535.668161 188.724644 
L 536.298685 185.135301 
L 537.561029 175.86338 
L 537.88067 175.604727 
L 538.520915 169.179464 
L 539.138269 161.111383 
L 539.76985 152.778354 
L 540.722941 138.672223 
L 540.722941 138.672223 
" clip-path="url(#p3e7221bab8)" style="fill: none; stroke-dasharray: 5.55,2.4; stroke-dashoffset: 0; stroke: #ff7f0e; stroke-width: 1.5"/>
   </g>
   <g id="patch_3">
    <path d="M 46.64 246.04 
L 46.64 41.856 
" style="fill: none; stroke: #000000; stroke-width: 0.8; stroke-linejoin: miter; stroke-linecap: square"/>
   </g>
   <g id="patch_4">
    <path d="M 564.2507 246.04 
L 564.2507 41.856 
" style="fill: none; stroke: #000000; stroke-width: 0.8; stroke-linejoin: miter; stroke-linecap: square"/>
   </g>
   <g id="patch_5">
    <path d="M 46.64 246.04 
L 564.2507 246.04 
" style="fill: none; stroke: #000000; stroke-width: 0.8; stroke-linejoin: miter; stroke-linecap: square"/>
   </g>
   <g id="patch_6">
    <path d="M 46.64 41.856 
L 564.2507 41.856 
" style="fill: none; stroke: #000000; stroke-width: 0.8; stroke-linejoin: miter; stroke-linecap: square"/>
   </g>
   <g id="text_18">
    <!-- Tracking Errors Over Time -->
    <g transform="translate(227.888788 22.418625) scale(0.12 -0.12)">
     <defs>
      <path id="DejaVuSans-61" d="M 2194 1759 
Q 1497 1759 1228 1600 
Q 959 1441 959 1056 
Q 959 750 1161 570 
Q 1363 391 1709 391 
Q 2188 391 2477 730 
Q 2766 1069 2766 1631 
L 2766 1759 
L 2194 1759 
z
M 3341 1997 
L 3341 0 
L 2766 0 
L 2766 531 
Q 2569 213 2275 61 
Q 1981 -91 1556 -91 
Q 1019 -91 701 211 
Q 384 513 384 1019 
Q 384 1609 779 1909 
Q 1175 2209 1959 2209 
L 2766 2209 
L 2766 2266 
Q 2766 2663 2505 2880 
Q 2244 3097 1772 3097 
Q 1472 3097 1187 3025 
Q 903 2953 641 2809 
L 641 3341 
Q 956 3463 1253 3523 
Q 1550 3584 1831 3584 
Q 2591 3584 2966 3190 
Q 3341 2797 3341 1997 
z
" transform="scale(0.015625)"/>
      <path id="DejaVuSans-63" d="M 3122 3366 
L 3122 2828 
Q 2878 2963 2633 3030 
Q 2388 3097 2138 3097 
Q 1578 3097 1268 2742 
Q 959 2388 959 1747 
Q 959 1106 1268 751 
Q 1578 397 2138 397 
Q 2388 397 2633 464 
Q 2878 531 3122 666 
L 3122 134 
Q 2881 22 2623 -34 
Q 2366 -91 2075 -91 
Q 1284 -91 818 406 
Q 353 903 353 1747 
Q 353 2603 823 3093 
Q 1294 3584 2113 3584 
Q 2378 3584 2631 3529 
Q 2884 3475 3122 3366 
z
" transform="scale(0.015625)"/>
      <path id="DejaVuSans-6b" d="M 581 4863 
L 1159 4863 
L 1159 1991 
L 2875 3500 
L 3609 3500 
L 1753 1863 
L 3688 0 
L 2938 0 
L 1159 1709 
L 1159 0 
L 581 0 
L 581 4863 
z
" transform="scale(0.015625)"/>
      <path id="DejaVuSans-6e" d="M 3513 2113 
L 3513 0 
L 2938 0 
L 2938 2094 
Q 2938 2591 2744 2837 
Q 2550 3084 2163 3084 
Q 1697 3084 1428 2787 
Q 1159 2491 1159 1978 
L 1159 0 
L 581 0 
L 581 3500 
L 1159 3500 
L 1159 2956 
Q 1366 3272 1645 3428 
Q 1925 3584 2291 3584 
Q 2894 3584 3203 3211 
Q 3513 2838 3513 2113 
z
" transform="scale(0.015625)"/>
      <path id="DejaVuSans-67" d="M 2906 1791 
Q 2906 2416 2648 2759 
Q 2391 3103 1925 3103 
Q 1463 3103 1205 2759 
Q 947 2416 947 1791 
Q 947 1169 1205 825 
Q 1463 481 1925 481 
Q 2391 481 2648 825 
Q 2906 1169 2906 1791 
z
M 3481 434 
Q 3481 -459 3084 -895 
Q 2688 -1331 1869 -1331 
Q 1566 -1331 1297 -1286 
Q 1028 -1241 775 -1147 
L 775 -588 
Q 1028 -725 1275 -790 
Q 1522 -856 1778 -856 
Q 2344 -856 2625 -561 
Q 2906 -266 2906 331 
L 2906 616 
Q 2728 306 2450 153 
Q 2172 0 1784 0 
Q 1141 0 747 490 
Q 353 981 353 1791 
Q 353 2603 747 3093 
Q 1141 3584 1784 3584 
Q 2172 3584 2450 3431 
Q 2728 3278 2906 2969 
L 2906 3500 
L 3481 3500 
L 3481 434 
z
" transform="scale(0.015625)"/>
      <path id="DejaVuSans-4f" d="M 2522 4238 
Q 1834 4238 1429 3725 
Q 1025 3213 1025 2328 
Q 1025 1447 1429 934 
Q 1834 422 2522 422 
Q 3209 422 3611 934 
Q 4013 1447 4013 2328 
Q 4013 3213 3611 3725 
Q 3209 4238 2522 4238 
z
M 2522 4750 
Q 3503 4750 4090 4092 
Q 4678 3434 4678 2328 
Q 4678 1225 4090 567 
Q 3503 -91 2522 -91 
Q 1538 -91 948 565 
Q 359 1222 359 2328 
Q 359 3434 948 4092 
Q 1538 4750 2522 4750 
z
" transform="scale(0.015625)"/>
      <path id="DejaVuSans-76" d="M 191 3500 
L 800 3500 
L 1894 563 
L 2988 3500 
L 3597 3500 
L 2284 0 
L 1503 0 
L 191 3500 
z
" transform="scale(0.015625)"/>
     </defs>
     <use xlink:href="#DejaVuSans-54"/>
     <use xlink:href="#DejaVuSans-72" x="46.333984"/>
     <use xlink:href="#DejaVuSans-61" x="87.447266"/>
     <use xlink:href="#DejaVuSans-63" x="148.726562"/>
     <use xlink:href="#DejaVuSans-6b" x="203.707031"/>
     <use xlink:href="#DejaVuSans-69" x="261.617188"/>
     <use xlink:href="#DejaVuSans-6e" x="289.400391"/>
     <use xlink:href="#DejaVuSans-67" x="352.779297"/>
     <use xlink:href="#DejaVuSans-20" x="416.255859"/>
     <use xlink:href="#DejaVuSans-45" x="448.042969"/>
     <use xlink:href="#DejaVuSans-72" x="511.226562"/>
     <use xlink:href="#DejaVuSans-72" x="550.589844"/>
     <use xlink:href="#DejaVuSans-6f" x="589.453125"/>
     <use xlink:href="#DejaVuSans-72" x="650.634766"/>
     <use xlink:href="#DejaVuSans-73" x="691.748047"/>
     <use xlink:href="#DejaVuSans-20" x="743.847656"/>
     <use xlink:href="#DejaVuSans-4f" x="775.634766"/>
     <use xlink:href="#DejaVuSans-76" x="854.345703"/>
     <use xlink:href="#DejaVuSans-65" x="913.525391"/>
     <use xlink:href="#DejaVuSans-72" x="975.048828"/>
     <use xlink:href="#DejaVuSans-20" x="1016.162109"/>
     <use xlink:href="#DejaVuSans-54" x="1047.949219"/>
     <use xlink:href="#DejaVuSans-69" x="1105.908203"/>
     <use xlink:href="#DejaVuSans-6d" x="1133.691406"/>
     <use xlink:href="#DejaVuSans-65" x="1231.103516"/>
    </g>
    <!-- mode: pixel, disired distance: 6m -->
    <g transform="translate(205.4666 35.856) scale(0.12 -0.12)">
     <defs>
      <path id="DejaVuSans-64" d="M 2906 2969 
L 2906 4863 
L 3481 4863 
L 3481 0 
L 2906 0 
L 2906 525 
Q 2725 213 2448 61 
Q 2172 -91 1784 -91 
Q 1150 -91 751 415 
Q 353 922 353 1747 
Q 353 2572 751 3078 
Q 1150 3584 1784 3584 
Q 2172 3584 2448 3432 
Q 2725 3281 2906 2969 
z
M 947 1747 
Q 947 1113 1208 752 
Q 1469 391 1925 391 
Q 2381 391 2643 752 
Q 2906 1113 2906 1747 
Q 2906 2381 2643 2742 
Q 2381 3103 1925 3103 
Q 1469 3103 1208 2742 
Q 947 2381 947 1747 
z
" transform="scale(0.015625)"/>
      <path id="DejaVuSans-3a" d="M 750 794 
L 1409 794 
L 1409 0 
L 750 0 
L 750 794 
z
M 750 3309 
L 1409 3309 
L 1409 2516 
L 750 2516 
L 750 3309 
z
" transform="scale(0.015625)"/>
      <path id="DejaVuSans-70" d="M 1159 525 
L 1159 -1331 
L 581 -1331 
L 581 3500 
L 1159 3500 
L 1159 2969 
Q 1341 3281 1617 3432 
Q 1894 3584 2278 3584 
Q 2916 3584 3314 3078 
Q 3713 2572 3713 1747 
Q 3713 922 3314 415 
Q 2916 -91 2278 -91 
Q 1894 -91 1617 61 
Q 1341 213 1159 525 
z
M 3116 1747 
Q 3116 2381 2855 2742 
Q 2594 3103 2138 3103 
Q 1681 3103 1420 2742 
Q 1159 2381 1159 1747 
Q 1159 1113 1420 752 
Q 1681 391 2138 391 
Q 2594 391 2855 752 
Q 3116 1113 3116 1747 
z
" transform="scale(0.015625)"/>
      <path id="DejaVuSans-78" d="M 3513 3500 
L 2247 1797 
L 3578 0 
L 2900 0 
L 1881 1375 
L 863 0 
L 184 0 
L 1544 1831 
L 300 3500 
L 978 3500 
L 1906 2253 
L 2834 3500 
L 3513 3500 
z
" transform="scale(0.015625)"/>
      <path id="DejaVuSans-6c" d="M 603 4863 
L 1178 4863 
L 1178 0 
L 603 0 
L 603 4863 
z
" transform="scale(0.015625)"/>
      <path id="DejaVuSans-2c" d="M 750 794 
L 1409 794 
L 1409 256 
L 897 -744 
L 494 -744 
L 750 256 
L 750 794 
z
" transform="scale(0.015625)"/>
      <path id="DejaVuSans-74" d="M 1172 4494 
L 1172 3500 
L 2356 3500 
L 2356 3053 
L 1172 3053 
L 1172 1153 
Q 1172 725 1289 603 
Q 1406 481 1766 481 
L 2356 481 
L 2356 0 
L 1766 0 
Q 1100 0 847 248 
Q 594 497 594 1153 
L 594 3053 
L 172 3053 
L 172 3500 
L 594 3500 
L 594 4494 
L 1172 4494 
z
" transform="scale(0.015625)"/>
     </defs>
     <use xlink:href="#DejaVuSans-6d"/>
     <use xlink:href="#DejaVuSans-6f" x="97.412109"/>
     <use xlink:href="#DejaVuSans-64" x="158.59375"/>
     <use xlink:href="#DejaVuSans-65" x="222.070312"/>
     <use xlink:href="#DejaVuSans-3a" x="283.59375"/>
     <use xlink:href="#DejaVuSans-20" x="317.285156"/>
     <use xlink:href="#DejaVuSans-70" x="349.072266"/>
     <use xlink:href="#DejaVuSans-69" x="412.548828"/>
     <use xlink:href="#DejaVuSans-78" x="440.332031"/>
     <use xlink:href="#DejaVuSans-65" x="496.386719"/>
     <use xlink:href="#DejaVuSans-6c" x="557.910156"/>
     <use xlink:href="#DejaVuSans-2c" x="585.693359"/>
     <use xlink:href="#DejaVuSans-20" x="617.480469"/>
     <use xlink:href="#DejaVuSans-64" x="649.267578"/>
     <use xlink:href="#DejaVuSans-69" x="712.744141"/>
     <use xlink:href="#DejaVuSans-73" x="740.527344"/>
     <use xlink:href="#DejaVuSans-69" x="792.626953"/>
     <use xlink:href="#DejaVuSans-72" x="820.410156"/>
     <use xlink:href="#DejaVuSans-65" x="859.273438"/>
     <use xlink:href="#DejaVuSans-64" x="920.796875"/>
     <use xlink:href="#DejaVuSans-20" x="984.273438"/>
     <use xlink:href="#DejaVuSans-64" x="1016.060547"/>
     <use xlink:href="#DejaVuSans-69" x="1079.537109"/>
     <use xlink:href="#DejaVuSans-73" x="1107.320312"/>
     <use xlink:href="#DejaVuSans-74" x="1159.419922"/>
     <use xlink:href="#DejaVuSans-61" x="1198.628906"/>
     <use xlink:href="#DejaVuSans-6e" x="1259.908203"/>
     <use xlink:href="#DejaVuSans-63" x="1323.287109"/>
     <use xlink:href="#DejaVuSans-65" x="1378.267578"/>
     <use xlink:href="#DejaVuSans-3a" x="1439.791016"/>
     <use xlink:href="#DejaVuSans-20" x="1473.482422"/>
     <use xlink:href="#DejaVuSans-36" x="1505.269531"/>
     <use xlink:href="#DejaVuSans-6d" x="1568.892578"/>
    </g>
   </g>
   <g id="legend_1">
    <g id="patch_7">
     <path d="M 432.75695 79.21225 
L 557.2507 79.21225 
Q 559.2507 79.21225 559.2507 77.21225 
L 559.2507 48.856 
Q 559.2507 46.856 557.2507 46.856 
L 432.75695 46.856 
Q 430.75695 46.856 430.75695 48.856 
L 430.75695 77.21225 
Q 430.75695 79.21225 432.75695 79.21225 
z
" style="fill: #ffffff; opacity: 0.8; stroke: #cccccc; stroke-linejoin: miter"/>
    </g>
    <g id="line2d_33">
     <path d="M 434.75695 54.954438 
L 444.75695 54.954438 
L 454.75695 54.954438 
" style="fill: none; stroke: #1f77b4; stroke-width: 1.5; stroke-linecap: square"/>
    </g>
    <g id="text_19">
     <!-- Forward Error -->
     <g transform="translate(462.75695 58.454438) scale(0.1 -0.1)">
      <defs>
       <path id="DejaVuSans-46" d="M 628 4666 
L 3309 4666 
L 3309 4134 
L 1259 4134 
L 1259 2759 
L 3109 2759 
L 3109 2228 
L 1259 2228 
L 1259 0 
L 628 0 
L 628 4666 
z
" transform="scale(0.015625)"/>
       <path id="DejaVuSans-77" d="M 269 3500 
L 844 3500 
L 1563 769 
L 2278 3500 
L 2956 3500 
L 3675 769 
L 4391 3500 
L 4966 3500 
L 4050 0 
L 3372 0 
L 2619 2869 
L 1863 0 
L 1184 0 
L 269 3500 
z
" transform="scale(0.015625)"/>
      </defs>
      <use xlink:href="#DejaVuSans-46"/>
      <use xlink:href="#DejaVuSans-6f" x="53.894531"/>
      <use xlink:href="#DejaVuSans-72" x="115.076172"/>
      <use xlink:href="#DejaVuSans-77" x="156.189453"/>
      <use xlink:href="#DejaVuSans-61" x="237.976562"/>
      <use xlink:href="#DejaVuSans-72" x="299.255859"/>
      <use xlink:href="#DejaVuSans-64" x="338.619141"/>
      <use xlink:href="#DejaVuSans-20" x="402.095703"/>
      <use xlink:href="#DejaVuSans-45" x="433.882812"/>
      <use xlink:href="#DejaVuSans-72" x="497.066406"/>
      <use xlink:href="#DejaVuSans-72" x="536.429688"/>
      <use xlink:href="#DejaVuSans-6f" x="575.292969"/>
      <use xlink:href="#DejaVuSans-72" x="636.474609"/>
     </g>
    </g>
    <g id="line2d_34">
     <path d="M 434.75695 69.632563 
L 444.75695 69.632563 
L 454.75695 69.632563 
" style="fill: none; stroke-dasharray: 5.55,2.4; stroke-dashoffset: 0; stroke: #ff7f0e; stroke-width: 1.5"/>
    </g>
    <g id="text_20">
     <!-- Real Forward Error -->
     <g transform="translate(462.75695 73.132563) scale(0.1 -0.1)">
      <defs>
       <path id="DejaVuSans-52" d="M 2841 2188 
Q 3044 2119 3236 1894 
Q 3428 1669 3622 1275 
L 4263 0 
L 3584 0 
L 2988 1197 
Q 2756 1666 2539 1819 
Q 2322 1972 1947 1972 
L 1259 1972 
L 1259 0 
L 628 0 
L 628 4666 
L 2053 4666 
Q 2853 4666 3247 4331 
Q 3641 3997 3641 3322 
Q 3641 2881 3436 2590 
Q 3231 2300 2841 2188 
z
M 1259 4147 
L 1259 2491 
L 2053 2491 
Q 2509 2491 2742 2702 
Q 2975 2913 2975 3322 
Q 2975 3731 2742 3939 
Q 2509 4147 2053 4147 
L 1259 4147 
z
" transform="scale(0.015625)"/>
      </defs>
      <use xlink:href="#DejaVuSans-52"/>
      <use xlink:href="#DejaVuSans-65" x="64.982422"/>
      <use xlink:href="#DejaVuSans-61" x="126.505859"/>
      <use xlink:href="#DejaVuSans-6c" x="187.785156"/>
      <use xlink:href="#DejaVuSans-20" x="215.568359"/>
      <use xlink:href="#DejaVuSans-46" x="247.355469"/>
      <use xlink:href="#DejaVuSans-6f" x="301.25"/>
      <use xlink:href="#DejaVuSans-72" x="362.431641"/>
      <use xlink:href="#DejaVuSans-77" x="403.544922"/>
      <use xlink:href="#DejaVuSans-61" x="485.332031"/>
      <use xlink:href="#DejaVuSans-72" x="546.611328"/>
      <use xlink:href="#DejaVuSans-64" x="585.974609"/>
      <use xlink:href="#DejaVuSans-20" x="649.451172"/>
      <use xlink:href="#DejaVuSans-45" x="681.238281"/>
      <use xlink:href="#DejaVuSans-72" x="744.421875"/>
      <use xlink:href="#DejaVuSans-72" x="783.785156"/>
      <use xlink:href="#DejaVuSans-6f" x="822.648438"/>
      <use xlink:href="#DejaVuSans-72" x="883.830078"/>
     </g>
    </g>
   </g>
  </g>
 </g>
 <defs>
  <clipPath id="p3e7221bab8">
   <rect x="46.64" y="41.856" width="517.6107" height="204.184"/>
  </clipPath>
 </defs>
</svg>
